<svg xmlns="http://www.w3.org/2000/svg" width="132.181" height="117.306" viewBox="0 0 132.181 117.306"><defs><style>.a{fill:#fff;}.b,.d{fill:#231f20;}.c{fill:#5062ff;}.d{stroke:#231f20;}</style></defs><g transform="translate(-5690.93 -3141)"><path class="a" d="M96.928,105.036a7.871,7.871,0,0,1,1.96-5.582c1.566-1.335,3.706-.895,5.506-.093a6.652,6.652,0,0,1,2.876,2.1c1.768,2.444,1.2,6.276.4,9.414A125.2,125.2,0,0,1,103,125.559a2.2,2.2,0,0,1-.724,1.135c-.5.307-7.668-1.215-8.233-1.242-2.908-.16-.522-3.151.437-7.625.383-1.736,1.459-3.245,1.928-4.967C97.119,110.31,96.821,107.733,96.928,105.036Z" transform="translate(5713.643 3067.078)"/><path class="b" d="M101.327,127.625a.933.933,0,0,0,.531-.107,2.79,2.79,0,0,0,.912-1.442,132.751,132.751,0,0,0,4.427-14.835c.7-2.978,1.422-7.251-.491-10.055a6.727,6.727,0,0,0-2.9-2.283c-2.394-1.135-4.287-1.068-5.639.174a8.809,8.809,0,0,0-2,6.1h0v2.283a21.124,21.124,0,0,1-.451,5.421,13.952,13.952,0,0,1-.821,2.19,14.833,14.833,0,0,0-1,2.817,30.32,30.32,0,0,1-1,3.592c-.571,1.749-1,3-.551,4.006a1.728,1.728,0,0,0,1.613.921c.13,0,1,.174,1.773.334a40.228,40.228,0,0,0,5.609.881Zm-.591-28.2a6.6,6.6,0,0,1,2.725.734,5.738,5.738,0,0,1,2.5,1.923c1.563,2.3.912,6.1.28,8.76a131.6,131.6,0,0,1-4.377,14.688,1.73,1.73,0,0,1-.451.828,54.35,54.35,0,0,1-5.619-.961c-1.142-.227-1.7-.334-1.883-.347-.631,0-.771-.227-.8-.294a6.92,6.92,0,0,1,.611-2.671,31.64,31.64,0,0,0,1.072-3.792,12.328,12.328,0,0,1,.891-2.484,17.1,17.1,0,0,0,.9-2.43,23.068,23.068,0,0,0,.5-5.862V105.3h0c0-1.335.321-3.846,1.623-5.061a2.893,2.893,0,0,1,2.023-.815Z" transform="translate(5714.144 3066.908)"/><path class="c" d="M169.975,109.61l14.438,5.687s8.436,55.122,6.246,71.373c0,0-43.944,2.47-57.725-5.128,0,0,7.838-40.993,6.423-48.591-.905-5.4,2.453-12.183,2.274-17.653l14.538-5.341Z" transform="translate(5596.707 3071.253)"/><path class="a" d="M215.205,112.709a12.512,12.512,0,0,1-.4-4.233c.267-1.923-.227-5.982.267-7.451s5.875-5.809,5.475-6.61a2.831,2.831,0,0,0-3.3-.855c-1.175.574-5.595,5.341-5.595,5.341-4.433-2.4-8.893-4.513-13.233-7.05a7.317,7.317,0,0,0-1.562-.748,5.969,5.969,0,0,0-2.123-.134,4.407,4.407,0,0,0-2.15.6c-2.163,1.509,2.123,5.341,3.191,6.77a42.049,42.049,0,0,1,4.126,5.728c.895,1.709,2.39,5.635,3.926,6.583a12.911,12.911,0,0,0,2.484,1.255l1.562,3.151Z" transform="translate(5499.707 3064.947)"/><path class="b" d="M208.167,115.845h.2l7.371-2.31a.654.654,0,0,0,.441-.815,11.885,11.885,0,0,1-.374-4.006,23.035,23.035,0,0,0,0-3.4,16.677,16.677,0,0,1,.174-3.912,16.985,16.985,0,0,1,2.671-3.071c2.257-2.27,3.151-3.231,2.737-4.006a3.472,3.472,0,0,0-4.179-1.162,39.285,39.285,0,0,0-5.435,5.047c-1.6-.855-3.2-1.682-4.807-2.5q-4.006-2-8.012-4.286a7.788,7.788,0,0,0-1.709-.815,6.85,6.85,0,0,0-2.363-.147,4.767,4.767,0,0,0-2.484.708,1.989,1.989,0,0,0-.868,1.415c-.187,1.7,1.7,3.806,3.071,5.341.347.387.654.721.841.961l1.108,1.415a26.813,26.813,0,0,1,2.964,4.22c.2.387.441.881.694,1.442.935,2.03,2.11,4.567,3.458,5.341a14.687,14.687,0,0,0,2.484,1.255l1.4,2.911a.694.694,0,0,0,.614.374Zm6.57-3.418-6.222,1.936-1.335-2.671a.654.654,0,0,0-.387-.347,12.19,12.19,0,0,1-2.35-1.188c-1.015-.628-2.19-3.165-2.964-4.834-.267-.574-.507-1.095-.708-1.5a28.28,28.28,0,0,0-3.111-4.447c-.374-.454-.734-.921-1.095-1.335a13.675,13.675,0,0,0-.895-1.055c-1-1.122-2.871-3.191-2.671-4.286a.614.614,0,0,1,.307-.481,3.726,3.726,0,0,1,1.8-.481,5.635,5.635,0,0,1,1.9.107,7.3,7.3,0,0,1,1.415.694c2.671,1.536,5.341,2.951,8.012,4.313,1.736.895,3.485,1.789,5.221,2.671a.668.668,0,0,0,.8-.134,44.872,44.872,0,0,1,5.341-5.128,2.337,2.337,0,0,1,2.31.4,21.817,21.817,0,0,1-2.39,2.671,13.754,13.754,0,0,0-3.018,3.592,16.025,16.025,0,0,0-.24,4.366,22.34,22.34,0,0,1,0,3.2A11.844,11.844,0,0,0,214.737,112.426Z" transform="translate(5499.414 3064.775)"/><path class="a" d="M209.474,96.43a20.764,20.764,0,0,0-7.3,2.484" transform="translate(5497.198 3066.792)"/><path class="b" d="M202.336,99.747a.708.708,0,0,0,.361-.107,20.029,20.029,0,0,1,7.037-2.377.667.667,0,1,0-.174-1.322,21.364,21.364,0,0,0-7.6,2.577.668.668,0,0,0-.187.921.641.641,0,0,0,.561.307Z" transform="translate(5497.032 3066.627)"/><line class="a" x1="7.731" y1="6.049" transform="translate(5696.832 3157.597)"/><path class="b" d="M211.681,99.112a.673.673,0,0,0,.4-1.2l-7.718-6.049a.668.668,0,1,0-.815,1.055l7.718,6.049a.681.681,0,0,0,.414.147Z" transform="translate(5492.881 3065.201)"/><line class="a" x1="7.531" y1="7.184" transform="translate(5693.88 3157.464)"/><path class="b" d="M213.775,100.143a.673.673,0,0,0,.494-1.148l-7.544-7.184a.641.641,0,0,0-.935,0,.668.668,0,0,0,0,.948l7.544,7.184A.681.681,0,0,0,213.775,100.143Z" transform="translate(5487.636 3065.172)"/><path class="a" d="M201.739,96.86s-3.859,4.633-2.978,8.225" transform="translate(5509.661 3066.939)"/><path class="b" d="M198.914,105.914h.174a.654.654,0,0,0,.481-.8c-.8-3.231,2.791-7.6,2.831-7.638a.668.668,0,0,0-1.028-.855c-.16.2-4.006,4.927-3.1,8.813A.668.668,0,0,0,198.914,105.914Z" transform="translate(5509.508 3066.777)"/><path class="c" d="M95.851,115.694l19.477,16.2,8.893-23.461L134,115.414s-2.6,27.507-5.585,35.358S103,148.582,94.41,138.113Z" transform="translate(5685.345 3070.842)"/><path class="c" d="M193.258,118.539l-13.935,8.41-9.458-22.239-10.525,3.428s6.816,38.945,14.375,38.3,34.8-12,34.8-12Z" transform="translate(5545.1 3067.981)"/><path class="b" d="M136.185,168.857c.243,0,.44-.3.44-.668.114-14.688-3.149-47.483-3.184-47.817a.779.779,0,0,0-.174-.438.334.334,0,0,0-.327-.122.7.7,0,0,0-.369.761c0,.334,3.289,33.048,3.175,47.6,0,.371.2.674.44.681Z" transform="matrix(1, -0.017, 0.017, 1, 5648.175, 3082.461)"/><path class="b" d="M.445,10.6h0c4.114-.088,24.519-8.987,25.427-9.376a.518.518,0,0,0,.263-.305.831.831,0,0,0,.028-.473.613.613,0,0,0-.218-.371A.337.337,0,0,0,25.6.029C25.382.117,4.441,9.267.454,9.342.2,9.342,0,9.623,0,9.97s.2.628.454.628Z" transform="matrix(0.999, 0.035, -0.035, 0.999, 5721.268, 3202.919)"/><path class="b" d="M10.366,21.7a.425.425,0,0,0,.227-.065.518.518,0,0,0,.243-.313.57.57,0,0,0-.036-.408L.93.29A.507.507,0,0,0,.638.024a.457.457,0,0,0-.379.04A.575.575,0,0,0,.051.785L9.922,21.41a.49.49,0,0,0,.444.291Z" transform="matrix(0.996, 0.087, -0.087, 0.996, 5716.463, 3176.401)"/><path class="d" d="M103.075,80.067h.063a.268.268,0,0,0,.195-.321L93.484,40.418a.263.263,0,0,0-.315-.195.268.268,0,0,0-.195.321L102.8,79.867A.258.258,0,0,0,103.075,80.067Z" transform="translate(5719.259 3105.851)"/><path class="a" d="M94.628,98.853c1.936-1.188,4.447,0,6.236,1.335a4.366,4.366,0,0,1,1.335,1.522,1.629,1.629,0,0,1-.334,1.883,2.43,2.43,0,0,1-2.136.107l-4.353-1.162a12.245,12.245,0,0,1,2.163,4.527,4.687,4.687,0,0,1,0,2.777,2.136,2.136,0,0,1-2.19,1.429" transform="translate(5719.142 3066.994)"/><path class="b" d="M96.015,112.177a2.871,2.871,0,0,0,2.524-1.883,5.488,5.488,0,0,0,0-3.178,13.26,13.26,0,0,0-1.335-3.271l2.671.708a3.058,3.058,0,0,0,2.671-.227,2.257,2.257,0,0,0,.521-2.671,4.98,4.98,0,0,0-1.549-1.789c-1.242-.961-4.393-3.031-7-1.415a.654.654,0,0,0-.214.921.641.641,0,0,0,.908.214c1.909-1.162,4.46.547,5.475,1.335a3.766,3.766,0,0,1,1.162,1.269,1,1,0,0,1-.134,1.095,1.936,1.936,0,0,1-1.549,0l-4.353-1.148a.628.628,0,0,0-.721.267.668.668,0,0,0,0,.774A11.763,11.763,0,0,1,97.27,107.4a4.006,4.006,0,0,1,0,2.377,1.469,1.469,0,0,1-1.442,1.015.677.677,0,1,0-.227,1.335Z" transform="translate(5718.783 3066.822)"/><path class="a" d="M122.479,43.3s-4.537,2.606-16.819,2.491l1.12,8.575a57.515,57.515,0,0,0,17.939-2.11,9.824,9.824,0,0,1-2.362-3.524C121.542,46.569,122.479,43.3,122.479,43.3Z" transform="translate(5688.861 3102.767)"/><path class="d" d="M108.6,54.326a57.468,57.468,0,0,0,15.87-2.171.19.19,0,0,0,.069-.324,9.768,9.768,0,0,1-2.309-3.429c-.792-2.08.118-5.284.126-5.333a.187.187,0,0,0-.065-.2.19.19,0,0,0-.213,0c-.046.027-4.663,2.583-16.72,2.465a.152.152,0,0,0-.145.065.206.206,0,0,0-.05.152l1.12,8.575a.19.19,0,0,0,.179.164C106.489,54.273,107.277,54.326,108.6,54.326Zm15.447-2.442a58.14,58.14,0,0,1-17.406,2.023l-1.07-8.2c10.225.069,15-1.722,16.312-2.328a9.764,9.764,0,0,0,0,5.143,10.068,10.068,0,0,0,2.164,3.356Z" transform="translate(5689.168 3103.056)"/><path class="a" d="M143.935,93.759A2.911,2.911,0,0,1,146.1,92.61a1.522,1.522,0,0,1,1.042.361,2.163,2.163,0,0,1,.561,1.255,8.852,8.852,0,0,1,0,3.792,5.875,5.875,0,0,1-1.936,3.218c-1.095.868-2.6,1.068-3.2-.441A6.85,6.85,0,0,1,143.935,93.759Z" transform="translate(5627.581 3065.508)"/><path class="b" d="M144.252,102.722a3.445,3.445,0,0,0,2.11-.815,6.543,6.543,0,0,0,2.177-3.579,9.694,9.694,0,0,0,0-4.006,2.671,2.671,0,0,0-.761-1.629,2.176,2.176,0,0,0-1.5-.534h0a3.565,3.565,0,0,0-2.671,1.335h0a7.558,7.558,0,0,0-1.509,7.718,2.283,2.283,0,0,0,1.549,1.455A2.149,2.149,0,0,0,144.252,102.722Zm2.056-9.347h0a.9.9,0,0,1,.6.187,1.656,1.656,0,0,1,.347.881,8.438,8.438,0,0,1,0,3.525,5.341,5.341,0,0,1-1.723,2.844,1.829,1.829,0,0,1-1.509.494.988.988,0,0,1-.654-.668,6.276,6.276,0,0,1,1.335-6.356h0a2.283,2.283,0,0,1,1.576-.855Z" transform="translate(5627.397 3065.358)"/><path class="a" d="M146.254,103.521c-2.671-2.991-4.006-8.719-3.619-12.378.427-4.3,4.487-10.482,9.614-8.252a2.871,2.871,0,0,0,1.215.374c.641,0,1.108-.574,1.576-1.028,2.257-2.163,5.822-2.243,8.88-1.549a15.663,15.663,0,0,1,8.96,5.208,10.375,10.375,0,0,1,2.243,6.409c0,2.1-1.108,3.739-1.335,5.782-.361,3.312,0,8.332-3.766,9.908-4.26,1.816-10.442-.107-14.755-.921-2.524-.467-6.236-1.135-8.265-2.817a7.747,7.747,0,0,1-.748-.734Z" transform="translate(5599.771 3061.37)"/><path class="b" d="M165.978,109.578a11.416,11.416,0,0,0,4.527-.8c3.512-1.482,3.806-5.541,4.006-8.8a15.906,15.906,0,0,1,.147-1.656,12.141,12.141,0,0,1,.614-2.444,10.949,10.949,0,0,0,.721-3.392,11.1,11.1,0,0,0-2.39-6.837,16.344,16.344,0,0,0-9.347-5.448c-2.323-.521-6.676-1-9.494,1.723l-.187.187c-.334.334-.654.641-.948.654a2.19,2.19,0,0,1-.694-.227l-.227-.093a5.849,5.849,0,0,0-5.475.334,11.844,11.844,0,0,0-5.074,8.479c-.387,3.859.921,9.734,3.792,12.886h0a7.572,7.572,0,0,0,.815.788c2.1,1.749,5.7,2.43,8.332,2.924h.24l2.39.507A40.325,40.325,0,0,0,165.978,109.578Zm-5.087-28.442A15.2,15.2,0,0,1,164,81.5a15.008,15.008,0,0,1,8.572,4.981,8.631,8.631,0,0,1,1.456,8.973,14.02,14.02,0,0,0-.681,2.671c0,.534-.093,1.108-.134,1.709-.227,3.044-.481,6.5-3.231,7.665-3.311,1.415-8.092.374-11.924-.454l-2.444-.507h-.227c-2.5-.467-5.9-1.108-7.731-2.671a6.279,6.279,0,0,1-.681-.654c-2.577-2.844-3.806-8.372-3.445-11.871a10.482,10.482,0,0,1,4.42-7.451,4.513,4.513,0,0,1,4.26-.267l.2.093a2.444,2.444,0,0,0,1.335.347,2.831,2.831,0,0,0,1.829-1.028l.174-.174A7.371,7.371,0,0,1,160.891,81.136Zm-14.408,22.553Z" transform="translate(5599.543 3061.202)"/><path class="a" d="M161.064,111.618l2.043,9.8s-3.058,6.222-9.561,4.66-7.611-6.543-7.611-6.556l-.641-10.509-.4-6.476a7.2,7.2,0,0,1-.12-1.99c.214-.668.975-1.175,1.335-1.723a16.582,16.582,0,0,0,1.536-2.671,21.363,21.363,0,0,0,1.9-5.768,10.215,10.215,0,0,0,6.85-2.136c.734,1.215-1.429,2.444-1.255,3.859,2.35-.427,5.341-1.255,7-3.018.828-.107,4.139,5.622,4.66,7.9a24.662,24.662,0,0,1,.414,9.067C166.5,111.164,161.064,111.618,161.064,111.618Z" transform="translate(5604.537 3064.049)"/><path class="b" d="M155.81,127.146c5.461,0,8.079-5.234,8.119-5.341a.828.828,0,0,0,0-.441l-1.909-9.107a7.331,7.331,0,0,0,6.076-5.942,25.278,25.278,0,0,0-.441-9.347c-.334-1.536-3.672-8.626-5.341-8.426a.734.734,0,0,0-.4.214,10.869,10.869,0,0,1-5.622,2.671,5.916,5.916,0,0,1,.387-.614c.521-.761,1.175-1.709.547-2.671a.708.708,0,0,0-.454-.32.775.775,0,0,0-.534.134,9.44,9.44,0,0,1-6.4,2,.681.681,0,0,0-.694.547,20.858,20.858,0,0,1-1.856,5.568,16.234,16.234,0,0,1-1.469,2.51,5.342,5.342,0,0,1-.467.507,3.9,3.9,0,0,0-1.028,1.335,4.18,4.18,0,0,0,0,1.723,5.02,5.02,0,0,1,.08.521l1.028,16.985s1.082,5.461,8.119,7.157a9.573,9.573,0,0,0,2.257.334Zm6.81-5.688c-.561,1.015-3.352,5.341-8.693,4.113-6.022-1.442-7.1-6-7.117-6.035l-1.028-16.891a4.39,4.39,0,0,0-.08-.641,4.9,4.9,0,0,1-.08-1.108,2.951,2.951,0,0,1,.694-.868,6.838,6.838,0,0,0,.6-.654,17.1,17.1,0,0,0,1.6-2.671,22.112,22.112,0,0,0,1.843-5.341,10.308,10.308,0,0,0,5.341-1.4l-.134.214a3.458,3.458,0,0,0-.855,2.31.668.668,0,0,0,.267.454.654.654,0,0,0,.521.12,14.047,14.047,0,0,0,6.984-2.844,24.036,24.036,0,0,1,3.926,7.2,24.275,24.275,0,0,1,.414,8.813c-.694,4.46-5.341,4.927-5.608,4.941a.721.721,0,0,0-.481.28.654.654,0,0,0-.107.521Z" transform="translate(5604.329 3063.903)"/><path class="b" d="M157.669,111.36a7.024,7.024,0,0,1-6.276-1.883c-2.871-2.764-2.671-5.087-2.671-5.087a10.762,10.762,0,0,0,7.838,1.816Z" transform="translate(5609.013 3069.471)"/><path class="b" d="M156.489,112.323a6.29,6.29,0,0,0,1.482-.16.668.668,0,0,0,.494-.774l-1.082-5.154a.641.641,0,0,0-.775-.507,10.228,10.228,0,0,1-7.317-1.7.681.681,0,0,0-1.068.481c0,.107-.214,2.671,2.858,5.622a7.7,7.7,0,0,0,5.408,2.19Zm.534-1.335A6.356,6.356,0,0,1,152,109.172a8.172,8.172,0,0,1-2.23-3.3,11.11,11.11,0,0,0,6.449,1.269Z" transform="translate(5608.871 3069.309)"/><path class="a" d="M151.542,93.74s3.592,4.967,2.817,5.875-3.071.414-3.071.414" transform="translate(5608.784 3065.889)"/><path class="b" d="M152.806,101.006a2.924,2.924,0,0,0,2.243-.8c.748-.868-.2-3.125-2.777-6.676a.681.681,0,0,0-.935-.147.654.654,0,0,0-.147.935c1.589,2.2,2.9,4.607,2.791,5.141-.28.307-1.562.28-2.363.107a.668.668,0,0,0-.8.507.694.694,0,0,0,.521.8,7.479,7.479,0,0,0,1.469.134Z" transform="translate(5608.603 3065.727)"/><ellipse class="b" cx="0.841" cy="1.188" rx="0.841" ry="1.188" transform="matrix(-0.999, -0.049, 0.049, -0.999, 5756.983, 3160.618)"/><ellipse class="b" cx="1.188" cy="0.841" rx="1.188" ry="0.841" transform="translate(5763.642 3160.535) rotate(-104.33)"/><path class="b" d="M154.7,105.887a3.392,3.392,0,0,0,2.671-1.108c1.536-1.909.855-4.954.828-5.087a.668.668,0,0,0-.681-.521c-7.838.374-7.865.414-8.119.721a.654.654,0,0,0-.134.547,8.1,8.1,0,0,0,1.415,3.365,5.114,5.114,0,0,0,4.006,2.083Zm2.27-5.341a4.74,4.74,0,0,1-.641,3.392,1.99,1.99,0,0,1-1.669.628A3.792,3.792,0,0,1,151.734,103a6.129,6.129,0,0,1-1.015-2.1c1.309-.12,4.086-.267,6.209-.374Zm-7.064-.227Zm0,0Z" transform="translate(5607.604 3067.715)"/><path class="a" d="M166.258,98.153c.067-2.136-2.11-5.021-4.447-3.7a3.592,3.592,0,0,0-1.536,2.35c-1.028,4.433,2.417,5.929,4.754,6.97" transform="translate(5585.243 3066.017)"/><path class="b" d="M165.145,104.567a.668.668,0,0,0,.628-.387.654.654,0,0,0-.307-.868c-2.39-1.055-5.261-2.35-4.366-6.2a2.978,2.978,0,0,1,1.215-1.923,1.669,1.669,0,0,1,1.8,0,3.832,3.832,0,0,1,1.642,3.071.668.668,0,1,0,1.335,0,5.114,5.114,0,0,0-2.283-4.153,3.031,3.031,0,0,0-3.165,0,4.206,4.206,0,0,0-1.843,2.671c-1.162,4.927,2.671,6.676,5.047,7.691a.588.588,0,0,0,.294.093Z" transform="translate(5585.073 3065.865)"/></g></svg>