<svg xmlns="http://www.w3.org/2000/svg" width="126.219" height="120.424" viewBox="0 0 126.219 120.424"><defs><style>.a{fill:#fff;}.b{fill:#231f20;}.c{fill:#5062ff;}.d{fill:#d1d3d4;}</style></defs><path class="a" d="M229.11,193.742c-5.582-4.115-7.754-11.6-7.663-18.548.046-3.5.68-7.246,3.126-9.753a13.056,13.056,0,0,1,4.232-2.7c4.973-2.162,11.59-2.512,15.041,1.67a15.442,15.442,0,0,1,2.228,4.176q3.111,7.693,5.582,15.63c1.624,5.191,3.385,13.4-3.958,13.859C241.72,198.451,234.032,197.355,229.11,193.742Z" transform="translate(-147.323 -95.152)"/><path class="b" d="M245.2,198.134c-5.4,0-12.006-1.152-16.5-4.455-5.044-3.7-7.876-10.54-7.774-18.776.061-4.537,1.106-7.784,3.2-9.931a13.529,13.529,0,0,1,4.318-2.766c5.075-2.207,11.814-2.537,15.345,1.746a15.652,15.652,0,0,1,2.268,4.242c2.07,5.12,3.953,10.388,5.582,15.655,1.8,5.765,1.918,9.677.35,11.956a5.607,5.607,0,0,1-4.542,2.243C246.742,198.109,245.986,198.134,245.2,198.134Zm-9.423-36.983a18.33,18.33,0,0,0-7.1,1.553,13.012,13.012,0,0,0-4.156,2.674c-2,2.03-2.994,5.176-3.045,9.576-.1,8.043,2.654,14.716,7.561,18.329,5.034,3.7,12.813,4.638,18.426,4.283a5.089,5.089,0,0,0,4.141-2.03c1.472-2.136,1.335-5.9-.416-11.5-1.644-5.252-3.522-10.509-5.582-15.614a15.223,15.223,0,0,0-2.182-4.105A9.612,9.612,0,0,0,235.776,161.151Z" transform="translate(-147.067 -94.881)"/><path class="c" d="M105.3,139.9,89.13,133.231c5.749-12.291,12.235-19.588,16.746-22.445,5.709-4.75,19.867-5.075,32.853-5.582a39.972,39.972,0,0,1,12.351,1.208c15.148,4.187,29.229,26.119,29.229,26.119l-18.385,2.476s2.37,22.186,4.45,49.223c0,0-23.774,5.349-60.895,3.268C105.455,187.518,105.678,143.75,105.3,139.9Z" transform="translate(-82.153 -67.555)"/><path class="a" d="M172.168,80.046l2.03,9.743s-2.162,6.47-8.713,5.79a13.123,13.123,0,0,1-9.56-5.952L153.6,71.714s4.369-3.141,1.614-13.194a31.736,31.736,0,0,0,16.8.086s4.364,10.692,4.258,15.731S172.168,80.046,172.168,80.046Z" transform="translate(-113.907 -44.595)"/><path class="b" d="M166.166,95.642a9.222,9.222,0,0,1-.974-.051,13.532,13.532,0,0,1-9.763-6.089.356.356,0,0,1-.03-.1l-2.329-17.913a.274.274,0,0,1,.107-.249,6.039,6.039,0,0,0,1.766-2.745c.66-1.822,1.147-5.075-.249-10.149a.264.264,0,0,1,.076-.259.254.254,0,0,1,.264-.056,31.777,31.777,0,0,0,16.639.076.254.254,0,0,1,.31.152c.183.441,4.384,10.8,4.278,15.817-.091,4.41-3.126,5.628-4.06,5.9l1.979,9.495a.249.249,0,0,1,0,.137C174.158,89.69,172.1,95.642,166.166,95.642ZM155.91,89.294a12.96,12.96,0,0,0,9.337,5.76c5.988.619,8.16-4.841,8.414-5.546l-2.03-9.672a.264.264,0,0,1,.213-.31c.152-.025,3.781-.726,3.877-5.455.1-4.521-3.552-13.869-4.151-15.4a32.772,32.772,0,0,1-16.264,0c2.3,8.911-1.015,12.291-1.715,12.9Z" transform="translate(-113.644 -44.348)"/><path class="a" d="M153.393,80.044a4.151,4.151,0,0,0-1.7-2.03,7.378,7.378,0,0,0-2.375-.822,3.045,3.045,0,0,0-1.37-.061,2.445,2.445,0,0,0-.858.452,3.207,3.207,0,0,0-1.314,1.807,3.867,3.867,0,0,0,.157,1.827,7.7,7.7,0,0,0,.751,1.862,5.075,5.075,0,0,0,7,1.73" transform="translate(-110.031 -53.736)"/><path class="b" d="M150.777,85.555a5.3,5.3,0,0,1-4.567-2.6,7.612,7.612,0,0,1-.771-1.928,4.06,4.06,0,0,1-.167-1.949,3.471,3.471,0,0,1,1.416-1.964,2.827,2.827,0,0,1,.949-.507,3.268,3.268,0,0,1,1.487.061,7.46,7.46,0,0,1,2.461.853,4.435,4.435,0,0,1,1.807,2.152.254.254,0,0,1-.147.34.264.264,0,0,1-.34-.147,3.867,3.867,0,0,0-1.593-1.9,7.1,7.1,0,0,0-2.294-.787,2.776,2.776,0,0,0-1.248-.066,2.232,2.232,0,0,0-.771.406,3.045,3.045,0,0,0-1.213,1.654,3.608,3.608,0,0,0,.157,1.7,7.25,7.25,0,0,0,.721,1.8,4.806,4.806,0,0,0,6.643,1.639.259.259,0,0,1,.36.086.254.254,0,0,1-.086.355,5.354,5.354,0,0,1-2.8.8Z" transform="translate(-109.78 -53.473)"/><path class="b" d="M182.106,105.531a8.317,8.317,0,0,1-6.78-1.243c-3.156-2.319-3.126-3.918-3.126-3.918s4.841,1.867,8.891.477Z" transform="translate(-123.068 -65.207)"/><path class="b" d="M179.793,105.809a8.119,8.119,0,0,1-4.856-1.548c-3.227-2.37-3.232-4.06-3.227-4.126a.238.238,0,0,1,.112-.2.244.244,0,0,1,.228,0c.051,0,4.806,1.817,8.713.472a.233.233,0,0,1,.208,0,.239.239,0,0,1,.122.162l1.015,4.689a.249.249,0,0,1-.173.294A8.312,8.312,0,0,1,179.793,105.809Zm-7.5-5.283c.2.584.837,1.786,2.938,3.329a8.089,8.089,0,0,0,6.328,1.258l-.9-4.146A14.755,14.755,0,0,1,172.3,100.526Z" transform="translate(-122.827 -64.978)"/><path class="a" d="M178.67,72.2s4.146,4.374,3.507,5.364-2.938.8-2.938.8" transform="translate(-126.255 -51.333)"/><path class="b" d="M179.435,78.379a4.167,4.167,0,0,1-.472,0,.255.255,0,0,1,.046-.507c.594.046,2.243,0,2.7-.685.33-.507-1.553-3.045-3.481-5.075a.249.249,0,0,1,0-.355.254.254,0,0,1,.36,0c1.015,1.056,4.232,4.6,3.552,5.673C181.628,78.263,180.186,78.379,179.435,78.379Z" transform="translate(-126 -51.077)"/><ellipse class="b" cx="0.827" cy="1.167" rx="0.827" ry="1.167" transform="translate(45.584 20.913) rotate(-21.92)"/><ellipse class="b" cx="0.827" cy="1.167" rx="0.827" ry="1.167" transform="translate(54.195 19.51) rotate(-21.92)"/><path class="b" d="M174.279,89.2c-1.522,0-2.923-.9-4.126-2.654a13.524,13.524,0,0,1-1.614-3.3.255.255,0,1,1,.487-.152c0,.066,2.06,6.445,6.089,5.475s3.973-5.643,3.968-5.841a.254.254,0,0,1,.507,0c0,.056.1,5.272-4.354,6.348A4.121,4.121,0,0,1,174.279,89.2Z" transform="translate(-121.26 -56.396)"/><rect class="b" width="57.16" height="73.962" rx="5.21" transform="translate(69.06 19.949)"/><rect class="a" width="50.157" height="64.899" transform="translate(72.561 24.481)"/><path class="b" d="M268.305,144.23H218.148a.233.233,0,0,1-.228-.233V79.1a.228.228,0,0,1,.228-.228h50.157a.233.233,0,0,1,.233.228V144a.239.239,0,0,1-.233.233Zm-49.923-.462h49.69V79.322h-49.69Z" transform="translate(-145.587 -54.618)"/><path class="c" d="M266.515,60.519H259.3a6,6,0,0,0-11.788,0H240.32a1.73,1.73,0,0,0-1.73,1.725v6.034a1.73,1.73,0,0,0,1.73,1.73h26.215a1.73,1.73,0,0,0,1.695-1.73V62.244A1.73,1.73,0,0,0,266.515,60.519Zm-13.108.787a1.522,1.522,0,1,1,1.522-1.522A1.522,1.522,0,0,1,253.408,61.306Z" transform="translate(-155.768 -43.183)"/><path class="d" d="M244.466,107.312H232.353a.239.239,0,0,1-.233-.233V94.133a.239.239,0,0,1,.233-.233h12.113a.233.233,0,0,1,.233.233v12.945A.233.233,0,0,1,244.466,107.312Zm-11.9-.472h11.671V94.367H232.567Z" transform="translate(-152.581 -62.021)"/><path class="c" d="M249.083,98.885a2.157,2.157,0,0,1-.218.3L241.035,107c-.269.269-.477.274-.741,0q-2.207-2.268-4.4-4.567a.431.431,0,0,1,.025-.705l1.106-1.015a.416.416,0,0,1,.66,0l2.6,2.654c.274.274.477.274.746,0l6.089-6.054a.436.436,0,0,1,.726,0c.34.345.685.69,1.015,1.015a3.05,3.05,0,0,1,.213.289Z" transform="translate(-154.356 -63.606)"/><path class="d" d="M287.718,103.112h-17.4a.239.239,0,0,1,0-.472h17.4a.239.239,0,0,1,0,.472Z" transform="translate(-171.297 -66.326)"/><path class="d" d="M283.061,111.127H270.293a.228.228,0,0,1-.233-.233.233.233,0,0,1,.233-.233h12.768a.239.239,0,0,1,.233.233A.233.233,0,0,1,283.061,111.127Z" transform="translate(-171.269 -70.276)"/><path class="d" d="M244.466,142.147H232.353a.239.239,0,0,1-.233-.233v-12.94a.233.233,0,0,1,.233-.233h12.113a.228.228,0,0,1,.233.233v12.94A.233.233,0,0,1,244.466,142.147Zm-11.9-.467h11.671V129.207H232.567Z" transform="translate(-152.581 -79.181)"/><path class="c" d="M249.083,133.716a2.207,2.207,0,0,1-.218.3l-7.83,7.815a.436.436,0,0,1-.741,0q-2.207-2.273-4.4-4.567a.431.431,0,0,1,.025-.705l1.106-1.015a.421.421,0,0,1,.66,0l2.6,2.654c.274.274.477.279.746,0l6.089-6.054a.431.431,0,0,1,.726,0c.34.345.685.685,1.015,1.015a3.04,3.04,0,0,1,.213.289Z" transform="translate(-154.356 -80.762)"/><path class="d" d="M287.689,137.947h-17.4a.233.233,0,0,1,0-.467h17.4a.233.233,0,1,1,0,.467Z" transform="translate(-171.269 -83.486)"/><path class="d" d="M283.061,145.967H270.293a.233.233,0,0,1-.233-.233.228.228,0,0,1,.233-.233h12.768a.233.233,0,0,1,.233.233A.239.239,0,0,1,283.061,145.967Z" transform="translate(-171.269 -87.436)"/><path class="d" d="M244.466,176.967H232.353a.239.239,0,0,1-.233-.233v-12.96a.239.239,0,0,1,.233-.233h12.113a.233.233,0,0,1,.233.233v12.945a.233.233,0,0,1-.233.249Zm-11.9-.467h11.671V164.022H232.567Z" transform="translate(-152.581 -96.322)"/><path class="d" d="M287.718,172.782h-17.4a.238.238,0,0,1,0-.472h17.4a.238.238,0,0,1,0,.472Z" transform="translate(-171.297 -100.641)"/><path class="d" d="M283.061,180.8H270.293a.228.228,0,0,1-.233-.233.233.233,0,0,1,.233-.233h12.768a.239.239,0,0,1,.233.233A.233.233,0,0,1,283.061,180.8Z" transform="translate(-171.269 -104.591)"/><path class="a" d="M104.576,163.521l-7.83,18.573,17.436-15.056,11.1,3.76s-2.476,16.543-17.634,30.513S76.838,212.6,75.94,199.525s8.322-38.435,8.322-38.435" transform="translate(-75.626 -95.115)"/><path class="b" d="M87.711,210.624a14.122,14.122,0,0,1-5.237-.954c-4.192-1.67-6.693-5.369-7.033-10.408-.888-12.981,8.241-38.288,8.332-38.567a.269.269,0,0,1,.507.178c-.091.254-9.18,25.459-8.3,38.328.325,4.826,2.71,8.363,6.7,9.956,6.673,2.654,16.081-.543,24.556-8.348a57.918,57.918,0,0,0,17.512-30.143l-10.738-3.644-17.325,14.96a.264.264,0,0,1-.411-.3l7.835-18.553a.274.274,0,1,1,.507.208l-7.389,17.543,16.523-14.325a.264.264,0,0,1,.259-.051l11.093,3.765a.264.264,0,0,1,.178.284,58.074,58.074,0,0,1-17.715,30.666C100.981,207.3,93.8,210.624,87.711,210.624Z" transform="translate(-75.38 -94.832)"/><path class="b" d="M157.313,119.44l19.821,15.751.538.934,2.634,4.582-5.059-1.527-1.035-.315L154.39,123.119Z" transform="translate(-114.296 -74.6)"/><path class="b" d="M180.062,140.743h-.076L173.9,138.9a.284.284,0,0,1-.086-.046l-19.821-15.731a.264.264,0,0,1-.091-.173.238.238,0,0,1,.051-.183l2.923-3.679a.259.259,0,0,1,.355-.041l19.821,15.731a.208.208,0,0,1,.061.071l3.172,5.516a.254.254,0,0,1,0,.284A.249.249,0,0,1,180.062,140.743Zm-5.973-2.324,5.435,1.644L176.7,135.14,157.11,119.577,154.5,122.86Z" transform="translate(-114.052 -74.382)"/><path class="a" d="M197.916,152.32l2.634,4.582-5.059-1.527Z" transform="translate(-134.54 -90.795)"/><path class="b" d="M200.282,156.938a.2.2,0,0,1-.076,0l-5.075-1.522a.264.264,0,0,1-.173-.173A.279.279,0,0,1,195,155l2.426-3.045a.254.254,0,0,1,.228-.1.269.269,0,0,1,.208.127l2.629,4.567a.239.239,0,0,1-.208.386ZM195.669,155l4.06,1.228-2.111-3.674Z" transform="translate(-134.272 -90.567)"/><rect class="a" width="0.492" height="1.507" rx="0.246" transform="matrix(0.622, -0.783, 0.783, 0.622, 65.074, 65.699)"/><path class="b" d="M204.606,161.122a.507.507,0,0,1-.315-.112l-.8-.634a.506.506,0,0,1,.629-.792l.8.634a.507.507,0,0,1,.188.34.472.472,0,0,1-.107.37h0A.507.507,0,0,1,204.606,161.122ZM204.606,160.614Z" transform="translate(-138.388 -94.319)"/><path class="b" d="M1.167,0H4.613A1.167,1.167,0,0,1,5.78,1.167V13.194H0V1.167A1.167,1.167,0,0,1,1.167,0Z" transform="matrix(0.622, -0.783, 0.783, 0.622, 34.867, 45.051)"/><path class="b" d="M154.634,124.144a.254.254,0,0,1-.157-.051l-9.418-7.485a1.416,1.416,0,0,1-.228-1.994l2.141-2.695a1.421,1.421,0,0,1,1.994-.228l9.418,7.48a.254.254,0,0,1,.041.355l-3.593,4.527a.243.243,0,0,1-.167.091Zm-6.546-12.26h-.107a.908.908,0,0,0-.614.335l-2.141,2.7h0a.913.913,0,0,0,.147,1.284l9.22,7.328,3.278-4.131-9.215-7.323a.918.918,0,0,0-.568-.193Zm-3.045,2.887Z" transform="translate(-109.435 -70.632)"/><path class="b" d="M151.338,127.674a.254.254,0,0,1-.162-.056c-.2-.157-4.912-3.857-5.531-4.44-.715-.675-.365-2.141-.35-2.2a.261.261,0,1,1,.507.122c-.081.34-.208,1.314.2,1.7.6.563,5.445,4.374,5.5,4.41a.264.264,0,0,1,.046.365.274.274,0,0,1-.208.1Z" transform="translate(-109.767 -75.258)"/><path class="a" d="M148.565,119.128a.254.254,0,0,1-.167-.061.259.259,0,0,1-.036-.365l3.6-4.354a.264.264,0,0,1,.37-.036.259.259,0,0,1,.03.37l-3.6,4.349A.249.249,0,0,1,148.565,119.128Z" transform="translate(-111.298 -72.045)"/><path class="a" d="M159.021,154.753a13.158,13.158,0,0,0,.913-3.045s4.349.35,5.262-.984,3.649-10.809,2.735-12.423-4.42-3.857-5.47-4.278-5.338.421-5.338.421l3.37-3.369s5.475,3.227,7.932,3.014,3.161-1.121,1.9-2.593-10.459-5.618-12-5.4-8.353,6.6-8.495,7.51-5.4,18.659-4.278,20.623" transform="translate(-109.864 -77.873)"/><path class="b" d="M158.77,154.771a.243.243,0,0,1-.127-.046.259.259,0,0,1-.1-.355,13.644,13.644,0,0,0,.883-2.938.264.264,0,0,1,.279-.208c1.167.091,4.349.117,5.024-.873.873-1.269,3.552-10.687,2.73-12.143-.888-1.563-4.384-3.786-5.349-4.166-.8-.325-4.014.2-5.186.431a.254.254,0,0,1-.279-.132.264.264,0,0,1,.046-.31l3.369-3.37a.269.269,0,0,1,.32-.041c.051.03,5.42,3.177,7.774,2.984,1.253-.107,2.03-.411,2.228-.853s-.188-.934-.507-1.314c-1.187-1.39-10.3-5.5-11.768-5.313-1.375.183-8.094,6.419-8.277,7.287-.03.188-.223.908-.629,2.4-1.238,4.537-4.521,16.584-3.679,18.055a.264.264,0,0,1-.1.36.269.269,0,0,1-.36-.1c-.832-1.461,1.253-9.733,3.628-18.456.33-1.213.594-2.172.619-2.339.167-1.076,7.1-7.51,8.718-7.729s10.9,3.933,12.235,5.491c.609.71.807,1.335.6,1.852-.269.655-1.167,1.045-2.669,1.177-2.294.2-6.937-2.39-7.911-2.953l-2.634,2.634c1.335-.228,3.821-.589,4.653-.254,1.015.411,4.648,2.7,5.582,4.395s-1.8,11.311-2.745,12.686c-.878,1.279-4.278,1.172-5.272,1.111a12.18,12.18,0,0,1-.9,2.872A.259.259,0,0,1,158.77,154.771Z" transform="translate(-109.613 -77.631)"/><path class="a" d="M165.75,150.216s5.755-.979,7.018-.629,4.912,4.283,4.912,4.283" transform="translate(-119.891 -89.412)"/><path class="b" d="M177.425,153.868a.259.259,0,0,1-.193-.081c-1.015-1.081-3.811-3.938-4.79-4.207s-5.318.365-6.906.634a.264.264,0,0,1-.3-.213.254.254,0,0,1,.213-.3c.238-.041,5.831-1.015,7.135-.629s4.653,3.948,5.034,4.359a.259.259,0,0,1,0,.365A.239.239,0,0,1,177.425,153.868Z" transform="translate(-119.636 -89.151)"/><path class="a" d="M174.05,171.862a14.929,14.929,0,0,0,.771-4.912" transform="translate(-123.979 -98.001)"/><path class="b" d="M173.8,171.873a.264.264,0,0,1-.249-.345,14.986,14.986,0,0,0,.756-4.806.263.263,0,0,1,.523-.056,14.946,14.946,0,0,1-.781,5.024A.269.269,0,0,1,173.8,171.873Z" transform="translate(-123.726 -97.748)"/><path class="a" d="M167.82,167.21c.284-.071,5.125.066,5.4,0" transform="translate(-120.911 -98.119)"/><path class="b" d="M172.272,167.25h-2.03c-1.1,0-2.476-.036-2.644,0a.269.269,0,0,1-.3-.2.254.254,0,0,1,.188-.3,24.722,24.722,0,0,1,2.766,0c1.106,0,2.476.036,2.644,0a.264.264,0,0,1,.3.2.259.259,0,0,1-.183.31A5.8,5.8,0,0,1,172.272,167.25Z" transform="translate(-120.648 -97.88)"/><path class="a" d="M164,157.916s4.141-.913,6.089-.507,5.475,4.633,5.826,4.983" transform="translate(-119.029 -93.25)"/><path class="b" d="M175.627,162.44a.259.259,0,0,1-.183-.076c-.051-.051-.157-.167-.31-.34-.929-1.045-3.765-4.227-5.389-4.567-1.883-.406-5.952.482-5.993.507a.264.264,0,0,1-.31-.2.254.254,0,0,1,.2-.31c.173-.041,4.217-.918,6.216-.507,1.6.345,4,2.867,5.668,4.735.142.162.244.274.289.32a.264.264,0,0,1,0,.37A.269.269,0,0,1,175.627,162.44Z" transform="translate(-118.751 -93.019)"/><path class="a" d="M283.869,206a23.378,23.378,0,0,0,.228-2.436,13.493,13.493,0,0,0-.776-4.968,3.517,3.517,0,0,0-1.116-1.827,1.429,1.429,0,0,0-1.949.142,2.13,2.13,0,0,0-.071,1.857,15.151,15.151,0,0,1,.249,5.151c-.269-2.309-.573-4.709-1.837-6.663a3.121,3.121,0,0,0-1.086-1.111,1.446,1.446,0,0,0-1.492.03c-.644.472-.594,1.426-.507,2.223a26.548,26.548,0,0,1-.091,6.12,17.544,17.544,0,0,0-.386-5.323c-.264-1.142-.782-2.405-1.893-2.766a1.36,1.36,0,0,0-.751-.051,1.477,1.477,0,0,0-.979,1.147,4.963,4.963,0,0,0,0,1.573,23.344,23.344,0,0,1-.188,6.15,14.716,14.716,0,0,0-.2-5.354,4.278,4.278,0,0,0-.812-1.944,1.725,1.725,0,0,0-1.908-.558,1.812,1.812,0,0,0-.924,1.289,6.851,6.851,0,0,0-.056,1.644,15,15,0,0,1-1.127,6.054c-.66,1.6-1.522,3.364-1.355,5.151a5.309,5.309,0,0,0,3.359,4.126,9.794,9.794,0,0,0,5.516.259c6.018-1.193,10.986-4.06,13.118-9.814" transform="translate(-168.687 -112.285)"/><path class="b" d="M270.954,216.2a8.393,8.393,0,0,1-3.1-.543,5.474,5.474,0,0,1-3.517-4.349,10.379,10.379,0,0,1,1.157-4.755l.213-.507a14.746,14.746,0,0,0,1.106-5.952v-.254a5.613,5.613,0,0,1,.071-1.451,1.808,1.808,0,0,1,3.283-.847,3.913,3.913,0,0,1,.766,1.619.949.949,0,0,0-.025-.269v-.127a4.567,4.567,0,0,1,0-1.522,1.73,1.73,0,0,1,1.167-1.345,1.619,1.619,0,0,1,.9.056c1.015.325,1.69,1.319,2.065,2.953a.707.707,0,0,0,.041.173q-.03-.441-.076-.883a2.552,2.552,0,0,1,.624-2.461,1.68,1.68,0,0,1,1.766-.046,3.41,3.41,0,0,1,1.187,1.2A10.95,10.95,0,0,1,280,200.57a15.275,15.275,0,0,0-.31-1.969,2.538,2.538,0,0,1,.117-2.07,1.375,1.375,0,0,1,.918-.543,1.913,1.913,0,0,1,1.4.34,3.806,3.806,0,0,1,1.208,1.959,13.509,13.509,0,0,1,.792,5.075c0,.249-.036.472-.046.68a15.822,15.822,0,0,1-.188,1.781.264.264,0,1,1-.507-.091,15.039,15.039,0,0,0,.183-1.725c0-.208.025-.431.046-.685a12.838,12.838,0,0,0-.766-4.861,3.329,3.329,0,0,0-1.015-1.705,1.4,1.4,0,0,0-1.015-.244.842.842,0,0,0-.573.33,2.123,2.123,0,0,0-.036,1.634,15.28,15.28,0,0,1,.259,5.257.264.264,0,0,1-.259.228h0a.264.264,0,0,1-.259-.233c-.254-2.162-.543-4.613-1.8-6.556a2.862,2.862,0,0,0-1.015-1.015,1.182,1.182,0,0,0-1.208,0c-.507.386-.507,1.228-.411,1.989a27.084,27.084,0,0,1-.1,6.181.269.269,0,0,1-.289.223.259.259,0,0,1-.233-.279,17.046,17.046,0,0,0-.381-5.247c-.33-1.441-.908-2.309-1.715-2.573a1.116,1.116,0,0,0-.609-.046,1.228,1.228,0,0,0-.781.949,4.248,4.248,0,0,0,0,1.365v.127a23.657,23.657,0,0,1-.188,6.221.264.264,0,0,1-.3.213.259.259,0,0,1-.218-.3,14.508,14.508,0,0,0-.2-5.262,4.059,4.059,0,0,0-.756-1.822,1.456,1.456,0,0,0-1.6-.507,1.522,1.522,0,0,0-.776,1.1,5.431,5.431,0,0,0-.061,1.324v.254a15.148,15.148,0,0,1-1.132,6.171l-.213.507a9.871,9.871,0,0,0-1.121,4.511,4.941,4.941,0,0,0,3.2,3.907,9.49,9.49,0,0,0,5.369.249c6.7-1.33,11.047-4.567,12.925-9.642a.269.269,0,1,1,.507.178c-1.949,5.262-6.429,8.627-13.316,9.987a13.088,13.088,0,0,1-2.583.264Z" transform="translate(-168.443 -112.043)"/><line class="a" x1="8.515" y2="6.536" transform="translate(12.605 86.979)"/><path class="b" d="M99.964,209.024a.259.259,0,0,1-.208-.1.264.264,0,0,1,.046-.37l8.52-6.536a.259.259,0,0,1,.365.046.264.264,0,0,1-.046.37l-8.52,6.536A.259.259,0,0,1,99.964,209.024Z" transform="translate(-87.359 -115.245)"/><path class="b" d="M143.416,53.524a.259.259,0,0,1-.254-.2c-.776-3.253-1.522-6.536-2.223-9.769l-.071-.335a16.747,16.747,0,0,1-.558-4.349c.1-1.588,1.264-1.659,2.3-1.624a5.217,5.217,0,0,1,2.192-3.775c3.116-2.152,6.45-1.177,9.672-.233,2.131.624,4.339,1.269,6.414.959a13.7,13.7,0,0,0,3.928-1.467c.447-.223.893-.441,1.345-.644s5.1-2.213,6.232.071a2.248,2.248,0,0,1-.238,1.959,24.23,24.23,0,0,1-2.03,3.41,9.428,9.428,0,0,1,1.761-.908,4.872,4.872,0,0,1,3.628-.091,2.456,2.456,0,0,1,1.172.949c.548.9.31,2.1-.716,3.552a33.459,33.459,0,0,1-2.969,3.644c.3-.157.6-.345.888-.507.969-.609,1.974-1.238,3.121-.939a1.477,1.477,0,0,1,.974.731c.365.771-.279,1.614-.507,1.893a21.637,21.637,0,0,1-6.825,5.836.262.262,0,0,1-.249-.462,21.07,21.07,0,0,0,6.658-5.694c.442-.584.584-1.015.426-1.35a.939.939,0,0,0-.629-.447c-.929-.244-1.791.3-2.71.873a6.668,6.668,0,0,1-2.136,1.015.259.259,0,0,1-.284-.132.264.264,0,0,1,.051-.31,33.2,33.2,0,0,0,3.745-4.43c.893-1.274,1.127-2.273.7-2.984a2,2,0,0,0-.934-.736,4.379,4.379,0,0,0-3.238.1,13.524,13.524,0,0,0-2.958,1.761.259.259,0,0,1-.355-.376,23.884,23.884,0,0,0,2.923-4.608,1.86,1.86,0,0,0,.239-1.522c-.741-1.5-3.948-.538-5.541.178-.447.2-.888.416-1.33.634a14.021,14.021,0,0,1-4.06,1.522c-2.192.325-4.455-.335-6.643-.974-3.253-.949-6.318-1.847-9.226.162a4.709,4.709,0,0,0-1.989,3.623.244.244,0,0,1-.081.183.289.289,0,0,1-.188.071c-1.355-.056-1.949.03-2.03,1.121a16.561,16.561,0,0,0,.543,4.208l.076.339c.7,3.222,1.441,6.506,2.218,9.753a.259.259,0,0,1-.193.315Z" transform="translate(-107.361 -31.078)"/></svg>