<svg xmlns="http://www.w3.org/2000/svg" width="130" height="121.946" viewBox="0 0 130 121.946"><defs><style>.a{fill:#5062ff;}.b{fill:#231f20;}.c{fill:#fff;}</style></defs><g transform="translate(-5996.619 -3300)"><path class="a" d="M230.183,122.884l15.037-5.351c-.639-.9-9.066-20.458-16.993-24.358-6.924-4.578-19.781-3.734-34.313-2.717A44.887,44.887,0,0,0,180.29,93.3c-16.38,6.508-18.719,28.086-18.719,28.086l15.069,5.2s-2.449,29.313-4.757,44.638c0,0,18.879,11.118,60.039,4.3C231.922,175.546,230.253,127.219,230.183,122.884Z" transform="translate(5875.419 3244.215)"/><path class="b" d="M210.86,107.234l6.854,33.226L229.2,102.1Z" transform="translate(5857.642 3239.727)"/><path class="b" d="M217.54,140.6h0a.326.326,0,0,1-.3-.256L210.386,107.1a.32.32,0,0,1,.224-.371l18.342-5.115a.313.313,0,0,1,.313.083.3.3,0,0,1,.077.313l-11.508,38.36A.32.32,0,0,1,217.54,140.6Zm-6.483-33.315,6.54,31.7,10.958-36.6Z" transform="translate(5857.815 3239.907)"/><path class="c" d="M215.849,38.383a7.969,7.969,0,0,0-3.3.575c-1.522.371-1.093.409-2.449-.467-3.2-2.046-7.352-1.125-10.913.128s-7.352,2.781-10.977,1.745a7.122,7.122,0,0,0,4.833,2.314c-2.979,1.739-7.314.4-9.794,2.8a62.014,62.014,0,0,0,7.877,8.247,22.274,22.274,0,0,1-6.176-1.918,37.331,37.331,0,0,0,12.991,9.168,24.712,24.712,0,0,0,11.444,2.461c6.323-.428,12.787-5.4,13.285-11.923C223.01,47.058,221.316,39.143,215.849,38.383Z" transform="translate(5867.6 3263.103)"/><path class="b" d="M208.048,63.595a25.6,25.6,0,0,1-10.421-2.557,37.516,37.516,0,0,1-13.1-9.245.32.32,0,0,1,.371-.505,22.178,22.178,0,0,0,4.987,1.656,62.551,62.551,0,0,1-7.071-7.538.32.32,0,0,1,0-.428c1.445-1.4,3.472-1.6,5.434-1.79a14.845,14.845,0,0,0,3.446-.639,7.346,7.346,0,0,1-3.932-2.27.307.307,0,0,1,0-.377.313.313,0,0,1,.358-.141c3.261.927,6.681-.288,9.993-1.464l.793-.275c3.145-1.112,7.736-2.321,11.188-.1l.511.339c.55.377.543.371,1.279.192l.435-.109c.3-.07.582-.153.857-.243a5.588,5.588,0,0,1,2.557-.339h0c5.46.844,7.448,8.586,7.065,13.573-.537,7.033-7.467,11.8-13.579,12.218C208.834,63.582,208.438,63.595,208.048,63.595ZM186.036,52.5a37.516,37.516,0,0,0,11.847,7.979,24.153,24.153,0,0,0,11.291,2.436c7.512-.511,12.588-6.432,12.991-11.623.364-4.75-1.464-12.109-6.547-12.838h0a4.942,4.942,0,0,0-2.289.32c-.281.09-.582.179-.9.256l-.422.1c-.933.237-1.029.224-1.771-.281l-.5-.332c-3.2-2.071-7.608-.9-10.632.16l-.793.281c-3.024,1.074-6.15,2.18-9.232,1.72a6.745,6.745,0,0,0,3.791,1.438.32.32,0,0,1,.294.243.313.313,0,0,1-.153.352,11.245,11.245,0,0,1-4.686,1.138c-1.828.185-3.561.352-4.833,1.419a62.265,62.265,0,0,0,7.672,7.979.313.313,0,0,1,.083.371.32.32,0,0,1-.339.185A22.831,22.831,0,0,1,186.036,52.5Z" transform="translate(5867.787 3263.323)"/><path class="c" d="M206.654,76.692,206.2,87.714s4.437,6.233,11.239,3.35,7.1-8.484,7.1-8.484l-2.186-21.008S216.64,59.654,216.3,47.98a35.585,35.585,0,0,1-17.978,5.6s-1.176,12.9.588,18.246S206.654,76.692,206.654,76.692Z" transform="translate(5862.302 3259.246)"/><path class="b" d="M213.716,91.95c-4.872,0-7.921-4.188-7.96-4.239a.313.313,0,0,1-.058-.2l.441-10.677c-1.355,0-6.15-.352-7.717-5.115-1.758-5.345-.639-17.844-.6-18.368a.32.32,0,0,1,.307-.294,35.521,35.521,0,0,0,17.805-5.537.313.313,0,0,1,.505.249c.173,5.9,1.758,9.2,3.056,10.939a6.886,6.886,0,0,0,2.781,2.359.32.32,0,0,1,.217.269l2.155,21.021c0,.109-.384,5.882-7.288,8.81a9.321,9.321,0,0,1-3.644.78Zm-7.371-4.507c.569.754,4.661,5.754,10.792,3.152,6.54-2.775,6.9-8.151,6.9-8.209L221.88,61.62c-1.029-.454-5.6-3.037-6.061-13.234A36.768,36.768,0,0,1,198.436,53.7c-.16,1.918-.978,13.049.595,17.837,1.662,5.038,7.18,4.667,7.423,4.648a.318.318,0,0,1,.339.332Z" transform="translate(5862.483 3259.435)"/><path class="c" d="M231.5,72.377a5.754,5.754,0,0,0,4.341-.639,6.144,6.144,0,0,0,2.826-5.319,5.243,5.243,0,0,0-.384-2.282,2.736,2.736,0,0,0-1.669-1.528,4.373,4.373,0,0,0-2.73.441c-1.279.511-1.375,1.221-2.186,2.193.09-.083.173-.352.256-.435" transform="translate(5850.198 3253.991)"/><path class="b" d="M232.729,72.7a5.877,5.877,0,0,1-1.49-.192.329.329,0,0,1,.161-.639,5.364,5.364,0,0,0,4.092-.588,5.8,5.8,0,0,0,2.672-5.051,4.834,4.834,0,0,0-.358-2.142,2.429,2.429,0,0,0-1.464-1.355,4.093,4.093,0,0,0-2.519.428,2.724,2.724,0,0,0-1.47,1.279,9.292,9.292,0,0,1-.556.774l-.058.064a.32.32,0,0,1-.467-.435h0s.045-.083.064-.128a1.08,1.08,0,0,1,.192-.307.486.486,0,0,1,.121-.077l.153-.217a3.344,3.344,0,0,1,1.765-1.534,4.686,4.686,0,0,1,2.928-.448,3.056,3.056,0,0,1,1.873,1.7,5.467,5.467,0,0,1,.416,2.429,6.438,6.438,0,0,1-2.979,5.581,6.01,6.01,0,0,1-3.075.857Z" transform="translate(5850.382 3254.166)"/><path class="b" d="M211.2,96.806a7.755,7.755,0,0,0,6.483-3.2c2.628-3.523,1.969-6.01,1.969-6.01a11.935,11.935,0,0,1-8.215,3.395Z" transform="translate(5857.519 3244.956)"/><path class="b" d="M211.333,96.929h-.345a.32.32,0,0,1-.288-.332l.243-5.792a.307.307,0,0,1,.326-.307,11.8,11.8,0,0,0,7.972-3.293.32.32,0,0,1,.307-.09.332.332,0,0,1,.23.23c0,.1.639,2.672-2.02,6.278A8.043,8.043,0,0,1,211.333,96.929Zm.23-5.8-.211,5.159a7.525,7.525,0,0,0,5.895-3.062,8.486,8.486,0,0,0,1.976-5.147,12.064,12.064,0,0,1-7.634,3.05Z" transform="translate(5857.7 3245.135)"/><path class="c" d="M211.754,65.53s-3.011,6.048-2,6.9,3.408-.109,3.408-.109" transform="translate(5858.116 3252.916)"/><path class="b" d="M210.779,72.926a2.2,2.2,0,0,1-1.438-.428c-1.119-.946,1.189-5.818,1.918-7.295a.326.326,0,0,1,.428-.141.32.32,0,0,1,.147.428c-1.4,2.813-2.557,6.106-2.084,6.515.71.6,2.468.09,3.088-.16a.326.326,0,0,1,.416.179.32.32,0,0,1-.179.416,6.943,6.943,0,0,1-2.3.486Z" transform="translate(5858.298 3253.097)"/><ellipse class="b" cx="0.927" cy="1.311" rx="0.927" ry="1.311" transform="translate(6073.103 3316.372) rotate(-12.23)"/><ellipse class="b" cx="1.316" cy="0.931" rx="1.316" ry="0.931" transform="translate(6065.267 3319.575) rotate(-84.857)"/><path class="b" d="M210.3,85.412a3.075,3.075,0,0,1-2.052-.69c-1.86-1.656-1.681-4.91-1.675-5.044a.32.32,0,0,1,.281-.3c8.414-.985,8.5-.908,8.631-.786a.333.333,0,0,1,.109.243h0a8.119,8.119,0,0,1-.889,3.727,5.242,5.242,0,0,1-3.644,2.781A4.418,4.418,0,0,1,210.3,85.412Zm-3.094-5.428c0,.774.121,3.062,1.451,4.252a2.73,2.73,0,0,0,2.289.479,4.616,4.616,0,0,0,3.2-2.449,7.358,7.358,0,0,0,.8-3.114C213.839,79.23,209.888,79.671,207.209,79.984Zm8.068-1.157Zm0,0Z" transform="translate(5859.19 3248.231)"/><path class="b" d="M215.495,84.282c-1.515,2.826-4.648,3.2-5.965,2.065a3.861,3.861,0,0,1,2.282-2.525A5.377,5.377,0,0,1,215.495,84.282Z" transform="translate(5858.122 3246.369)"/><path class="b" d="M211.192,87.1a3.107,3.107,0,0,1-2.052-.69.307.307,0,0,1-.083-.352,4.047,4.047,0,0,1,2.493-2.717,5.754,5.754,0,0,1,3.9.479.281.281,0,0,1,.166.185.307.307,0,0,1,0,.249,5.242,5.242,0,0,1-3.644,2.781A4.417,4.417,0,0,1,211.192,87.1Zm-1.458-1.029a2.928,2.928,0,0,0,2.1.339,4.558,4.558,0,0,0,3.024-2.155,4.987,4.987,0,0,0-3.146-.3A3.366,3.366,0,0,0,209.734,86.067Z" transform="translate(5858.301 3246.547)"/><path class="b" d="M189.871,108.85c.077.671-4.731,24.652-4.731,24.652" transform="translate(5866.918 3237.292)"/><path class="b" d="M184.945,133.635h-.089a.307.307,0,0,1-.249-.371c1.918-9.488,4.731-23.853,4.731-24.569a.307.307,0,0,1,.281-.345.326.326,0,0,1,.352.288c.07.69-3.938,20.74-4.744,24.748a.307.307,0,0,1-.281.249Z" transform="translate(5867.114 3237.473)"/><rect class="b" width="15.056" height="28.373" rx="3.33" transform="translate(6081.711 3314.74) rotate(5.73)"/><path class="b" d="M240.1,89.535h-.249l-10.741-1.08a2.449,2.449,0,0,1-2.193-2.679l2.41-24.02A2.455,2.455,0,0,1,232,59.563l10.741,1.08a2.449,2.449,0,0,1,2.193,2.685l-2.41,24A2.449,2.449,0,0,1,240.1,89.535ZM231.785,60.2a1.777,1.777,0,0,0-1.144.409A1.809,1.809,0,0,0,230,61.833l-2.41,23.994a1.816,1.816,0,0,0,1.624,1.982l10.741,1.08h0a1.809,1.809,0,0,0,1.982-1.624l2.41-23.988a1.822,1.822,0,0,0-1.624-1.988l-10.741-1.08Z" transform="translate(5851.856 3255.073)"/><path class="c" d="M269.82,112.046s4.418,9.251,5.268,12.882c2.64,11.252-7.461,26.123-19.7,18.643-4.015-2.449-6.707-6.617-8.49-10.964a95.517,95.517,0,0,1-6.393-29.486c-.313-4.475.518-12.07-5-13.95-1.777-.639-3.836,1.323-4.251.518-.7-1.387,1.765-4.642,5.645-2.864,0,0-2.7-2.781-5.473-1.995s-1.586-1.988.173-2.608c1.592-.563,5.3-.083,6.6,2.519,0,0-1.221-4.066-3.376-4.514s-2.871-1.023-2.743-1.669c.217-1.132,2.206-.869,3.382-.639s4.3,1.963,5.115,4.226c0,0-1.049-3.58-3.689-5.242-1.649-1.042-3-.9-2.653-1.438s2.263-1.918,4.693-.147,5.645,7.435,5.645,7.435,0-3.913.345-3.836c1.86.467,2.826,5.019,3.082,6.489a30.778,30.778,0,0,0,3.337,9.162c3.011,6.067,6.591,14.564,9.289,20.759" transform="translate(5850.818 3249.702)"/><path class="b" d="M261.817,145.734a13,13,0,0,1-6.777-2.065c-3.593-2.193-6.489-5.933-8.618-11.118A95.237,95.237,0,0,1,240,102.97c-.051-.722-.07-1.515-.1-2.353-.115-4.373-.256-9.807-4.686-11.322a4,4,0,0,0-2.608.4c-.786.307-1.515.595-1.828-.038a2.567,2.567,0,0,1,.748-2.621,4.213,4.213,0,0,1,3.682-1.183,5.026,5.026,0,0,0-3.887-.9c-1.445.384-1.918-.134-2.007-.5-.281-.876.742-2.276,1.988-2.717a6.815,6.815,0,0,1,5.645,1.061c-.543-1.061-1.355-2.231-2.385-2.442-1.394-.294-3.2-.818-2.986-2.046.294-1.554,2.9-1.055,3.753-.9a9.161,9.161,0,0,1,3.395,1.854,7.672,7.672,0,0,0-2.225-2.289,7.992,7.992,0,0,0-1.918-.844c-.492-.16-.818-.262-.921-.55a.537.537,0,0,1,.083-.486A3.088,3.088,0,0,1,235.662,74a4.117,4.117,0,0,1,3.2.882c1.854,1.362,4.1,4.827,5.115,6.54.058-2.634.313-2.832.416-2.915a.467.467,0,0,1,.32-.07c2.078.524,3.062,5.294,3.312,6.745a30.6,30.6,0,0,0,3.305,9.078c2.429,4.891,5.2,11.291,7.634,16.929l1.669,3.836a.32.32,0,0,1-.166.422.326.326,0,0,1-.422-.166l-1.662-3.836c-2.436-5.639-5.2-12.019-7.621-16.9a30.943,30.943,0,0,1-3.363-9.251c-.441-2.513-1.375-5.53-2.621-6.15a26.07,26.07,0,0,0-.173,3.433.32.32,0,0,1-.595.153c-.032-.051-3.2-5.607-5.562-7.327a3.478,3.478,0,0,0-2.653-.774,2.64,2.64,0,0,0-1.451.761l.441.153a8.765,8.765,0,0,1,2.059.908c2.711,1.707,3.778,5.274,3.836,5.421a.335.335,0,0,1-.639.2c-.742-2.142-3.766-3.836-4.84-4.009-1.828-.352-2.9-.217-3.011.384-.1.486.793.94,2.493,1.279,2.321.479,3.567,4.565,3.619,4.737a.32.32,0,0,1-.588.23c-1.2-2.4-4.705-2.89-6.208-2.359-1,.358-1.739,1.477-1.6,1.918.077.237.55.269,1.227.077,2.928-.825,5.671,1.963,5.792,2.078a.326.326,0,0,1,0,.409.313.313,0,0,1-.39.109,3.827,3.827,0,0,0-4.6.543,1.9,1.9,0,0,0-.639,1.886c.121.083.69-.141,1.029-.275a4.519,4.519,0,0,1,3.043-.4c4.852,1.656,5.006,7.339,5.115,11.9,0,.831.045,1.618.1,2.327a94.516,94.516,0,0,0,6.393,29.409c2.078,5.057,4.891,8.695,8.362,10.817,4.379,2.672,8.906,2.615,12.742-.166,5.147-3.721,7.992-11.687,6.476-18.138-.831-3.555-5.2-12.723-5.242-12.787a.32.32,0,0,1,.575-.281c.179.384,4.443,9.321,5.294,12.946,1.592,6.79-1.279,14.877-6.726,18.8a11.271,11.271,0,0,1-6.636,2.231Z" transform="translate(5851.003 3249.879)"/><circle class="c" cx="1.196" cy="1.196" r="1.196" transform="translate(6087.675 3318.446)"/><path class="b" d="M241.858,68.063a1.522,1.522,0,1,1,1.515-1.522A1.522,1.522,0,0,1,241.858,68.063Zm0-2.4a.365.365,0,1,0,0-.019Z" transform="translate(5847.013 3253.1)"/><path class="b" d="M282.882,150.565a.32.32,0,0,1-.294-.192l-5.895-13.88a.32.32,0,1,1,.588-.249l5.895,13.88a.32.32,0,0,1-.166.416.307.307,0,0,1-.128.026Z" transform="translate(5833.909 3227.486)"/><path class="c" d="M138.966,136.694,135.84,152.21l-10.773-12.665s-1.848-3.082-3.03-3.529c-1.407-.524-7.218-.876-9.155-2.461s-2.992-1.918-3.2-.7,5.115,4.4,5.115,4.4-4.232,1.234-5.115.882-3.043-4.916-3.925-4.916c-.454,0-1.407.965-.518,2.973-.761-1.918-1.848-4.079-2.768-4.079s-.876,1.618-.3,3.772c0,0-2.321-3.778-3.2-1.451-.831,2.135,5.281,9.686,6.687,10.037S116.4,142,116.4,142s11.329,32.331,27.772,36.55c4.092,1.049,9.858-36.659,9.858-36.659Z" transform="translate(5898.023 3228.903)"/><path class="b" d="M144.185,178.709a.876.876,0,0,1-.256-.032c-6.9-1.771-13.72-8.5-20.247-20a117.575,117.575,0,0,1-7.627-16.456c-1.777.531-9.27,2.711-10.619,2.378-1.2-.294-4.673-4.424-6.2-7.365-.735-1.419-.972-2.436-.716-3.094a1.279,1.279,0,0,1,1.036-.959,2.631,2.631,0,0,1,1.848,1.119,3.237,3.237,0,0,1,.2-2.334.9.9,0,0,1,.735-.352h0c.639,0,1.387.761,2.161,2.25a1.79,1.79,0,0,1,.249-.563,1.138,1.138,0,0,1,.876-.582c.639,0,1.317,1.042,2.4,2.743a9.747,9.747,0,0,0,1.637,2.193c.467.192,2.557-.249,4.2-.69-1.662-1.042-4.795-3.2-4.629-4.335a1.068,1.068,0,0,1,.639-.953c.639-.243,1.528.192,3.069,1.451,1.24,1.017,4.283,1.522,6.508,1.918a18.135,18.135,0,0,1,2.557.524c1.247.473,2.992,3.337,3.2,3.663l10.312,12.147,3-14.871a.332.332,0,0,1,.153-.217.339.339,0,0,1,.262,0l15.069,5.2a.32.32,0,0,1,.211.352c-.211,1.387-5.242,34.031-9.341,36.736a1.17,1.17,0,0,1-.69.134ZM116.24,141.5a.313.313,0,0,1,.3.217c.115.32,11.463,32.216,27.549,36.346a.5.5,0,0,0,.4-.1c3.069-2.027,7.218-24.294,9.021-36.039l-14.474-4.987-3.05,15.158a.307.307,0,0,1-.237.243.3.3,0,0,1-.32-.1L124.66,139.569c-.531-.869-2.02-3.1-2.9-3.433a18.04,18.04,0,0,0-2.429-.492c-2.423-.4-5.441-.9-6.815-2.027-1.656-1.355-2.231-1.426-2.429-1.349s-.192.268-.217.448c-.09.607,2.493,2.6,4.955,4.079a.32.32,0,0,1-.077.582c-.722.211-4.386,1.279-5.319.869-.473-.192-1.042-1.055-1.918-2.442-.569-.9-1.528-2.391-1.873-2.449a.639.639,0,0,0-.339.288,2.135,2.135,0,0,0,0,1.918c.051.115.1.23.141.345a.32.32,0,0,1-.588.249c-.058-.128-.1-.249-.147-.364-1.055-2.6-1.918-3.529-2.334-3.529h0a.269.269,0,0,0-.23.1c-.109.141-.416.8.243,3.267a.326.326,0,0,1-.185.377.32.32,0,0,1-.4-.128c-.543-.882-1.573-2.123-2.161-2.052-.185,0-.352.2-.492.55s-.147.953.69,2.557c1.566,3.024,4.929,6.828,5.754,7.033.972.243,6.854-1.336,10.568-2.455a.257.257,0,0,1,.077-.013Z" transform="translate(5898.194 3229.083)"/><line class="c" x2="2.027" y2="2.877" transform="translate(6003.29 3365.092)"/><path class="b" d="M110.675,141.508a.307.307,0,0,1-.262-.134l-2.027-2.877a.313.313,0,0,1,.077-.441.307.307,0,0,1,.441.077L110.931,141a.32.32,0,0,1-.077.448A.3.3,0,0,1,110.675,141.508Z" transform="translate(5894.623 3226.781)"/><path class="c" d="M104.06,138a33.724,33.724,0,0,0,2.314,3.2" transform="translate(5896.162 3226.779)"/><path class="b" d="M106.193,141.333a.313.313,0,0,1-.237-.1A32.489,32.489,0,0,1,103.61,138a.32.32,0,0,1,.09-.441.326.326,0,0,1,.448.1,33.982,33.982,0,0,0,2.276,3.139.313.313,0,0,1-.23.537Z" transform="translate(5896.343 3226.955)"/></g></svg>