<svg xmlns="http://www.w3.org/2000/svg" width="34.077" height="77.868" viewBox="0 0 34.077 77.868"><defs><style>.a{fill:#5062ff;}</style></defs><g transform="translate(-143.968)"><g transform="translate(143.968)"><g transform="translate(0)"><path class="a" d="M156.544,0a8.322,8.322,0,0,0-5.683,2.238,4.337,4.337,0,0,0-6.2,2.42c-.393,1.167-.534,5.263-.584,8.494l-.109,7.16,4.246-5.766c.409-.555.838-1.145,1.265-1.739A8.353,8.353,0,1,0,156.544,0Z" transform="translate(-143.968)"/></g></g><g transform="translate(145.293 19.042)"><g transform="translate(0)"><path class="a" d="M185.432,149.26a13.075,13.075,0,0,0-9.269-12.493,5.428,5.428,0,0,0,.208-1.46,6.51,6.51,0,0,0-2.173-4.66l-.127-.127-6.7-4.873a2.291,2.291,0,0,0-1.348-.438,10.408,10.408,0,0,0-10.392,9.435l-2.952,32.023H161.5v17.368h4.583V166.666h13.309l-1.077-5.777A13.019,13.019,0,0,0,185.432,149.26Zm-8.694,2.126h-2.427a13.132,13.132,0,0,1-13.117-13.117V130.9h4.583v7.37a8.544,8.544,0,0,0,8.534,8.534h2.427Z" transform="translate(-152.68 -125.209)"/></g></g></g></svg>