<svg xmlns="http://www.w3.org/2000/svg" width="37.498" height="37" viewBox="0 0 37.498 37"><defs><style>.a{fill:none;stroke:#000;stroke-linecap:round;stroke-linejoin:round;stroke-width:3px;}.b{fill:#131818;}</style></defs><g transform="translate(-664.5 -76.5)"><g transform="translate(60 8)"><g transform="translate(606 70)"><path class="a" d="M36.5,21.5V34.722A3.672,3.672,0,0,1,32.944,38.5H8.056A3.672,3.672,0,0,1,4.5,34.722V8.278A3.672,3.672,0,0,1,8.056,4.5H27.611" transform="translate(-4.5 -4.5)"/></g><path class="b" d="M24,4.8l5.2,5.2a.564.564,0,0,1,0,.8l-12.6,12.6L11.246,24a1.122,1.122,0,0,1-1.24-1.241L10.6,17.4,23.2,4.8A.564.564,0,0,1,24,4.8Zm9.346-1.321L30.526.665a2.256,2.256,0,0,0-3.184,0L25.3,2.708a.564.564,0,0,0,0,.8l5.2,5.2a.564.564,0,0,0,.8,0l2.042-2.043A2.257,2.257,0,0,0,33.341,3.481Z" transform="translate(608 69.993)"/></g></g></svg>