<svg xmlns="http://www.w3.org/2000/svg" width="62" height="56" viewBox="0 0 62 56"><defs><style>.a{fill:#4e4e4e;}</style></defs><g transform="translate(-344 -211)"><path class="a" d="M62,16.25v36a5.91,5.91,0,0,1-5.812,6H5.813A5.91,5.91,0,0,1,0,52.25v-36a5.91,5.91,0,0,1,5.813-6H16.469l1.489-4.112A5.814,5.814,0,0,1,23.4,2.25h15.2A5.814,5.814,0,0,1,44.03,6.138l1.5,4.112H56.188A5.91,5.91,0,0,1,62,16.25Zm-16.469,18A14.783,14.783,0,0,0,31,19.25a14.783,14.783,0,0,0-14.531,15A14.783,14.783,0,0,0,31,49.25,14.783,14.783,0,0,0,45.531,34.25Zm-3.875,0A10.848,10.848,0,0,1,31,45.25a11.006,11.006,0,0,1,0-22A10.848,10.848,0,0,1,41.656,34.25Z" transform="translate(344 208.75)"/></g></svg>