<svg xmlns="http://www.w3.org/2000/svg" width="151.204" height="273.061" viewBox="0 0 151.204 273.061">
  <g id="그룹_903" data-name="그룹 903" transform="translate(-3666.898 -18057.941)">
    <g id="그룹_371" data-name="그룹 371" transform="translate(3666.898 18057.941)">
      <path id="패스_265" data-name="패스 265" d="M97.636,104.583a6.492,6.492,0,0,1,2.284-5.188c1.825-1.241,4.32-.832,6.417-.087a7.919,7.919,0,0,1,3.351,1.949c2.06,2.271,1.4,5.834.472,8.751a100.3,100.3,0,0,1-5.449,13.654,2.061,2.061,0,0,1-.844,1.055c-.583.285-8.937-1.13-9.595-1.154-3.389-.149-.608-2.929.509-7.088.447-1.614,1.7-3.016,2.247-4.617C97.86,109.486,97.512,107.09,97.636,104.583Z" transform="translate(39.535 -26.066)" fill="#fff"/>
      <path id="패스_266" data-name="패스 266" d="M103.524,125.545a1.49,1.49,0,0,0,.658-.1,2.644,2.644,0,0,0,1.13-1.341,101.583,101.583,0,0,0,5.486-13.79c.869-2.768,1.763-6.74-.608-9.347a8.428,8.428,0,0,0-3.6-2.123c-2.967-1.055-5.313-.993-6.988.161a6.988,6.988,0,0,0-2.483,5.673h0V106.8a14.9,14.9,0,0,1-.559,5.04,11.172,11.172,0,0,1-1.018,2.036A11.742,11.742,0,0,0,94.3,116.5a22.961,22.961,0,0,1-1.241,3.339c-.708,1.626-1.241,2.793-.683,3.724a2.358,2.358,0,0,0,2,.856c.161,0,1.241.161,2.2.31a65.375,65.375,0,0,0,6.951.819Zm-.732-26.215a10.376,10.376,0,0,1,3.376.683,7.249,7.249,0,0,1,3.1,1.787c1.936,2.135,1.13,5.673.348,8.143a100.681,100.681,0,0,1-5.424,13.654,1.552,1.552,0,0,1-.559.77c-.509.074-4.878-.583-6.963-.894-1.415-.211-2.11-.31-2.334-.323-.782,0-.956-.211-.993-.273-.2-.323.31-1.49.757-2.483a24.009,24.009,0,0,0,1.328-3.525,9.78,9.78,0,0,1,1.1-2.309,13.656,13.656,0,0,0,1.117-2.259,16.273,16.273,0,0,0,.621-5.449v-2.06h0c0-1.241.4-3.575,2.011-4.7a4.3,4.3,0,0,1,2.507-.757Z" transform="translate(39.494 -26.188)" fill="#231f20"/>
      <path id="패스_267" data-name="패스 267" d="M203.658,242.208c-.174.571-5.822,9.992-5.822,9.992S191.63,254.049,187,250l4.829-12Z" transform="translate(-170.194 7.723)" fill="#fff"/>
      <path id="패스_268" data-name="패스 268" d="M194.523,253.385a13.653,13.653,0,0,0,3.6-.459.646.646,0,0,0,.348-.273c1.713-2.855,5.71-9.558,5.9-10.141a.608.608,0,0,0-.385-.757L192.128,237.5a.621.621,0,0,0-.782.36l-4.816,12.053a.621.621,0,0,0,.174.7,11.73,11.73,0,0,0,7.82,2.78Zm3.029-1.6c-1.08.248-5.884,1.167-9.682-1.849l4.419-11.072,10.625,3.811C202.021,244.336,199.352,248.767,197.552,251.784Zm6.206-9.458Z" transform="translate(-170.295 7.594)" fill="#231f20"/>
      <path id="패스_269" data-name="패스 269" d="M146.667,248.3l15.118,10.923c-.087,4.344-9.409,3.178-17.986,1.117s-10.29-3.873-10.29-3.873l.211-7.448Z" transform="translate(-61.927 10.208)" fill="#231f20"/>
      <path id="패스_270" data-name="패스 270" d="M155.986,262.944a8.688,8.688,0,0,0,5.238-1.241,2.979,2.979,0,0,0,1.241-2.358.633.633,0,0,0-.261-.509l-15.118-10.923a.571.571,0,0,0-.4-.112l-12.946.72a.6.6,0,0,0-.583.6l-.2,7.448a.608.608,0,0,0,.161.447c.2.2,2.1,1.986,10.6,4.034a56,56,0,0,0,12.264,1.9Zm5.188-3.3a1.664,1.664,0,0,1-.67,1.092c-1.961,1.527-7.832,1.241-16.521-.881-6.765-1.626-9.173-3.091-9.806-3.55l.174-6.579,12.164-.67Z" transform="translate(-61.924 10.087)" fill="#231f20"/>
      <path id="패스_271" data-name="패스 271" d="M144.259,239.167l-.459,12.773s7.547,3.389,12.946-.72l2.346-15.019Z" transform="translate(-72.006 7.289)" fill="#fff"/>
      <path id="패스_272" data-name="패스 272" d="M150.346,254.009a11.171,11.171,0,0,0,6.889-2.172.633.633,0,0,0,.236-.4l2.358-15.019a.621.621,0,0,0-.186-.546.608.608,0,0,0-.559-.161l-14.833,2.967a.633.633,0,0,0-.5.6l-.459,12.76a.6.6,0,0,0,.36.6A18,18,0,0,0,150.346,254.009Zm5.933-3.041c-4.344,3.128-10.191,1.241-11.73.658l.434-11.842,13.48-2.706Z" transform="translate(-72.123 7.168)" fill="#231f20"/>
      <path id="패스_273" data-name="패스 273" d="M210.367,166.166l-42.054-8.316L134.65,261.532a16.583,16.583,0,0,0,16.136,2.631l35.7-70.354-.372,70.466c7.671,3.6,17.378-.509,17.378-.509,6.665-20.99,11.171-97.712,11.171-97.712" transform="translate(-116.218 -11.613)" fill="#231f20"/>
      <path id="패스_274" data-name="패스 274" d="M193.486,266.521a29.033,29.033,0,0,0,10.34-2.048.633.633,0,0,0,.348-.385c6.616-20.828,11.171-97.091,11.233-97.861a.621.621,0,0,0-.583-.658.645.645,0,0,0-.658.583c0,.77-4.555,76.2-11.084,97.29-1.539.583-9.657,3.413-16.248.571l.372-70.057a.621.621,0,0,0-.472-.608.633.633,0,0,0-.708.323l-35.574,70.143a16.136,16.136,0,0,1-15.007-2.358L168.8,158.693l41.52,8.167a.632.632,0,1,0,.236-1.241L168.5,157.3a.608.608,0,0,0-.708.41L134.129,261.407a.621.621,0,0,0,.2.67,17.377,17.377,0,0,0,16.807,2.842.633.633,0,0,0,.31-.285l34.507-68.021L185.6,264.46a.6.6,0,0,0,.348.559A17.615,17.615,0,0,0,193.486,266.521Z" transform="translate(-116.28 -11.749)" fill="#231f20"/>
      <path id="패스_275" data-name="패스 275" d="M218.209,249.867s-1.527,6.852-2.172,7.621-23.05,5.7-24.291,3.066,15.59-12.884,15.59-12.884S213.48,250.736,218.209,249.867Z" transform="translate(-190.554 10.056)" fill="#231f20"/>
      <path id="패스_276" data-name="패스 276" d="M194.759,262.054c6.206,0,20.99-3.066,21.809-4.047s1.924-6.206,2.284-7.882a.608.608,0,0,0-.161-.571.6.6,0,0,0-.546-.174c-4.469.819-10.389-2.11-10.451-2.135a.6.6,0,0,0-.6,0c-15.578,9.52-16.26,12.723-15.826,13.654a2.339,2.339,0,0,0,2,1.03A10.354,10.354,0,0,0,194.759,262.054Zm22.69-11.37a40.232,40.232,0,0,1-1.837,6.5,93.873,93.873,0,0,1-11.717,2.619c-8.441,1.427-11.171,1.005-11.506.571-.509-1.117,6.5-6.653,15.069-11.916C208.7,249.083,213.341,251.081,217.449,250.684Z" transform="translate(-190.601 9.935)" fill="#231f20"/>
      <path id="패스_277" data-name="패스 277" d="M167.367,109.61,181.53,114.9s7.1,51.239,5.064,66.345c0,0-40.85,2.3-53.659-4.766,0,0,7.286-38.107,5.97-45.169a114.308,114.308,0,0,1-1.514-15.168l17.142-6.206Z" transform="translate(-86.388 -23.379)" fill="#5062ff"/>
      <path id="패스_278" data-name="패스 278" d="M213.57,111.175a11.632,11.632,0,0,1-.372-3.935c.248-1.787-.211-5.561.248-6.926s5.462-5.4,5.089-6.144a2.631,2.631,0,0,0-3.066-.794c-1.092.534-5.2,4.965-5.2,4.965-4.121-2.234-8.267-4.2-12.3-6.554a6.8,6.8,0,0,0-1.452-.7,5.548,5.548,0,0,0-1.974-.124,4.1,4.1,0,0,0-2,.559c-2.011,1.4,1.974,4.965,2.967,6.293a39.087,39.087,0,0,1,3.835,5.325c.832,1.589,2.222,5.238,3.649,6.119a12,12,0,0,0,2.309,1.167l1.452,2.929Z" transform="translate(-191.278 -27.926)" fill="#fff"/>
      <path id="패스_279" data-name="패스 279" d="M206.995,114.054h.186l6.852-2.147a.608.608,0,0,0,.41-.757,11.049,11.049,0,0,1-.348-3.724,21.411,21.411,0,0,0,0-3.165,15.5,15.5,0,0,1,.161-3.637,15.789,15.789,0,0,1,2.483-2.855c2.1-2.11,2.929-3,2.545-3.724a3.227,3.227,0,0,0-3.885-1.08,36.519,36.519,0,0,0-5.052,4.692c-1.489-.794-2.979-1.564-4.469-2.321q-3.724-1.862-7.448-3.984a7.238,7.238,0,0,0-1.589-.757,6.368,6.368,0,0,0-2.2-.137,4.431,4.431,0,0,0-2.309.658,1.849,1.849,0,0,0-.807,1.316c-.174,1.576,1.576,3.538,2.855,4.965.323.36.608.67.782.894l1.03,1.316a24.927,24.927,0,0,1,2.756,3.922c.186.36.41.819.645,1.341.869,1.887,1.961,4.245,3.215,4.965A13.652,13.652,0,0,0,205.12,111l1.3,2.706a.645.645,0,0,0,.571.348Zm6.107-3.178-5.784,1.8-1.241-2.483a.608.608,0,0,0-.36-.323,11.332,11.332,0,0,1-2.185-1.1c-.943-.583-2.036-2.942-2.756-4.493-.248-.534-.472-1.018-.658-1.39a26.288,26.288,0,0,0-2.892-4.133c-.348-.422-.683-.856-1.018-1.241a12.7,12.7,0,0,0-.832-.981c-.931-1.043-2.669-2.967-2.482-3.984a.571.571,0,0,1,.285-.447,3.463,3.463,0,0,1,1.676-.447,5.239,5.239,0,0,1,1.763.1,6.789,6.789,0,0,1,1.316.645c2.482,1.427,4.965,2.743,7.448,4.009,1.614.832,3.24,1.663,4.853,2.483a.621.621,0,0,0,.745-.124A41.709,41.709,0,0,1,215.944,94a2.172,2.172,0,0,1,2.147.372,20.278,20.278,0,0,1-2.222,2.483,12.786,12.786,0,0,0-2.805,3.339,14.9,14.9,0,0,0-.223,4.059,20.766,20.766,0,0,1,0,2.979,11.011,11.011,0,0,0,.261,3.649Z" transform="translate(-191.517 -28.05)" fill="#231f20"/>
      <path id="패스_280" data-name="패스 280" d="M208.96,96.43a19.3,19.3,0,0,0-6.79,2.309" transform="translate(-194.326 -26.597)" fill="#fff"/>
      <path id="패스_281" data-name="패스 281" d="M202.289,99.479a.658.658,0,0,0,.335-.1,18.618,18.618,0,0,1,6.541-2.209A.62.62,0,1,0,209,95.941a19.86,19.86,0,0,0-7.063,2.4.621.621,0,0,0-.174.856.6.6,0,0,0,.521.285Z" transform="translate(-194.445 -26.717)" fill="#231f20"/>
      <line id="선_18" data-name="선 18" x1="7.187" y1="5.623" transform="translate(5.486 64.603)" fill="#fff"/>
      <path id="패스_282" data-name="패스 282" d="M211.088,98.59a.626.626,0,0,0,.372-1.117l-7.174-5.623a.621.621,0,1,0-.757.981l7.174,5.623a.633.633,0,0,0,.385.137Z" transform="translate(-198.415 -27.743)" fill="#231f20"/>
      <line id="선_19" data-name="선 19" x1="7.001" y1="6.678" transform="translate(2.743 64.479)" fill="#fff"/>
      <path id="패스_283" data-name="패스 283" d="M213.2,99.542a.626.626,0,0,0,.459-1.067L206.645,91.8a.6.6,0,0,0-.869,0,.621.621,0,0,0,0,.881l7.013,6.678A.633.633,0,0,0,213.2,99.542Z" transform="translate(-203.456 -27.764)" fill="#231f20"/>
      <path id="패스_284" data-name="패스 284" d="M201.52,96.86s-3.587,4.307-2.768,7.646" transform="translate(-182.492 -26.492)" fill="#fff"/>
      <path id="패스_285" data-name="패스 285" d="M198.859,105.243h.161a.608.608,0,0,0,.447-.745c-.745-3,2.594-7.063,2.631-7.1a.621.621,0,0,0-.956-.794c-.149.186-3.724,4.58-2.88,8.192A.621.621,0,0,0,198.859,105.243Z" transform="translate(-182.599 -26.608)" fill="#231f20"/>
      <path id="패스_286" data-name="패스 286" d="M96.421,115.182,123.6,130.239l12.413-21.809,13.654,6.492s-3.624,25.57-7.8,32.868S106.4,145.755,94.41,136.023Z" transform="translate(-1.279 -23.678)" fill="#5062ff"/>
      <path id="패스_287" data-name="패스 287" d="M199.147,117.321l-16.807,7.845L171.455,104.71l-12.115,3.153s7.845,35.823,16.546,35.227,40.055-11.035,40.055-11.035Z" transform="translate(-148.144 -24.581)" fill="#5062ff"/>
      <path id="패스_288" data-name="패스 288" d="M137.674,165.4a.621.621,0,0,0,.621-.621c.161-13.654-4.444-44.139-4.493-44.449a.621.621,0,0,0-.708-.521.633.633,0,0,0-.521.708c0,.31,4.642,30.721,4.481,44.251a.633.633,0,0,0,.621.633Z" transform="translate(-37.269 -20.919)" fill="#231f20"/>
      <path id="패스_289" data-name="패스 289" d="M163.874,138.167h0c5.623-.087,33.514-8.887,34.755-9.272a.618.618,0,0,0-.372-1.179c-.3.087-28.921,9.136-34.37,9.21a.621.621,0,1,0,0,1.241Z" transform="translate(-136.132 -19.022)" fill="#231f20"/>
      <path id="패스_290" data-name="패스 290" d="M196.027,132.324a.571.571,0,0,0,.286-.074.608.608,0,0,0,.261-.832l-12.413-23.782a.621.621,0,0,0-.844-.261.633.633,0,0,0-.261.832l12.413,23.782a.621.621,0,0,0,.559.335Z" transform="translate(-158.206 -23.957)" fill="#231f20"/>
      <path id="패스_291" data-name="패스 291" d="M116.828,134.283h.149a.633.633,0,0,0,.459-.757L94.187,40.692a.621.621,0,0,0-.745-.459.633.633,0,0,0-.459.757l23.187,92.821A.608.608,0,0,0,116.828,134.283Z" transform="translate(32.731 -40.217)" fill="#231f20"/>
      <path id="패스_292" data-name="패스 292" d="M94.628,98.818c1.8-1.1,4.133,0,5.8,1.241a4.059,4.059,0,0,1,1.241,1.415,1.514,1.514,0,0,1-.31,1.75,2.259,2.259,0,0,1-1.986.1l-4.047-1.08a11.382,11.382,0,0,1,2.011,4.208,4.357,4.357,0,0,1,0,2.582,1.986,1.986,0,0,1-2.036,1.328" transform="translate(46.304 -26.127)" fill="#fff"/>
      <path id="패스_293" data-name="패스 293" d="M95.887,111.168a2.669,2.669,0,0,0,2.346-1.75,5.1,5.1,0,0,0,0-2.954,12.325,12.325,0,0,0-1.241-3.041l2.483.658a2.842,2.842,0,0,0,2.483-.211,2.1,2.1,0,0,0,.484-2.483A4.63,4.63,0,0,0,101,99.724c-1.154-.894-4.084-2.818-6.5-1.316a.608.608,0,0,0-.2.856.6.6,0,0,0,.844.2c1.775-1.08,4.146.509,5.089,1.241a3.5,3.5,0,0,1,1.08,1.179.931.931,0,0,1-.124,1.018,1.8,1.8,0,0,1-1.44,0L95.7,101.834a.583.583,0,0,0-.67.248.621.621,0,0,0,0,.72,10.935,10.935,0,0,1,2.023,3.922,3.724,3.724,0,0,1,0,2.209,1.365,1.365,0,0,1-1.341.943.63.63,0,1,0-.211,1.241Z" transform="translate(46.001 -26.25)" fill="#231f20"/>
      <path id="패스_294" data-name="패스 294" d="M160.461,43.3s-14.783,8.49-54.8,8.118l3.649,27.941s29.343,1.887,58.451-6.877A32.012,32.012,0,0,1,160.064,61C157.408,53.95,160.461,43.3,160.461,43.3Z" transform="translate(-33.333 -39.473)" fill="#fff"/>
      <path id="패스_295" data-name="패스 295" d="M116.361,80.278c10.476,0,31.242-.906,51.711-7.075a.621.621,0,0,0,.223-1.055,31.826,31.826,0,0,1-7.522-11.171c-2.582-6.777.385-17.216.41-17.378a.608.608,0,0,0-.211-.658.621.621,0,0,0-.7,0c-.149.087-15.193,8.416-54.479,8.031a.5.5,0,0,0-.472.211.67.67,0,0,0-.161.5l3.649,27.941a.621.621,0,0,0,.583.534C109.484,80.1,112.054,80.278,116.361,80.278Zm50.333-7.956C140.416,80,113.953,79.1,109.981,78.912l-3.488-26.724c33.315.223,48.868-5.61,53.151-7.584-.732,3.116-2.222,11.01,0,16.757a32.806,32.806,0,0,0,7.05,10.935Z" transform="translate(-33.458 -39.585)" fill="#231f20"/>
      <path id="패스_297" data-name="패스 297" d="M143.808,93.678a2.706,2.706,0,0,1,2.011-1.067,1.415,1.415,0,0,1,.968.335,2.011,2.011,0,0,1,.521,1.167,8.23,8.23,0,0,1,0,3.525,5.462,5.462,0,0,1-1.8,2.991c-1.018.807-2.42.993-2.979-.41a6.368,6.368,0,0,1,1.279-6.541Z" transform="translate(-58.336 -27.522)" fill="#fff"/>
      <path id="패스_298" data-name="패스 298" d="M144.068,101.979a3.2,3.2,0,0,0,1.961-.757,6.082,6.082,0,0,0,2.023-3.327,9.012,9.012,0,0,0,0-3.724,2.483,2.483,0,0,0-.708-1.514,2.023,2.023,0,0,0-1.39-.5h0a3.314,3.314,0,0,0-2.483,1.241h0a7.025,7.025,0,0,0-1.4,7.174,2.123,2.123,0,0,0,1.44,1.353A2,2,0,0,0,144.068,101.979Zm1.912-8.689h0a.832.832,0,0,1,.559.174,1.539,1.539,0,0,1,.323.819,7.844,7.844,0,0,1,0,3.277,4.965,4.965,0,0,1-1.6,2.644,1.7,1.7,0,0,1-1.4.459.918.918,0,0,1-.608-.621,5.834,5.834,0,0,1,1.241-5.908h0a2.122,2.122,0,0,1,1.465-.794Z" transform="translate(-58.471 -27.631)" fill="#231f20"/>
      <path id="패스_299" data-name="패스 299" d="M145.995,101.886c-2.483-2.78-3.724-8.105-3.364-11.506.4-4,4.171-9.744,8.937-7.671a2.668,2.668,0,0,0,1.13.348c.6,0,1.03-.534,1.465-.956,2.1-2.011,5.412-2.085,8.254-1.44a14.56,14.56,0,0,1,8.329,4.841,9.644,9.644,0,0,1,2.085,5.958c0,1.949-1.03,3.476-1.241,5.375-.335,3.078,0,7.745-3.5,9.21-3.96,1.688-9.707-.1-13.716-.856-2.346-.434-5.8-1.055-7.683-2.619a7.2,7.2,0,0,1-.7-.683Z" transform="translate(-84.218 -30.502)" fill="#fff"/>
      <path id="패스_300" data-name="패스 300" d="M164.3,107.481a10.613,10.613,0,0,0,4.208-.745c3.264-1.378,3.538-5.151,3.724-8.18a14.792,14.792,0,0,1,.137-1.539,11.285,11.285,0,0,1,.571-2.271,10.177,10.177,0,0,0,.67-3.153,10.315,10.315,0,0,0-2.222-6.355,15.193,15.193,0,0,0-8.689-5.064c-2.16-.484-6.206-.931-8.825,1.6l-.174.174c-.31.31-.608.6-.881.608a2.036,2.036,0,0,1-.645-.211l-.211-.087a5.437,5.437,0,0,0-5.089.31,11.01,11.01,0,0,0-4.717,7.882c-.36,3.587.856,9.049,3.525,11.978h0a7.043,7.043,0,0,0,.757.732c1.949,1.626,5.3,2.259,7.745,2.718h.223l2.222.472A37.486,37.486,0,0,0,164.3,107.481Zm-4.729-26.439a14.126,14.126,0,0,1,2.892.335,13.951,13.951,0,0,1,7.969,4.63,8.023,8.023,0,0,1,1.353,8.341,13.033,13.033,0,0,0-.633,2.483c0,.5-.087,1.03-.124,1.589-.211,2.83-.447,6.045-3,7.125-3.078,1.316-7.522.348-11.084-.422l-2.272-.472h-.211c-2.321-.434-5.486-1.03-7.187-2.483a5.834,5.834,0,0,1-.633-.608c-2.4-2.644-3.538-7.783-3.2-11.035a9.744,9.744,0,0,1,4.109-6.926,4.2,4.2,0,0,1,3.96-.248l.186.087a2.271,2.271,0,0,0,1.241.323,2.632,2.632,0,0,0,1.7-.956l.161-.161A6.852,6.852,0,0,1,159.567,81.042Zm-13.393,20.965Z" transform="translate(-84.397 -30.623)" fill="#231f20"/>
      <path id="패스_301" data-name="패스 301" d="M159.915,109.972l1.9,9.111s-2.842,5.784-8.887,4.332-7.075-6.082-7.075-6.095l-.6-9.769-.372-6.02a6.693,6.693,0,0,1-.112-1.849c.2-.621.906-1.092,1.241-1.6A15.413,15.413,0,0,0,147.44,95.6a19.858,19.858,0,0,0,1.763-5.362,9.5,9.5,0,0,0,6.368-1.986c.683,1.13-1.328,2.271-1.167,3.587,2.185-.4,4.965-1.167,6.5-2.805.77-.1,3.848,5.226,4.332,7.348a22.926,22.926,0,0,1,.385,8.428C164.967,109.55,159.915,109.972,159.915,109.972Z" transform="translate(-79.941 -28.572)" fill="#fff"/>
      <path id="패스_302" data-name="패스 302" d="M155,124.376c5.077,0,7.51-4.866,7.547-4.965a.769.769,0,0,0,0-.41l-1.775-8.465a6.814,6.814,0,0,0,5.648-5.524,23.5,23.5,0,0,0-.41-8.689c-.31-1.427-3.413-8.019-4.965-7.832a.683.683,0,0,0-.372.2,10.1,10.1,0,0,1-5.226,2.483,5.5,5.5,0,0,1,.36-.571c.484-.708,1.092-1.589.509-2.483a.658.658,0,0,0-.422-.3.72.72,0,0,0-.5.124,8.776,8.776,0,0,1-5.946,1.862.633.633,0,0,0-.645.509,19.389,19.389,0,0,1-1.725,5.176,15.094,15.094,0,0,1-1.365,2.334,4.97,4.97,0,0,1-.434.472,3.624,3.624,0,0,0-.956,1.241,3.885,3.885,0,0,0,0,1.6,4.674,4.674,0,0,1,.074.484l.956,15.789s1.005,5.077,7.547,6.653A8.9,8.9,0,0,0,155,124.376Zm6.33-5.288c-.521.943-3.116,4.965-8.081,3.823-5.6-1.341-6.6-5.573-6.616-5.61l-.956-15.7a4.085,4.085,0,0,0-.074-.6,4.555,4.555,0,0,1-.074-1.03,2.743,2.743,0,0,1,.645-.807,6.355,6.355,0,0,0,.559-.608,15.9,15.9,0,0,0,1.49-2.483,20.554,20.554,0,0,0,1.713-4.965,9.582,9.582,0,0,0,4.965-1.3l-.124.2a3.215,3.215,0,0,0-.794,2.147.621.621,0,0,0,.248.422.608.608,0,0,0,.484.112,13.058,13.058,0,0,0,6.492-2.644,22.343,22.343,0,0,1,3.649,6.69,22.565,22.565,0,0,1,.385,8.192c-.645,4.146-4.965,4.58-5.213,4.593a.67.67,0,0,0-.447.261.608.608,0,0,0-.1.484Z" transform="translate(-80.098 -28.677)" fill="#231f20"/>
      <path id="패스_303" data-name="패스 303" d="M157.039,110.869a6.529,6.529,0,0,1-5.834-1.75c-2.669-2.569-2.482-4.729-2.482-4.729a10,10,0,0,0,7.286,1.688Z" transform="translate(-76.06 -24.668)" fill="#231f20"/>
      <path id="패스_304" data-name="패스 304" d="M155.907,111.731a5.847,5.847,0,0,0,1.378-.149.621.621,0,0,0,.459-.72l-1.005-4.791a.6.6,0,0,0-.72-.472,9.508,9.508,0,0,1-6.8-1.576.633.633,0,0,0-.993.447c0,.1-.2,2.483,2.656,5.226a7.162,7.162,0,0,0,5.027,2.036Zm.5-1.241a5.909,5.909,0,0,1-4.667-1.688,7.6,7.6,0,0,1-2.073-3.066,10.327,10.327,0,0,0,6,1.179Z" transform="translate(-76.157 -24.784)" fill="#231f20"/>
      <path id="패스_305" data-name="패스 305" d="M151.524,93.74s3.339,4.617,2.619,5.462-2.855.385-2.855.385" transform="translate(-76.453 -27.248)" fill="#fff"/>
      <path id="패스_306" data-name="패스 306" d="M152.665,100.46a2.718,2.718,0,0,0,2.085-.745c.7-.807-.186-2.9-2.582-6.206a.633.633,0,0,0-.869-.137.608.608,0,0,0-.137.869c1.477,2.048,2.694,4.282,2.594,4.779-.261.285-1.452.261-2.2.1a.621.621,0,0,0-.745.472.645.645,0,0,0,.484.745,6.952,6.952,0,0,0,1.365.124Z" transform="translate(-76.588 -27.365)" fill="#231f20"/>
      <ellipse id="타원_50" data-name="타원 50" cx="0.782" cy="1.105" rx="0.782" ry="1.105" transform="matrix(-0.999, -0.049, 0.049, -0.999, 71.963, 67.412)" fill="#231f20"/>
      <ellipse id="타원_51" data-name="타원 51" cx="1.105" cy="0.782" rx="1.105" ry="0.782" transform="translate(78.153 67.334) rotate(-104.33)" fill="#231f20"/>
      <path id="패스_307" data-name="패스 307" d="M154.315,105.414a3.153,3.153,0,0,0,2.483-1.03c1.427-1.775.794-4.605.77-4.729a.621.621,0,0,0-.633-.484c-7.286.348-7.311.385-7.547.67a.608.608,0,0,0-.124.509,7.534,7.534,0,0,0,1.316,3.128,4.754,4.754,0,0,0,3.724,1.936Zm2.11-4.965a4.406,4.406,0,0,1-.6,3.153,1.849,1.849,0,0,1-1.552.583,3.525,3.525,0,0,1-2.718-1.452,5.7,5.7,0,0,1-.943-1.949c1.216-.112,3.8-.248,5.772-.348Zm-6.566-.211Zm0,0Z" transform="translate(-77.407 -25.933)" fill="#231f20"/>
      <path id="패스_308" data-name="패스 308" d="M165.823,97.869c.062-1.986-1.961-4.667-4.133-3.438a3.339,3.339,0,0,0-1.427,2.185c-.956,4.121,2.247,5.511,4.419,6.479" transform="translate(-98.957 -27.156)" fill="#fff"/>
      <path id="패스_309" data-name="패스 309" d="M164.754,103.8a.621.621,0,0,0,.583-.36.608.608,0,0,0-.285-.807c-2.222-.981-4.891-2.185-4.059-5.759a2.768,2.768,0,0,1,1.13-1.787,1.552,1.552,0,0,1,1.676,0,3.563,3.563,0,0,1,1.527,2.855.621.621,0,1,0,1.241,0,4.754,4.754,0,0,0-2.123-3.86,2.818,2.818,0,0,0-2.942,0,3.91,3.91,0,0,0-1.713,2.483c-1.08,4.58,2.483,6.206,4.692,7.15a.546.546,0,0,0,.273.087Z" transform="translate(-99.08 -27.265)" fill="#231f20"/>
    </g>
  </g>
</svg>
