<svg xmlns="http://www.w3.org/2000/svg" width="191.058" height="222.453" viewBox="0 0 191.058 222.453">
  <g id="그룹_905" data-name="그룹 905" transform="translate(-3071.471 -18129.773)">
    <g id="그룹_370" data-name="그룹 370" transform="translate(3071.471 18129.773)">
      <path id="패스_315" data-name="패스 315" d="M198.361,89.01a38.531,38.531,0,0,0-10.292.643c-5.368,1.176-10.6,4.326-12.9,9.328-1.542,3.327-1.619,7.231-1.664,10.947l-.166,12.843v4.115c0,3.128-.078,6.255-.067,9.383a49.644,49.644,0,0,0,.765,9.694c1.109,5.146,3.871,10.215,8.551,12.588a20.164,20.164,0,0,0,9.982,1.675,37.055,37.055,0,0,0,20.485-6.876,27.406,27.406,0,0,0,11.025-18.278c.421-3.516-.677-7.4-.8-11.013a108.956,108.956,0,0,0-.987-12.322c-1.043-7.154-3.039-16.481-9.893-20.374-2.362-1.342-5.168-1.619-7.864-1.874C202.464,89.276,200.413,89.087,198.361,89.01Z" transform="translate(-94.412 -58.098)" fill="#231f20"/>
      <path id="패스_316" data-name="패스 316" d="M191.112,160.848H192.7a37.188,37.188,0,0,0,20.818-7.021,27.794,27.794,0,0,0,11.235-18.655,27.241,27.241,0,0,0-.355-6.821c-.189-1.42-.388-2.895-.433-4.281a107.966,107.966,0,0,0-.987-12.389c-1.109-7.608-3.327-16.847-10.182-20.762-2.507-1.42-5.468-1.7-8.085-1.941-1.9-.177-4.048-.377-6.156-.488h0a39.406,39.406,0,0,0-10.448.654C181.94,90.5,177.016,94.1,174.8,98.782c-1.619,3.549-1.675,7.6-1.719,11.169l-.211,16.958c0,3.139-.078,6.3-.055,9.405a50.3,50.3,0,0,0,.776,9.793c1.231,6.022,4.436,10.747,8.873,12.965a18.666,18.666,0,0,0,8.651,1.775ZM198.477,89.6c2.074.1,4.226.3,6.111.477,2.507.233,5.346.5,7.642,1.8,6.488,3.682,8.551,12.611,9.627,19.964a107.908,107.908,0,0,1,.987,12.267,41.884,41.884,0,0,0,.444,4.436,27.417,27.417,0,0,1,.355,6.544,26.685,26.685,0,0,1-10.814,17.9,36.146,36.146,0,0,1-20.186,6.766c-4.1.177-7.2-.333-9.7-1.608-4.081-2.074-7.087-6.522-8.263-12.2a49.59,49.59,0,0,1-.754-9.583v-9.294l.211-17.047c0-3.46.1-7.387,1.63-10.714,2-4.37,6.655-7.764,12.511-9.017a38.1,38.1,0,0,1,10.148-.632Zm0-.555Z" transform="translate(-94.551 -58.155)" fill="#231f20"/>
      <path id="패스_317" data-name="패스 317" d="M132.358,109.791l16.881,11.779,13.442-25.7s-.843-10.659.843-11.834,2.529,3.727,2.529,3.727,3.716-10.326,4.891-9.893S176.49,81,176.49,83.694s-15.184,52.339-19.565,54.346-38.375-18.067-38.375-18.067" transform="translate(13.958 -59.304)" fill="#fff"/>
      <path id="패스_318" data-name="패스 318" d="M156.2,138.785a2.352,2.352,0,0,0,.965-.166c2.052-.954,5.989-10.126,11.723-27.262,4.048-12.1,8.141-26.042,8.141-27.606,0-3.094-4.725-5.912-5.934-6.344a.8.8,0,0,0-.632,0c-1.187.555-3.194,5.479-4.337,8.5-.333-1.031-.854-2.218-1.63-2.484a1.331,1.331,0,0,0-1.331.189c-1.763,1.231-1.3,9.427-1.109,12.2l-13.132,25-16.37-11.424a.555.555,0,0,0-.632.909l16.936,11.79a.566.566,0,0,0,.444.089.6.6,0,0,0,.366-.288l13.487-25.7a.466.466,0,0,0,.067-.3c-.4-4.969-.277-10.725.61-11.346.155-.1.222-.078.255-.067.577.244,1.187,2.152,1.409,3.449a.555.555,0,0,0,.5.455.532.532,0,0,0,.566-.366c1.5-4.148,3.527-8.873,4.326-9.505,1.242.521,5.058,2.983,5.058,5.246,0,3.105-15.45,52.128-19.243,53.858-3.017,1.4-24.822-10.337-37.865-18.045a.555.555,0,1,0-.566.954C121.577,122.436,149.371,138.785,156.2,138.785Z" transform="translate(14.025 -59.36)" fill="#231f20"/>
      <rect id="사각형_221" data-name="사각형 221" width="5.401" height="6.921" rx="1.93" transform="translate(19.867 214.988)" fill="#231f20"/>
      <path id="패스_319" data-name="패스 319" d="M269.717,259.252h1.109a2.7,2.7,0,0,0,2.673-2.728V253.9a2.7,2.7,0,0,0-2.7-2.7H269.7a2.7,2.7,0,0,0-2.7,2.7v2.629a2.7,2.7,0,0,0,2.717,2.728Zm1.109-6.91a1.586,1.586,0,0,1,1.586,1.586v2.6a1.586,1.586,0,0,1-1.586,1.586h-1.109a1.586,1.586,0,0,1-1.586-1.586V253.9a1.586,1.586,0,0,1,1.586-1.586Z" transform="translate(-247.699 -36.8)" fill="#231f20"/>
      <rect id="사각형_222" data-name="사각형 222" width="5.401" height="6.921" rx="1.93" transform="translate(43.735 214.988)" fill="#231f20"/>
      <path id="패스_320" data-name="패스 320" d="M248.166,259.249h1.109a2.7,2.7,0,0,0,2.7-2.7v-2.629a2.7,2.7,0,0,0-2.7-2.7h-1.109a2.706,2.706,0,0,0-2.706,2.7v2.6a2.706,2.706,0,0,0,2.706,2.728Zm1.109-6.91a1.586,1.586,0,0,1,1.586,1.586v2.6a1.586,1.586,0,0,1-1.586,1.586h-1.109a1.6,1.6,0,0,1-1.6-1.586v-2.629a1.6,1.6,0,0,1,1.6-1.586Z" transform="translate(-202.28 -36.797)" fill="#231f20"/>
      <path id="패스_321" data-name="패스 321" d="M296.53,198.86l-17.546-9.96H239.289L227.71,245.076,242.051,257.9Z" transform="translate(-227.153 -43.597)" fill="#fff"/>
      <path id="패스_322" data-name="패스 322" d="M242.1,258.51a.51.51,0,0,0,.4-.177l54.49-59.038a.555.555,0,0,0-.133-.865l-17.546-9.982a.565.565,0,0,0-.266-.078H239.34a.555.555,0,0,0-.543.444L227.217,244.99a.555.555,0,0,0,.166.532l14.341,12.821A.6.6,0,0,0,242.1,258.51Zm53.6-59.459-53.648,58.128-13.7-12.2,11.435-55.455h39.1Z" transform="translate(-227.204 -43.655)" fill="#231f20"/>
      <path id="패스_323" data-name="패스 323" d="M227.71,256.918h42.5l11.978-59.038H239.677Z" transform="translate(-212.812 -42.618)" fill="#fff"/>
      <path id="패스_324" data-name="패스 324" d="M227.768,257.525h42.5a.543.543,0,0,0,.544-.444l11.978-59.016a.588.588,0,0,0-.111-.466.555.555,0,0,0-.432-.2H239.779a.544.544,0,0,0-.543.444l-12.012,59a.544.544,0,0,0,.111.466A.532.532,0,0,0,227.768,257.525Zm42.046-1.109h-41.37l11.745-57.929h41.381Z" transform="translate(-212.87 -42.67)" fill="#231f20"/>
      <path id="패스_325" data-name="패스 325" d="M274.563,249.67l-1.009,3.372H243.53l.588-3.372Z" transform="translate(-222.731 -36.967)" fill="#231f20"/>
      <path id="패스_326" data-name="패스 326" d="M243.6,253.646h30.024a.555.555,0,0,0,.532-.4l1.009-3.327a.543.543,0,0,0-.078-.488.565.565,0,0,0-.444-.222H244.168a.543.543,0,0,0-.543.455l-.588,3.327a.521.521,0,0,0,.122.455A.543.543,0,0,0,243.6,253.646Zm29.613-1.109H244.257l.4-2.218h29.236Z" transform="translate(-222.804 -37.017)" fill="#231f20"/>
      <path id="패스_327" data-name="패스 327" d="M227.609,204.7H248.76a.555.555,0,0,0,.543-.433l9.549-43.411a.544.544,0,0,0-.1-.466.566.566,0,0,0-.433-.211H236.615a.544.544,0,0,0-.544.444l-9.006,43.411a.555.555,0,0,0,.122.466A.51.51,0,0,0,227.609,204.7Zm20.707-1.109H228.3l8.762-42.3h20.563Z" transform="translate(-188.766 -48.059)" fill="#231f20"/>
      <path id="패스_328" data-name="패스 328" d="M278.98,199.319a.532.532,0,0,0,.466-.255.543.543,0,0,0-.155-.765l-12.932-8.44a.566.566,0,0,0-.776.166.554.554,0,0,0,.166.765l12.932,8.44A.621.621,0,0,0,278.98,199.319Z" transform="translate(-252.07 -44.646)" fill="#231f20"/>
      <path id="패스_329" data-name="패스 329" d="M225.275,161.289h27a.555.555,0,0,0,.555-.555.566.566,0,0,0-.555-.555h-27a.566.566,0,0,0-.555.555A.555.555,0,0,0,225.275,161.289Z" transform="translate(-180.131 -48.51)" fill="#231f20"/>
      <path id="패스_330" data-name="패스 330" d="M155.13,237.741l4.159,9.915,9.516-4.17L164.48,232.55Z" transform="translate(-18.929 -38.835)" fill="#fff"/>
      <path id="패스_331" data-name="패스 331" d="M164.62,232.663l-9.35,5.191,4.159,9.915,9.516-4.181-4.326-10.925m0-1.109a1.021,1.021,0,0,1,.366.067,1.109,1.109,0,0,1,.665.632l4.292,10.891a1.109,1.109,0,0,1-.588,1.42l-9.516,4.181a1.221,1.221,0,0,1-.444.089,1.043,1.043,0,0,1-.41-.078,1.109,1.109,0,0,1-.61-.6l-4.159-9.915a1.109,1.109,0,0,1,.488-1.4l9.339-5.191a1.11,1.11,0,0,1,.544-.144Z" transform="translate(-19.036 -38.948)" fill="#231f20"/>
      <path id="패스_332" data-name="패스 332" d="M133.78,246.3l5.146,13.076s27.118-9.749,28.837-11.5-4.2-3.882-5.346-3.538-5.546,1.508-7.143,1.309-10.215-4.558-10.215-4.558Z" transform="translate(5.482 -37.903)" fill="#231f20"/>
      <path id="패스_333" data-name="패스 333" d="M138.94,259.984a.565.565,0,0,0,.189,0c2.784-1.009,27.284-9.838,29.07-11.635a1.442,1.442,0,0,0,.244-1.874c-.943-1.575-4.947-2.939-6.133-2.584s-5.546,1.475-6.921,1.3c-1.109-.144-6.655-2.773-10.037-4.5a.555.555,0,0,0-.477,0L133.561,245.9a.543.543,0,0,0-.277.7l5.146,13.076A.532.532,0,0,0,138.94,259.984ZM162.819,244.9c.943,0,4,.987,4.68,2.107a.355.355,0,0,1-.078.521c-1.209,1.209-17.313,7.287-28.16,11.2L134.5,246.641l10.592-4.88c1.586.8,8.629,4.292,10.148,4.436,1.73.211,6.333-1.02,7.387-1.331A.465.465,0,0,1,162.819,244.9Z" transform="translate(5.469 -37.953)" fill="#231f20"/>
      <path id="패스_334" data-name="패스 334" d="M211.109,213.43l-8.629,6.411,6.333,8.241,9.572-6.821Z" transform="translate(-121.024 -41.541)" fill="#fff"/>
      <path id="패스_335" data-name="패스 335" d="M211.173,213.539l-8.629,6.411,6.333,8.241,9.572-6.821-7.276-7.83m0-1.109a1.109,1.109,0,0,1,.821.355l7.265,7.83a1.1,1.1,0,0,1-.166,1.664l-9.572,6.81a1.111,1.111,0,0,1-1.531-.222l-6.322-8.241a1.106,1.106,0,0,1,.211-1.564l8.64-6.411A1.109,1.109,0,0,1,211.173,212.43Z" transform="translate(-121.044 -41.638)" fill="#231f20"/>
      <path id="패스_336" data-name="패스 336" d="M220,218.16l-11.435,8.119s15.949,24,18.067,25.277,2.762-5,2.163-6.022-2.806-5.058-2.984-6.655,1.974-11.013,1.974-11.013Z" transform="translate(-138.403 -40.405)" fill="#231f20"/>
      <path id="패스_337" data-name="패스 337" d="M227.267,252.342a1.5,1.5,0,0,0,1.043-.466c1.309-1.3,1.664-5.546,1.031-6.577s-2.74-5-2.906-6.411c-.122-1.109,1.109-7.065,1.974-10.825a.588.588,0,0,0-.111-.466l-7.764-9.727a.555.555,0,0,0-.754-.111l-11.457,8.13a.543.543,0,0,0-.144.754c1.6,2.484,16.082,24.134,18.234,25.443a1.608,1.608,0,0,0,.854.255Zm0-24.256c-.388,1.73-2.107,9.405-1.93,10.936.2,1.719,2.5,5.9,3.061,6.843.322.543.133,4.226-.865,5.224a.366.366,0,0,1-.532,0c-1.453-.887-11.213-15.062-17.6-24.667l10.6-7.509Z" transform="translate(-138.502 -40.459)" fill="#231f20"/>
      <path id="패스_338" data-name="패스 338" d="M205.871,139.7s18.422,49.134,13.62,52.716-54.346,43.533-54.346,43.533L153,220.332s35.292-26.452,36.3-29.6-8.762-47.913-8.762-47.913Z" transform="translate(-68.051 -50.004)" fill="#231f20"/>
      <path id="패스_339" data-name="패스 339" d="M165.209,236.578a.577.577,0,0,0,.355-.122c.488-.4,49.588-39.983,54.346-43.521,4.991-3.727-11.535-48.291-13.442-53.359a.566.566,0,0,0-.577-.355L180.537,142.3a.555.555,0,0,0-.388.233.544.544,0,0,0-.089.433c3.926,17.934,9.494,45.418,8.784,47.625s-22.526,19.143-36.113,29.325a.555.555,0,0,0-.1.776l12.2,15.616a.51.51,0,0,0,.377.211Zm40.372-96.2c7.054,18.855,16.892,49.267,13.653,51.673-4.514,3.327-49.011,39.229-53.925,43.189l-11.468-14.729c5.246-3.937,35.048-26.419,36.057-29.536s-7.165-40.893-8.629-47.6Z" transform="translate(-68.071 -50.049)" fill="#231f20"/>
      <path id="패스_340" data-name="패스 340" d="M151,146.811l35.78,103.147s22.936-6.522,21.361-7.7c1.952,1.453-23.857-70.018-30.589-99.931Z" transform="translate(-53.779 -48.679)" fill="#231f20"/>
      <path id="패스_341" data-name="패스 341" d="M186.824,250.535a.334.334,0,0,0,.144,0c9.8-2.784,21.55-6.422,21.838-7.952a.9.9,0,0,0,0-.244c.1-1.109-1.253-5.546-8.241-26.619-7.764-23.491-18.422-55.666-22.426-73.467a.543.543,0,0,0-.632-.421l-26.552,4.5a.577.577,0,0,0-.388.255.621.621,0,0,0,0,.466L186.348,250.2A.555.555,0,0,0,186.824,250.535Zm20.818-8.174c-1.364,1.109-11.191,4.3-20.474,6.954l-35.38-102.038,25.387-4.3c4.1,17.956,14.629,49.766,22.337,73.068,4.259,12.866,7.963,24.057,8.218,25.92A.521.521,0,0,0,207.642,242.361Z" transform="translate(-53.829 -48.734)" fill="#231f20"/>
      <path id="패스_342" data-name="패스 342" d="M164.006,125.82l-10.326-9.893c5.546-9.516,7.52-15.96,11.346-17.956,4.947-3.416,22.459-1.109,32.985-.577a32.5,32.5,0,0,1,9.893,1.919,58.783,58.783,0,0,1,18.855,11.2l-12.766,15.749-3.039-4.614s1.8,8.995,6.011,27.218a110.422,110.422,0,0,0-43.9,6.411S164.017,128.959,164.006,125.82Z" transform="translate(-75.274 -56.437)" fill="#5062ff"/>
      <path id="패스_343" data-name="패스 343" d="M184.487,128.86a.532.532,0,0,0,.266-.067.543.543,0,0,0,.222-.754c-.111-.211-11.557-21.428-7.764-29.591.865-1.863,3.494-3.5,6.388-3.993a8.984,8.984,0,0,1,8.152,2.529,30.29,30.29,0,0,1,8.806,19.343,25.6,25.6,0,0,1-1,9.139.555.555,0,0,0,1.043.366c.055-.155,5.368-15.605-8.052-29.613a10.06,10.06,0,0,0-9.128-2.85c-3.327.543-6.189,2.4-7.22,4.614-4.015,8.673,7.331,29.7,7.819,30.589A.543.543,0,0,0,184.487,128.86Z" transform="translate(-74.228 -56.935)" fill="#231f20"/>
      <path id="패스_344" data-name="패스 344" d="M186.231,65.75s6.91.1,3.649,7.83c-2.1,5.024-16.958,5.856-16.958,5.856S172.988,70.109,186.231,65.75Z" transform="translate(-60.611 -60.625)" fill="#231f20"/>
      <path id="패스_345" data-name="패스 345" d="M173.062,80.049h0c.621,0,15.195-.909,17.424-6.2,1.109-2.717,1.22-4.869.211-6.411a5.645,5.645,0,0,0-4.359-2.218h-.177c-13.509,4.436-13.686,13.82-13.686,14.219a.675.675,0,0,0,.588.61Zm13.42-13.686a4.547,4.547,0,0,1,3.327,1.686c.787,1.209.688,3.017-.311,5.379-1.553,3.671-11.424,5.146-15.838,5.479C173.961,76.832,175.624,69.967,186.483,66.362Z" transform="translate(-60.751 -60.683)" fill="#231f20"/>
      <path id="패스_346" data-name="패스 346" d="M204.269,72.988a9.614,9.614,0,0,0-.588-.9c-2.351-3.327-8.584-2.218-11.856-1.253a18.567,18.567,0,0,0-8.285,4.514c-1.8,1.83-3.472,4.8-3.139,7.464s2.019,5.79,3.327,8.03a9.5,9.5,0,0,0,3.128,3.46,9.893,9.893,0,0,0,4.436,1.109,17.557,17.557,0,0,0,9.649-1.786A11.535,11.535,0,0,0,206.753,85a20.518,20.518,0,0,0-2.484-12.012Z" transform="translate(-84.959 -60.177)" fill="#fff"/>
      <path id="패스_347" data-name="패스 347" d="M192.972,96.036a16.559,16.559,0,0,0,8.352-1.9c2.85-1.619,5.845-5.058,6.1-9.084a21.15,21.15,0,0,0-2.629-12.311,10.351,10.351,0,0,0-.61-.932c-2.706-3.793-9.627-2.3-12.477-1.475a18.966,18.966,0,0,0-8.54,4.669c-1.752,1.786-3.671,4.924-3.327,7.93a22.793,22.793,0,0,0,3.449,8.263,8.363,8.363,0,0,0,8.041,4.791C191.918,96.025,192.451,96.036,192.972,96.036Zm5.058-25.509c2.1,0,4.137.466,5.224,1.985.2.277.388.566.566.854h0a20.153,20.153,0,0,1,2.473,11.646,10.958,10.958,0,0,1-5.546,8.163c-2.385,1.364-5.435,1.919-9.328,1.708a9.327,9.327,0,0,1-4.2-.987,9.094,9.094,0,0,1-2.928-3.25,21.883,21.883,0,0,1-3.327-7.764c-.3-2.44,1.275-5.268,2.983-7a17.846,17.846,0,0,1,8.03-4.37,23.568,23.568,0,0,1,6.056-1.02Zm6.278,2.551Z" transform="translate(-84.997 -60.233)" fill="#231f20"/>
      <path id="패스_348" data-name="패스 348" d="M195.27,94.494l.965,8.008s-2.218,5.08-7.442,4.082a10.6,10.6,0,0,1-7.309-5.468l-.654-14.629s3.749-2.218,2.218-10.537a25.753,25.753,0,0,0,13.564,1.22s2.795,8.939,2.362,12.988S195.27,94.494,195.27,94.494Z" transform="translate(-77.646 -59.512)" fill="#fff"/>
      <path id="패스_349" data-name="패스 349" d="M190.166,107.338c4.6,0,6.655-4.5,6.655-4.547a.566.566,0,0,0,0-.3l-.91-7.5a5.058,5.058,0,0,0,3.649-4.714c.433-4.126-2.218-12.855-2.385-13.221a.588.588,0,0,0-.654-.4,25.4,25.4,0,0,1-13.187-1.176.566.566,0,0,0-.588.078.555.555,0,0,0-.2.555c1.431,7.764-1.919,9.915-1.952,9.982a.555.555,0,0,0-.266.51l.643,14.629a.721.721,0,0,0,0,.222,11.147,11.147,0,0,0,7.764,5.79,8.31,8.31,0,0,0,1.431.089Zm5.546-4.869c-.377.765-2.418,4.436-6.743,3.6a10.17,10.17,0,0,1-6.854-5.046l-.632-14.208c.865-.71,3.327-3.327,2.351-9.982a26.807,26.807,0,0,0,12.433.987c.566,1.885,2.551,8.873,2.218,12.278a3.914,3.914,0,0,1-3.183,3.815.588.588,0,0,0-.521.643Z" transform="translate(-77.678 -59.568)" fill="#231f20"/>
      <path id="패스_350" data-name="패스 350" d="M200.687,85.349a3.449,3.449,0,0,0-1.231-1.752,5.967,5.967,0,0,0-1.863-.821,2.385,2.385,0,0,0-1.109-.144,2.218,2.218,0,0,0-.721.3,2.651,2.651,0,0,0-1.176,1.375,3.205,3.205,0,0,0,0,1.486,6.3,6.3,0,0,0,.477,1.553,4.137,4.137,0,0,0,5.546,1.885" transform="translate(-94.477 -58.785)" fill="#fff"/>
      <path id="패스_351" data-name="패스 351" d="M198.771,90.291a4.78,4.78,0,0,0,2.107-.488.577.577,0,0,0,.255-.776.588.588,0,0,0-.765-.255,3.515,3.515,0,0,1-4.769-1.608,5.391,5.391,0,0,1-.433-1.42,2.628,2.628,0,0,1,0-1.209,2.218,2.218,0,0,1,.943-1.109,1.4,1.4,0,0,1,.521-.222,2,2,0,0,1,.843.122,5.545,5.545,0,0,1,1.686.743,2.839,2.839,0,0,1,1.031,1.453A.577.577,0,1,0,201.3,85.2a3.948,3.948,0,0,0-1.453-2.052,6.533,6.533,0,0,0-2.041-.921,2.906,2.906,0,0,0-1.353-.155,2.618,2.618,0,0,0-.932.377,3.15,3.15,0,0,0-1.464,1.763,3.6,3.6,0,0,0,0,1.752,6.1,6.1,0,0,0,.521,1.708,4.7,4.7,0,0,0,2.706,2.385,4.647,4.647,0,0,0,1.486.233Z" transform="translate(-94.501 -58.847)" fill="#231f20"/>
      <path id="패스_352" data-name="패스 352" d="M191.611,96.742a6.721,6.721,0,0,1-5.39-1.475c-2.4-2.1-2.218-3.327-2.218-3.327s3.782,1.841,7.143,1Z" transform="translate(-73.755 -57.768)" fill="#231f20"/>
      <path id="패스_353" data-name="패스 353" d="M190.578,97.434a6.054,6.054,0,0,0,1.176-.1.555.555,0,0,0,.444-.61l-.51-3.849a.5.5,0,0,0-.233-.388.521.521,0,0,0-.444-.078c-3.128.787-6.732-.943-6.777-.954a.555.555,0,0,0-.51,0,.566.566,0,0,0-.277.421c0,.166-.089,1.641,2.44,3.849A7.054,7.054,0,0,0,190.578,97.434Zm.444-1.109a6.111,6.111,0,0,1-4.436-1.409,7.764,7.764,0,0,1-1.741-2.007,12.2,12.2,0,0,0,5.8.71Z" transform="translate(-73.731 -57.827)" fill="#231f20"/>
      <path id="패스_354" data-name="패스 354" d="M184.532,81.69s3.05,3.826,2.462,4.581-2.429.444-2.429.444" transform="translate(-69.803 -58.886)" fill="#fff"/>
      <path id="패스_355" data-name="패스 355" d="M185.468,87.39a2.529,2.529,0,0,0,2.019-.732c.566-.721-.266-2.5-2.473-5.257a.556.556,0,0,0-.865.7,14.024,14.024,0,0,1,2.429,3.971,3.139,3.139,0,0,1-1.852.155.563.563,0,1,0-.189,1.109,6.045,6.045,0,0,0,.932.055Z" transform="translate(-69.83 -58.94)" fill="#231f20"/>
      <path id="패스_356" data-name="패스 356" d="M190.043,88.96s-2.928,1.231-3.993-1.63" transform="translate(-74.46 -58.27)" fill="#fff"/>
      <path id="패스_357" data-name="패스 357" d="M188.707,89.835a4.947,4.947,0,0,0,1.63-.3A.559.559,0,0,0,189.9,88.5a3.061,3.061,0,0,1-2.107,0,2.274,2.274,0,0,1-1.165-1.353.555.555,0,1,0-1.031.388,3.327,3.327,0,0,0,1.763,1.985,3.46,3.46,0,0,0,1.342.311Z" transform="translate(-74.533 -58.336)" fill="#231f20"/>
      <ellipse id="타원_52" data-name="타원 52" cx="0.943" cy="0.677" rx="0.943" ry="0.677" transform="translate(109.756 24.183) rotate(-107.06)" fill="#231f20"/>
      <ellipse id="타원_53" data-name="타원 53" cx="0.943" cy="0.677" rx="0.943" ry="0.677" transform="translate(116.815 23.635) rotate(-107.06)" fill="#231f20"/>
      <path id="패스_358" data-name="패스 358" d="M194.636,81.741l-10.47,2.218S178.62,70.24,189.4,64.084C201.6,57.13,207.912,67,207.912,67Z" transform="translate(-88.658 -61.078)" fill="#fff"/>
      <path id="패스_359" data-name="패스 359" d="M184.063,84.588h.166l10.459-2.218a.555.555,0,0,0,.311-.177l13.309-14.718a.566.566,0,0,0,.055-.7c-.067-.1-6.754-10.248-19.276-3.094-4.581,2.618-6.987,7.021-6.932,12.733a23.7,23.7,0,0,0,1.375,7.864A.566.566,0,0,0,184.063,84.588Zm10.171-3.327-9.8,2.085a23.38,23.38,0,0,1-1.209-7.01c0-5.324,2.107-9.261,6.366-11.7,10.392-5.934,16.237.7,17.491,2.373Z" transform="translate(-88.555 -61.129)" fill="#231f20"/>
      <path id="패스_360" data-name="패스 360" d="M177,81.289S179.074,70.2,190.309,66.56l6.333-.81a35.7,35.7,0,0,0-9.172,10.9C183.5,83.662,177,81.289,177,81.289Z" transform="translate(-71.022 -60.625)" fill="#fff"/>
      <path id="패스_361" data-name="패스 361" d="M179.6,82.287c2.418,0,5.912-.887,8.429-5.29a35.492,35.492,0,0,1,9.006-10.725.577.577,0,0,0,.2-.677.566.566,0,0,0-.6-.355l-6.411.81c-11.49,3.771-13.742,15.073-13.764,15.184a.566.566,0,0,0,.366.643A8.873,8.873,0,0,0,179.6,82.287ZM194.81,66.616a39.84,39.84,0,0,0-7.764,9.816c-3.139,5.546-7.764,4.88-9.328,4.514.577-2.218,3.394-10.692,12.777-13.786Z" transform="translate(-71.053 -60.681)" fill="#231f20"/>
      <path id="패스_362" data-name="패스 362" d="M173.607,196.836h.166a.555.555,0,0,0,.355-.7l-9.616-31.2a.555.555,0,0,0-.688-.366.566.566,0,0,0-.366.7l9.616,31.2A.566.566,0,0,0,173.607,196.836Z" transform="translate(-33.491 -47.638)" fill="#fff"/>
      <path id="패스_363" data-name="패스 363" d="M188.9,212.321a.531.531,0,0,0,.222,0,.543.543,0,0,0,.288-.721l-7.764-18.567a.555.555,0,0,0-.721-.3.566.566,0,0,0-.3.721l7.764,18.578A.554.554,0,0,0,188.9,212.321Z" transform="translate(-67.816 -44.144)" fill="#fff"/>
      <path id="패스_364" data-name="패스 364" d="M248.321,117.538S232.305,149.7,224.885,162.9c0,0-1.575,11.546-8.773,10.914-10.237-.909-8.429-7.42-8.429-7.42l5.767-5.6L235,114" transform="translate(-156.595 -54.036)" fill="#fff"/>
      <path id="패스_365" data-name="패스 365" d="M216.786,174.448c6.821,0,8.54-10.071,8.729-11.313,7.364-13.076,23.291-44.974,23.4-45.3a.555.555,0,0,0-.987-.455c-.166.322-16.1,32.353-23.435,45.34a.71.71,0,0,0-.067.2c0,.111-1.6,11.013-8.174,10.437-3.594-.322-6.022-1.364-7.231-3.094a4.714,4.714,0,0,1-.743-3.483l5.634-5.546a.544.544,0,0,0,.122-.155l21.572-46.816a.555.555,0,0,0-.277-.732.543.543,0,0,0-.732.266l-21.528,46.716-5.679,5.546a.61.61,0,0,0-.155.255,5.8,5.8,0,0,0,.876,4.547c1.4,2.019,4.1,3.216,8.041,3.56Z" transform="translate(-156.692 -54.097)" fill="#231f20"/>
      <path id="패스_366" data-name="패스 366" d="M202.018,140.736s9.195-10.4,8.285-24.123-5.546-21.173-5.546-21.173l-4.725,1.187s5.135,7.62,5.645,20.319c.41,10.06-5.246,18.855-5.246,18.855Z" transform="translate(-110.292 -56.598)" fill="#231f20"/>
      <path id="패스_367" data-name="패스 367" d="M202.059,141.346a.555.555,0,0,0,.421-.189c.089-.111,9.328-10.736,8.418-24.534s-5.435-21.073-5.623-21.417a.543.543,0,0,0-.6-.255l-4.725,1.165a.577.577,0,0,0-.388.344.566.566,0,0,0,.067.5c0,.078,5.057,7.664,5.546,20.042.4,9.76-5.1,18.489-5.157,18.578a.532.532,0,0,0,0,.466l1.553,4.913a.588.588,0,0,0,.41.377Zm2.473-45.229c.887,1.619,4.436,8.8,5.257,20.574.754,11.224-5.479,20.308-7.509,22.947l-1.2-3.682c.9-1.475,5.546-9.638,5.2-18.988A43.688,43.688,0,0,0,200.95,97Z" transform="translate(-110.333 -56.66)" fill="#231f20"/>
      <path id="패스_368" data-name="패스 368" d="M176.614,132.73S175.028,113.875,164,96.95l4.647.632s6.344,3.416,9.183,17.646C180.485,128.526,176.614,132.73,176.614,132.73Z" transform="translate(-38.727 -56.442)" fill="#231f20"/>
      <path id="패스_369" data-name="패스 369" d="M176.665,133.333a.543.543,0,0,0,.41-.177c.166-.177,4.026-4.558,1.353-17.99-2.861-14.319-9.194-17.879-9.472-18.023h-.177l-4.647-.632a.566.566,0,0,0-.543.255.543.543,0,0,0,0,.588c10.814,16.637,12.5,35.347,12.522,35.491a.521.521,0,0,0,.366.466A.5.5,0,0,0,176.665,133.333Zm-8.152-35.17c.721.455,6.255,4.314,8.873,17.224,1.775,8.873.588,13.587-.322,15.683-.665-4.9-3.327-19.709-11.856-33.362Z" transform="translate(-38.778 -56.495)" fill="#231f20"/>
      <path id="패스_370" data-name="패스 370" d="M213.261,150.635a.554.554,0,0,0,.555-.51,32.164,32.164,0,0,0-4.436-18.855.555.555,0,1,0-.943.577,31.121,31.121,0,0,1,4.3,18.189.543.543,0,0,0,.51.588Z" transform="translate(-123.033 -52.113)" fill="#fff"/>
      <path id="패스_371" data-name="패스 371" d="M172.586,162.276a.532.532,0,0,0,.543-.532c0-.288.2-6.943,0-10.082a.544.544,0,0,0-.588-.521.555.555,0,0,0-.51.588c.2,3.083,0,9.915,0,9.982a.555.555,0,0,0,.532.566Z" transform="translate(-42.085 -49.583)" fill="#fff"/>
      <path id="패스_372" data-name="패스 372" d="M192.873,159.657a.566.566,0,0,0,.4-.166c4.714-4.891,3.937-9.9,3.9-10.115a.566.566,0,0,0-.632-.455.543.543,0,0,0-.455.632,11.646,11.646,0,0,1-3.616,9.172.555.555,0,0,0,0,.787.532.532,0,0,0,.4.144Z" transform="translate(-88.603 -49.871)" fill="#fff"/>
      <path id="패스_373" data-name="패스 373" d="M128.179,92.068a.555.555,0,0,0,.543-.444c.51-2.551-2.706-5.1-2.839-5.213a.555.555,0,0,0-.776.089.577.577,0,0,0,.089.787c.787.61,2.751,2.551,2.44,4.115a.544.544,0,0,0,.433.654Z" transform="translate(54.527 -58.384)" fill="#231f20"/>
      <rect id="사각형_223" data-name="사각형 223" width="25.565" height="13.531" rx="1.5" transform="matrix(-0.985, 0.172, -0.172, -0.985, 133.281, 81.658)" fill="#fff"/>
      <path id="패스_374" data-name="패스 374" d="M173.793,139.688a2.22,2.22,0,0,0,.377,0h0l21.916-3.815a2.284,2.284,0,0,0,1.431-.909,2.218,2.218,0,0,0,.377-1.664l-1.752-10.049a2.232,2.232,0,0,0-2.573-1.808l-21.9,3.815a2.285,2.285,0,0,0-1.442.909,2.218,2.218,0,0,0-.366,1.664l1.752,10.049A2.218,2.218,0,0,0,173.793,139.688Zm.189-1.109a1.109,1.109,0,0,1-1.287-.9l-1.752-10.049a1.109,1.109,0,0,1,.909-1.287l21.9-3.815a1.109,1.109,0,0,1,1.287.9l1.752,10.048a1.118,1.118,0,0,1-.9,1.287l-21.916,3.815Z" transform="translate(-64.343 -53.355)" fill="#231f20"/>
      <path id="패스_375" data-name="패스 375" d="M1.93,3.228h8.285a1.919,1.919,0,0,0,1.919-1.919V0H0V1.309A1.919,1.919,0,0,0,1.919,3.228Z" transform="matrix(-0.985, 0.172, -0.172, -0.985, 124.347, 69.377)" fill="#fff"/>
      <path id="패스_376" data-name="패스 376" d="M178.467,125.657h.089l11.945-2.085a.543.543,0,0,0,.355-.222.577.577,0,0,0,.1-.421l-.222-1.287a2.5,2.5,0,0,0-2.873-2.019l-8.152,1.42a2.478,2.478,0,0,0-2.019,2.873l.222,1.287a.566.566,0,0,0,.233.355A.532.532,0,0,0,178.467,125.657Zm11.3-3.083-10.858,1.9-.122-.743a1.32,1.32,0,0,1,.222-1.02,1.375,1.375,0,0,1,.887-.566l8.163-1.42a1.364,1.364,0,0,1,1.575,1.109Z" transform="translate(-66.067 -53.657)" fill="#231f20"/>
      <ellipse id="타원_54" data-name="타원 54" cx="5.701" cy="5.701" rx="5.701" ry="5.701" transform="translate(113.831 71.502)" fill="#fff"/>
      <path id="패스_377" data-name="패스 377" d="M183.056,136.512a7.187,7.187,0,0,0,1.109-.089,6.262,6.262,0,1,0-7.242-5.1h0A6.255,6.255,0,0,0,183.056,136.512Zm0-11.413a5.159,5.159,0,1,1-.9.078,4.914,4.914,0,0,1,.921-.067Zm-5.634,6.133Z" transform="translate(-63.535 -53.057)" fill="#231f20"/>
      <ellipse id="타원_55" data-name="타원 55" cx="3.427" cy="3.427" rx="3.427" ry="3.427" transform="translate(116.104 73.788)" fill="#fff"/>
      <path id="패스_378" data-name="패스 378" d="M182.976,134.017a4.636,4.636,0,0,0,.677,0,4,4,0,0,0,3.194-4.691,3.948,3.948,0,0,0-1.641-2.573,3.87,3.87,0,0,0-2.972-.665,3.982,3.982,0,0,0-3.239,4.6h0a3.982,3.982,0,0,0,3.982,3.327Zm0-6.865a2.884,2.884,0,1,1-.5,0,2.527,2.527,0,0,1,.5-.044Zm-3.327,3.472Z" transform="translate(-63.445 -52.823)" fill="#231f20"/>
      <path id="패스_379" data-name="패스 379" d="M236.8,252.527a.566.566,0,0,0,.543-.444l10.259-50.4a.566.566,0,0,0-.433-.654.555.555,0,0,0-.654.433l-10.259,50.4a.566.566,0,0,0,.433.654Z" transform="translate(-187.712 -42.275)" fill="#d1d3d4"/>
      <path id="패스_380" data-name="패스 380" d="M255.295,252.527a.555.555,0,0,0,.543-.444L266.73,201.7a.555.555,0,0,0-.421-.665.577.577,0,0,0-.665.433L254.751,251.85a.555.555,0,0,0,.421.665Z" transform="translate(-227.343 -42.275)" fill="#d1d3d4"/>
      <path id="패스_381" data-name="패스 381" d="M284.979,229.839a.555.555,0,0,0,.433-.2.577.577,0,0,0-.078-.787l-9.117-7.42a.556.556,0,1,0-.7.865l9.106,7.42A.62.62,0,0,0,284.979,229.839Z" transform="translate(-268.949 -40.061)" fill="#d1d3d4"/>
    </g>
  </g>
</svg>
