<svg xmlns="http://www.w3.org/2000/svg" width="92" height="92" viewBox="0 0 92 92"><defs><style>.a{fill:#e1e1e1;}.b{fill:#5062ff;}.c{fill:#231f20;}.d{fill:#fff;}</style></defs><g transform="translate(-122 -1835)"><circle class="a" cx="46" cy="46" r="46" transform="translate(122 1835)"/><path class="b" d="M198.13,107.362l8.012-2.851c-.341-.48-4.831-10.9-9.055-12.979-3.689-2.439-10.54-1.989-18.283-1.448a23.918,23.918,0,0,0-7.259,1.513c-8.728,3.468-9.975,14.965-9.975,14.965l8.029,2.77s-1.3,15.619-2.535,23.785c0,0,10.06,5.924,31.992,2.293C199.056,135.422,198.167,109.671,198.13,107.362Z" transform="translate(-10.408 1776.903)"/><path class="c" d="M210.86,104.836l3.652,17.7,6.122-20.44Z" transform="translate(-42.906 1768.698)"/><path class="c" d="M214.2,122.381h0a.174.174,0,0,1-.16-.136l-3.652-17.714a.17.17,0,0,1,.119-.2l9.774-2.725a.167.167,0,0,1,.167.044.16.16,0,0,1,.041.167l-6.132,20.44A.17.17,0,0,1,214.2,122.381Zm-3.454-17.752,3.485,16.89,5.839-19.5Z" transform="translate(-42.59 1769.027)"/><path class="d" d="M200.62,37.871a4.246,4.246,0,0,0-1.758.307c-.811.2-.583.218-1.3-.249-1.7-1.09-3.918-.6-5.815.068s-3.918,1.482-5.849.93a3.8,3.8,0,0,0,2.575,1.233c-1.588.927-3.9.211-5.219,1.492a33.044,33.044,0,0,0,4.2,4.395,11.868,11.868,0,0,1-3.291-1.022,19.891,19.891,0,0,0,6.922,4.885,13.168,13.168,0,0,0,6.1,1.312c3.369-.228,6.813-2.875,7.079-6.353C204.436,42.494,203.533,38.277,200.62,37.871Z" transform="translate(-24.703 1811.431)"/><path class="c" d="M196.221,51.02a13.639,13.639,0,0,1-5.553-1.363,19.99,19.99,0,0,1-6.98-4.926.17.17,0,0,1,.2-.269,11.817,11.817,0,0,0,2.657.882,33.33,33.33,0,0,1-3.768-4.016.17.17,0,0,1,0-.228,4.569,4.569,0,0,1,2.9-.954,7.91,7.91,0,0,0,1.836-.341,3.914,3.914,0,0,1-2.1-1.209.164.164,0,0,1,0-.2.167.167,0,0,1,.191-.075c1.737.494,3.56-.153,5.325-.78l.422-.146c1.676-.593,4.122-1.237,5.962-.051l.273.181c.293.2.29.2.681.1l.232-.058c.16-.037.31-.082.456-.129a2.977,2.977,0,0,1,1.363-.181h0c2.909.45,3.969,4.575,3.764,7.232-.286,3.747-3.979,6.289-7.236,6.51C196.64,51.013,196.429,51.02,196.221,51.02Zm-11.729-5.91a19.99,19.99,0,0,0,6.312,4.251,12.87,12.87,0,0,0,6.016,1.3c4-.273,6.708-3.427,6.922-6.193.194-2.531-.78-6.452-3.488-6.84h0a2.633,2.633,0,0,0-1.22.17c-.15.048-.31.1-.477.136l-.225.055c-.5.126-.548.119-.944-.15l-.266-.177c-1.7-1.1-4.054-.48-5.665.085l-.422.15a10.46,10.46,0,0,1-4.919.916,3.594,3.594,0,0,0,2.02.766.17.17,0,0,1,.157.129.167.167,0,0,1-.082.187,5.992,5.992,0,0,1-2.5.606,4.585,4.585,0,0,0-2.575.756,33.179,33.179,0,0,0,4.088,4.251.167.167,0,0,1,.044.2.17.17,0,0,1-.181.1A12.165,12.165,0,0,1,184.492,45.11Z" transform="translate(-24.361 1811.833)"/><path class="d" d="M202.583,63.279l-.242,5.873s2.364,3.321,5.989,1.785,3.785-4.521,3.785-4.521l-1.165-11.194S207.9,54.2,207.723,47.98a18.961,18.961,0,0,1-9.579,2.984s-.627,6.875.313,9.722S202.583,63.279,202.583,63.279Z" transform="translate(-34.388 1804.381)"/><path class="c" d="M206.111,71.165a5.752,5.752,0,0,1-4.241-2.259.167.167,0,0,1-.031-.106l.235-5.689a4.169,4.169,0,0,1-4.112-2.725c-.937-2.848-.341-9.508-.32-9.787a.17.17,0,0,1,.164-.157,18.927,18.927,0,0,0,9.487-2.95.167.167,0,0,1,.269.133,10.023,10.023,0,0,0,1.628,5.829,3.669,3.669,0,0,0,1.482,1.257.17.17,0,0,1,.116.143l1.148,11.2a5.867,5.867,0,0,1-3.884,4.694,4.967,4.967,0,0,1-1.942.416Zm-3.928-2.4a4.849,4.849,0,0,0,5.75,1.679,5.541,5.541,0,0,0,3.679-4.374L210.461,55c-.548-.242-2.984-1.618-3.229-7.052a19.592,19.592,0,0,1-9.263,2.831c-.085,1.022-.521,6.953.317,9.5.886,2.684,3.826,2.487,3.955,2.477a.17.17,0,0,1,.181.177Z" transform="translate(-34.057 1804.726)"/><path class="d" d="M231.5,67.787a3.066,3.066,0,0,0,2.313-.341,3.274,3.274,0,0,0,1.506-2.834,2.793,2.793,0,0,0-.2-1.216,1.458,1.458,0,0,0-.889-.814,2.33,2.33,0,0,0-1.455.235c-.681.273-.732.651-1.165,1.168.048-.044.092-.187.136-.232" transform="translate(-56.516 1794.774)"/><path class="c" d="M231.916,67.732a3.132,3.132,0,0,1-.794-.1.176.176,0,1,1,.086-.341,2.858,2.858,0,0,0,2.18-.313,3.09,3.09,0,0,0,1.424-2.691,2.576,2.576,0,0,0-.191-1.141,1.3,1.3,0,0,0-.78-.722,2.181,2.181,0,0,0-1.342.228,1.451,1.451,0,0,0-.784.681,4.954,4.954,0,0,1-.3.412l-.031.034a.17.17,0,0,1-.249-.232h0s.024-.044.034-.068a.575.575,0,0,1,.1-.164.259.259,0,0,1,.065-.041l.082-.116a1.782,1.782,0,0,1,.94-.818,2.5,2.5,0,0,1,1.56-.238,1.628,1.628,0,0,1,1,.906,2.913,2.913,0,0,1,.221,1.295,3.431,3.431,0,0,1-1.587,2.974,3.2,3.2,0,0,1-1.639.456Z" transform="translate(-56.179 1795.095)"/><path class="c" d="M211.2,92.506a4.132,4.132,0,0,0,3.454-1.7c1.4-1.877,1.049-3.2,1.049-3.2a6.359,6.359,0,0,1-4.378,1.809Z" transform="translate(-43.131 1778.258)"/><path class="c" d="M211.037,92.34h-.184a.17.17,0,0,1-.153-.177l.129-3.086a.164.164,0,0,1,.174-.164,6.287,6.287,0,0,0,4.248-1.754.17.17,0,0,1,.164-.048.177.177,0,0,1,.123.123,4.343,4.343,0,0,1-1.076,3.345A4.286,4.286,0,0,1,211.037,92.34Zm.123-3.09L211.047,92a4.01,4.01,0,0,0,3.141-1.632,4.522,4.522,0,0,0,1.053-2.742,6.428,6.428,0,0,1-4.067,1.625Z" transform="translate(-42.801 1778.584)"/><path class="d" d="M210.723,65.53s-1.6,3.223-1.066,3.679,1.816-.058,1.816-.058" transform="translate(-42.041 1792.81)"/><path class="c" d="M209.966,69.237a1.172,1.172,0,0,1-.766-.228c-.6-.5.634-3.1,1.022-3.887a.174.174,0,0,1,.228-.075.17.17,0,0,1,.078.228c-.746,1.5-1.363,3.253-1.111,3.471.378.32,1.315.048,1.645-.085a.174.174,0,0,1,.221.1.17.17,0,0,1-.1.221A3.7,3.7,0,0,1,209.966,69.237Z" transform="translate(-41.707 1793.139)"/><ellipse class="c" cx="0.494" cy="0.698" rx="0.494" ry="0.698" transform="translate(170.404 1857.235) rotate(-12.23)"/><ellipse class="c" cx="0.701" cy="0.496" rx="0.701" ry="0.496" transform="translate(166.229 1858.941) rotate(-84.857)"/><path class="c" d="M208.558,82.193a1.639,1.639,0,0,1-1.094-.368,3.715,3.715,0,0,1-.893-2.688.17.17,0,0,1,.15-.16c4.483-.525,4.527-.484,4.6-.419a.177.177,0,0,1,.058.129h0a4.326,4.326,0,0,1-.474,1.986,2.793,2.793,0,0,1-1.942,1.482A2.355,2.355,0,0,1,208.558,82.193ZM206.91,79.3a3.245,3.245,0,0,0,.773,2.265,1.455,1.455,0,0,0,1.22.255,2.46,2.46,0,0,0,1.7-1.3,3.921,3.921,0,0,0,.426-1.659C210.442,78.9,208.337,79.134,206.91,79.3Zm4.3-.617Zm0,0Z" transform="translate(-40.078 1784.245)"/><path class="c" d="M212.708,84a2.253,2.253,0,0,1-3.178,1.1,2.057,2.057,0,0,1,1.216-1.346A2.865,2.865,0,0,1,212.708,84Z" transform="translate(-42.03 1780.841)"/><path class="c" d="M210.183,85.272a1.656,1.656,0,0,1-1.094-.368.164.164,0,0,1-.044-.187,2.156,2.156,0,0,1,1.329-1.448,3.066,3.066,0,0,1,2.078.255.15.15,0,0,1,.089.1.164.164,0,0,1,0,.133,2.793,2.793,0,0,1-1.942,1.482A2.355,2.355,0,0,1,210.183,85.272Zm-.777-.548a1.56,1.56,0,0,0,1.121.181,2.429,2.429,0,0,0,1.611-1.148,2.657,2.657,0,0,0-1.676-.16A1.793,1.793,0,0,0,209.406,84.724Z" transform="translate(-41.702 1781.165)"/><path class="c" d="M187.661,108.85c.041.358-2.521,13.136-2.521,13.136" transform="translate(-25.949 1764.247)"/><path class="c" d="M184.783,121.822h-.048a.164.164,0,0,1-.133-.2c1.022-5.055,2.521-12.71,2.521-13.092a.164.164,0,0,1,.15-.184.174.174,0,0,1,.187.153c.037.368-2.1,11.051-2.528,13.187A.164.164,0,0,1,184.783,121.822Z" transform="translate(-25.592 1764.578)"/><rect class="c" width="8.023" height="15.119" rx="3.33" transform="translate(174.992 1856.365) rotate(5.73)"/><path class="c" d="M233.932,75.528H233.8l-5.723-.576a1.3,1.3,0,0,1-1.168-1.427l1.284-12.8a1.308,1.308,0,0,1,1.427-1.168l5.723.576a1.3,1.3,0,0,1,1.168,1.431l-1.284,12.788A1.3,1.3,0,0,1,233.932,75.528ZM229.5,59.9a.947.947,0,0,0-.61.218.964.964,0,0,0-.341.651l-1.284,12.785a.967.967,0,0,0,.865,1.056l5.723.576h0a.964.964,0,0,0,1.056-.865L236.2,61.537a.971.971,0,0,0-.865-1.059l-5.723-.576Z" transform="translate(-53.483 1796.751)"/><path class="d" d="M251.115,94.48a56.324,56.324,0,0,1,2.807,6.864c1.407,6-3.976,13.919-10.5,9.934a11.962,11.962,0,0,1-4.524-5.842A50.9,50.9,0,0,1,235.5,89.724c-.167-2.385.276-6.432-2.664-7.433-.947-.341-2.044.705-2.265.276-.371-.739.94-2.473,3.008-1.526,0,0-1.438-1.482-2.916-1.063s-.845-1.059.092-1.39a3.18,3.18,0,0,1,3.516,1.342s-.651-2.167-1.8-2.405-1.53-.545-1.461-.889c.116-.6,1.175-.463,1.8-.341a4.472,4.472,0,0,1,2.725,2.252,5.53,5.53,0,0,0-1.966-2.793c-.879-.555-1.6-.48-1.414-.766a1.764,1.764,0,0,1,2.5-.078c1.295.944,3.008,3.962,3.008,3.962s0-2.085.184-2.044c.991.249,1.506,2.674,1.642,3.458a16.4,16.4,0,0,0,1.778,4.882c1.6,3.233,3.512,7.76,4.95,11.061" transform="translate(-55.381 1786.933)"/><path class="c" d="M246.611,112.2A6.926,6.926,0,0,1,243,111.1a11.984,11.984,0,0,1-4.592-5.924,50.747,50.747,0,0,1-3.424-15.762c-.027-.385-.037-.807-.051-1.254-.061-2.33-.136-5.226-2.5-6.033a2.131,2.131,0,0,0-1.39.215c-.419.164-.807.317-.974-.02a1.368,1.368,0,0,1,.4-1.4,2.245,2.245,0,0,1,1.962-.63,2.678,2.678,0,0,0-2.071-.477c-.77.2-1.022-.072-1.07-.266-.15-.467.4-1.213,1.059-1.448a3.631,3.631,0,0,1,3.008.566c-.29-.566-.722-1.189-1.271-1.3-.743-.157-1.7-.436-1.591-1.09.157-.828,1.547-.562,2-.477a4.881,4.881,0,0,1,1.809.988,4.088,4.088,0,0,0-1.186-1.22,4.259,4.259,0,0,0-1.022-.45c-.262-.085-.436-.14-.491-.293a.286.286,0,0,1,.044-.259,1.645,1.645,0,0,1,1.022-.593,2.194,2.194,0,0,1,1.7.47A14.053,14.053,0,0,1,237.1,77.93c.031-1.4.167-1.509.221-1.553a.249.249,0,0,1,.17-.037c1.107.279,1.632,2.821,1.765,3.594a16.306,16.306,0,0,0,1.761,4.837c1.295,2.606,2.77,6.016,4.068,9.021l.889,2.044a.17.17,0,0,1-.089.225.174.174,0,0,1-.225-.089l-.886-2.044c-1.3-3-2.77-6.4-4.061-9.007a16.487,16.487,0,0,1-1.792-4.929c-.235-1.339-.732-2.947-1.4-3.277a13.892,13.892,0,0,0-.092,1.829.17.17,0,0,1-.317.082,16.9,16.9,0,0,0-2.964-3.9,1.853,1.853,0,0,0-1.414-.412,1.407,1.407,0,0,0-.773.405l.235.082a4.67,4.67,0,0,1,1.1.484,5.726,5.726,0,0,1,2.044,2.889.178.178,0,0,1-.341.106,4.178,4.178,0,0,0-2.579-2.136c-.974-.187-1.543-.116-1.6.2-.051.259.422.5,1.329.681,1.237.256,1.9,2.432,1.928,2.524a.17.17,0,0,1-.313.123,3.017,3.017,0,0,0-3.308-1.257c-.535.191-.927.787-.852,1.022.041.126.293.143.654.041,1.56-.439,3.022,1.046,3.086,1.107a.174.174,0,0,1,0,.218.167.167,0,0,1-.208.058,2.039,2.039,0,0,0-2.449.29,1.012,1.012,0,0,0-.341,1c.065.044.368-.075.548-.146a2.408,2.408,0,0,1,1.622-.215c2.586.882,2.667,3.911,2.725,6.343,0,.443.024.862.051,1.24a50.362,50.362,0,0,0,3.407,15.67,11.679,11.679,0,0,0,4.456,5.764,5.824,5.824,0,0,0,6.789-.089,9.878,9.878,0,0,0,3.451-9.665,55.377,55.377,0,0,0-2.793-6.813.171.171,0,0,1,.307-.15,55.716,55.716,0,0,1,2.821,6.9,10.086,10.086,0,0,1-3.584,10.019,6.006,6.006,0,0,1-3.536,1.189Z" transform="translate(-55.043 1787.257)"/><circle class="d" cx="0.637" cy="0.637" r="0.637" transform="translate(178.17 1858.34)"/><path class="c" d="M241.144,66.642a.811.811,0,1,1,.807-.811A.811.811,0,0,1,241.144,66.642Zm0-1.277a.194.194,0,1,0,0-.01Z" transform="translate(-62.338 1793.146)"/><path class="c" d="M279.976,143.778a.17.17,0,0,1-.157-.1l-3.141-7.4a.17.17,0,1,1,.313-.133l3.141,7.4a.17.17,0,0,1-.089.221.164.164,0,0,1-.068.014Z" transform="translate(-86.293 1746.322)"/><path class="d" d="M120.249,134.553l-1.666,8.268-5.74-6.748s-.985-1.642-1.615-1.88c-.749-.279-3.846-.467-4.878-1.312s-1.594-1.022-1.7-.375,2.725,2.344,2.725,2.344a9.556,9.556,0,0,1-2.725.47c-.47-.187-1.622-2.62-2.092-2.62-.242,0-.749.514-.276,1.584-.405-1.022-.985-2.173-1.475-2.173s-.467.862-.16,2.01c0,0-1.237-2.013-1.7-.773-.443,1.138,2.814,5.161,3.563,5.348s5.723-1.315,5.723-1.315,6.037,17.227,14.8,19.476c2.18.559,5.253-19.534,5.253-19.534Z" transform="translate(30.912 1748.911)"/><path class="c" d="M122.807,156.706a.466.466,0,0,1-.136-.017c-3.679-.944-7.311-4.531-10.789-10.659a62.652,62.652,0,0,1-4.064-8.769c-.947.283-4.94,1.444-5.658,1.267-.64-.157-2.49-2.357-3.3-3.924a2.227,2.227,0,0,1-.382-1.649.681.681,0,0,1,.552-.511,1.4,1.4,0,0,1,.985.6,1.725,1.725,0,0,1,.106-1.243.48.48,0,0,1,.392-.187h0c.341,0,.739.405,1.151,1.2a.954.954,0,0,1,.133-.3.606.606,0,0,1,.467-.31c.341,0,.7.555,1.281,1.461a5.194,5.194,0,0,0,.872,1.168,7.1,7.1,0,0,0,2.238-.368c-.886-.555-2.555-1.7-2.466-2.31a.569.569,0,0,1,.341-.508c.341-.129.814.1,1.635.773a9.386,9.386,0,0,0,3.468,1.022,9.664,9.664,0,0,1,1.363.279c.664.252,1.594,1.778,1.7,1.952l5.495,6.473,1.6-7.924a.177.177,0,0,1,.082-.116.181.181,0,0,1,.14,0l8.029,2.77a.17.17,0,0,1,.112.187c-.112.739-2.793,18.133-4.977,19.574A.623.623,0,0,1,122.807,156.706Zm-14.89-19.827a.167.167,0,0,1,.16.116c.061.17,6.108,17.166,14.679,19.367a.266.266,0,0,0,.215-.055c1.635-1.08,3.846-12.945,4.807-19.2l-7.713-2.657-1.625,8.077a.164.164,0,0,1-.126.129.16.16,0,0,1-.17-.055l-5.74-6.749c-.283-.463-1.076-1.652-1.547-1.829a9.611,9.611,0,0,0-1.295-.262,9.094,9.094,0,0,1-3.631-1.08c-.882-.722-1.189-.76-1.295-.719s-.1.143-.116.238c-.048.324,1.329,1.386,2.64,2.173a.17.17,0,0,1-.041.31c-.385.112-2.337.681-2.834.463-.252-.1-.555-.562-1.022-1.3-.3-.477-.814-1.274-1-1.3a.341.341,0,0,0-.181.153,1.138,1.138,0,0,0,0,1.022c.027.061.051.123.075.184a.17.17,0,0,1-.313.133c-.031-.068-.055-.133-.078-.194-.562-1.383-1.022-1.88-1.243-1.88h0a.143.143,0,0,0-.123.055c-.058.075-.221.426.129,1.741a.174.174,0,0,1-.1.2.17.17,0,0,1-.211-.068c-.29-.47-.838-1.131-1.151-1.094-.1,0-.187.109-.262.293s-.078.508.368,1.363a11.659,11.659,0,0,0,3.066,3.747c.518.129,3.652-.712,5.631-1.308a.137.137,0,0,1,.041-.007Z" transform="translate(31.227 1749.241)"/><line class="d" x2="1.08" y2="1.533" transform="translate(133.205 1883.194)"/><path class="c" d="M109.579,139.866a.164.164,0,0,1-.14-.072l-1.08-1.533a.167.167,0,0,1,.041-.235.163.163,0,0,1,.235.041l1.08,1.53a.17.17,0,0,1-.041.238A.16.16,0,0,1,109.579,139.866Z" transform="translate(24.696 1745.032)"/><path class="d" d="M104.06,138a17.968,17.968,0,0,0,1.233,1.7" transform="translate(27.51 1745.028)"/><path class="c" d="M104.962,139.547a.167.167,0,0,1-.126-.055,17.308,17.308,0,0,1-1.25-1.72.17.17,0,0,1,.048-.235.174.174,0,0,1,.238.051,18.108,18.108,0,0,0,1.213,1.673.167.167,0,0,1-.123.286Z" transform="translate(27.842 1745.351)"/></g></svg>