<svg xmlns="http://www.w3.org/2000/svg" width="696" height="1251" viewBox="0 0 696 1251">
  <g id="그룹_917" data-name="그룹 917" transform="translate(-27 -759)">
    <g id="그룹_892" data-name="그룹 892" transform="translate(0 102)">
      <rect id="주력_테마_그림자" data-name="주력 테마 그림자" width="654" height="1209" rx="26" transform="translate(48 678)" fill="#d6d6d6"/>
      <rect id="사각형_517" data-name="사각형 517" width="654" height="1210" rx="22" transform="translate(48 678)" fill="#fff"/>
      <text id="주안역환승정류장" transform="translate(160 808)" fill="#3a4147" font-size="30" font-family="NanumSquareR, NanumSquare"><tspan x="0" y="0">주안역환승정류장</tspan></text>
      <text id="가메이" transform="translate(160 1016)" fill="#3a4147" font-size="30" font-family="NanumSquareR, NanumSquare"><tspan x="0" y="0">가메이</tspan></text>
      <text id="원조통계란영양빵" transform="translate(160 1232)" fill="#3a4147" font-size="30" font-family="NanumSquareR, NanumSquare"><tspan x="0" y="0">원조통계란영양빵</tspan></text>
      <text id="인경호" transform="translate(160 1451)" fill="#3a4147" font-size="30" font-family="NanumSquareR, NanumSquare"><tspan x="0" y="0">인경호</tspan></text>
      <text id="제1생활관" transform="translate(160 1667)" fill="#3a4147" font-size="30" font-family="NanumSquareR, NanumSquare"><tspan x="0" y="0">제1생활관</tspan></text>
      <text id="_511_버스_약_14분_소요" data-name="511 버스, 약 14분 소요" transform="translate(206 876)" fill="#afb2bc" font-size="26" font-family="NanumSquareR, NanumSquare"><tspan x="0" y="0">511 버스, 약 14분 소요</tspan></text>
      <text id="인하대_후문_거리의_대표_일식집" data-name="인하대 후문 거리의 대표 일식집" transform="translate(170 1084)" fill="#afb2bc" font-size="26" font-family="NanumSquareR, NanumSquare"><tspan x="0" y="0">인하대 후문 거리의 대표 일식집</tspan></text>
      <text id="_1987년도부터_이어진_원조계란빵집" data-name="1987년도부터 이어진 원조계란빵집" transform="translate(170 1300)" fill="#afb2bc" font-size="26" font-family="NanumSquareR, NanumSquare"><tspan x="0" y="0">1987년도부터 이어진 </tspan><tspan y="0" fill="#ff8ebf">원조계란빵</tspan><tspan y="0">집</tspan></text>
      <text id="캠퍼스_동선의_중앙에_위치한_호수_" data-name="캠퍼스 동선의 중앙에 위치한 호수 " transform="translate(170 1519)" fill="#afb2bc" font-size="26" font-family="NanumSquareR, NanumSquare"><tspan x="0" y="0">캠퍼스 동선의 중앙에 위치한 호수 </tspan></text>
      <text id="인하대학교_제1생활관_웅비재" data-name="인하대학교 제1생활관 웅비재" transform="translate(170 1735)" fill="#afb2bc" font-size="26" font-family="NanumSquareR, NanumSquare"><tspan x="0" y="0">인하대학교 제1생활관 웅비재</tspan></text>
      <text id="배차_간격:_평일_3-5분_주말_5-8분" data-name="배차 간격: 평일 3-5분, 주말 5-8분" transform="translate(170 917)" fill="#afb2bc" font-size="26" font-family="NanumSquareR, NanumSquare"><tspan x="0" y="0">배차 간격: 평일 3-5분, 주말 5-8분</tspan></text>
      <text id="신선한_연어가_가득_올라간_사케동_추천_" data-name="신선한 연어가 가득 올라간 사케동 추천!" transform="translate(170 1125)" fill="#afb2bc" font-size="26" font-family="NanumSquareR, NanumSquare"><tspan x="0" y="0">신선한 연어가 가득 올라간 </tspan><tspan y="0" fill="#ff8ebf">사케동</tspan><tspan y="0" fill="#b5b8c1"> </tspan><tspan y="0">추천!</tspan></text>
      <text id="개당_900원_현금_결제만_가능하니_주의_" data-name="개당 900원, 현금 결제만 가능하니 주의!" transform="translate(170 1341)" fill="#afb2bc" font-size="26" font-family="NanumSquareR, NanumSquare"><tspan x="0" y="0">개당 900원, 현금 결제만 가능하니 주의!</tspan></text>
      <text id="인경호의_새로운_식구_아기_오리들_" data-name="인경호의 새로운 식구, 아기 오리들♥ " transform="translate(170 1560)" fill="#afb2bc" font-size="26" font-family="NanumSquareR, NanumSquare"><tspan x="0" y="0">인경호의 새로운 식구, 아기 오리들♥ </tspan></text>
      <text id="헬스장과_탁구장_등_편의_시설_이용_가능" data-name="헬스장과 탁구장 등 편의 시설 이용 가능" transform="translate(170 1776)" fill="#afb2bc" font-size="26" font-family="NanumSquareR, NanumSquare"><tspan x="0" y="0">헬스장과 탁구장 등 편의 시설 이용 가능</tspan></text>
      <text id="인하대후문" transform="translate(456 808)" fill="#3a4147" font-size="30" font-family="NanumSquareR, NanumSquare"><tspan x="0" y="0">인하대후문</tspan></text>
      <g id="그룹_870" data-name="그룹 870" transform="translate(-3 -10)">
        <circle id="타원_233" data-name="타원 233" cx="14" cy="14" r="14" transform="translate(113 1003)" fill="#5062ff"/>
        <circle id="타원_228" data-name="타원 228" cx="6" cy="6" r="6" transform="translate(121 1011)" fill="#fff"/>
      </g>
      <g id="그룹_872" data-name="그룹 872" transform="translate(-3 206)">
        <circle id="타원_233-2" data-name="타원 233" cx="14" cy="14" r="14" transform="translate(113 1003)" fill="#5062ff"/>
        <circle id="타원_228-2" data-name="타원 228" cx="6" cy="6" r="6" transform="translate(121 1011)" fill="#fff"/>
      </g>
      <g id="그룹_873" data-name="그룹 873" transform="translate(-3 422)">
        <circle id="타원_233-3" data-name="타원 233" cx="14" cy="14" r="14" transform="translate(113 1003)" fill="#5062ff"/>
        <circle id="타원_228-3" data-name="타원 228" cx="6" cy="6" r="6" transform="translate(121 1011)" fill="#fff"/>
      </g>
      <g id="그룹_874" data-name="그룹 874" transform="translate(-3 641)">
        <circle id="타원_233-4" data-name="타원 233" cx="14" cy="14" r="14" transform="translate(113 1003)" fill="#5062ff"/>
        <circle id="타원_228-4" data-name="타원 228" cx="6" cy="6" r="6" transform="translate(121 1011)" fill="#fff"/>
      </g>
      <g id="그룹_871" data-name="그룹 871" transform="translate(-3 -218)">
        <circle id="타원_233-5" data-name="타원 233" cx="14" cy="14" r="14" transform="translate(113 1003)" fill="#5062ff"/>
        <circle id="타원_228-5" data-name="타원 228" cx="6" cy="6" r="6" transform="translate(121 1011)" fill="#fff"/>
      </g>
      <circle id="타원_230" data-name="타원 230" cx="7" cy="7" r="7" transform="translate(121 1245)" fill="#fff"/>
      <path id="Icon_ionic-ios-arrow-round-forward" data-name="Icon ionic-ios-arrow-round-forward" d="M29.558,11.673a1.466,1.466,0,0,0-.012,2.108l7.18,6.978H9.4a1.49,1.49,0,1,0,0,2.979H36.714l-7.18,6.978a1.476,1.476,0,0,0,.012,2.108,1.562,1.562,0,0,0,2.161-.011l9.731-9.51h0a1.669,1.669,0,0,0,.319-.47,1.385,1.385,0,0,0,.118-.573,1.47,1.47,0,0,0-.437-1.043l-9.731-9.51A1.537,1.537,0,0,0,29.558,11.673Z" transform="translate(392.125 776.748)" fill="#73787c"/>
      <line id="선_55" data-name="선 55" y2="152" transform="translate(124 823)" fill="none" stroke="#e4e4e4" stroke-width="2"/>
      <line id="선_59" data-name="선 59" y2="152" transform="translate(124 1039)" fill="none" stroke="#e4e4e4" stroke-width="2"/>
      <line id="선_60" data-name="선 60" y2="152" transform="translate(124 1255)" fill="none" stroke="#e4e4e4" stroke-width="2"/>
      <line id="선_61" data-name="선 61" y2="152" transform="translate(124 1474)" fill="none" stroke="#e4e4e4" stroke-width="2"/>
      <path id="Icon_material-directions-bus" data-name="Icon material-directions-bus" d="M6,22.158A4.078,4.078,0,0,0,7.375,25.2v2.436A1.376,1.376,0,0,0,8.75,29h1.375A1.376,1.376,0,0,0,11.5,27.632V26.263h11v1.368A1.376,1.376,0,0,0,23.875,29H25.25a1.376,1.376,0,0,0,1.375-1.368V25.2A4.078,4.078,0,0,0,28,22.158V8.474C28,3.684,23.078,3,17,3S6,3.684,6,8.474Zm4.813,1.368a2.053,2.053,0,1,1,2.063-2.053A2.055,2.055,0,0,1,10.812,23.526Zm12.375,0a2.053,2.053,0,1,1,2.063-2.053A2.055,2.055,0,0,1,23.188,23.526Zm2.063-8.211H8.75V8.474h16.5Z" transform="translate(166 852)" fill="#afb2bc"/>
    </g>
    <text id="_2021.08.21" data-name="2021.08.21" transform="translate(108 838)" fill="#bebebe" font-size="24" font-family="NanumSquareR, NanumSquare"><tspan x="0" y="0">2021.08.21</tspan></text>
  </g>
</svg>
