<svg xmlns="http://www.w3.org/2000/svg" width="696" height="1251" viewBox="0 0 696 1251">
  <g id="그룹_891" data-name="그룹 891" transform="translate(-27 -657)">
    <rect id="주력_테마_그림자" data-name="주력 테마 그림자" width="654" height="1209" rx="26" transform="translate(48 678)" fill="#d6d6d6"/>
    <rect id="사각형_517" data-name="사각형 517" width="654" height="1210" rx="22" transform="translate(48 678)" fill="#fff"/>
    <text id="_2021.08.18" data-name="2021.08.18" transform="translate(108 736)" fill="#bebebe" font-size="24" font-family="NanumSquareR, NanumSquare"><tspan x="0" y="0">2021.08.18</tspan></text>
    <text id="정석학술정보관" transform="translate(160 808)" fill="#3a4147" font-size="30" font-family="NanumSquareR, NanumSquare"><tspan x="0" y="0">정석학술정보관</tspan></text>
    <text id="미식당" transform="translate(160 1016)" fill="#3a4147" font-size="30" font-family="NanumSquareR, NanumSquare"><tspan x="0" y="0">미식당</tspan></text>
    <text id="하타가야" transform="translate(160 1232)" fill="#3a4147" font-size="30" font-family="NanumSquareR, NanumSquare"><tspan x="0" y="0">하타가야</tspan></text>
    <text id="천지인" transform="translate(160 1451)" fill="#3a4147" font-size="30" font-family="NanumSquareR, NanumSquare"><tspan x="0" y="0">천지인</tspan></text>
    <text id="인하대학교의_중앙_도서관" data-name="인하대학교의 중앙 도서관" transform="translate(170 876)" fill="#afb2bc" font-size="26" font-family="NanumSquareR, NanumSquare"><tspan x="0" y="0">인하대학교의 중앙 도서관</tspan></text>
    <text id="인하대_후문_거리의_인기_만점_양식당" data-name="인하대 후문 거리의 인기 만점 양식당" transform="translate(170 1084)" fill="#afb2bc" font-size="26" font-family="NanumSquareR, NanumSquare"><tspan x="0" y="0">인하대 후문 거리의 인기 만점 양식당</tspan></text>
    <text id="인후_케이크_맛집으로_유명한_카페" data-name="인후 케이크 맛집으로 유명한 카페" transform="translate(170 1300)" fill="#afb2bc" font-size="26" font-family="NanumSquareR, NanumSquare"><tspan x="0" y="0">인후 </tspan><tspan y="0" fill="#ff97c4">케이크</tspan><tspan y="0" xml:space="preserve"> 맛집으로 유명한 카페</tspan></text>
    <text id="인하인들이_사랑하는_인후_막걸리집" data-name="인하인들이 사랑하는 인후 막걸리집" transform="translate(170 1519)" fill="#afb2bc" font-size="26" font-family="NanumSquareR, NanumSquare"><tspan x="0" y="0">인하인들이 사랑하는 인후 막걸리집</tspan></text>
    <text id="약_165만권의_장서를_보유한_인하대의_두뇌" data-name="약 165만권의 장서를 보유한 인하대의 두뇌" transform="translate(170 917)" fill="#afb2bc" font-size="26" font-family="NanumSquareR, NanumSquare"><tspan x="0" y="0">약 165만권의 장서를 보유한 인하대의 두뇌</tspan></text>
    <text id="파스타_피자_리조또_등_실패_메뉴가_없음_" data-name="파스타, 피자, 리조또 등 실패 메뉴가 없음!" transform="translate(170 1125)" fill="#afb2bc" font-size="26" font-family="NanumSquareR, NanumSquare"><tspan x="0" y="0">파스타, 피자, 리조또 등 실패 메뉴가 없음!</tspan></text>
    <text id="진한_맛의_음료와_디저트가_특징" data-name="진한 맛의 음료와 디저트가 특징" transform="translate(170 1341)" fill="#afb2bc" font-size="26" font-family="NanumSquareR, NanumSquare"><tspan x="0" y="0">진한 맛의 음료와 디저트가 특징</tspan></text>
    <text id="달달한_과일_막걸리와_김치_파전_추천_" data-name="달달한 과일 막걸리와 김치 파전 추천!" transform="translate(170 1560)" fill="#afb2bc" font-size="26" font-family="NanumSquareR, NanumSquare"><tspan x="0" y="0">달달한 </tspan><tspan y="0" fill="#ff8ebf">과일 막걸리</tspan><tspan y="0">와 김치 파전 추천!</tspan></text>
    <g id="그룹_870" data-name="그룹 870" transform="translate(-3 -10)">
      <circle id="타원_233" data-name="타원 233" cx="14" cy="14" r="14" transform="translate(113 1003)" fill="#5062ff"/>
      <circle id="타원_228" data-name="타원 228" cx="6" cy="6" r="6" transform="translate(121 1011)" fill="#fff"/>
    </g>
    <g id="그룹_872" data-name="그룹 872" transform="translate(-3 206)">
      <circle id="타원_233-2" data-name="타원 233" cx="14" cy="14" r="14" transform="translate(113 1003)" fill="#5062ff"/>
      <circle id="타원_228-2" data-name="타원 228" cx="6" cy="6" r="6" transform="translate(121 1011)" fill="#fff"/>
    </g>
    <g id="그룹_873" data-name="그룹 873" transform="translate(-3 422)">
      <circle id="타원_233-3" data-name="타원 233" cx="14" cy="14" r="14" transform="translate(113 1003)" fill="#5062ff"/>
      <circle id="타원_228-3" data-name="타원 228" cx="6" cy="6" r="6" transform="translate(121 1011)" fill="#fff"/>
    </g>
    <g id="그룹_874" data-name="그룹 874" transform="translate(-3 641)">
      <circle id="타원_233-4" data-name="타원 233" cx="14" cy="14" r="14" transform="translate(113 1003)" fill="#5062ff"/>
      <circle id="타원_228-4" data-name="타원 228" cx="6" cy="6" r="6" transform="translate(121 1011)" fill="#fff"/>
    </g>
    <g id="그룹_871" data-name="그룹 871" transform="translate(-3 -218)">
      <circle id="타원_233-5" data-name="타원 233" cx="14" cy="14" r="14" transform="translate(113 1003)" fill="#5062ff"/>
      <circle id="타원_228-5" data-name="타원 228" cx="6" cy="6" r="6" transform="translate(121 1011)" fill="#fff"/>
    </g>
    <circle id="타원_230" data-name="타원 230" cx="7" cy="7" r="7" transform="translate(121 1245)" fill="#fff"/>
    <line id="선_55" data-name="선 55" y2="152" transform="translate(124 823)" fill="none" stroke="#e4e4e4" stroke-width="2"/>
    <line id="선_59" data-name="선 59" y2="152" transform="translate(124 1039)" fill="none" stroke="#e4e4e4" stroke-width="2"/>
    <line id="선_60" data-name="선 60" y2="152" transform="translate(124 1255)" fill="none" stroke="#e4e4e4" stroke-width="2"/>
    <line id="선_61" data-name="선 61" y2="152" transform="translate(124 1474)" fill="none" stroke="#e4e4e4" stroke-width="2"/>
    <text id="인하대_후문" data-name="인하대 후문" transform="translate(160 1667)" fill="#3a4147" font-size="30" font-family="NanumSquareR, NanumSquare"><tspan x="0" y="0">인하대 후문</tspan></text>
    <text id="_511_버스_약_14분_소요" data-name="511 버스, 약 14분 소요" transform="translate(206 1735)" fill="#afb2bc" font-size="26" font-family="NanumSquareR, NanumSquare"><tspan x="0" y="0">511 버스, 약 14분 소요</tspan></text>
    <text id="배차_간격:_평일_3-5분_주말_5-8분" data-name="배차 간격: 평일 3-5분, 주말 5-8분" transform="translate(170 1776)" fill="#afb2bc" font-size="26" font-family="NanumSquareR, NanumSquare"><tspan x="0" y="0">배차 간격: 평일 3-5분, 주말 5-8분</tspan></text>
    <text id="주안역환승정류장" transform="translate(382 1667)" fill="#3a4147" font-size="30" font-family="NanumSquareR, NanumSquare"><tspan x="0" y="0">주안역환승정류장</tspan></text>
    <path id="Icon_ionic-ios-arrow-round-forward" data-name="Icon ionic-ios-arrow-round-forward" d="M29.558,11.673a1.466,1.466,0,0,0-.012,2.108l7.18,6.978H9.4a1.49,1.49,0,1,0,0,2.979H36.714l-7.18,6.978a1.476,1.476,0,0,0,.012,2.108,1.562,1.562,0,0,0,2.161-.011l9.731-9.51h0a1.669,1.669,0,0,0,.319-.47,1.385,1.385,0,0,0,.118-.573,1.47,1.47,0,0,0-.437-1.043l-9.731-9.51A1.537,1.537,0,0,0,29.558,11.673Z" transform="translate(318.125 1635.748)" fill="#73787c"/>
    <path id="Icon_material-directions-bus" data-name="Icon material-directions-bus" d="M6,22.158A4.078,4.078,0,0,0,7.375,25.2v2.436A1.376,1.376,0,0,0,8.75,29h1.375A1.376,1.376,0,0,0,11.5,27.632V26.263h11v1.368A1.376,1.376,0,0,0,23.875,29H25.25a1.376,1.376,0,0,0,1.375-1.368V25.2A4.078,4.078,0,0,0,28,22.158V8.474C28,3.684,23.078,3,17,3S6,3.684,6,8.474Zm4.813,1.368a2.053,2.053,0,1,1,2.063-2.053A2.055,2.055,0,0,1,10.812,23.526Zm12.375,0a2.053,2.053,0,1,1,2.063-2.053A2.055,2.055,0,0,1,23.188,23.526Zm2.063-8.211H8.75V8.474h16.5Z" transform="translate(166 1711)" fill="#afb2bc"/>
  </g>
</svg>
