<svg xmlns="http://www.w3.org/2000/svg" width="141.791" height="122.891" viewBox="0 0 141.791 122.891"><defs><style>.a{fill:#231f20;}.b{fill:#fff;}.c{fill:#5062ff;}.d{fill:none;stroke:#231f20;stroke-linecap:round;stroke-width:0.9px;}</style></defs><g transform="translate(-304.257 -1212.306)"><path class="a" d="M5.621,0A5.266,5.266,0,0,0,1,3.109a10.1,10.1,0,0,0-.78,2.3A5.68,5.68,0,0,0,.051,7.738a4.183,4.183,0,0,0,1.432,2.345,2.752,2.752,0,0,0,.96.606,2.819,2.819,0,0,0,1.5-.073A6.817,6.817,0,0,0,6.438,9.6,5.176,5.176,0,0,0,8.266,7.029a.354.354,0,0,0,0-.241.28.28,0,0,0-.149-.165.256.256,0,0,0-.344.176A4.512,4.512,0,0,1,6.161,9.065,6.484,6.484,0,0,1,3.84,10a2.4,2.4,0,0,1-1.263.079A2.167,2.167,0,0,1,1.8,9.6,3.657,3.657,0,0,1,.569,7.623a5.046,5.046,0,0,1,.159-2.03,9.617,9.617,0,0,1,.729-2.151A5.02,5.02,0,0,1,4.471.8a4.236,4.236,0,0,1,3.707.68.229.229,0,0,0,.2.039.27.27,0,0,0,.164-.142.35.35,0,0,0,.033-.234.3.3,0,0,0-.12-.19A4.823,4.823,0,0,0,5.621,0Z" transform="translate(396.474 1239.151) rotate(166)"/><path class="b" d="M3.87,5.874C3.813,3.941,4.061,1.979,5.237.727c1.415-1.207,3.754-.7,5.381.019a6.012,6.012,0,0,1,2.6,1.894c1.6,2.208,1.088,5.671.366,8.506A113.11,113.11,0,0,1,9.357,24.418,1.986,1.986,0,0,1,8.7,25.444c-.452.278-6.931-1.1-7.441-1.122-2.628-.145-.472-2.847.395-6.889C2,15.864,2.975,14.5,3.4,12.944,4.044,10.64,3.774,8.311,3.87,5.874Z" transform="matrix(0.998, 0.07, -0.07, 0.998, 430.793, 1238.111)"/><path class="a" d="M100.506,122.581a.921.921,0,0,0,.483-.089,2.3,2.3,0,0,0,.83-1.2,102.8,102.8,0,0,0,4.032-12.3c.638-2.469,1.3-6.012-.447-8.337a6.078,6.078,0,0,0-2.645-1.893c-2.18-.941-3.9-.886-5.135.144a6.9,6.9,0,0,0-1.824,5.06h0v1.893a16,16,0,0,1-.41,4.5,10.942,10.942,0,0,1-.748,1.816,11.6,11.6,0,0,0-.912,2.336,23.411,23.411,0,0,1-.912,2.978c-.52,1.45-.912,2.491-.5,3.322a1.611,1.611,0,0,0,1.469.764c.119,0,.912.144,1.614.277a39.971,39.971,0,0,0,5.108.731ZM99.968,99.2a6.477,6.477,0,0,1,2.481.609,5.2,5.2,0,0,1,2.28,1.594c1.423,1.9,1.419,5.185.407,7.344-1.194,5.74-2.566,8.163-4.138,12.1a1.4,1.4,0,0,1-.41.687c-.374.066-3.585-.52-5.117-.8-1.04-.188-1.551-.277-1.715-.288-.575,0-.7-.188-.73-.244a5.306,5.306,0,0,1,.556-2.214,22.472,22.472,0,0,0,.711-3.057,8.4,8.4,0,0,1,.682-1.943,14.6,14.6,0,0,0,.824-2.113,17.133,17.133,0,0,0,.532-4.806v-2.1a10.728,10.728,0,0,1,.451-2.569s1.265-2.308,1.723-2.491c.558-.223,1.074.28,1.463.288Z" transform="translate(338.045 1139.782)"/><path class="c" d="M172.7,109.61l15.5,5.9s9.056,57.213,6.705,74.08c0,0-47.177,2.564-61.97-5.322,0,0,8.415-42.549,6.9-50.435-.972-5.6,2.633-12.645,2.441-18.322l15.607-5.544Z" transform="translate(212.064 1145.206)"/><path class="b" d="M216.913,114.311a13.433,13.433,0,0,1-.43-4.544c.287-2.064-.244-6.422.287-8s6.307-6.236,5.877-7.1a3.039,3.039,0,0,0-3.541-.917c-1.262.616-6.006,5.734-6.006,5.734-4.759-2.58-9.547-4.845-14.206-7.569a7.856,7.856,0,0,0-1.677-.8,6.408,6.408,0,0,0-2.279-.143,4.731,4.731,0,0,0-2.308.645c-2.322,1.62,2.279,5.734,3.426,7.268a45.142,45.142,0,0,1,4.429,6.15c.961,1.835,2.928,5.775,4.577,6.793.838.544,6.156,2.573,7.09,2.925l-3.109,2.08Z" transform="translate(112.272 1137.063)"/><path class="a" d="M214.5,119.743h.215l7.913-2.48a.7.7,0,0,0,.473-.874c-.377-1.4-.905-1.306-.794-2.752.09-1.217-.318-3.845-.141-5.307a18.189,18.189,0,0,1,.375-4.219,20.481,20.481,0,0,1,3.212-3.333c2.264-2.437,2.937-3.1,2.492-3.935A3.105,3.105,0,0,0,224.21,95.7a57.124,57.124,0,0,0-5.963,5.526c-1.72-.917.583.278-1.138-.6-2.867-1.434-4.979-2.469-7.846-4.1-.574-.365-4.842-2.831-5.487-3.047a9.4,9.4,0,0,0-2.783-.646,4.985,4.985,0,0,0-2.864,1.07c-.517.346-1.055,2.263.422,3.911.373.416.87,1.29,1.071,1.548l.512.605,1.263,1.564a24.834,24.834,0,0,1,3.218,4c.215.416,1.349,2.305,1.621,2.907,1,2.179,2.354,4.889,3.8,5.721a30.9,30.9,0,0,0,3.809,1.728v3.446a.745.745,0,0,0,.659.4Zm7.053-3.67-6.68,2.079-1.434-2.867a.7.7,0,0,0-.416-.373,13.087,13.087,0,0,1-2.523-1.276c-1.089-.674-2.606-3.426-3.438-5.218-.287-.616-1.912-3.348-2.127-3.778a13.179,13.179,0,0,0-2.127-2.88c-.4-.487-.851-1-1.238-1.445-.3-.393-.871-1.113-1.21-1.474-1.075-1.2-2.36-2.765-2.145-3.94a1.017,1.017,0,0,1,.412-.649,5.4,5.4,0,0,1,2.2-.767,6.053,6.053,0,0,1,1.983.425,15.055,15.055,0,0,1,2.127.992c2.867,1.649,5.186,3.006,8.053,4.468,1.864.96,3.643,1.768,5.507,2.714.286.152,0,.07.222-.167a53.589,53.589,0,0,1,6.072-5.782,2,2,0,0,1,2.763,1.183c.04,1.19-1.266,1.98-2.2,2.864a14.382,14.382,0,0,0-3.449,3.57,17.313,17.313,0,0,0-.351,4.7,32.73,32.73,0,0,1-.113,4.017A9.317,9.317,0,0,0,221.558,116.073Z" transform="translate(106.811 1134.813)"/><path class="b" d="M210.011,96.43A22.291,22.291,0,0,0,202.17,99.1" transform="translate(110.329 1139.448)"/><path class="a" d="M.654,2.022a1.147,1.147,0,0,0,.352-.057A31.883,31.883,0,0,1,7.867.7c.356-.026.606-.2.56-.4S8.054-.022,7.7,0A33.973,33.973,0,0,0,.289,1.371c-.3.108-.378.326-.182.489a.84.84,0,0,0,.547.163Z" transform="translate(312.102 1237.556) rotate(-14)"/><line class="b" x1="8.3" y1="6.494" transform="translate(309.776 1229.839)"/><line class="b" x1="8.085" y1="7.712" transform="translate(306.607 1229.696)"/><path class="a" d="M9.142,6.633c.215,0,.242.029.387-.081a.413.413,0,0,0,0-.736L.874.159A.921.921,0,0,0,.338,0C.135,0,.127.024.127.024A.124.124,0,0,0,0,.159C0,.3.729.835.874.934L8.962,6.553h0C9.1,6.646,8.951,6.625,9.142,6.633Z" transform="translate(306.438 1230.598) rotate(7)"/><path class="a" d="M9.142,5.821c.215,0,.242.025.387-.071a.4.4,0,0,0,.225-.323A.4.4,0,0,0,9.529,5.1L.874.14A1.015,1.015,0,0,0,.338,0C.135,0,.127.021.127.021A.119.119,0,0,0,0,.14C0,.263.729.733.874.82L8.962,5.75h0C9.1,5.832,8.951,5.814,9.142,5.821Z" transform="translate(308.395 1230.066) rotate(7)"/><path class="b" d="M201.967,96.86s-4.143,4.974-3.2,8.83" transform="translate(123.447 1139.638)"/><path class="a" d="M.394,10.236H.482a.505.505,0,0,0,.207-.322,1.412,1.412,0,0,0,.036-.538C.32,5.907,2.136,1.219,2.157,1.176A1.336,1.336,0,0,0,2.113.166c-.144-.253-.357-.212-.476.093C1.556.474-.389,5.549.07,9.72.112,10.026.244,10.236.394,10.236Z" transform="translate(324.17 1234.97) rotate(10)"/><path class="c" d="M95.957,116.228l20.909,17.388,9.548-25.187,10.5,7.5s-2.788,29.53-6,37.959-27.287-2.351-36.51-13.59Z" transform="translate(304.388 1144.678)"/><path class="c" d="M195.752,119.556l-14.96,9.028L170.64,104.71l-11.3,3.68s7.317,41.809,15.433,41.114,37.36-12.879,37.36-12.879Z" transform="translate(158.604 1141.334)"/><path class="a" d="M3.2,49.779c.214,0,.388-.3.388-.678C3.684,34.2.8.916.772.577A.858.858,0,0,0,.619.132.276.276,0,0,0,.33.008C.12.07-.025.412,0,.78c0,.339,2.9,33.538,2.8,48.308,0,.377.173.684.388.691Z" transform="matrix(0.999, -0.035, 0.035, 0.999, 401.904, 1277.282)"/><path class="a" d="M.478,7.736h0C4.894,7.672,26.8,1.176,27.775.892a.471.471,0,0,0,.282-.223.425.425,0,0,0,.03-.345.456.456,0,0,0-.234-.271.505.505,0,0,0-.37-.031C27.248.086,4.767,6.765.487,6.82a.459.459,0,1,0,0,.916Z" transform="matrix(0.995, -0.105, 0.105, 0.995, 335.613, 1282.994)"/><path class="a" d="M8.314,23.3a.281.281,0,0,0,.182-.069.56.56,0,0,0,.2-.336.8.8,0,0,0-.029-.438L.746.311A.478.478,0,0,0,.511.026a.287.287,0,0,0-.3.043A.744.744,0,0,0,.041.843L7.958,22.984a.406.406,0,0,0,.356.312Z" transform="translate(330.654 1249.814) rotate(-3)"/><path class="b" d="M128.241,43.3s-6.091,3.5-22.581,3.345l1.5,11.513a77.218,77.218,0,0,0,24.084-2.833,13.19,13.19,0,0,1-3.171-4.731C126.983,47.688,128.241,43.3,128.241,43.3Z" transform="translate(305.62 1173.877)"/><path class="a" d="M109.776,58.263a77.156,77.156,0,0,0,21.307-2.915.256.256,0,0,0,.092-.435,13.114,13.114,0,0,1-3.1-4.6c-1.064-2.793.159-7.094.169-7.16a.251.251,0,0,0-.087-.271.256.256,0,0,0-.286,0c-.061.036-6.26,3.468-22.448,3.309a.2.2,0,0,0-.194.087.276.276,0,0,0-.066.2l1.5,11.513a.256.256,0,0,0,.24.22C106.943,58.191,108,58.263,109.776,58.263Zm20.74-3.278A78.058,78.058,0,0,1,107.148,57.7L105.71,46.688c13.727.092,20.136-2.312,21.9-3.125-.3,1.284-.915,4.537,0,6.9a13.517,13.517,0,0,0,2.905,4.506Z" transform="translate(306.117 1174.302)"/><path class="b" d="M1.942,1.234A3.125,3.125,0,0,1,4.265,0,1.634,1.634,0,0,1,5.383.388a3.187,3.187,0,0,1,.758,1.56A8.083,8.083,0,0,1,6.272,5.7,7.091,7.091,0,0,1,3.906,9.262c-1.176.932-2.8,1.147-3.44-.473A7.354,7.354,0,0,1,1.942,1.234Z" transform="matrix(0.999, 0.035, -0.035, 0.999, 388.188, 1230.293)"/><path class="b" d="M146.526,105.229c-2.867-3.211-4.3-9.361-3.885-13.289.459-4.616,4.817-11.253,10.321-8.859a3.082,3.082,0,0,0,1.3.4c.688,0,1.19-.616,1.692-1.1,2.423-2.322,6.25-2.408,9.533-1.663a16.815,16.815,0,0,1,9.619,5.591,11.138,11.138,0,0,1,2.408,6.881c0,2.251-1.19,4.014-1.434,6.207-.387,3.555,0,8.945-4.042,10.637-4.573,1.95-11.21-.115-15.84-.989-2.709-.5-6.694-1.218-8.873-3.025A8.316,8.316,0,0,1,146.526,105.229Z" transform="translate(216.063 1132.441)"/><path class="a" d="M169.227,113.281a10.434,10.434,0,0,0,4.481-.784c3.77-1.591,4.275-5.6,4.49-9.1,0-.616-.057-1.407,0-1.967a14.179,14.179,0,0,1,.615-2.753,12.461,12.461,0,0,0,.813-3.746,11.274,11.274,0,0,0-2.491-7.136,16.769,16.769,0,0,0-9.309-5.69,21.506,21.506,0,0,0-3.7-.5,24.921,24.921,0,0,0-3.489.136,10.556,10.556,0,0,0-2.764,1.569c-.981.892-1.078,1.4-1.393,1.416a6.827,6.827,0,0,1-1.263-.446v.1c-1.9-.864-3.1-.629-5.593,0a13,13,0,0,0-5.69,9.1c-.416,4.143.851,10.567,3.933,13.95l.157-.184c.27.3.257.78.569,1.04,2.251,1.878,6.121,2.609,8.945,3.139h.258l2.566.545A43.292,43.292,0,0,0,169.227,113.281Zm-5.1-31a24.1,24.1,0,0,1,4.034.652,15.486,15.486,0,0,1,8.813,5.57,10.131,10.131,0,0,1,1.971,6.427,13.3,13.3,0,0,1-.75,3.641,12.557,12.557,0,0,0-.648,2.623c0,.573.043,1.77,0,2.415-.244,3.268-.889,7.057-3.842,8.3-3.555,1.52-8.868-.469-12.982-1.358l-2.623-.545h-.244c-2.681-.5-6.336-1.19-8.3-2.867-.261-.215-1.036.066-1.262-.186-2.767-3.053-4.121-9.59-3.734-13.346a12.2,12.2,0,0,1,5.185-8.2,5.013,5.013,0,0,1,4.653-.342l.82.342a1.99,1.99,0,0,0,1.263.234c.772-.1.68-.191,1.393-1.036l1.04-1.018A7.079,7.079,0,0,1,164.131,82.284ZM148.3,106.96Z" transform="translate(214.291 1130.71)"/><path class="b" d="M162.263,113.336l2.546,10.872s-3.636,6.33-10.617,4.653-8.171-7.024-8.171-7.038l-.688-11.282-.43-6.953a7.729,7.729,0,0,1-.129-2.136c.229-.717,1.046-1.261,1.434-1.849a17.8,17.8,0,0,0,1.649-2.867,22.934,22.934,0,0,0,2.036-6.193,10.966,10.966,0,0,0,7.354-2.294c.788,1.3-1.534,2.623-1.348,4.143,2.523-.459,5.734-1.348,7.512-3.24.889-.115,4.444,6.035,5,8.486a26.476,26.476,0,0,1,.444,9.733C168.1,112.849,162.263,113.336,162.263,113.336Z" transform="translate(221.34 1135.9)"/><path class="a" d="M157.367,130.97c5.386-.443,7.968-5.476,8.011-5.59a.921.921,0,0,0,0-.482l-2.91-10.092a7.839,7.839,0,0,0,6.91-6.164,28.2,28.2,0,0,0-.658-10.221c-.443-1.742-3.867-8.744-5.658-8.529-.164.029.268-.12.153,0-.049.044-.663.614-.745.686a12.994,12.994,0,0,1-6.064,3.136,1.851,1.851,0,0,1,.486-1.636c.559-.817,1.89-1.813,1.216-2.845-.109-.176-.209-.1-.412-.143a1.131,1.131,0,0,0-.677.143,9.713,9.713,0,0,1-6.763,1.95.731.731,0,0,0-.745.588,22.392,22.392,0,0,1-1.993,5.978,17.429,17.429,0,0,1-1.577,2.695,5.734,5.734,0,0,1-.5.545,4.186,4.186,0,0,0-1.1,1.433,4.488,4.488,0,0,0,0,1.849c.038.185.811.343.83.53l1.057,18.134s.388,5.978,7.943,7.8a17.706,17.706,0,0,0,3.2.238Zm7.4-5.59c-.6,1.089-4.7,6.095-10.431,4.776-6.886-1.875-7.535-7.222-7.535-7.222L145.724,104.8c-.012-.231.132-.461.086-.688a5.266,5.266,0,0,1-.086-1.19,3.168,3.168,0,0,1,.745-.932,7.343,7.343,0,0,0,.645-.7c.018-.025.036-.051.08-.117-.041-.323-.415-1.293.936-2.886.645-1.876,1.6-4.465,2.123-6.515a17.358,17.358,0,0,0,5.376-.984c.617-.333,1.363-1.125,2.216-.894l-1.193,1.541a2.717,2.717,0,0,0-.852,2.079c.025.195-.158.429,0,.546a.834.834,0,0,0,.6.17c2.731-.315,4.926-1.968,7.1-3.65a30.776,30.776,0,0,1,4.7,8.388,27.261,27.261,0,0,1,.51,9.676c-.745,4.788-7.059,5.8-7.346,5.819-.205.027.488.057.363.222s.058-.071.1.123Z" transform="translate(221.079 1134.646)"/><path class="a" d="M8.729,6.8A6.85,6.85,0,0,1,2.608,4.962C-.192,2.266,0,0,0,0A10.5,10.5,0,0,0,7.648,1.771Z" transform="matrix(0.998, -0.07, 0.07, 0.998, 375.1, 1248.091)"/><path class="a" d="M8.065,8.209A6.135,6.135,0,0,0,9.51,8.052.651.651,0,0,0,9.992,7.3L8.937,2.27a.625.625,0,0,0-.755-.495A9.976,9.976,0,0,1,1.045.121.664.664,0,0,0,0,.59c0,.1-.208,2.6,2.787,5.483A7.515,7.515,0,0,0,8.065,8.208Zm.521-1.3a6.2,6.2,0,0,1-4.9-1.771A7.971,7.971,0,0,1,1.514,1.918,10.835,10.835,0,0,0,7.8,3.155Z" transform="translate(374.724 1247.483) rotate(-2)"/><path class="b" d="M151.561,93.74s3.856,5.333,3.025,6.307-3.3.444-3.3.444" transform="translate(226.38 1138.279)"/><ellipse class="a" cx="0.857" cy="1.21" rx="0.857" ry="1.21" transform="matrix(-0.999, -0.049, 0.049, -0.999, 374.358, 1232.951)"/><ellipse class="a" cx="1.206" cy="0.854" rx="1.206" ry="0.854" transform="translate(381.466 1232.857) rotate(-104.33)"/><path class="b" d="M167.177,98.6c.078-2.372-2.451-5.574-5.165-4.106a3.98,3.98,0,0,0-1.784,2.609c-1.194,4.922,2.476,6.517,5.373,7.267" transform="translate(201.289 1138.445)"/><path class="a" d="M5.085,6.62a2.954,2.954,0,0,0,1.972-.663C8.844,4.366,8.672,1.24,8.666,1.111A.307.307,0,0,0,8.4.823C.313-.123.233-.05.1.067A.319.319,0,0,0,0,.3H0A7.8,7.8,0,0,0,.854,3.881a5.036,5.036,0,0,0,3.5,2.672A4.245,4.245,0,0,0,5.085,6.62ZM8.058,1.406c0,.743-.117,2.942-1.394,4.084a2.623,2.623,0,0,1-2.2.461A4.434,4.434,0,0,1,1.394,3.6,7.069,7.069,0,0,1,.627.608C1.689.681,5.485,1.105,8.058,1.406ZM.307.294Zm0,0Z" transform="matrix(0.995, -0.105, 0.105, 0.995, 374.706, 1240.562)"/><path class="a" d="M2.4,7.58a2.111,2.111,0,0,0,1.381-.411c1.074-.908-1.142-5.585-1.841-7A.313.313,0,0,0,1.526.031a.307.307,0,0,0-.141.411c1.344,2.7,2.455,5.861,2,6.254-.681.577-2.369.086-2.964-.153a.313.313,0,0,0-.4.172.307.307,0,0,0,.172.4,6.665,6.665,0,0,0,2.2.466Z" transform="translate(376.237 1232.092) rotate(-9)"/><path class="a" d="M5.621,9.891A5.3,5.3,0,0,1,1,7.033,8.782,8.782,0,0,1,.22,4.916,4.818,4.818,0,0,1,.051,2.777,3.812,3.812,0,0,1,1.483.621a2.8,2.8,0,0,1,.96-.557,3.056,3.056,0,0,1,1.5.067,7.162,7.162,0,0,1,2.49.936A4.793,4.793,0,0,1,8.266,3.429a.3.3,0,0,1,0,.222.267.267,0,0,1-.149.152.261.261,0,0,1-.344-.162A4.178,4.178,0,0,0,6.161,1.557,6.816,6.816,0,0,0,3.84.693,2.6,2.6,0,0,0,2.577.621a2.2,2.2,0,0,0-.78.446A3.338,3.338,0,0,0,.569,2.883,4.281,4.281,0,0,0,.729,4.749a8.365,8.365,0,0,0,.729,1.978A4.917,4.917,0,0,0,4.471,9.151a4.538,4.538,0,0,0,3.707-.625.245.245,0,0,1,.2-.036.265.265,0,0,1,.164.131.3.3,0,0,1,.033.215.278.278,0,0,1-.12.175,5.106,5.106,0,0,1-2.834.88Z" transform="translate(362.094 1231.914) rotate(14)"/><path class="d" d="M0,0,11,43" transform="translate(434.5 1217.5)"/><path class="b" d="M94.176,99.963c2.079-1.276,4.845-.208,6.766,1.225a4.688,4.688,0,0,1,1.434,1.634,1.749,1.749,0,0,1-.358,2.021,2.609,2.609,0,0,1-2.294.115l-4.673-1.247a13.145,13.145,0,0,1,2.322,4.86,5.032,5.032,0,0,1,0,2.982,2.294,2.294,0,0,1-2.351,1.534" transform="translate(342.017 1138.941)"/><path class="a" d="M97.772,115.413a2.724,2.724,0,0,0,2.551-1.863,5.892,5.892,0,0,0,0-3.412,18.813,18.813,0,0,0-2.067-3.829l3.658,1.076a4.572,4.572,0,0,0,2.867-.244c.806-.723.476-1.525,0-2.5a5.462,5.462,0,0,0-1.6-2.006c-1.333-1.032-4.218-3.063-7.013-1.329-.05.281-.054.173,0,.37s.365.013.523-.092c2.05-1.247,5.023.478,5.965,1.444a6.537,6.537,0,0,1,1.528,1.79c.192.385.622,1.348.344,1.676a3.91,3.91,0,0,1-2.3.158l-3.565-.916c-.293-.092-1.086-.291-1.249-.03a.493.493,0,0,0,0,.673,12.72,12.72,0,0,1,2.178,4.055,4.324,4.324,0,0,1,.158,2.552c-.216.667-1.172,1.648-1.873,1.627-.4.091-1.08-.18-1.147.216s.2.455.595.522Z" transform="translate(339.754 1137.244)"/></g></svg>