<svg xmlns="http://www.w3.org/2000/svg" width="54.274" height="67.222" viewBox="0 0 54.274 67.222"><defs><style>.a{fill:#707070;}</style></defs><g transform="translate(-47.38)"><path class="a" d="M183.449,13.249a6.624,6.624,0,1,0-6.626-6.624A6.627,6.627,0,0,0,183.449,13.249Z" transform="translate(-111.756)"/><path class="a" d="M81.929,222.233a14.641,14.641,0,1,1-19.961-17.444V198.58a20.475,20.475,0,1,0,24.473,28.178l-2.313-4.544Z" transform="translate(0 -171.447)"/><path class="a" d="M217.984,159.919l-8.873-17.445a3.884,3.884,0,0,0-3.466-2.127H194.281v-2.591h9.781a3.059,3.059,0,0,0,2.918-2.918,2.917,2.917,0,0,0-2.918-2.917h-9.781v-8.79a5.834,5.834,0,1,0-11.668,0v19.043a5.952,5.952,0,0,0,5.952,5.952h14.7l7.792,15.319a3.889,3.889,0,1,0,6.932-3.527Z" transform="translate(-116.755 -101.269)"/></g></svg>