<svg xmlns="http://www.w3.org/2000/svg" width="26.959" height="78.868" viewBox="0 0 26.959 78.868"><defs><style>.a{fill:#707070;}</style></defs><g transform="translate(-116.112 -12.704)"><path class="a" d="M248.965,234.236a4.316,4.316,0,0,1-2.3.662h0A4.308,4.308,0,0,1,243,232.87q-.733-1.169-1.377-2.3v4.4a9.065,9.065,0,0,0,.24,2.068v28.616a3.957,3.957,0,1,0,7.914,0V243.969c.293.029.59.044.89.044s.6-.015.89-.044v21.684a3.957,3.957,0,1,0,7.914,0V237.034a9.063,9.063,0,0,0,.24-2.066V224.62a48.088,48.088,0,0,1-9.193,3.987A4.331,4.331,0,0,1,248.965,234.236Z" transform="translate(-121.767 -178.039)"/><path class="a" d="M249.49,144.406a12.15,12.15,0,0,0-6.206-5.38,12,12,0,0,1-17.362,2.53A9.671,9.671,0,0,0,225,142.88c-2.894,5.027-1.391,12.311,4.468,21.65a3.39,3.39,0,0,0,5.8-3.514c-.7.225-1.424.449-2.177.674a4.276,4.276,0,0,1-2.442-8.195c.236-.07.465-.14.692-.209a13.654,13.654,0,0,1-.954-4.881q.472,0,.945.009a12.53,12.53,0,0,0,.894,4.548c6.189-1.96,8.916-3.564,10.077-4.465h1.276c-.563.781-2.917,2.937-12.537,5.8a3.392,3.392,0,1,0,1.938,6.5c10.192-3.037,15.446-6.127,17.038-10.016A7.169,7.169,0,0,0,249.49,144.406Zm-16.2,18.142a.4.4,0,1,1-.4.4A.4.4,0,0,1,233.285,162.548Zm-2.361.179a.4.4,0,1,1-.4.4A.4.4,0,0,1,230.924,162.727Zm-4.628-9.206a.4.4,0,1,1,.4-.4A.4.4,0,0,1,226.3,153.521Zm.793-2.561a.4.4,0,1,1,.4-.4A.4.4,0,0,1,227.089,150.96Zm1.389,1.724a.4.4,0,1,1,.4-.4A.4.4,0,0,1,228.479,152.684Z" transform="translate(-107.457 -110.195)"/><path class="a" d="M234.743,80.766a9.754,9.754,0,1,0-9.754-9.754A9.765,9.765,0,0,0,234.743,80.766Z" transform="translate(-108.582 -48.554)"/></g></svg>