<svg xmlns="http://www.w3.org/2000/svg" width="70.684" height="69.569" viewBox="0 0 70.684 69.569"><defs><style>.a{fill:#707070;}</style></defs><g transform="translate(0 -3.922)"><g transform="translate(0 3.922)"><path class="a" d="M56.51,146.181l1.247-1.247c-4.841-4.209-11.055-11.191-16.389-16.368a2.951,2.951,0,0,0-1-3.781,38.777,38.777,0,0,1-10.452-9.743c-1.129-1.424-2.3-2.9-3.848-4.577a2.915,2.915,0,0,0-.462-.406A8.058,8.058,0,0,0,23.66,108.7a6.079,6.079,0,0,0-1.573-.563,11.207,11.207,0,0,0-1.732-.158h-.022c-.091,0-.183.019-.273.025-.067,0-.132-.006-.2,0-.11.012-.221.035-.331.051s-.231.03-.348.051c-5.768.9-11.838,5.4-18.532,13.748a2.957,2.957,0,0,0,4.614,3.7A51.3,51.3,0,0,1,12.84,117.7l-2.429,11.334a5.313,5.313,0,0,0,1.013,4.354l-.765,11.668L5.8,157.622a3.765,3.765,0,1,0,7.023,2.716l5.069-13.108a3.791,3.791,0,0,0,.245-1.11l.445-6.791,4.473,7.066,3.7,13.556a3.766,3.766,0,0,0,3.634,2.794,3.692,3.692,0,0,0,.972-.129,3.762,3.762,0,0,0,2.668-4.605L30.177,143.9a3.718,3.718,0,0,0-.456-1.042l-6.1-9.634a5.232,5.232,0,0,0,.459-1.264l2.494-11.636A42.961,42.961,0,0,0,37.1,129.711a2.89,2.89,0,0,0,3.248-.009C45.283,134.491,51.489,141.808,56.51,146.181Z" transform="translate(0 -93.177)"/><circle class="a" cx="7.618" cy="7.618" r="7.618" transform="translate(17.871)"/><path class="a" d="M313.046,368.069l-2.632-2.114a1.382,1.382,0,0,0-1.731,2.155l2.686,2.157v5.864a.569.569,0,0,0,.009.094l-2.364,4.543a1.382,1.382,0,1,0,2.452,1.276l2.379-4.571,2.662,4.622a1.382,1.382,0,0,0,2.4-1.38l-2.322-4.033h8.6v4.723a1.382,1.382,0,0,0,2.765,0v-5.176a.576.576,0,0,0,.01-.1V371.76l-6.438-3.692Z" transform="translate(-264.327 -314.19)"/><path class="a" d="M416.3,325.589c-.854-.805-1.141-1.747-2.1-2.43a5.971,5.971,0,0,0-.514-.34.22.22,0,0,1-.129-.246c.041-.4.081-.793.113-1.19a1.9,1.9,0,0,0-.719-1.777c-.229-.168-1.36-.716-1.852,1.158a5.742,5.742,0,0,1-.446,1.185,39.439,39.439,0,0,1-2.478,3.886l-1.181,1.738,6.044,3.442s1.165-1.274,1.329-1.2c.227.1.455.2.683.3a4.5,4.5,0,0,0,2.087.381,2.534,2.534,0,0,0,2.64-2.209C419.883,326.922,416.588,325.861,416.3,325.589Z" transform="translate(-349.093 -274.521)"/></g></g></svg>