<svg xmlns="http://www.w3.org/2000/svg" width="424" height="360" viewBox="0 0 424 360"><defs><style>.a{fill:#fff;}.b{fill:#231f20;}.c{fill:#6473f0;}.d{fill:#e6e7e8;}</style></defs><g transform="translate(-141.225 -367.187)"><g transform="translate(141.225 367.187)"><path class="a" d="M13.906,5.708l-3.412,4.863s-.034,7.23-1.453,8.258-1.62-4.218-1.915-4.144-3.952,7.162-5.469,6.181S-.3,16.053.192,14.591,8.8,0,8.8,0Z" transform="matrix(0.719, 0.695, -0.695, 0.719, 15.553, 151.841)"/><path class="b" d="M9.558,0a.68.68,0,0,1,.533.221l5.1,5.7a.6.6,0,0,1-.03.735L11.87,11.358c-.081,1.965-.211,7.477-1.745,8.6a1.31,1.31,0,0,1-1.15.233c-.865-.271-1.19-1.487-1.495-3.2-1.609,2.592-3.178,4.9-4.54,5.234a1.246,1.246,0,0,1-1.049-.188C.106,20.839-.32,16.677.217,15.112S8.054,1.74,8.888.393A.759.759,0,0,1,9.459.042Zm4.226,6.425L9.61,1.771C6.393,6.955,1.915,14.4,1.582,15.378c-.442,1.283.081,4.782,1.256,5.612.477-.107,1.711-1.7,3.617-4.757.79-1.3.894-1.439,1.273-1.529a.818.818,0,0,1,.553.068c.326.19.383.492.55,1.5a11.1,11.1,0,0,0,.645,2.571c.576-.807,1.032-4.115,1.052-7.635a.584.584,0,0,1,.126-.359Z" transform="matrix(0.719, 0.695, -0.695, 0.719, 15.468, 150.878)"/><path class="a" d="M86.559,223.67l-14.069,3.6L73.739,242.1l16.883-1.865Z" transform="translate(-51.031 78.938)"/><path class="c" d="M42.926,44.562S9.36,37.4,0,1.73L8,0,64.335,38.563Z" transform="matrix(0.407, -0.914, 0.914, 0.407, 15.099, 166.165)"/><path class="b" d="M74.066,243.266a.816.816,0,0,1-.832-.749L72,227.666a.849.849,0,0,1,.616-.882l14.069-3.58a.766.766,0,0,1,.633.083.8.8,0,0,1,.383.516l4.063,16.566a.783.783,0,0,1-.117.666.832.832,0,0,1-.6.35l-16.883,1.881ZM73.7,228.282l1.116,13.32L89.9,239.937l-3.63-14.818Z" transform="translate(-51.358 78.606)"/><path class="b" d="M325.3,70.386s-3.879-7.126-9.99-16.966c0,0-19.7,14.7-19.53,13.886S325.3,70.386,325.3,70.386Z" transform="translate(96.975 -34.189)"/><path class="b" d="M325.642,71.55h-.1c-10.356-1.382-27.272-3.43-29.1-3.18-.483.2-.633.1-.8,0a.866.866,0,0,1-.383-.9c0-.233.1-.466.633-.6h0c1.149-.45,12.387-8.691,19.214-13.786a.816.816,0,0,1,.649-.15.883.883,0,0,1,.549.366c6.127,9.757,9.99,16.949,10.073,17.016a.832.832,0,0,1-.733,1.232ZM299,66.822c3.63.2,10.789.982,24.975,2.864-1.382-2.481-4.5-7.925-8.758-14.718-8.724,6.66-13.553,10.106-16.15,11.855Z" transform="translate(96.616 -34.521)"/><path class="b" d="M160.813,253.411l-9.823-16.383,13.586-12.287Z" transform="translate(0.993 79.65)"/><path class="b" d="M161.146,254.576a.833.833,0,0,1-.716-.4l-9.823-16.383a.849.849,0,0,1,.15-1.049l13.6-12.287a.8.8,0,0,1,.932-.117.832.832,0,0,1,.45.849l-3.779,28.621a.8.8,0,0,1-.649.716Zm-8.758-17.049,8.325,13.736,3.163-24.059Z" transform="translate(0.661 79.318)"/><path class="b" d="M164.187,371.27l158.172,22.522a13.786,13.786,0,0,0,14.985-9.7L419.177,77.975c1.665-6.342-2.381-11.918-9.091-12.468l-161.269-13a14.268,14.268,0,0,0-14.369,10.187L155.912,358.686a9.854,9.854,0,0,0,8.275,12.584Z" transform="translate(3.697 -34.808)"/><path class="b" d="M324.448,395.14a14.617,14.617,0,0,1-1.915-.133L164.361,372.468h0a10.739,10.739,0,0,1-7.592-4.677,10.917,10.917,0,0,1-1.349-8.989L233.94,62.859a15.168,15.168,0,0,1,15.234-10.853l161.269,13a11.106,11.106,0,0,1,8.325,4.528,10.585,10.585,0,0,1,1.449,8.989l-81.85,306.113A14.685,14.685,0,0,1,324.448,395.14ZM164.611,370.82l158.172,22.538a12.92,12.92,0,0,0,14.052-9.105l81.833-306.1a9,9,0,0,0-1.182-7.607,9.441,9.441,0,0,0-7.176-3.828L249.042,53.671a13.32,13.32,0,0,0-13.486,9.571l-78.5,295.993a9.37,9.37,0,0,0,1.132,7.64,9.158,9.158,0,0,0,6.46,3.945Z" transform="translate(3.356 -35.14)"/><path class="a" d="M158,361.15l158.172,22.522a13.753,13.753,0,0,0,14.985-9.7L413,67.854c1.665-6.342-2.381-11.918-9.091-12.468l-161.286-13a14.268,14.268,0,0,0-14.352,10.187L149.738,348.516A9.854,9.854,0,0,0,158,361.15Z" transform="translate(-0.418 -41.537)"/><path class="b" d="M318.256,384.987a14.555,14.555,0,0,1-1.9-.133L158.186,362.315h0a10.739,10.739,0,0,1-7.609-4.677,10.967,10.967,0,0,1-1.349-8.989L227.765,52.707a15.118,15.118,0,0,1,15.218-10.82l161.286,13a11.139,11.139,0,0,1,8.325,4.528,10.535,10.535,0,0,1,1.432,8.989l-81.75,306.113a14.7,14.7,0,0,1-14.019,10.47ZM241.951,43.518a13.452,13.452,0,0,0-12.587,9.6L150.877,349.066a9.37,9.37,0,0,0,1.132,7.64,9.124,9.124,0,0,0,6.443,3.945h0l158.172,22.538a12.954,12.954,0,0,0,14.052-9.105l81.817-306.1a8.937,8.937,0,0,0-1.2-7.607,9.441,9.441,0,0,0-7.159-3.829l-161.286-13Z" transform="translate(-0.758 -41.87)"/><path class="d" d="M389.527,75.492,224.412,61.19,161.06,300.046l162.684,21.628Z" transform="translate(7.39 -29.022)"/><path class="a" d="M195.98,242.891l30.852,4.346a8.325,8.325,0,0,0,9.007-5.927l3.064-11.5a6.194,6.194,0,0,0-5.311-7.909l-30.919-4.2a8.325,8.325,0,0,0-8.891,5.927l-3.03,11.405a6.144,6.144,0,0,0,5.228,7.859Z" transform="translate(27.165 74.935)"/><path class="d" d="M228.266,248.505a7,7,0,0,1-1.165-.083l-30.852-4.329h0a6.993,6.993,0,0,1-5.927-8.908l3.047-11.405a9.141,9.141,0,0,1,9.807-6.527l30.918,4.179a7.05,7.05,0,0,1,6.011,8.958l-3.163,11.455a9.207,9.207,0,0,1-8.675,6.66Zm-31.784-6.061,30.852,4.329a7.476,7.476,0,0,0,8.092-5.311l3.064-11.5a5.428,5.428,0,0,0-.666-4.5,5.594,5.594,0,0,0-3.963-2.381l-30.9-4.179a7.442,7.442,0,0,0-7.992,5.295l-3.03,11.422a5.345,5.345,0,0,0,4.545,6.826Z" transform="translate(26.862 74.633)"/><path class="d" d="M288.086,59.686h0L240.917,55.74a.832.832,0,0,1-.766-.9.816.816,0,0,1,.9-.749l47.135,3.929a.832.832,0,1,1,0,1.665Z" transform="translate(60.076 -33.745)"/><path class="d" d="M239.514,55.622h-.083l-6.244-.516a.835.835,0,1,1,.133-1.665l6.26.533a.832.832,0,1,1,0,1.665Z" transform="translate(54.988 -34.177)"/><path class="a" d="M292.983,183.261a.866.866,0,0,1-.7-.366L217.577,73.739a.834.834,0,0,1,1.382-.932l74.707,109.072a.832.832,0,0,1-.216,1.149.849.849,0,0,1-.466.233Z" transform="translate(44.994 -21.542)"/><path class="a" d="M244.656,220.847a.849.849,0,0,1-.683-.35L199.02,155.9a.832.832,0,1,1,1.365-.949l44.954,64.584a.832.832,0,0,1-.2,1.165.866.866,0,0,1-.483.15Z" transform="translate(32.7 33.008)"/><path class="a" d="M241.11,168.72a.866.866,0,0,1-.7-.366L222.845,142.23a.849.849,0,0,1,.233-1.165.833.833,0,0,1,1.149.233l17.565,26.123a.816.816,0,0,1-.216,1.149A.849.849,0,0,1,241.11,168.72Z" transform="translate(48.54 23.96)"/><path class="a" d="M156.891,215.03l-15.351,17.7,10.19,10.689,15.95-16.433Z" transform="translate(-5.278 73.193)"/><path class="b" d="M152.074,244.589a.832.832,0,0,1-.616-.266l-10.19-10.689a.816.816,0,0,1,0-1.116l15.351-17.7a.916.916,0,0,1,.633-.3.833.833,0,0,1,.616.283l10.789,11.938a.849.849,0,0,1,0,1.149l-16.034,16.45a.849.849,0,0,1-.549.25ZM143,233.051l9.074,9.507,14.785-15.251-9.624-10.672Z" transform="translate(-5.605 72.854)"/><path class="b" d="M177.806,165.68s60.871,32.617,66.5,53.279-38.944,48.1-38.944,48.1l-12.62-14.835s16.65-22.361,9.673-29.187-39.959-20.363-39.959-20.363-3.213,40.126-20.146,58.44c-18.181,19.647-59.756,20.7-59.756,20.7L79.44,259.451s28.121-7.309,39.959-19.98.266-70.911.266-70.911Z" transform="translate(-46.409 40.377)"/><path class="b" d="M82.85,283.094a.816.816,0,0,1-.816-.716L79,259.934a.816.816,0,0,1,.616-.916c.283,0,28.021-7.376,39.593-19.68s.166-69.6,0-70.178a.916.916,0,0,1,.166-.683.866.866,0,0,1,.616-.316l58.091-2.98a.816.816,0,0,1,.45.1c2.5,1.332,61.238,33.016,66.9,53.745,5.727,21-37.462,47.918-39.31,49.05a.833.833,0,0,1-1.066-.166L192.4,253.124a.849.849,0,0,1,0-1.049c4.512-6.044,14.985-22.91,9.757-28.088-6.11-5.961-33.016-17.382-38.661-19.763-.666,6.81-4.712,41.075-20.263,57.891-9.54,10.306-25.457,15.451-37.129,17.965a141.524,141.524,0,0,1-23.243,3.014Zm-2.181-22.66,2.9,20.9c5.661-.266,42.007-2.664,58.424-20.4s19.88-57.625,19.98-58.024a.782.782,0,0,1,.4-.633.8.8,0,0,1,.749,0c1.349.549,33.2,13.686,40.242,20.529s-6.66,26.173-9.207,29.753l11.655,13.786c5.278-3.33,43.023-28.3,37.978-46.8-5.311-19.464-62.02-50.532-65.883-52.613l-56.925,2.914c1.5,7.859,10.639,58.674-.666,70.695C109.356,252.159,85.231,259.185,80.669,260.434Z" transform="translate(-46.706 40.044)"/><path class="a" d="M156.76,119.206l3.846-6.227s-.316-9.507,1.332-10.789,2.148,5.628,2.5,5.544,4.379-9.224,6.244-7.859,2.581,6.427,2.065,8.325-9.59,18.764-9.59,18.764Z" transform="translate(4.818 -3.414)"/><path class="b" d="M163.473,128.15a.849.849,0,0,1-.649-.316l-6.393-7.742a.849.849,0,0,1,0-.966l3.713-6.027c0-2.581-.117-9.823,1.665-11.222a1.4,1.4,0,0,1,1.365-.25c1.049.4,1.5,2.015,1.948,4.279,1.8-3.33,3.563-6.294,5.178-6.66a1.449,1.449,0,0,1,1.265.3c2.2,1.665,2.914,7.159,2.348,9.191s-8.724,17.2-9.657,18.931a.816.816,0,0,1-.666.433Zm-5.378-8.658,5.228,6.327c3.6-6.66,8.591-16.233,8.941-17.5.466-1.665-.333-6.294-1.782-7.442-.566.117-1.965,2.148-4.1,6.077-.882,1.665-1,1.848-1.449,1.948a.932.932,0,0,1-.666-.117c-.4-.266-.483-.666-.733-2a16.648,16.648,0,0,0-.9-3.413c-.649,1.032-1.032,5.361-.882,9.99a.766.766,0,0,1-.133.466Z" transform="translate(4.498 -3.767)"/><path class="a" d="M118.367,127.93a19.547,19.547,0,0,1-10.423,1.665,7.825,7.825,0,0,1-4.379-1.781,3.713,3.713,0,0,1-.932-4.362,5.561,5.561,0,0,1-4.745-1.782,9.89,9.89,0,0,1-2.3-4.7,6.66,6.66,0,0,1,1.282-6.393c-1.782-.816-3.746-1.831-4.3-3.713a6.327,6.327,0,0,1,0-2.9,31.635,31.635,0,0,1,1.665-5.528c.383-.966,1.016-2.031,2.048-2.115a9.99,9.99,0,0,1,1.349-10.423,8.325,8.325,0,0,1,4.529-2.98,33.049,33.049,0,0,1,5.811,0,9.99,9.99,0,0,1,7.959-4.3,6.91,6.91,0,0,1,5.661,4.162,15.234,15.234,0,0,1,6.493.1,7.359,7.359,0,0,1,4.995,4.029,5,5,0,0,1-1.515,5.861,5.3,5.3,0,0,1,4.7,5.111,6.41,6.41,0,0,1-4.179,5.827,2.248,2.248,0,0,0-.932.516,2.714,2.714,0,0,0-.416,1.232c-.3,1.382-1.532,2.065-2.065,3.33a33.716,33.716,0,0,0-1.415,5.461,50.867,50.867,0,0,1-1.665,5.178,28.923,28.923,0,0,1-2.131,5.777c-.982,1.515-2.2,1.665-3.763,2.248C119.183,127.613,118.8,127.78,118.367,127.93Z" transform="translate(-37.785 -17.442)"/><path class="b" d="M110.546,130.956a16.651,16.651,0,0,1-2.364-.166,8.441,8.441,0,0,1-4.828-1.981,4.845,4.845,0,0,1-1.515-4.1,6.66,6.66,0,0,1-4.2-2.1,10.589,10.589,0,0,1-2.514-4.995,8.059,8.059,0,0,1,.766-6.394,6.543,6.543,0,0,1-3.763-3.763,6.893,6.893,0,0,1,0-3.33A32.317,32.317,0,0,1,93.8,98.456a4.529,4.529,0,0,1,1.665-2.281,10.856,10.856,0,0,1,1.665-10.506,9.207,9.207,0,0,1,4.995-3.33,33.749,33.749,0,0,1,5.628,0,10.706,10.706,0,0,1,8.441-4.229,7.759,7.759,0,0,1,6.06,4.063,14.985,14.985,0,0,1,6.244.216,8.175,8.175,0,0,1,5.444,4.512,5.994,5.994,0,0,1-.616,5.694,6.244,6.244,0,0,1,3.863,5.578,7.209,7.209,0,0,1-4.712,6.66,1.782,1.782,0,0,0-.6.283,1.265,1.265,0,0,0-.166.566v.3a5.111,5.111,0,0,1-1.315,2.281,5.2,5.2,0,0,0-.816,1.149,16.967,16.967,0,0,0-.9,3.48c-.133.633-.266,1.249-.416,1.831a52.481,52.481,0,0,1-1.665,5.245c-.233.633-.433,1.282-.616,1.948a14.552,14.552,0,0,1-1.665,4,5.145,5.145,0,0,1-3.1,2.164l-1.032.4-1.2.516h0a22.378,22.378,0,0,1-8.441,1.965ZM102.987,123a.8.8,0,0,1,.683.366.849.849,0,0,1,0,.882,2.93,2.93,0,0,0,.766,3.33,6.976,6.976,0,0,0,3.929,1.548,18.864,18.864,0,0,0,9.99-1.665l1.165-.483c.4-.183.783-.316,1.149-.45a3.6,3.6,0,0,0,2.248-1.5,13.469,13.469,0,0,0,1.4-3.563c.2-.7.4-1.4.649-2.065a51.869,51.869,0,0,0,1.665-4.995c.133-.549.25-1.149.383-1.665a17.832,17.832,0,0,1,1.066-3.863,6.66,6.66,0,0,1,1.066-1.532,3.713,3.713,0,0,0,.966-1.548v-.25a2.847,2.847,0,0,1,.566-1.382,2.8,2.8,0,0,1,1.149-.683,5.661,5.661,0,0,0,3.746-5.095,4.412,4.412,0,0,0-3.913-4.279.849.849,0,0,1-.416-1.532,4.146,4.146,0,0,0,1.215-4.845,6.527,6.527,0,0,0-4.362-3.53,13.836,13.836,0,0,0-6.144-.1.816.816,0,0,1-.9-.5,6.06,6.06,0,0,0-4.995-3.646,9.241,9.241,0,0,0-7.193,3.913h0a.832.832,0,0,1-1.049.3,42.716,42.716,0,0,0-5.278,0,7.292,7.292,0,0,0-3.829,2.581,9.207,9.207,0,0,0-1.182,9.59.816.816,0,0,1,0,.783.8.8,0,0,1-.666.416c-.583,0-1.032.882-1.315,1.665A29.571,29.571,0,0,0,93.88,104.6a5.511,5.511,0,0,0,0,2.5c.45,1.532,2.214,2.448,3.846,3.18a.832.832,0,0,1,.216,1.382c-1.665,1.565-1.3,4.445-1.032,5.594a8.891,8.891,0,0,0,2.081,4.3A4.678,4.678,0,0,0,103,123.1Zm15.734,5.278Z" transform="translate(-38.106 -17.787)"/><path class="a" d="M116.12,94.69s7.492,4.995,7.159,6.776-3.863,2.231-3.863,2.231" transform="translate(-22.125 -6.767)"/><path class="b" d="M119.754,104.864a.834.834,0,1,1-.1-1.665c1.182-.133,3-.716,3.147-1.548s-3.213-3.563-6.81-5.927a.836.836,0,0,1,.916-1.4c2.98,1.965,7.909,5.561,7.542,7.626-.433,2.381-4.179,2.864-4.6,2.914Z" transform="translate(-22.462 -7.1)"/><path class="a" d="M115.583,86a2.431,2.431,0,0,1,1.415.683,15.717,15.717,0,0,1,3.446,4.562,90.931,90.931,0,0,1,4.745,10.256c1.915,4.6,3.73,9.241,5.428,13.9,1.1,2.98-6.393,6.244-8.092,5.944l6.077,10.972s-3.18,2.531-10.456,2.314-7.925-1.665-7.925-1.665l-5.161-13.453s4.995-2.081,5.394-9.257a20.578,20.578,0,0,1,0-3.779c.35-1.315,1.465-2.031,1.5-3.563a4.6,4.6,0,0,0-1.9-3.6c-.25-.2-.549-.416-.516-.733a.866.866,0,0,1,.283-.45,3.879,3.879,0,0,0-.583-5.494c1.9-.816,2.348-3.33,2.531-5.311,0,.649,3.03-1.132,3.08-1.149A2.148,2.148,0,0,1,115.583,86Z" transform="translate(-29.463 -12.544)"/><path class="b" d="M119.359,135.839h-.9c-7.026-.216-8.325-1.548-8.658-2.115l-5.178-13.5a.816.816,0,0,1,.45-1.066c.183,0,4.512-2.015,4.878-8.525a8.576,8.576,0,0,0,0-1.4,6.96,6.96,0,0,1,0-2.564,5.845,5.845,0,0,1,.8-1.665,3.23,3.23,0,0,0,.666-1.665,3.7,3.7,0,0,0-1.482-3,1.432,1.432,0,0,1-.383-2.381,3.03,3.03,0,0,0-.416-4.279.832.832,0,0,1-.35-.766.866.866,0,0,1,.5-.683c1.5-.633,1.881-2.8,2.031-4.612a.849.849,0,0,1,.916-.766h.283a14.984,14.984,0,0,0,2.181-1.049l.266-.133a3.33,3.33,0,0,1,1-.183,3.18,3.18,0,0,1,1.931.866,16.167,16.167,0,0,1,3.646,4.8,80.3,80.3,0,0,1,4.362,9.34l.433,1.016c1.915,4.579,3.746,9.274,5.444,13.936a3.014,3.014,0,0,1-.783,3.13,14.252,14.252,0,0,1-6.76,3.8l5.461,9.857a.832.832,0,0,1-.2,1.066C129.316,133.441,126.2,135.839,119.359,135.839Zm-8.092-2.88c.266.183,1.665,1.066,7.243,1.232a18.115,18.115,0,0,0,9.307-1.782l-5.694-10.273a.849.849,0,0,1,0-.882.882.882,0,0,1,.832-.333,12.054,12.054,0,0,0,6.66-3.33,1.548,1.548,0,0,0,.5-1.482c-1.665-4.645-3.53-9.307-5.444-13.886l-.416-1a78.813,78.813,0,0,0-4.279-9.157,14.585,14.585,0,0,0-3.23-4.329c-.483-.383-.7-.5-.916-.5h0a1.747,1.747,0,0,0-.433,0,14.884,14.884,0,0,1-2.6,1.249,7.093,7.093,0,0,1-1.948,4.579,4.762,4.762,0,0,1,.932,2.381,4.529,4.529,0,0,1-1,3.446h0a5.411,5.411,0,0,1,2.148,4.346,4.6,4.6,0,0,1-.932,2.581,4.579,4.579,0,0,0-.6,1.215,6.277,6.277,0,0,0,0,1.931,9.51,9.51,0,0,1,.1,1.665,11.438,11.438,0,0,1-5.178,9.59Z" transform="translate(-29.793 -12.883)"/><path class="a" d="M122.5,101.979a5.861,5.861,0,0,1-7.576-.8" transform="translate(-22.921 -2.453)"/><path class="b" d="M119.573,104.168a7.193,7.193,0,0,1-4.9-2.048.836.836,0,1,1,1.182-1.182,5,5,0,0,0,6.51.749.838.838,0,0,1,1.016,1.332A6.41,6.41,0,0,1,119.573,104.168Z" transform="translate(-23.245 -2.777)"/><path class="a" d="M115.275,100.363a6.81,6.81,0,0,0-2.664-2.6,8.974,8.974,0,0,0-2.547-1.365,3.33,3.33,0,0,0-2.78.3,3.08,3.08,0,0,0-1.2,2.181,5.911,5.911,0,0,0,.4,2.514,10.706,10.706,0,0,0,8.325,6.776l-.366-.167" transform="translate(-28.787 -5.747)"/><path class="b" d="M115.092,109.343h-.117a11.655,11.655,0,0,1-8.924-7.326,6.377,6.377,0,0,1-.433-2.88,3.78,3.78,0,0,1,1.532-2.78,4.046,4.046,0,0,1,3.513-.416,10.64,10.64,0,0,1,2.764,1.465,7.659,7.659,0,0,1,2.93,2.947.832.832,0,0,1-.433,1.1.816.816,0,0,1-1.1-.416,6.077,6.077,0,0,0-2.331-2.248,8.458,8.458,0,0,0-2.314-1.249,2.447,2.447,0,0,0-2.081.183,2.214,2.214,0,0,0-.832,1.665,4.845,4.845,0,0,0,.35,2.148,9.89,9.89,0,0,0,6.876,6.094.833.833,0,0,1,.566,0l.366.166a.849.849,0,1,1-.333,1.665Z" transform="translate(-29.104 -6.086)"/><path class="b" d="M118.5,107.822a13.32,13.32,0,0,1-7.376-1.432s3.247,6.86,9.99,6.327Z" transform="translate(-25.442 1.009)"/><path class="b" d="M120.729,113.889c-6.66,0-9.99-6.543-9.99-6.826a.866.866,0,0,1,.2-.982.8.8,0,0,1,1,0,12.487,12.487,0,0,0,6.843,1.3.9.9,0,0,1,.816.433l2.7,4.878a.849.849,0,0,1,0,.8.816.816,0,0,1-.666.433A7.094,7.094,0,0,1,120.729,113.889Zm-7.109-5.345a9.34,9.34,0,0,0,6.477,3.663l-1.765-3.2a15.717,15.717,0,0,1-4.712-.466Z" transform="translate(-25.743 0.686)"/><ellipse class="b" cx="0.699" cy="1.782" rx="0.699" ry="1.782" transform="translate(87.742 84.121) rotate(-20.99)"/><path class="c" d="M137.725,111.819c-2.1-1.315-25.474-5.727-31.2,4.729s-9.007,82.716-4.2,98.666l61.8-12.321S149.347,119.062,137.725,111.819Z" transform="translate(-32.823 3.244)"/><path class="c" d="M124.358,142.979s16.1,13.586,31.052,9.141,33.782-31.068,33.782-31.068L179.2,108.88s-10.256,18.514-22.677,18.631-33.865-15.1-33.865-15.1Z" transform="translate(-17.809 2.661)"/><path class="b" d="M151.634,146.84c-15.151,0-31.218-11.172-32.1-11.788a.832.832,0,0,1,.9-1.315c.266.2,27.389,19.047,43.522,7.925,16.417-11.305,21.944-21.645,21.994-21.828a.816.816,0,0,1,1.116-.366.849.849,0,0,1,.366,1.132c-.233.433-5.744,10.856-22.527,22.427a22.944,22.944,0,0,1-13.27,3.813Z" transform="translate(-20.003 9.635)"/><path class="b" d="M153.26,126.951h-.183c-3.33-.716-21.112-8.508-25.974-12.554a11.771,11.771,0,0,0-8.158-3.18.838.838,0,1,1-.2-1.665,13.32,13.32,0,0,1,9.424,3.563c4.7,3.9,22.294,11.655,25.258,12.221a.816.816,0,0,1,.649.982A.832.832,0,0,1,153.26,126.951Z" transform="translate(-20.883 3.106)"/><path class="b" d="M144.918,225.66s-8.908,8.092-8.441,9.141,18.4,23.559,20.629,21.212-1.981-19.663-1.981-19.663Z" transform="translate(-8.644 80.262)"/><path class="b" d="M157,257.355h-.333c-4.3-.733-20.1-20.679-20.612-21.844-.25-.566-.716-1.665,8.641-10.106a.816.816,0,0,1,1.149,0l10.206,10.672a.849.849,0,0,1,.2.383c1.016,4.162,4.146,17.965,1.782,20.446a1.4,1.4,0,0,1-1.032.45Zm-19.314-22.377c1.665,2.714,16.367,20.429,19.214,20.712,1.049-1.548-.3-10.706-2.214-18.6l-9.474-9.99a57.692,57.692,0,0,0-7.526,7.875Z" transform="translate(-8.975 79.935)"/><path class="b" d="M77.547,225.83s-11.572,1.565-12.5,3.9,2.5,28.754,4.845,28.3S78.8,240.682,78.8,240.682Z" transform="translate(-56.088 80.375)"/><path class="b" d="M70.15,259.2a1.382,1.382,0,0,1-1.066-.583c-2.414-2.88-5.544-26.19-4.479-28.854s10.323-4.046,13.153-4.429a.849.849,0,0,1,.949.766l1.249,14.835a1.517,1.517,0,0,1,0,.383c-2.031,5.195-7.01,17.349-9.524,17.848Zm.25-1.665Zm6.66-30.486c-5.128.766-10.556,2.2-10.989,3.33-1.165,3.147,2.714,24.575,4.112,27.022,1.449-1.215,5.195-9.257,8.025-16.516Z" transform="translate(-56.416 80.04)"/></g><path class="c" d="M18.49.016c-.384.074-10.353,2.4-10.7,2.469s.05-.141.05.219h0l.126.546L6.547,26.473c0,.131.188-.368,0,0-.253.482.406-1.137-.215-.933-.27.09-.637.172-1.07.27C3.293,26.251,0,27,0,30.042a3.79,3.79,0,0,0,2.86,3.848,6.138,6.138,0,0,0,1.128.082A9.67,9.67,0,0,0,8.17,32.894a4.918,4.918,0,0,0,2.145-4.125L11.8,8.477c0-.31-1.443,1.164-1.14,1.106l7.582-1.552A1.312,1.312,0,0,0,19.29,6.748V.637A.646.646,0,0,0,18.49.016Z" transform="translate(254.484 388.452) rotate(13)"/></g></svg>