<svg xmlns="http://www.w3.org/2000/svg" xmlns:xlink="http://www.w3.org/1999/xlink" width="544" height="90" viewBox="0 0 544 90"><defs><style>.a{fill:#ffde0a;}.b{fill:#fff;}.c{filter:url(#w);}.d{filter:url(#u);}.e{filter:url(#r);}.f{filter:url(#p);}.g{filter:url(#m);}.h{filter:url(#k);}.i{filter:url(#h);}.j{filter:url(#f);}.k{filter:url(#c);}.l{filter:url(#a);}</style><filter id="a" x="0" y="0" width="90.288" height="90" filterUnits="userSpaceOnUse"><feOffset dx="3" dy="3" input="SourceAlpha"/><feGaussianBlur stdDeviation="4" result="b"/><feFlood flood-opacity="0.161"/><feComposite operator="in" in2="b"/><feComposite in="SourceGraphic"/></filter><filter id="c" x="0" y="0" width="90.288" height="90" filterUnits="userSpaceOnUse"><feOffset dy="3" input="SourceAlpha"/><feGaussianBlur stdDeviation="3" result="d"/><feFlood flood-opacity="0.161" result="e"/><feComposite operator="out" in="SourceGraphic" in2="d"/><feComposite operator="in" in="e"/><feComposite operator="in" in2="SourceGraphic"/></filter><filter id="f" x="453.712" y="0" width="90.288" height="90" filterUnits="userSpaceOnUse"><feOffset dx="3" dy="3" input="SourceAlpha"/><feGaussianBlur stdDeviation="4" result="g"/><feFlood flood-opacity="0.161"/><feComposite operator="in" in2="g"/><feComposite in="SourceGraphic"/></filter><filter id="h" x="453.712" y="0" width="90.288" height="90" filterUnits="userSpaceOnUse"><feOffset dy="3" input="SourceAlpha"/><feGaussianBlur stdDeviation="3" result="i"/><feFlood flood-opacity="0.161" result="j"/><feComposite operator="out" in="SourceGraphic" in2="i"/><feComposite operator="in" in="j"/><feComposite operator="in" in2="SourceGraphic"/></filter><filter id="k" x="340.284" y="0" width="90.288" height="90" filterUnits="userSpaceOnUse"><feOffset dx="3" dy="3" input="SourceAlpha"/><feGaussianBlur stdDeviation="4" result="l"/><feFlood flood-opacity="0.161"/><feComposite operator="in" in2="l"/><feComposite in="SourceGraphic"/></filter><filter id="m" x="340.284" y="0" width="90.288" height="90" filterUnits="userSpaceOnUse"><feOffset dy="3" input="SourceAlpha"/><feGaussianBlur stdDeviation="3" result="n"/><feFlood flood-opacity="0.161" result="o"/><feComposite operator="out" in="SourceGraphic" in2="n"/><feComposite operator="in" in="o"/><feComposite operator="in" in2="SourceGraphic"/></filter><filter id="p" x="113.428" y="0" width="90.288" height="90" filterUnits="userSpaceOnUse"><feOffset dx="3" dy="3" input="SourceAlpha"/><feGaussianBlur stdDeviation="4" result="q"/><feFlood flood-opacity="0.161"/><feComposite operator="in" in2="q"/><feComposite in="SourceGraphic"/></filter><filter id="r" x="113.428" y="0" width="90.288" height="90" filterUnits="userSpaceOnUse"><feOffset dy="3" input="SourceAlpha"/><feGaussianBlur stdDeviation="3" result="s"/><feFlood flood-opacity="0.161" result="t"/><feComposite operator="out" in="SourceGraphic" in2="s"/><feComposite operator="in" in="t"/><feComposite operator="in" in2="SourceGraphic"/></filter><filter id="u" x="226.856" y="0" width="90.288" height="90" filterUnits="userSpaceOnUse"><feOffset dx="3" dy="3" input="SourceAlpha"/><feGaussianBlur stdDeviation="4" result="v"/><feFlood flood-opacity="0.161"/><feComposite operator="in" in2="v"/><feComposite in="SourceGraphic"/></filter><filter id="w" x="226.856" y="0" width="90.288" height="90" filterUnits="userSpaceOnUse"><feOffset dy="3" input="SourceAlpha"/><feGaussianBlur stdDeviation="3" result="x"/><feFlood flood-opacity="0.161" result="y"/><feComposite operator="out" in="SourceGraphic" in2="x"/><feComposite operator="in" in="y"/><feComposite operator="in" in2="SourceGraphic"/></filter></defs><g transform="translate(-105.583 -470.945)"><g data-type="innerShadowGroup"><g class="l" transform="matrix(1, 0, 0, 1, 105.58, 470.95)"><path class="a" d="M36.144,56.043,56.627,69,51.191,44.58l18.1-16.431L45.457,26.031,36.144,3,26.831,26.031,3,28.149,21.1,44.58,15.661,69Z" transform="translate(6 6)"/></g><g class="k" transform="matrix(1, 0, 0, 1, 105.58, 470.95)"><path class="b" d="M36.144,56.043,56.627,69,51.191,44.58l18.1-16.431L45.457,26.031,36.144,3,26.831,26.031,3,28.149,21.1,44.58,15.661,69Z" transform="translate(6 6)"/></g></g><g data-type="innerShadowGroup"><g class="j" transform="matrix(1, 0, 0, 1, 105.58, 470.95)"><path class="a" d="M36.144,56.043,56.627,69,51.191,44.58l18.1-16.431L45.457,26.031,36.144,3,26.831,26.031,3,28.149,21.1,44.58,15.661,69Z" transform="translate(459.71 6)"/></g><g class="i" transform="matrix(1, 0, 0, 1, 105.58, 470.95)"><path class="b" d="M36.144,56.043,56.627,69,51.191,44.58l18.1-16.431L45.457,26.031,36.144,3,26.831,26.031,3,28.149,21.1,44.58,15.661,69Z" transform="translate(459.71 6)"/></g></g><g data-type="innerShadowGroup"><g class="h" transform="matrix(1, 0, 0, 1, 105.58, 470.95)"><path class="a" d="M36.144,56.043,56.627,69,51.191,44.58l18.1-16.431L45.457,26.031,36.144,3,26.831,26.031,3,28.149,21.1,44.58,15.661,69Z" transform="translate(346.28 6)"/></g><g class="g" transform="matrix(1, 0, 0, 1, 105.58, 470.95)"><path class="b" d="M36.144,56.043,56.627,69,51.191,44.58l18.1-16.431L45.457,26.031,36.144,3,26.831,26.031,3,28.149,21.1,44.58,15.661,69Z" transform="translate(346.28 6)"/></g></g><g data-type="innerShadowGroup"><g class="f" transform="matrix(1, 0, 0, 1, 105.58, 470.95)"><path class="a" d="M36.144,56.043,56.627,69,51.191,44.58l18.1-16.431L45.457,26.031,36.144,3,26.831,26.031,3,28.149,21.1,44.58,15.661,69Z" transform="translate(119.43 6)"/></g><g class="e" transform="matrix(1, 0, 0, 1, 105.58, 470.95)"><path class="b" d="M36.144,56.043,56.627,69,51.191,44.58l18.1-16.431L45.457,26.031,36.144,3,26.831,26.031,3,28.149,21.1,44.58,15.661,69Z" transform="translate(119.43 6)"/></g></g><g data-type="innerShadowGroup"><g class="d" transform="matrix(1, 0, 0, 1, 105.58, 470.95)"><path class="a" d="M36.144,56.043,56.627,69,51.191,44.58l18.1-16.431L45.457,26.031,36.144,3,26.831,26.031,3,28.149,21.1,44.58,15.661,69Z" transform="translate(232.86 6)"/></g><g class="c" transform="matrix(1, 0, 0, 1, 105.58, 470.95)"><path class="b" d="M36.144,56.043,56.627,69,51.191,44.58l18.1-16.431L45.457,26.031,36.144,3,26.831,26.031,3,28.149,21.1,44.58,15.661,69Z" transform="translate(232.86 6)"/></g></g></g></svg>