<svg xmlns="http://www.w3.org/2000/svg" width="232" height="318" viewBox="0 0 232 318"><defs><style>.a{fill:#fff;}.b{fill:#231f20;}.c{fill:#5062ff;}</style></defs><g transform="translate(-259.277 -858.035)"><path class="a" d="M373.879,105.332a9.875,9.875,0,0,0-6.118-3.872,4.647,4.647,0,0,0-5.228,3.969c-2.808-6.583-9.565-10.862-16.574-12.314s-14.289-.465-21.3.987a145.8,145.8,0,0,1-21.124,3.718,41.009,41.009,0,0,0,10.94,28.889,80.568,80.568,0,0,0,11.269,9.449l8.326,6.157c8.519,6.312,20.563,12.566,31.638,9.333,9.681-2.846,14.057-18.278,14.348-26.991A28.5,28.5,0,0,0,373.879,105.332Z" transform="translate(55.386 766.594)"/><path class="b" d="M359.777,153.913c-9.565,0-19.053-5.344-25.868-10.378l-8.326-6.177a81.2,81.2,0,0,1-11.366-9.526,41.8,41.8,0,0,1-11.211-29.586.968.968,0,0,1,.929-.929,101.4,101.4,0,0,0,16.148-2.653q2.42-.542,4.821-1.046c6.564-1.355,14.251-2.517,21.686-.987A24.145,24.145,0,0,1,362.8,103.415a4.917,4.917,0,0,1,.852-.949,6.215,6.215,0,0,1,4.686-1.53,10.688,10.688,0,0,1,6.757,4.24,29.354,29.354,0,0,1,6.332,19.943c-.329,9.836-5.228,25-15.045,27.882a23.544,23.544,0,0,1-6.6.91ZM304.943,99.194a39.983,39.983,0,0,0,10.688,27.32,80.646,80.646,0,0,0,11.095,9.294l8.345,6.157c8.016,5.944,19.885,12.353,30.786,9.178,8.791-2.575,13.341-17.1,13.65-26.081a27.359,27.359,0,0,0-5.809-18.646h0a8.81,8.81,0,0,0-5.5-3.543,4.24,4.24,0,0,0-3.195,1.046,2.73,2.73,0,0,0-.987,1.936.968.968,0,0,1-.775.949.987.987,0,0,1-1.084-.562c-2.42-5.809-8.519-10.223-15.877-11.753s-14.541-.329-20.911.987l-4.937,1.065A106.243,106.243,0,0,1,304.943,99.194Z" transform="translate(54.889 766.13)"/><path class="c" d="M437.021,221.811l29.124-7.338c-1.107-2.091-18.814-55.028-34.948-65.309-13.921-11.617-41.9-12.7-73.566-13.9a98,98,0,0,0-30.153,2.924c-36.89,10.185-62.888,62.444-62.888,62.444l36.385,7.164S295.15,261.755,290.1,327.549c0,0,57.995,13.012,148.628,7.958C438.652,335.507,436.245,231.182,437.021,221.811Z" transform="translate(18.579 806.599)"/><path class="b" d="M322.9,150.872,292.91,313.535l50.884,12.353L364.57,143.65Z" transform="translate(45.366 814.61)"/><path class="b" d="M344.261,327.284h-.232l-50.884-12.353a.949.949,0,0,1-.716-1.1l29.992-162.644a.949.949,0,0,1,.794-.774l41.648-7.222a.968.968,0,0,1,.833.252.949.949,0,0,1,.29.813L345.21,326.471a.968.968,0,0,1-.949.852ZM294.5,313.227,343.429,325.1,363.914,145.22,324.2,152.113Z" transform="translate(44.899 814.163)"/><path class="a" d="M325.833,149.09l3.659,11.617L301.32,271.441l9.255,16.826,19.5-13.515L337.8,164.386l13.418-18.336Z" transform="translate(53.257 816.843)"/><path class="a" d="M314.447,156.138l-5.518,23.641s4.821,15.877,20.8,14.677a31.948,31.948,0,0,0,23.661-13.825l6.874-43.41s-10.417-7.939-3.04-32.142a77.043,77.043,0,0,1-40.835-.929s-11.346,25.694-11.443,37.912S314.447,156.138,314.447,156.138Z" transform="translate(56.677 777.593)"/><path class="b" d="M328.419,195.989c-15.141,0-19.943-15.258-20-15.49a1.2,1.2,0,0,1,0-.523L313.8,157.3c-2.575-.91-9.449-4.318-9.391-14.832.1-12.256,11.056-37.234,11.617-38.3a.968.968,0,0,1,1.162-.523,76.927,76.927,0,0,0,40.274.949.949.949,0,0,1,1.22,1.2c-7.067,23.235,2.595,30.98,2.691,31.1a.929.929,0,0,1,.368.91l-6.874,43.41a.871.871,0,0,1-.136.349,32.587,32.587,0,0,1-24.4,14.289Zm-18.065-15.742c.678,1.936,5.576,14.812,19.711,13.747a31.251,31.251,0,0,0,22.809-13.205l6.757-42.6c-1.936-1.936-9.216-10.417-3.408-31.154a80.528,80.528,0,0,1-38.88-1.142c-1.936,4.376-10.94,26.062-11.017,36.789,0,11.23,8.442,13.128,8.81,13.205a1.007,1.007,0,0,1,.62.426.949.949,0,0,1,.116.755Z" transform="translate(56.181 777.086)"/><path class="a" d="M329.386,123.382a10.2,10.2,0,0,1,4.279-4.8,17.968,17.968,0,0,1,5.809-1.839,7.454,7.454,0,0,1,3.33,0,5.809,5.809,0,0,1,2.052,1.162,7.745,7.745,0,0,1,3.079,4.492,9.313,9.313,0,0,1-.5,4.415A18.916,18.916,0,0,1,345.5,131.3a12.334,12.334,0,0,1-17.155,3.718" transform="translate(78.65 789.211)"/><path class="b" d="M335.586,138.4a13.4,13.4,0,0,1-7.28-2.169.968.968,0,1,1,1.046-1.626,11.385,11.385,0,0,0,15.819-3.427,18.182,18.182,0,0,0,1.936-4.26,8.46,8.46,0,0,0,.484-3.872,7.067,7.067,0,0,0-2.73-3.872,5.208,5.208,0,0,0-1.723-.988,6.97,6.97,0,0,0-2.885,0,17.213,17.213,0,0,0-5.518,1.723,9.216,9.216,0,0,0-3.873,4.357.968.968,0,0,1-1.278.5.949.949,0,0,1-.5-1.259,11.114,11.114,0,0,1,4.686-5.286,19.363,19.363,0,0,1,6.138-1.936,8.287,8.287,0,0,1,3.776,0,6.8,6.8,0,0,1,2.382,1.336,8.616,8.616,0,0,1,3.427,5.054,10.069,10.069,0,0,1-.542,4.9,18.509,18.509,0,0,1-2.052,4.705,13.321,13.321,0,0,1-8.4,5.809,13.709,13.709,0,0,1-2.9.31Z" transform="translate(78.162 788.751)"/><path class="b" d="M308.7,142.889a20.292,20.292,0,0,0,16.574-2.575c7.745-5.421,7.861-9.313,7.861-9.313s-11.908,4.221-21.647.561Z" transform="translate(60.169 802.74)"/><path class="b" d="M314.786,145.016a20.874,20.874,0,0,1-5.925-.813.968.968,0,0,1-.639-1.142l2.808-11.327a.871.871,0,0,1,.484-.62.949.949,0,0,1,.794,0c9.294,3.5,20.853-.5,20.969-.561a1.026,1.026,0,0,1,.891.136.987.987,0,0,1,.407.794c0,.445-.271,4.531-8.287,10.088A19.944,19.944,0,0,1,314.786,145.016Zm-4.453-2.42a19.362,19.362,0,0,0,14.909-2.614,20.156,20.156,0,0,0,6.951-7.048c-3.582.987-11.947,2.749-19.5.349Z" transform="translate(59.698 802.277)"/><path class="a" d="M322.966,113.41s-10.378,10.359-8.907,12.8,7.087,2.149,7.087,2.149" transform="translate(65.058 786.263)"/><path class="b" d="M320.9,129.82c-1.743,0-5.809-.271-7.2-2.633-1.646-2.691,4.957-9.914,9.042-14a.949.949,0,0,1,1.355,0,.929.929,0,0,1,0,1.355c-5.092,5.073-9.178,10.514-8.752,11.617.968,1.588,4.9,1.723,6.2,1.665a.97.97,0,0,1,.116,1.936Z" transform="translate(64.609 785.788)"/><ellipse class="b" cx="2.846" cy="2.014" rx="2.846" ry="2.014" transform="translate(395.507 903.33) rotate(-83.61)"/><ellipse class="b" cx="2.846" cy="2.014" rx="2.846" ry="2.014" transform="translate(376.124 898.956) rotate(-66.47)"/><path class="b" d="M334.551,133.62a.949.949,0,0,1-.658-.271c-6.2-5.944-22.964-9.681-23.235-9.681a.97.97,0,0,1,.407-1.9c.716.155,17.426,3.872,24.067,10.127a.968.968,0,0,1,0,1.375,1.007,1.007,0,0,1-.581.348Z" transform="translate(61.298 794.077)"/><line class="a" x2="20.718" y2="15.916" transform="translate(462.612 1061.837)"/><path class="b" d="M378.148,214.48a.93.93,0,0,1-.581-.213l-20.737-15.9a.968.968,0,0,1,1.181-1.53L378.767,212.8a.968.968,0,0,1-.6,1.743Z" transform="translate(105.182 864.241)"/><path class="a" d="M335.708,159.542s-7.939-7.609-10.03-16.9-1.3-11.346-2.749-11.617-3.872.658-5.693,3.872-1.336,14.348,1.626,18.84S335.708,159.542,335.708,159.542Z" transform="translate(67.192 802.719)"/><path class="b" d="M336.175,161.013h-.1c-1.472-.136-14.444-1.588-17.562-6.332s-3.679-16.322-1.665-19.846,4.821-4.705,6.738-4.3c1.491.329,1.665,1.549,1.936,4.008.232,1.743.6,4.376,1.491,8.384,1.936,8.887,9.681,16.361,9.778,16.439a.968.968,0,0,1,.213,1.1,1.007,1.007,0,0,1-.833.542Zm-13.3-28.637c-1.084,0-2.866.833-4.337,3.408s-1.239,13.554,1.588,17.813c1.82,2.749,8.907,4.4,13.554,5.131a37.815,37.815,0,0,1-8.423-15.393,85.958,85.958,0,0,1-1.53-8.558,9,9,0,0,0-.465-2.362Z" transform="translate(66.726 802.235)"/><path class="a" d="M277.864,169.44S242.472,256.2,255.732,282.671,399.4,320.892,399.4,320.892s16.58,6.99,21.744,8.093,24.792,2.246,24.792,2.246-7.377,1.472-4.8,3.679,16.949,2.207,18.424-2.943-2.582-25.733-6.989-29.044-54.554-15.49-58.243-15.8S308.073,258.2,308.073,258.2l10.7-80.625" transform="translate(7.502 838.755)"/><path class="b" d="M448.64,337.688a13.619,13.619,0,0,1-7.649-1.626,2.05,2.05,0,0,1-.835-2.13,2.887,2.887,0,0,1,1.417-1.607c-6.154-.407-16.443-1.162-20.074-1.936-4.989-1.065-20.054-7.358-21.782-8.093-7.183-.639-131.121-12.314-144.361-38.725-5.63-11.191-3.592-33.826,6.018-67.226,7.105-24.764,15.978-46.47,16.055-46.8a.991.991,0,0,1,1.262-.523.967.967,0,0,1,.544,1.259c-.349.871-35.081,86.647-22.151,112.418S398.8,320.281,400.047,320.416h.291c.175,0,16.56,6.97,21.569,8.035s24.364,2.169,24.559,2.188a.97.97,0,0,1,.912.891.988.988,0,0,1-.777,1.026,10.13,10.13,0,0,0-4.562,1.8l.213.194c1.359,1.162,8.154,1.762,12.949.31,1.553-.465,3.494-1.317,3.883-2.788,1.475-5.15-2.718-25.055-6.64-28s-53.291-15.18-57.756-15.625c-3.689-.368-78-26.042-86.469-29.044a.949.949,0,0,1-.641-1.026l10.678-80.644a1.009,1.009,0,0,1,1.107-.833.988.988,0,0,1,.835,1.1l-10.6,79.831c33.159,11.463,82.684,28.366,85.285,28.618,2.951.29,53.873,12.373,58.727,15.993s8.872,24.764,7.338,30.089c-.5,1.82-2.31,3.234-5.2,4.1A25.65,25.65,0,0,1,448.64,337.688Z" transform="translate(7.026 838.302)"/><path class="a" d="M378.718,232.232s-23.7-60.662-30.36-70.653-35.878-34.368-39.519-31.948-2.575,5.15-1.046,6.97a100.479,100.479,0,0,0,9.991,7.745s-9.546-4.376-9.856,1.375,6.97,9.236,6.97,9.236-8.016-5.906-8.326.445a9.352,9.352,0,0,0,5.6,8.79s-8.539-7.261-7.745.29c1.355,12.411,26.333,27.262,26.333,27.262l10.591,103.182s3.872,59.868,41.978,58.087c49.026-2.323,63.237-73.035,38.725-132.826" transform="translate(56.38 801.328)"/><path class="b" d="M382.153,354.365c-37.118,0-41.242-58.4-41.281-59L330.339,192.747c-3.427-2.091-25.074-15.742-26.391-27.727-.232-2.188.232-3.6,1.394-4.2a2.749,2.749,0,0,1,1.685-.271,9.526,9.526,0,0,1-.968-4.763,3.757,3.757,0,0,1,1.936-3.543,3.233,3.233,0,0,1,1.491-.329,8.6,8.6,0,0,1-2.052-5.809,3.873,3.873,0,0,1,1.762-3.234,6.389,6.389,0,0,1,3.872-.581,43.706,43.706,0,0,1-5.6-4.589,5.17,5.17,0,0,1,1.278-8.4c2.672-1.781,12.218,5.208,19.769,11.385,7.88,6.467,17.426,15.49,21.086,20.834,6.641,9.972,29.47,68.369,30.438,70.847a.968.968,0,1,1-1.8.7c-.232-.6-23.738-60.682-30.263-70.46-7.087-10.63-34.968-32.974-38.066-31.677a3.872,3.872,0,0,0-1.936,2.556,4.027,4.027,0,0,0,1.142,2.982,96.241,96.241,0,0,0,9.8,7.532.987.987,0,0,1,.29,1.278.949.949,0,0,1-1.239.407c-2.11-.968-6.022-2.13-7.648-1.142a1.8,1.8,0,0,0-.833,1.665c-.155,3.137,2.343,5.576,4.279,6.99a16.9,16.9,0,0,1,2.3,1.433.968.968,0,0,1-1.007,1.646,19.774,19.774,0,0,1-2.362-1.452,5.305,5.305,0,0,0-3.776-.813c-.484.232-.736.871-.794,1.936a7.745,7.745,0,0,0,2.169,5.809,20.342,20.342,0,0,1,3.1,2.169.968.968,0,0,1-1.007,1.626,11.615,11.615,0,0,1-3.156-2.188c-1.239-.7-2.362-1.065-2.846-.794s-.523,1.046-.387,2.285c1.3,11.792,25.636,26.372,25.887,26.526a1.007,1.007,0,0,1,.465.736l10.475,103.1c0,.62,4.144,58.862,40.971,57.177,15.277-.736,28-8.4,36.788-22.189,16.71-26.217,17.155-70.15,1.1-109.3a.968.968,0,1,1,1.781-.736c16.284,39.712,15.78,84.362-1.239,111.082-9.139,14.348-22.383,22.325-38.337,23.08Z" transform="translate(55.927 800.907)"/><path class="a" d="M342.13,181.34s19.111,51.949,24.029,69.046" transform="translate(91.729 849.886)"/><path class="b" d="M366.622,251.868a.949.949,0,0,1-.929-.7c-4.841-16.923-23.816-68.523-24.009-69.046a.968.968,0,0,1,1.82-.658c.194.523,19.188,52.278,24.048,69.182a.968.968,0,0,1-.678,1.181.581.581,0,0,1-.252.039Z" transform="translate(91.265 849.43)"/><path class="b" d="M289.763,155.52c0,1.472-2.943,28.927-2.943,28.927" transform="translate(39.554 825.703)"/><path class="b" d="M287.281,185.914h-.1a.968.968,0,0,1-.852-1.065c1.181-11.017,2.924-27.766,2.924-28.811a.987.987,0,0,1,.968-.968.968.968,0,0,1,.968.968c0,1.472-2.653,26.2-2.943,29.044a.988.988,0,0,1-.968.833Z" transform="translate(39.092 825.282)"/><path class="b" d="M317.677,133.194a14.967,14.967,0,1,1,14.967-14.967A14.967,14.967,0,0,1,317.677,133.194Zm0-28a13.031,13.031,0,1,0,13.031,13.031A13.031,13.031,0,0,0,317.677,105.2Z" transform="translate(54.537 776.76)"/><path class="b" d="M332.707,135.224a14.967,14.967,0,1,1,14.967-15.006A14.967,14.967,0,0,1,332.707,135.224Zm0-28a13.031,13.031,0,1,0,13.031,12.992,13.031,13.031,0,0,0-13.031-12.992Z" transform="translate(68.689 778.661)"/><path class="b" d="M304.605,231.728a.987.987,0,0,1-.91-.62l-11.23-30.147a1.026,1.026,0,0,1,.194-.987L309.6,181.6l-13.9-13.205a.949.949,0,0,1,0-1.3c5.809-7.2,15.316-19.072,16.071-20.7a.968.968,0,1,1,1.936,0c0,.523.271,1.375-15.916,21.3l13.96,13.224a.987.987,0,0,1,0,1.355l-17.194,18.646,11.017,29.586a.949.949,0,0,1-.562,1.239.988.988,0,0,1-.407-.019Z" transform="translate(44.834 816.257)"/><path class="b" d="M337.712,176.325a.949.949,0,0,1-.736-.348.968.968,0,0,1,.1-1.355l8.016-6.97-11.211-19.885a.968.968,0,0,1,1.685-.949L347.18,167.4a.949.949,0,0,1-.213,1.2l-8.6,7.474a.929.929,0,0,1-.658.252Z" transform="translate(83.757 817.133)"/><path class="b" d="M317.65,171.385l1.3,11.792s34.852-10.649,34.62-11.191S351.244,160,351.244,160Z" transform="translate(68.615 829.898)"/><path class="b" d="M319.419,184.623a.949.949,0,0,1-.949-.852l-1.317-11.792a.929.929,0,0,1,.658-1.007l33.5-11.424a1.026,1.026,0,0,1,.794,0,1.007,1.007,0,0,1,.465.658c.813,4.26,2.188,11.269,2.382,11.869a1.123,1.123,0,0,1,0,.755c-.232.484-.5,1.084-35.2,11.617A.755.755,0,0,1,319.419,184.623Zm-.271-12.082,1.1,9.875c12.121-3.718,29.256-9.081,32.684-10.436-.445-1.936-1.375-6.719-2.052-10.243Z" transform="translate(68.144 829.4)"/><ellipse class="a" cx="11.056" cy="11.056" rx="11.056" ry="11.056" transform="translate(402.141 986.063)"/><path class="b" d="M337.364,181.568a12.024,12.024,0,1,1,12.024-12.024A12.024,12.024,0,0,1,337.364,181.568Zm0-22.112a10.088,10.088,0,1,0,10.088,10.088A10.088,10.088,0,0,0,337.364,159.456Z" transform="translate(75.834 827.575)"/><path class="b" d="M331.208,172.314h-.194a.949.949,0,0,1-.755-1.123l1.568-8.132a.968.968,0,0,1,1.568-.562l4.3,3.621a1.007,1.007,0,0,1,.116,1.375.968.968,0,0,1-1.375,0l-3.021-2.556-1.259,6.525A.968.968,0,0,1,331.208,172.314Z" transform="translate(80.417 832.028)"/></g></svg>