<svg xmlns="http://www.w3.org/2000/svg" width="550" height="270" viewBox="0 0 550 270"><defs><style>.a{fill:#5062ff;}.b{fill:#d8d8d8;}.c{fill:#fff;}.d{fill:#231f20;}</style></defs><g transform="translate(-99.533 -449.741)"><path class="a" d="M139.274,265.033H49.36V229.484L134.483,96.56h40.632V232.776h30.849v32.257H175.116v43.01H139.274Zm0-117.691h-.6L85.8,232.776h53.469Z" transform="translate(50.173 393.769)"/><path class="a" d="M354.946,265.033h-89.9V229.484L350.173,96.56h40.632V232.776h30.758v32.257H390.806v43.01h-35.86ZM361.2,147.341h-.6l-52.866,85.434H361.2Z" transform="translate(227.97 393.769)"/><g transform="translate(253.417 461)"><circle class="b" cx="96" cy="96" r="96" transform="translate(38.732)"/><path class="c" d="M69.836,6.062S42.4,61.17,29.684,83.783c0,0-2.7,19.782-15.031,18.7C-2.886,100.923.211,89.769.211,89.769l9.881-9.6L47.014,0" transform="translate(1.17 158.113) rotate(-14)"/><path class="d" d="M16.6,104.455c11.687,0,14.632-17.254,14.955-19.383,12.618-22.4,39.905-77.056,40.1-77.607a.95.95,0,0,0-1.691-.779c-.285.551-27.592,55.431-40.152,77.683a1.215,1.215,0,0,0-.114.342c0,.19-2.736,18.87-14,17.882-6.157-.551-10.318-2.337-12.39-5.3a8.076,8.076,0,0,1-1.273-5.967l9.653-9.5a.931.931,0,0,0,.209-.266l36.96-80.21A.95.95,0,0,0,48.374.093a.931.931,0,0,0-1.254.456L10.235,80.588l-9.729,9.5a1.045,1.045,0,0,0-.266.437,9.939,9.939,0,0,0,1.5,7.791c2.394,3.458,7.031,5.511,13.777,6.1Z" transform="translate(0 157.388) rotate(-14)"/><path class="c" d="M142.208,132.57l28.922,20.181,23.031-44.029s-1.444-18.262,1.444-20.276,4.333,6.385,4.333,6.385,6.366-17.691,8.38-16.95,9.5,5.359,9.5,9.976S191.8,177.531,184.3,180.97s-65.749-30.955-65.749-30.955" transform="translate(4.599 -4.564)"/><path class="d" d="M183.454,182.614a4.029,4.029,0,0,0,1.653-.285c3.516-1.634,10.261-17.349,20.086-46.709,6.936-20.732,13.948-44.618,13.948-47.3,0-5.3-8.1-10.128-10.166-10.87a1.368,1.368,0,0,0-1.083,0c-2.033.95-5.473,9.387-7.43,14.556-.57-1.767-1.463-3.8-2.793-4.257a2.28,2.28,0,0,0-2.28.323c-3.021,2.109-2.223,16.152-1.9,20.9l-22.5,42.832-28.048-19.573a.95.95,0,0,0-1.083,1.558L170.875,154a.969.969,0,0,0,.76.152,1.026,1.026,0,0,0,.627-.494l23.107-44.029a.8.8,0,0,0,.114-.513c-.684-8.513-.475-18.376,1.045-19.44.266-.171.38-.133.437-.114.988.418,2.033,3.687,2.413,5.91a.95.95,0,0,0,.855.779.912.912,0,0,0,.969-.627c2.565-7.107,6.043-15.2,7.411-16.285,2.128.893,8.665,5.112,8.665,8.988,0,5.321-26.47,89.313-32.969,92.277-5.169,2.394-42.528-17.71-64.874-30.917a.95.95,0,1,0-.969,1.634C124.128,154.6,171.749,182.614,183.454,182.614Z" transform="translate(4.322 -5.029)"/><path class="a" d="M172.071,144.867l-16.7-9.739c3.553-16.727,9.343-32.43,15.68-35.851,8.192-5.853,37.194-1.9,54.624-.988a52.238,52.238,0,0,1,16.384,3.287,96.722,96.722,0,0,1,31.224,19.193l-21.141,26.984-5.033-7.905s8.817,47.79,15.8,79.011c-24.7-1.465-51.353,4.668-76.562,7.936C186.347,226.795,172.09,150.245,172.071,144.867Z" transform="translate(-111.052 11.718)"/><path class="d" d="M191.009,154.31a.912.912,0,0,0,.456-.114.931.931,0,0,0,.38-1.292c-.19-.361-19.8-36.713-13.3-50.7,1.482-3.192,5.986-6,10.945-6.841A15.392,15.392,0,0,1,203.455,99.7a51.9,51.9,0,0,1,15.088,33.141,43.859,43.859,0,0,1-1.71,15.658.95.95,0,0,0,1.786.627c.1-.266,9.2-26.737-13.8-50.737A17.235,17.235,0,0,0,189.185,93.5c-5.7.931-10.6,4.1-12.371,7.905-6.879,14.86,12.561,50.889,13.4,52.409a.931.931,0,0,0,.8.494Z" transform="translate(-95.33 9.215)"/><path class="d" d="M195.725,65.75s11.839.171,6.252,13.416C198.385,87.774,172.922,89.2,172.922,89.2S173.036,73.218,195.725,65.75Z" transform="translate(-73.727 -15.379)"/><path class="d" d="M173.482,90.627h0c1.064,0,26.033-1.558,29.853-10.622,1.9-4.656,2.09-8.342.361-10.984a9.672,9.672,0,0,0-7.468-3.8h-.3c-23.145,7.6-23.449,23.677-23.449,24.361a1.157,1.157,0,0,0,1.007,1.045Zm22.993-23.449a7.791,7.791,0,0,1,5.7,2.888c1.349,2.071,1.178,5.169-.532,9.216-2.66,6.29-19.573,8.817-27.136,9.387C175.021,85.116,177.871,73.353,196.475,67.177Z" transform="translate(-74.288 -15.855)"/><path class="c" d="M221.324,75.225a16.479,16.479,0,0,0-1.007-1.539c-4.029-5.7-14.708-3.8-20.314-2.147a31.81,31.81,0,0,0-14.195,7.734c-3.078,3.135-5.948,8.228-5.378,12.789s3.458,9.919,5.7,13.758a16.286,16.286,0,0,0,5.359,5.929,16.95,16.95,0,0,0,7.6,1.9,30.081,30.081,0,0,0,16.532-3.059A19.763,19.763,0,0,0,225.581,95.8a35.155,35.155,0,0,0-4.257-20.58Z" transform="translate(-110.14 -11.705)"/><path class="d" d="M202.368,115.075a28.37,28.37,0,0,0,14.309-3.249c4.884-2.774,10.014-8.665,10.451-15.563a36.238,36.238,0,0,0-4.5-21.093,17.726,17.726,0,0,0-1.045-1.6c-4.637-6.5-16.494-3.934-21.378-2.527a32.494,32.494,0,0,0-14.632,8c-3,3.059-6.29,8.437-5.7,13.587a39.052,39.052,0,0,0,5.91,14.157A14.328,14.328,0,0,0,199.555,115C200.562,115.056,201.475,115.075,202.368,115.075Zm8.665-43.706c3.591,0,7.088.8,8.95,3.4.342.475.665.969.969,1.463h0a34.528,34.528,0,0,1,4.238,19.953,18.775,18.775,0,0,1-9.5,13.986c-4.086,2.337-9.311,3.287-15.981,2.926a15.98,15.98,0,0,1-7.2-1.691,15.581,15.581,0,0,1-5.017-5.568,37.492,37.492,0,0,1-5.7-13.3c-.513-4.181,2.185-9.026,5.112-11.991a30.575,30.575,0,0,1,13.758-7.487,40.379,40.379,0,0,1,10.375-1.748Zm10.755,4.371Z" transform="translate(-110.603 -12.161)"/><path class="c" d="M205.57,107.722l1.653,13.72s-3.8,8.7-12.751,6.993a18.166,18.166,0,0,1-12.523-9.368L180.829,94s6.423-3.8,3.8-18.053a44.123,44.123,0,0,0,23.24,2.09s4.789,15.316,4.048,22.252S205.57,107.722,205.57,107.722Z" transform="translate(-97.274 -6.239)"/><path class="d" d="M197.184,130.1c7.886,0,11.4-7.715,11.4-7.791a.969.969,0,0,0,0-.513l-1.558-12.846a8.665,8.665,0,0,0,6.252-8.076c.741-7.069-3.8-22.024-4.085-22.651a1.007,1.007,0,0,0-1.121-.684,43.515,43.515,0,0,1-22.594-2.014.969.969,0,0,0-1.007.133.95.95,0,0,0-.342.95c2.451,13.3-3.287,16.988-3.344,17.1a.95.95,0,0,0-.456.874l1.1,25.065a1.236,1.236,0,0,0,0,.38,19.1,19.1,0,0,0,13.3,9.919,14.234,14.234,0,0,0,2.451.152Zm9.5-8.342c-.646,1.311-4.143,7.6-11.553,6.176a17.425,17.425,0,0,1-11.744-8.646l-1.083-24.342c1.482-1.216,5.7-5.7,4.029-17.1a45.929,45.929,0,0,0,21.3,1.691c.969,3.23,4.371,15.2,3.8,21.036s-5.264,6.518-5.454,6.537a1.007,1.007,0,0,0-.893,1.1Z" transform="translate(-97.686 -6.701)"/><path class="c" d="M205.1,87.3a5.91,5.91,0,0,0-2.109-3,10.223,10.223,0,0,0-3.192-1.406,4.086,4.086,0,0,0-1.9-.247,3.8,3.8,0,0,0-1.235.513,4.542,4.542,0,0,0-2.014,2.356,5.493,5.493,0,0,0,0,2.546,10.8,10.8,0,0,0,.817,2.66,7.088,7.088,0,0,0,9.5,3.23" transform="translate(-116.358 -0.233)"/><path class="d" d="M202.211,96.169a8.191,8.191,0,0,0,3.611-.836.988.988,0,0,0,.437-1.33,1.007,1.007,0,0,0-1.311-.437,6.022,6.022,0,0,1-8.171-2.755,9.235,9.235,0,0,1-.741-2.432,4.5,4.5,0,0,1,0-2.071,3.8,3.8,0,0,1,1.615-1.9,2.394,2.394,0,0,1,.893-.38,3.42,3.42,0,0,1,1.444.209,9.5,9.5,0,0,1,2.888,1.273A4.864,4.864,0,0,1,204.643,88a.989.989,0,1,0,1.9-.551,6.764,6.764,0,0,0-2.489-3.516,11.192,11.192,0,0,0-3.5-1.577,4.979,4.979,0,0,0-2.318-.266,4.485,4.485,0,0,0-1.6.646,5.4,5.4,0,0,0-2.508,3.021,6.176,6.176,0,0,0,0,3,10.451,10.451,0,0,0,.893,2.926,8.057,8.057,0,0,0,4.637,4.086,7.962,7.962,0,0,0,2.546.4Z" transform="translate(-116.793 -0.745)"/><path class="d" d="M197.041,100.168a11.515,11.515,0,0,1-9.235-2.527c-4.1-3.591-3.8-5.7-3.8-5.7s6.48,3.154,12.238,1.71Z" transform="translate(-88.346 8.137)"/><path class="d" d="M195.666,101.743a10.375,10.375,0,0,0,2.014-.171.95.95,0,0,0,.76-1.045l-.874-6.594a.855.855,0,0,0-.4-.665.893.893,0,0,0-.76-.133c-5.359,1.349-11.535-1.615-11.611-1.634a.95.95,0,0,0-.874,0,.969.969,0,0,0-.475.722c0,.285-.152,2.812,4.181,6.594A12.086,12.086,0,0,0,195.666,101.743Zm.76-1.9a10.47,10.47,0,0,1-7.6-2.413,13.3,13.3,0,0,1-2.983-3.439,20.9,20.9,0,0,0,9.938,1.216Z" transform="translate(-88.7 7.646)"/><path class="c" d="M184.532,81.69s5.226,6.556,4.219,7.848-4.162.76-4.162.76" transform="translate(-81.195 -1.066)"/><path class="d" d="M186.5,91.809a4.333,4.333,0,0,0,3.458-1.254c.969-1.235-.456-4.276-4.238-9.007a.953.953,0,1,0-1.482,1.2c2.261,2.869,4.162,6.062,4.162,6.8a5.378,5.378,0,0,1-3.173.266.964.964,0,1,0-.323,1.9,10.357,10.357,0,0,0,1.6.1Z" transform="translate(-81.603 -1.512)"/><path class="c" d="M6.841.451S1.824-1.658,0,3.244" transform="translate(100.333 91.609) rotate(30)"/><path class="d" d="M5.425,0A8.478,8.478,0,0,1,8.218.513.958.958,0,1,1,7.477,2.28a5.246,5.246,0,0,0-3.611,0,3.9,3.9,0,0,0-2,2.318A.95.95,0,1,1,.1,3.932,5.7,5.7,0,0,1,3.126.532,5.931,5.931,0,0,1,5.425,0Z" transform="translate(99.937 90.3) rotate(30)"/><ellipse class="d" cx="1.615" cy="1.159" rx="1.615" ry="1.159" transform="translate(94.818 82.989) rotate(-107.06)"/><ellipse class="d" cx="1.615" cy="1.159" rx="1.615" ry="1.159" transform="translate(106.912 82.055) rotate(-107.06)"/><path class="c" d="M203.122,96.106l-17.938,3.8s-9.5-23.506,8.969-34.053c20.9-11.915,31.715,5,31.715,5Z" transform="translate(-114.778 -19.107)"/><path class="d" d="M185.424,101.321h.285l17.919-3.8a.95.95,0,0,0,.532-.3L226.964,72a.969.969,0,0,0,.095-1.2c-.114-.171-11.572-17.558-33.026-5.3-7.848,4.485-11.972,12.029-11.877,21.815a40.609,40.609,0,0,0,2.356,13.473A.969.969,0,0,0,185.424,101.321Zm17.425-5.7-16.8,3.572a40.057,40.057,0,0,1-2.071-12.01c0-9.121,3.611-15.867,10.907-20.048,17.805-10.166,27.82,1.2,29.967,4.067Z" transform="translate(-115.018 -19.532)"/><path class="c" d="M177,92.373s3.553-19,22.8-25.236l10.85-1.387a61.169,61.169,0,0,0-15.715,18.68C188.135,96.439,177,92.373,177,92.373Z" transform="translate(-88.656 -15.381)"/><path class="d" d="M181.851,94.451c4.143,0,10.128-1.52,14.442-9.064a60.808,60.808,0,0,1,15.43-18.376.988.988,0,0,0,.342-1.159.969.969,0,0,0-1.026-.608l-10.983,1.387c-19.687,6.461-23.544,25.825-23.582,26.015a.969.969,0,0,0,.627,1.1,15.2,15.2,0,0,0,4.751.7ZM207.9,67.6a68.257,68.257,0,0,0-13.3,16.817c-5.378,9.5-13.3,8.361-15.981,7.734.988-3.8,5.815-18.319,21.891-23.62Z" transform="translate(-89.099 -15.843)"/><path class="d" d="M202.956,173.046s13.539-17.824,12.2-41.33S206.99,95.44,206.99,95.44l-6.957,2.033s7.562,13.055,8.313,34.812c.6,17.235-7.725,32.3-7.725,32.3Z" transform="translate(-136.886 11.225)"/><path class="d" d="M203.252,174.45a.771.771,0,0,0,.621-.323c.131-.19,13.735-18.394,12.4-42.033s-8-36.1-8.28-36.694a.76.76,0,0,0-.882-.437l-6.957,2a.906.906,0,0,0-.572.589,1.105,1.105,0,0,0,.1.855c0,.133,7.447,13.131,8.166,34.337.588,16.722-7.513,31.677-7.594,31.829a1.047,1.047,0,0,0,0,.8l2.286,8.418a.931.931,0,0,0,.6.646Zm3.642-77.492c1.307,2.774,6.533,15.069,7.741,35.249,1.111,19.23-8.068,34.793-11.057,39.316l-1.764-6.309c1.323-2.527,8.166-16.513,7.66-32.532a84.536,84.536,0,0,0-7.856-34.2Z" transform="translate(-137.183 10.772)"/><path class="d" d="M181.642,158.252s-2.218-32.3-17.639-61.3l6.5,1.083s8.874,5.853,12.845,30.233C187.056,151.05,181.642,158.252,181.642,158.252Z" transform="translate(-44.58 12.596)"/><path class="d" d="M181.913,159.6a.7.7,0,0,0,.574-.3c.233-.3,5.631-7.81,1.893-30.822-4-24.532-12.861-30.632-13.248-30.879h-.248l-6.5-1.083a.749.749,0,0,0-.76.437,1.11,1.11,0,0,0,0,1.007c15.125,28.5,17.484,60.561,17.515,60.808a.88.88,0,0,0,.512.8A.578.578,0,0,0,181.913,159.6Zm-11.4-60.257c1.008.779,8.749,7.392,12.411,29.511,2.482,15.2.822,23.278-.45,26.87-.931-8.4-4.654-33.768-16.584-57.16Z" transform="translate(-44.852 12.195)"/><rect class="c" width="43.801" height="23.183" rx="1.5" transform="matrix(-0.985, 0.172, -0.172, -0.985, 135.122, 179.287)"/><path class="d" d="M176.626,152.726a3.8,3.8,0,0,0,.646,0h0l37.549-6.537a3.914,3.914,0,0,0,2.451-1.558,3.8,3.8,0,0,0,.646-2.85l-3-17.216a3.824,3.824,0,0,0-4.409-3.1L172.978,128a3.914,3.914,0,0,0-2.47,1.558,3.8,3.8,0,0,0-.627,2.85l3,17.216A3.8,3.8,0,0,0,176.626,152.726Zm.323-1.9a1.9,1.9,0,0,1-2.2-1.539l-3-17.216a1.9,1.9,0,0,1,1.558-2.2l37.53-6.537a1.9,1.9,0,0,1,2.2,1.539l3,17.216a1.915,1.915,0,0,1-1.539,2.2l-37.549,6.537Z" transform="translate(-82.334 34.572)"/><path class="c" d="M3.306,5.53H17.5a3.287,3.287,0,0,0,3.287-3.287V0H0V2.242A3.287,3.287,0,0,0,3.287,5.53Z" transform="matrix(-0.985, 0.172, -0.172, -0.985, 119.815, 158.446)"/><path class="d" d="M179.047,129.986h.152l20.466-3.573a.931.931,0,0,0,.608-.38.988.988,0,0,0,.171-.722l-.38-2.2a4.276,4.276,0,0,0-4.922-3.458l-13.967,2.432A4.245,4.245,0,0,0,177.717,127l.38,2.2a.969.969,0,0,0,.4.608.912.912,0,0,0,.551.171Zm19.364-5.283-18.6,3.249-.209-1.273a2.262,2.262,0,0,1,.38-1.748,2.356,2.356,0,0,1,1.52-.969l13.986-2.432a2.337,2.337,0,0,1,2.7,1.9Z" transform="translate(-79.701 32.955)"/><ellipse class="c" cx="9.767" cy="9.767" rx="9.767" ry="9.767" transform="translate(101.797 161.858)"/><path class="d" d="M187.5,145.443a12.31,12.31,0,0,0,1.9-.152,10.729,10.729,0,1,0-12.409-8.741h0a10.718,10.718,0,0,0,10.508,8.893Zm0-19.554a8.839,8.839,0,1,1-1.539.133,8.417,8.417,0,0,1,1.577-.114ZM177.844,136.4Z" transform="translate(-75.952 36.899)"/><ellipse class="c" cx="5.872" cy="5.872" rx="5.872" ry="5.872" transform="translate(105.693 165.757)"/><path class="d" d="M185.858,139.72a7.935,7.935,0,0,0,1.159,0,6.86,6.86,0,0,0,5.473-8.038,6.765,6.765,0,0,0-2.812-4.409,6.632,6.632,0,0,0-5.093-1.14,6.822,6.822,0,0,0-5.549,7.886h0a6.822,6.822,0,0,0,6.822,5.7Zm0-11.763a4.941,4.941,0,1,1-.855,0,4.333,4.333,0,0,1,.855-.076Zm-5.7,5.948Z" transform="translate(-74.293 38.729)"/></g><path class="a" d="M11.715,0A12.866,12.866,0,0,0,.287,6.044,1.6,1.6,0,0,0,.63,8.227L3.495,10.4A1.594,1.594,0,0,0,5.7,10.124C7.366,8.04,8.6,6.84,11.2,6.84c2.043,0,4.57,1.315,4.57,3.3,0,1.5-1.236,2.267-3.253,3.4C10.162,14.852,7.05,16.493,7.05,20.6v.65a1.594,1.594,0,0,0,1.594,1.594h4.812a1.594,1.594,0,0,0,1.594-1.594v-.383c0-2.846,8.318-2.965,8.318-10.666C23.368,4.4,17.351,0,11.715,0ZM11.05,24.8a4.6,4.6,0,1,0,4.6,4.6A4.605,4.605,0,0,0,11.05,24.8Z" transform="translate(378.856 449.741) rotate(8)"/><path class="a" d="M11.715,0A12.866,12.866,0,0,0,.287,6.044,1.6,1.6,0,0,0,.63,8.227L3.495,10.4A1.594,1.594,0,0,0,5.7,10.124C7.366,8.04,8.6,6.84,11.2,6.84c2.043,0,4.57,1.315,4.57,3.3,0,1.5-1.236,2.267-3.253,3.4C10.162,14.852,7.05,16.493,7.05,20.6v.65a1.594,1.594,0,0,0,1.594,1.594h4.812a1.594,1.594,0,0,0,1.594-1.594v-.383c0-2.846,8.318-2.965,8.318-10.666C23.368,4.4,17.351,0,11.715,0ZM11.05,24.8a4.6,4.6,0,1,0,4.6,4.6A4.605,4.605,0,0,0,11.05,24.8Z" transform="matrix(0.839, 0.545, -0.545, 0.839, 413.472, 458)"/></g></svg>