<svg xmlns="http://www.w3.org/2000/svg" width="92" height="92" viewBox="0 0 92 92"><defs><style>.a{fill:#e1e1e1;}.b{fill:#fff;}.c{fill:#231f20;}.d{fill:#5062ff;}.e{fill:#d1d3d4;}</style></defs><g transform="translate(-122 -1695)"><circle class="a" cx="46" cy="46" r="46" transform="translate(122 1695)"/><path class="b" d="M225.2,177.126c-2.735-2.016-3.8-5.683-3.754-9.087a6.852,6.852,0,0,1,1.532-4.778,6.4,6.4,0,0,1,2.073-1.325c2.436-1.059,5.678-1.231,7.369.818a7.565,7.565,0,0,1,1.091,2.046q1.524,3.769,2.735,7.658c.8,2.543,1.658,6.564-1.939,6.79C231.378,179.433,227.612,178.9,225.2,177.126Z" transform="translate(-48.05 1582.677)"/><path class="c" d="M232.818,179c-2.645,0-5.882-.564-8.083-2.183-2.471-1.815-3.859-5.164-3.809-9.2.03-2.223.542-3.814,1.569-4.866a6.629,6.629,0,0,1,2.116-1.355c2.486-1.081,5.788-1.243,7.518.855a7.668,7.668,0,0,1,1.111,2.078c1.014,2.509,1.937,5.089,2.735,7.67.883,2.824.94,4.741.172,5.857a2.747,2.747,0,0,1-2.225,1.1C233.573,178.985,233.2,179,232.818,179ZM228.2,160.878a8.98,8.98,0,0,0-3.481.761,6.375,6.375,0,0,0-2.036,1.31c-.98.994-1.467,2.536-1.492,4.691-.05,3.941,1.3,7.21,3.7,8.98,2.466,1.812,6.278,2.272,9.027,2.1a2.493,2.493,0,0,0,2.029-.995c.721-1.047.654-2.891-.2-5.634-.806-2.573-1.725-5.149-2.735-7.65a7.459,7.459,0,0,0-1.069-2.011A4.709,4.709,0,0,0,228.2,160.878Z" transform="translate(-47.659 1583.09)"/><path class="d" d="M97.054,122.17,89.13,118.9c2.817-6.022,5.994-9.6,8.2-11,2.8-2.327,9.733-2.486,16.1-2.735a19.584,19.584,0,0,1,6.051.592c7.421,2.051,14.321,12.8,14.321,12.8l-9.008,1.213s1.161,10.87,2.18,24.116c0,0-11.648,2.62-29.834,1.6C97.128,145.5,97.238,124.054,97.054,122.17Z" transform="translate(51.368 1624.776)"/><path class="b" d="M162.7,69.066l.994,4.774s-1.059,3.17-4.269,2.837a6.429,6.429,0,0,1-4.684-2.916L153.6,64.984s2.141-1.539.791-6.464a15.549,15.549,0,0,0,8.229.042s2.138,5.238,2.086,7.707A2.647,2.647,0,0,1,162.7,69.066Z" transform="translate(2.927 1659.803)"/><path class="c" d="M159.484,76.452a4.52,4.52,0,0,1-.477-.025,6.63,6.63,0,0,1-4.783-2.983.174.174,0,0,1-.015-.047l-1.141-8.776a.134.134,0,0,1,.052-.122,2.959,2.959,0,0,0,.865-1.345,8.219,8.219,0,0,0-.122-4.972.129.129,0,0,1,.037-.127.124.124,0,0,1,.129-.027,15.569,15.569,0,0,0,8.152.037.124.124,0,0,1,.152.075c.089.216,2.148,5.293,2.1,7.75a2.823,2.823,0,0,1-1.989,2.889l.97,4.652a.122.122,0,0,1,0,.067C163.4,73.536,162.391,76.452,159.484,76.452Zm-5.025-3.11a6.35,6.35,0,0,0,4.575,2.822,4,4,0,0,0,4.122-2.717l-.994-4.739a.129.129,0,0,1,.1-.152,2.514,2.514,0,0,0,1.9-2.673c.047-2.215-1.74-6.795-2.034-7.543a16.056,16.056,0,0,1-7.968,0c1.129,4.366-.5,6.022-.84,6.32Z" transform="translate(3.328 1660.179)"/><path class="b" d="M149.484,78.532a2.034,2.034,0,0,0-.833-.994,3.615,3.615,0,0,0-1.164-.4,1.492,1.492,0,0,0-.671-.03,1.2,1.2,0,0,0-.42.221,1.571,1.571,0,0,0-.644.885,1.9,1.9,0,0,0,.077.9,3.774,3.774,0,0,0,.368.912,2.486,2.486,0,0,0,3.431.848" transform="translate(8.84 1645.857)"/><path class="c" d="M147.943,80.96a2.6,2.6,0,0,1-2.238-1.275,3.729,3.729,0,0,1-.378-.945,1.989,1.989,0,0,1-.082-.955,1.7,1.7,0,0,1,.694-.962,1.385,1.385,0,0,1,.465-.249,1.6,1.6,0,0,1,.728.03,3.655,3.655,0,0,1,1.206.418,2.173,2.173,0,0,1,.885,1.054.124.124,0,0,1-.072.167.129.129,0,0,1-.167-.072,1.894,1.894,0,0,0-.781-.93,3.481,3.481,0,0,0-1.124-.385,1.36,1.36,0,0,0-.612-.032,1.094,1.094,0,0,0-.378.2,1.492,1.492,0,0,0-.594.811,1.768,1.768,0,0,0,.077.833,3.553,3.553,0,0,0,.353.883,2.354,2.354,0,0,0,3.254.8.127.127,0,0,1,.177.042.124.124,0,0,1-.042.174A2.623,2.623,0,0,1,147.943,80.96Z" transform="translate(9.223 1646.259)"/><path class="c" d="M177.053,102.9a4.075,4.075,0,0,1-3.322-.609c-1.546-1.136-1.532-1.919-1.532-1.919a7.346,7.346,0,0,0,4.356.234Z" transform="translate(-11.049 1628.357)"/><path class="c" d="M175.67,102.8a3.978,3.978,0,0,1-2.379-.758c-1.581-1.161-1.584-1.989-1.581-2.021a.117.117,0,0,1,.055-.1.119.119,0,0,1,.112,0,7.345,7.345,0,0,0,4.269.231.114.114,0,0,1,.1,0,.117.117,0,0,1,.06.08l.5,2.3a.122.122,0,0,1-.085.144A4.072,4.072,0,0,1,175.67,102.8ZM172,100.209a3.7,3.7,0,0,0,1.439,1.631,3.963,3.963,0,0,0,3.1.617l-.443-2.031A7.229,7.229,0,0,1,172,100.209Z" transform="translate(-10.68 1628.708)"/><path class="b" d="M178.67,72.2s2.031,2.143,1.718,2.628-1.44.393-1.44.393" transform="translate(-15.91 1649.524)"/><path class="c" d="M178.781,74.963a2.044,2.044,0,0,1-.231,0,.125.125,0,0,1,.022-.249c.291.022,1.1,0,1.323-.336.162-.249-.761-1.492-1.706-2.486a.122.122,0,0,1,0-.174.124.124,0,0,1,.177,0c.5.517,2.073,2.253,1.74,2.78C179.855,74.906,179.149,74.963,178.781,74.963Z" transform="translate(-15.521 1649.913)"/><ellipse class="c" cx="0.405" cy="0.572" rx="0.405" ry="0.572" transform="translate(159.413 1721.746) rotate(-21.92)"/><ellipse class="c" cx="0.405" cy="0.572" rx="0.405" ry="0.572" transform="translate(163.632 1721.059) rotate(-21.92)"/><path class="c" d="M171.346,85.774a2.517,2.517,0,0,1-2.021-1.3,6.625,6.625,0,0,1-.791-1.616.125.125,0,1,1,.239-.075c0,.032,1.009,3.157,2.983,2.683S173.7,82.7,173.7,82.6a.124.124,0,0,1,.249,0c0,.027.05,2.583-2.133,3.11A2.019,2.019,0,0,1,171.346,85.774Z" transform="translate(-8.29 1641.8)"/><rect class="c" width="28.005" height="36.236" rx="5.21" transform="translate(170.915 1721.274)"/><rect class="b" width="24.574" height="31.796" transform="translate(172.63 1723.494)"/><path class="c" d="M242.606,110.892H218.032a.114.114,0,0,1-.112-.114v-31.8a.112.112,0,0,1,.112-.112h24.574a.114.114,0,0,1,.114.112v31.8a.117.117,0,0,1-.114.114Zm-24.459-.226h24.345V79.091H218.146Z" transform="translate(-45.401 1644.512)"/><path class="d" d="M252.272,58.038h-3.535a2.941,2.941,0,0,0-5.775,0h-3.523a.848.848,0,0,0-.848.845V61.84a.848.848,0,0,0,.848.848h12.844a.848.848,0,0,0,.83-.848V58.883A.848.848,0,0,0,252.272,58.038Zm-6.422.385a.746.746,0,1,1,.746-.746A.746.746,0,0,1,245.85,58.423Z" transform="translate(-60.933 1661.955)"/><path class="e" d="M238.169,100.471h-5.935a.117.117,0,0,1-.114-.114V94.014a.117.117,0,0,1,.114-.114h5.935a.114.114,0,0,1,.114.114v6.342A.114.114,0,0,1,238.169,100.471Zm-5.83-.231h5.718V94.129h-5.718Z" transform="translate(-56.071 1633.219)"/><path class="d" d="M242.269,97.984a1.058,1.058,0,0,1-.107.147l-3.836,3.829c-.132.132-.234.134-.363,0q-1.081-1.111-2.156-2.238a.211.211,0,0,1,.012-.346l.542-.5a.2.2,0,0,1,.323,0l1.275,1.3c.134.134.234.134.365,0l2.983-2.966a.214.214,0,0,1,.356,0c.167.169.336.338.5.5a1.5,1.5,0,0,1,.1.142Z" transform="translate(-58.778 1630.801)"/><path class="e" d="M278.741,102.871h-8.523a.117.117,0,0,1,0-.231h8.523a.117.117,0,0,1,0,.231Z" transform="translate(-84.622 1626.652)"/><path class="e" d="M276.43,110.889h-6.255a.112.112,0,0,1-.114-.114.114.114,0,0,1,.114-.114h6.255a.117.117,0,0,1,.114.114A.114.114,0,0,1,276.43,110.889Z" transform="translate(-84.578 1620.626)"/><path class="e" d="M238.169,135.308h-5.935a.117.117,0,0,1-.114-.114v-6.34a.114.114,0,0,1,.114-.114h5.935a.112.112,0,0,1,.114.114v6.34A.114.114,0,0,1,238.169,135.308Zm-5.83-.229h5.718v-6.111h-5.718Z" transform="translate(-56.071 1607.041)"/><path class="d" d="M242.269,132.815a1.082,1.082,0,0,1-.107.149l-3.836,3.829a.214.214,0,0,1-.363,0q-1.081-1.114-2.156-2.238a.211.211,0,0,1,.012-.346l.542-.5a.206.206,0,0,1,.323,0l1.275,1.3c.134.134.234.137.365,0l2.983-2.966a.211.211,0,0,1,.356,0c.167.169.336.336.5.5a1.489,1.489,0,0,1,.1.142Z" transform="translate(-58.778 1604.629)"/><path class="e" d="M278.7,137.709h-8.523a.114.114,0,0,1,0-.229H278.7a.114.114,0,0,1,0,.229Z" transform="translate(-84.578 1600.474)"/><path class="e" d="M276.43,145.729h-6.255a.114.114,0,0,1-.114-.114.112.112,0,0,1,.114-.114h6.255a.114.114,0,0,1,.114.114A.117.117,0,0,1,276.43,145.729Z" transform="translate(-84.578 1594.448)"/><path class="e" d="M238.169,170.118h-5.935a.117.117,0,0,1-.114-.114v-6.35a.117.117,0,0,1,.114-.114h5.935a.114.114,0,0,1,.114.114V170a.114.114,0,0,1-.114.122Zm-5.83-.229h5.718v-6.114h-5.718Z" transform="translate(-56.071 1580.893)"/><path class="e" d="M278.741,172.541h-8.523a.117.117,0,0,1,0-.231h8.523a.117.117,0,0,1,0,.231Z" transform="translate(-84.622 1574.303)"/><path class="e" d="M276.43,180.559h-6.255a.112.112,0,0,1-.114-.114.114.114,0,0,1,.114-.114h6.255a.117.117,0,0,1,.114.114A.114.114,0,0,1,276.43,180.559Z" transform="translate(-84.578 1568.277)"/><path class="b" d="M89.938,162.281l-3.836,9.1L94.645,164l5.437,1.842a28.067,28.067,0,0,1-8.64,14.95c-7.426,6.845-15.094,5.532-15.534-.875s4.077-18.831,4.077-18.831" transform="translate(61.325 1582.734)"/><path class="c" d="M81.422,185.065a6.919,6.919,0,0,1-2.566-.467,5.535,5.535,0,0,1-3.446-5.1c-.435-6.36,4.038-18.758,4.082-18.9a.132.132,0,0,1,.249.087c-.045.124-4.5,12.473-4.067,18.778a5.291,5.291,0,0,0,3.284,4.878c3.269,1.3,7.879-.266,12.031-4.09a28.376,28.376,0,0,0,8.58-14.768L94.308,163.7l-8.488,7.329a.129.129,0,0,1-.2-.147l3.839-9.09a.134.134,0,1,1,.249.1l-3.62,8.595,8.1-7.019a.129.129,0,0,1,.127-.025l5.435,1.845a.129.129,0,0,1,.087.139,28.453,28.453,0,0,1-8.679,15.024C87.923,183.437,84.4,185.065,81.422,185.065Z" transform="translate(61.7 1583.166)"/><path class="c" d="M155.822,119.44l9.711,7.717.264.457,1.29,2.245-2.479-.748-.507-.154-9.711-7.715Z" transform="translate(2.334 1614.029)"/><path class="c" d="M166.716,129.651h-.037l-2.983-.9a.139.139,0,0,1-.042-.022l-9.711-7.707a.129.129,0,0,1-.045-.085.117.117,0,0,1,.025-.09l1.432-1.8a.127.127,0,0,1,.174-.02l9.711,7.707a.1.1,0,0,1,.03.035l1.554,2.7a.124.124,0,0,1,0,.139A.122.122,0,0,1,166.716,129.651Zm-2.926-1.139,2.663.806-1.385-2.412-9.6-7.625-1.278,1.609Z" transform="translate(2.705 1614.362)"/><path class="b" d="M196.678,152.32l1.29,2.245-2.479-.748Z" transform="translate(-28.548 1589.323)"/><path class="c" d="M197.56,154.346a.1.1,0,0,1-.037,0l-2.486-.746a.129.129,0,0,1-.085-.085.137.137,0,0,1,.02-.119l1.188-1.492a.124.124,0,0,1,.112-.047.132.132,0,0,1,.1.062l1.288,2.238a.117.117,0,0,1-.1.189Zm-2.26-.947,1.989.6-1.034-1.8Z" transform="translate(-28.14 1589.671)"/><rect class="b" width="0.241" height="0.738" rx="0.121" transform="matrix(0.622, -0.783, 0.783, 0.622, 168.962, 1743.688)"/><path class="c" d="M203.941,160.282a.249.249,0,0,1-.154-.055l-.39-.311a.248.248,0,0,1,.308-.388l.39.311a.249.249,0,0,1,.092.167.231.231,0,0,1-.052.182h0A.249.249,0,0,1,203.941,160.282ZM203.941,160.033Z" transform="translate(-34.419 1583.947)"/><path class="c" d="M.572,0H2.26a.572.572,0,0,1,.572.572V6.464H0V.572A.572.572,0,0,1,.572,0Z" transform="matrix(0.622, -0.783, 0.783, 0.622, 154.163, 1733.572)"/><path class="c" d="M149.475,117.636a.124.124,0,0,1-.077-.025l-4.614-3.667a.694.694,0,0,1-.112-.977l1.049-1.32a.7.7,0,0,1,.977-.112l4.614,3.665a.124.124,0,0,1,.02.174l-1.76,2.218a.119.119,0,0,1-.082.045Zm-3.207-6.007h-.052a.445.445,0,0,0-.3.164l-1.049,1.323h0a.448.448,0,0,0,.072.629l4.517,3.59,1.606-2.024-4.515-3.588a.45.45,0,0,0-.278-.094Zm-1.492,1.415Z" transform="translate(9.75 1620.082)"/><path class="c" d="M148.2,124.156a.124.124,0,0,1-.08-.027c-.1-.077-2.407-1.89-2.71-2.175-.351-.331-.179-1.049-.172-1.079a.128.128,0,1,1,.249.06c-.04.167-.1.644.1.833.293.276,2.668,2.143,2.693,2.161a.129.129,0,0,1,.022.179A.134.134,0,0,1,148.2,124.156Z" transform="translate(9.242 1613.025)"/><path class="b" d="M148.431,116.641a.124.124,0,0,1-.082-.03.127.127,0,0,1-.017-.179L150.1,114.3a.129.129,0,0,1,.182-.017.127.127,0,0,1,.015.181l-1.765,2.131A.122.122,0,0,1,148.431,116.641Z" transform="translate(6.907 1617.927)"/><path class="b" d="M152.069,140.13a6.446,6.446,0,0,0,.448-1.492s2.131.172,2.578-.482,1.788-5.3,1.34-6.086a7.752,7.752,0,0,0-2.68-2.1,9.18,9.18,0,0,0-2.616.206l1.651-1.651s2.683,1.581,3.886,1.477,1.549-.549.93-1.27-5.124-2.752-5.88-2.648-4.092,3.232-4.162,3.68-2.645,9.142-2.1,10.1" transform="translate(9.096 1609.036)"/><path class="c" d="M151.687,139.888a.119.119,0,0,1-.062-.022.127.127,0,0,1-.047-.174,6.685,6.685,0,0,0,.433-1.44.129.129,0,0,1,.137-.1c.572.045,2.131.057,2.461-.428.428-.622,1.74-5.236,1.338-5.949a7.713,7.713,0,0,0-2.62-2.041,8.515,8.515,0,0,0-2.541.211.124.124,0,0,1-.137-.065.129.129,0,0,1,.022-.152l1.651-1.651a.132.132,0,0,1,.157-.02c.025.015,2.655,1.556,3.809,1.462.614-.052.994-.2,1.091-.418s-.092-.457-.249-.644c-.582-.681-5.047-2.7-5.766-2.6-.674.09-3.966,3.145-4.055,3.57-.015.092-.109.445-.308,1.174-.607,2.223-2.215,8.125-1.8,8.846a.129.129,0,0,1-.047.177.132.132,0,0,1-.177-.047c-.408-.716.614-4.769,1.778-9.042.162-.594.291-1.064.3-1.146.082-.527,3.481-3.68,4.271-3.786s5.34,1.927,5.994,2.69c.3.348.4.654.293.907-.132.321-.572.512-1.308.577-1.124.1-3.4-1.171-3.876-1.447l-1.29,1.29a6.63,6.63,0,0,1,2.28-.124,7.865,7.865,0,0,1,2.735,2.153c.457.828-.88,5.542-1.345,6.216-.43.627-2.1.574-2.583.544a5.967,5.967,0,0,1-.44,1.407A.127.127,0,0,1,151.687,139.888Z" transform="translate(9.478 1609.405)"/><path class="b" d="M165.75,149.856a17.311,17.311,0,0,1,3.438-.308,12.071,12.071,0,0,1,2.407,2.1" transform="translate(-6.202 1591.434)"/><path class="c" d="M171.2,151.376a.127.127,0,0,1-.094-.04,11.32,11.32,0,0,0-2.347-2.061,16.331,16.331,0,0,0-3.384.311.129.129,0,0,1-.147-.1.124.124,0,0,1,.1-.147,16.029,16.029,0,0,1,3.5-.308,11.6,11.6,0,0,1,2.466,2.136.127.127,0,0,1,0,.179A.117.117,0,0,1,171.2,151.376Z" transform="translate(-5.813 1591.831)"/><path class="b" d="M174.05,169.357a7.314,7.314,0,0,0,.378-2.407" transform="translate(-12.438 1578.331)"/><path class="c" d="M173.663,169.1a.129.129,0,0,1-.122-.169,7.342,7.342,0,0,0,.37-2.354.129.129,0,0,1,.256-.027,7.323,7.323,0,0,1-.383,2.461A.132.132,0,0,1,173.663,169.1Z" transform="translate(-12.052 1578.717)"/><path class="b" d="M167.82,167.2c.139-.035,2.511.032,2.648,0" transform="translate(-7.758 1578.151)"/><path class="c" d="M169.729,166.971h-.994c-.54,0-1.213-.017-1.3,0a.132.132,0,0,1-.149-.1.124.124,0,0,1,.092-.149,12.119,12.119,0,0,1,1.355,0c.542,0,1.213.017,1.3,0a.129.129,0,0,1,.149.1.127.127,0,0,1-.089.152A2.842,2.842,0,0,1,169.729,166.971Z" transform="translate(-7.356 1578.516)"/><path class="b" d="M164,157.6a10.234,10.234,0,0,1,2.983-.249c.955.2,2.683,2.27,2.854,2.441" transform="translate(-4.887 1585.578)"/><path class="c" d="M169.409,159.581a.127.127,0,0,1-.09-.037c-.025-.025-.077-.082-.152-.167-.455-.512-1.845-2.071-2.64-2.238a9.646,9.646,0,0,0-2.936.249.129.129,0,0,1-.152-.1.124.124,0,0,1,.1-.152,10.182,10.182,0,0,1,3.046-.249c.786.169,1.962,1.4,2.777,2.32.07.08.119.134.142.157a.129.129,0,0,1,0,.182A.132.132,0,0,1,169.409,159.581Z" transform="translate(-4.463 1585.931)"/><path class="b" d="M274.152,200.873a11.445,11.445,0,0,0,.112-1.193,6.61,6.61,0,0,0-.38-2.434,1.723,1.723,0,0,0-.547-.9.7.7,0,0,0-.955.07,1.043,1.043,0,0,0-.035.91,7.423,7.423,0,0,1,.122,2.523,7.5,7.5,0,0,0-.9-3.264,1.529,1.529,0,0,0-.532-.544.709.709,0,0,0-.731.015c-.316.231-.291.7-.249,1.089a13.008,13.008,0,0,1-.045,3,8.6,8.6,0,0,0-.189-2.608,1.711,1.711,0,0,0-.927-1.355.666.666,0,0,0-.368-.025.723.723,0,0,0-.48.562,2.431,2.431,0,0,0,0,.771,11.438,11.438,0,0,1-.092,3.013,7.209,7.209,0,0,0-.1-2.623,2.1,2.1,0,0,0-.4-.952.845.845,0,0,0-.935-.273.888.888,0,0,0-.453.632,3.357,3.357,0,0,0-.027.806,7.346,7.346,0,0,1-.552,2.966,5.543,5.543,0,0,0-.664,2.524,2.6,2.6,0,0,0,1.646,2.021,4.8,4.8,0,0,0,2.7.127c2.949-.584,5.383-1.989,6.427-4.808" transform="translate(-80.64 1556.54)"/><path class="c" d="M267.572,205.621a4.112,4.112,0,0,1-1.517-.266,2.682,2.682,0,0,1-1.723-2.131,5.086,5.086,0,0,1,.567-2.33l.1-.249a7.225,7.225,0,0,0,.542-2.916v-.124a2.75,2.75,0,0,1,.035-.711.886.886,0,0,1,1.609-.415,1.917,1.917,0,0,1,.375.793.466.466,0,0,0-.012-.132v-.062a2.237,2.237,0,0,1,0-.746.848.848,0,0,1,.572-.659.793.793,0,0,1,.44.027c.5.159.828.646,1.012,1.447a.348.348,0,0,0,.02.085q-.015-.216-.037-.433a1.251,1.251,0,0,1,.306-1.206.823.823,0,0,1,.865-.022,1.671,1.671,0,0,1,.582.587,5.364,5.364,0,0,1,.694,1.805,7.485,7.485,0,0,0-.152-.965,1.243,1.243,0,0,1,.057-1.014.674.674,0,0,1,.45-.266.937.937,0,0,1,.686.167,1.865,1.865,0,0,1,.592.96,6.617,6.617,0,0,1,.388,2.486c0,.122-.017.231-.022.333a7.751,7.751,0,0,1-.092.873.129.129,0,1,1-.249-.045,7.361,7.361,0,0,0,.09-.845c0-.1.012-.211.022-.336a6.29,6.29,0,0,0-.375-2.382,1.631,1.631,0,0,0-.5-.835.684.684,0,0,0-.5-.119.413.413,0,0,0-.281.162,1.04,1.04,0,0,0-.017.8,7.486,7.486,0,0,1,.127,2.576.129.129,0,0,1-.127.112h0a.129.129,0,0,1-.127-.114,7.48,7.48,0,0,0-.88-3.212,1.4,1.4,0,0,0-.5-.5.579.579,0,0,0-.592,0c-.249.189-.249.6-.2.975a13.268,13.268,0,0,1-.047,3.028.132.132,0,0,1-.142.109.127.127,0,0,1-.114-.137,8.352,8.352,0,0,0-.186-2.571c-.162-.706-.445-1.131-.84-1.261a.547.547,0,0,0-.3-.022.6.6,0,0,0-.383.465,2.082,2.082,0,0,0,0,.669v.062a11.589,11.589,0,0,1-.092,3.048.129.129,0,0,1-.147.1.127.127,0,0,1-.107-.147,7.107,7.107,0,0,0-.1-2.578,1.988,1.988,0,0,0-.37-.893.713.713,0,0,0-.783-.249.746.746,0,0,0-.38.539,2.659,2.659,0,0,0-.03.649v.124a7.421,7.421,0,0,1-.554,3.023l-.1.249a4.836,4.836,0,0,0-.549,2.21,2.421,2.421,0,0,0,1.566,1.914,4.649,4.649,0,0,0,2.63.122c3.282-.651,5.412-2.238,6.332-4.724a.132.132,0,1,1,.249.087c-.955,2.578-3.15,4.227-6.524,4.893a6.413,6.413,0,0,1-1.265.129Z" transform="translate(-80.268 1556.909)"/><line class="b" x1="4.172" y2="3.202" transform="translate(143.256 1754.114)"/><path class="c" d="M99.829,205.421a.127.127,0,0,1-.1-.05.129.129,0,0,1,.022-.181l4.174-3.2a.127.127,0,0,1,.179.022.129.129,0,0,1-.022.182l-4.174,3.2A.127.127,0,0,1,99.829,205.421Z" transform="translate(43.427 1552.024)"/><path class="c" d="M141.831,42.075a.127.127,0,0,1-.124-.1c-.38-1.594-.746-3.2-1.089-4.786l-.035-.164a8.2,8.2,0,0,1-.273-2.131c.047-.778.619-.813,1.129-.8a2.556,2.556,0,0,1,1.074-1.85c1.527-1.054,3.16-.577,4.739-.114a7.586,7.586,0,0,0,3.143.47,6.713,6.713,0,0,0,1.924-.719c.219-.109.438-.216.659-.316s2.5-1.084,3.053.035a1.1,1.1,0,0,1-.117.96,11.871,11.871,0,0,1-.994,1.671,4.62,4.62,0,0,1,.863-.445,2.387,2.387,0,0,1,1.778-.045,1.2,1.2,0,0,1,.574.465c.269.443.152,1.029-.351,1.74a16.394,16.394,0,0,1-1.454,1.785c.147-.077.293-.169.435-.249a1.967,1.967,0,0,1,1.529-.46.723.723,0,0,1,.477.358c.179.378-.137.791-.249.927a10.6,10.6,0,0,1-3.344,2.859.128.128,0,0,1-.122-.226,10.323,10.323,0,0,0,3.262-2.79c.216-.286.286-.5.209-.661a.46.46,0,0,0-.308-.219,1.761,1.761,0,0,0-1.328.428,3.267,3.267,0,0,1-1.047.5.127.127,0,0,1-.139-.065.129.129,0,0,1,.025-.152,16.264,16.264,0,0,0,1.835-2.17c.438-.624.552-1.114.341-1.462a.98.98,0,0,0-.457-.361,2.146,2.146,0,0,0-1.586.047,6.625,6.625,0,0,0-1.449.863.127.127,0,0,1-.174-.184,11.7,11.7,0,0,0,1.432-2.257.911.911,0,0,0,.117-.746c-.363-.733-1.934-.264-2.715.087-.219.1-.435.2-.651.311a6.869,6.869,0,0,1-1.989.746,7.8,7.8,0,0,1-3.254-.477c-1.594-.465-3.1-.9-4.52.08a2.307,2.307,0,0,0-.975,1.775.119.119,0,0,1-.04.09.142.142,0,0,1-.092.035c-.664-.027-.955.015-.994.549a8.113,8.113,0,0,0,.266,2.062l.037.166c.341,1.579.706,3.187,1.086,4.778a.127.127,0,0,1-.094.154Z" transform="translate(12.913 1680.422)"/></g></svg>