<svg xmlns="http://www.w3.org/2000/svg" width="240" height="240" viewBox="0 0 240 240"><defs><style>.a{fill:#ececec;}.b{fill:#fff;}.c{fill:#231f20;}.d{fill:#d1d3d4;}.e{fill:#a3acfc;}</style></defs><g transform="translate(-242 -906)"><circle class="a" cx="120" cy="120" r="120" transform="translate(242 906)"/><path class="b" d="M208.851,169.206l70.874.082a4.547,4.547,0,0,0,4.226-3.646l13.184-69.6a2.9,2.9,0,0,0-2.847-3.653l-70.874-.082a4.547,4.547,0,0,0-4.226,3.646L206,165.553a2.9,2.9,0,0,0,2.847,3.653Z" transform="translate(156.104 889.119)"/><path class="c" d="M279.542,169.471h0l-70.874-.082h0a3.209,3.209,0,0,1-2.512-1.14,3.455,3.455,0,0,1-.683-2.915l13.218-69.6a4.909,4.909,0,0,1,4.561-3.919h0l70.874.082a3.222,3.222,0,0,1,2.485,1.133,3.475,3.475,0,0,1,.683,2.922l-13.17,69.6A4.909,4.909,0,0,1,279.542,169.471Zm-70.874-.765,70.874.082h0a4.192,4.192,0,0,0,3.892-3.366l13.177-69.6a2.806,2.806,0,0,0-.526-2.362,2.56,2.56,0,0,0-1.987-.888l-70.874-.082h0a4.192,4.192,0,0,0-3.892,3.366l-13.156,69.6a2.813,2.813,0,0,0,.526,2.362,2.56,2.56,0,0,0,1.987.888Z" transform="translate(156.267 889.279)"/><path class="c" d="M301.339,107.5h0l-77.948-.1a.341.341,0,0,1-.341-.341.348.348,0,0,1,.341-.341h0l77.954.1a.341.341,0,0,1,.341.341A.348.348,0,0,1,301.339,107.5Z" transform="translate(150.664 884.643)"/><ellipse class="d" cx="1.973" cy="1.625" rx="1.973" ry="1.625" transform="matrix(0.686, -0.728, 0.728, 0.686, 443.056, 986.977)"/><ellipse class="d" cx="1.973" cy="1.625" rx="1.973" ry="1.625" transform="matrix(0.686, -0.728, 0.728, 0.686, 436.848, 986.967)"/><ellipse class="d" cx="1.973" cy="1.625" rx="1.973" ry="1.625" transform="matrix(0.686, -0.728, 0.728, 0.686, 430.64, 986.959)"/><path class="b" d="M280.618,115.72l-6.7,35.345,28.4.034,6.7-35.345Z" transform="translate(134.525 881.699)"/><path class="c" d="M280.288,115.4H308.7l-6.691,35.345H273.6l6.691-35.345m0-.683a.683.683,0,0,0-.683.553l-6.691,35.345a.683.683,0,0,0,.683.812H302a.683.683,0,0,0,.683-.56l6.691-35.345a.678.678,0,0,0-.669-.806H280.3Z" transform="translate(134.848 882.018)"/><path class="b" d="M304.277,125.859a3.148,3.148,0,0,0,.137,1.365,4.211,4.211,0,0,0,.464.724,5.824,5.824,0,0,1,.942,2.881,4.335,4.335,0,0,1-.273,2.048c-.2.478-.533.9-.724,1.365a2.779,2.779,0,0,0-.1,1.775c.157.553.471,1.154.184,1.645a1.092,1.092,0,0,1-1.017.457,5.156,5.156,0,0,1-1.14-.28c-2.082-.6-4.7-.314-6.889-.464l-8.193-.573c-1.113-.082-2.492-.362-2.786-1.441-.246-.908.642-2.424,1-3.277a20.1,20.1,0,0,1,2.137-4.178,9.514,9.514,0,0,0,1.277-1.953,14.438,14.438,0,0,0,.389-1.413,8.541,8.541,0,0,1,2.355-3.578,10.008,10.008,0,0,1,2.369-1.809c2.97-1.543,7.906-.5,9.258,2.786a9.19,9.19,0,0,1,.614,3.919Z" transform="translate(131.061 880.854)"/><path class="c" d="M303.794,138.325h-.089a3.722,3.722,0,0,1-.963-.212l-.253-.075a17.182,17.182,0,0,0-4.513-.4c-.812,0-1.57,0-2.308-.055l-8.193-.573c-1.809-.123-2.82-.683-3.093-1.693a4.935,4.935,0,0,1,.737-2.915c.1-.218.2-.416.273-.587a20.484,20.484,0,0,1,2.171-4.253c.109-.157.225-.307.341-.457a6.24,6.24,0,0,0,.894-1.42,6.022,6.022,0,0,0,.239-.84c.041-.184.089-.362.137-.546a8.746,8.746,0,0,1,2.451-3.721,10.044,10.044,0,0,1,2.451-1.878,7.92,7.92,0,0,1,6.145-.225,5.912,5.912,0,0,1,3.578,3.188,9.511,9.511,0,0,1,.614,4.062h0v.061a1.843,1.843,0,0,0,.417,1.611l.123.178a6.144,6.144,0,0,1,1.01,3.059,4.663,4.663,0,0,1-.307,2.233,6.149,6.149,0,0,1-.369.683,5.829,5.829,0,0,0-.355.683,2.437,2.437,0,0,0-.082,1.543,1.212,1.212,0,0,0,.1.328A1.877,1.877,0,0,1,305,137.69,1.406,1.406,0,0,1,303.794,138.325Zm-6.418-19.663a6.431,6.431,0,0,0-2.943.683,9.441,9.441,0,0,0-2.287,1.748,7.974,7.974,0,0,0-2.26,3.414c-.055.171-.089.341-.13.512a7.212,7.212,0,0,1-.273.935,6.589,6.589,0,0,1-.99,1.584l-.335.444a20.419,20.419,0,0,0-2.089,4.1c-.075.184-.177.389-.28.621a4.439,4.439,0,0,0-.683,2.431c.184.594,1.017,1.072,2.465,1.174l8.193.574c.717.048,1.468.055,2.26.055a17.75,17.75,0,0,1,4.711.43l.266.082a3.462,3.462,0,0,0,.792.178.744.744,0,0,0,.683-.28c.15-.253,0-.621-.1-1.01-.041-.123-.082-.246-.116-.362a3.141,3.141,0,0,1,.116-2,5.858,5.858,0,0,1,.4-.771c.123-.212.239-.41.335-.614a4.1,4.1,0,0,0,.246-1.9,5.462,5.462,0,0,0-.881-2.731l-.123-.164a3.131,3.131,0,0,1-.375-.621,3.276,3.276,0,0,1-.171-1.434l.355-.048h-.348a8.767,8.767,0,0,0-.56-3.762,5.209,5.209,0,0,0-3.175-2.8,7.688,7.688,0,0,0-2.7-.451Z" transform="translate(131.223 881.012)"/><path class="e" d="M275.852,150.579,273.92,160.82h28.408l1.932-10.207c-2.342-2.806-6.274-3.776-9.736-4.1-1.365-.123-2.594-.157-3.666-.157h-.253a29.208,29.208,0,0,0-3.414.143h-.061C283.533,146.8,279.252,147.78,275.852,150.579Z" transform="translate(134.525 871.92)"/><path class="c" d="M292.6,149.252h0l.867,9.558.259,2.786h.642l1.311-2.792,4.472-9.5h0A16.856,16.856,0,0,0,292.6,149.252Z" transform="translate(128.598 871.125)"/><path class="b" d="M300.165,145.589a5.045,5.045,0,0,1-4.1,2.117,3.509,3.509,0,0,1-3.468-2.123l1.939-8.322h6.827Z" transform="translate(128.598 874.844)"/><path class="c" d="M295.916,147.892h0a3.885,3.885,0,0,1-3.8-2.362.307.307,0,0,1,0-.191l1.939-8.316a.355.355,0,0,1,.341-.273h6.827a.353.353,0,0,1,.348.4l-1.208,8.322a.327.327,0,0,1-.048.137A5.373,5.373,0,0,1,295.916,147.892Zm-3.106-2.5a3.188,3.188,0,0,0,3.1,1.8h0a4.7,4.7,0,0,0,3.755-1.891l1.133-7.838h-6.145Zm7.2.034Z" transform="translate(128.758 875.006)"/><path class="c" d="M300.884,142.067a7.456,7.456,0,0,1-2.417,1.864c-1.5.771-3.687,1.632-5.277,1.365l.935-3.516a15.2,15.2,0,0,0,3.618,0,11.176,11.176,0,0,0,3.243-.621C301.171,141.118,301.158,141.733,300.884,142.067Z" transform="translate(128.411 873.607)"/><path class="c" d="M293.639,145.54a4.279,4.279,0,0,1-.683-.055.335.335,0,0,1-.232-.15.321.321,0,0,1-.041-.273l.935-3.516a.335.335,0,0,1,.375-.246,14.337,14.337,0,0,0,3.537,0,10.924,10.924,0,0,0,3.154-.594.4.4,0,0,1,.478.137,1.236,1.236,0,0,1-.191,1.263,7.646,7.646,0,0,1-2.526,1.953A11.456,11.456,0,0,1,293.639,145.54Zm-.184-.683a11.488,11.488,0,0,0,4.69-1.365,6.882,6.882,0,0,0,2.308-1.768h0a.958.958,0,0,0,.1-.2,12.779,12.779,0,0,1-2.956.505,15.591,15.591,0,0,1-3.414,0Z" transform="translate(128.576 873.762)"/><path class="c" d="M308.626,163.743h-.109a.348.348,0,0,1-.225-.444l2.731-8.575a.358.358,0,0,1,.683.218l-2.731,8.575A.348.348,0,0,1,308.626,163.743Z" transform="translate(123.626 869.332)"/><path class="c" d="M280.494,163.729h0a.355.355,0,0,1-.335-.369l.519-8.582a.355.355,0,0,1,.683.041l-.519,8.582a.348.348,0,0,1-.348.328Z" transform="translate(132.944 869.311)"/><path class="b" d="M293.511,133.683c.143-1.953-2.11-2.437-2.424-.137a3.8,3.8,0,0,0,.212,2.164,1.045,1.045,0,0,0,1.475.505" transform="translate(129.101 876.537)"/><path class="c" d="M292.1,136.545a1.161,1.161,0,0,1-.376-.055,1.475,1.475,0,0,1-.9-.785,4.163,4.163,0,0,1-.26-2.369c.191-1.365,1.017-1.9,1.755-1.83a1.748,1.748,0,0,1,1.365,2.048.355.355,0,0,1-.683-.055c.055-.785-.335-1.243-.751-1.284s-.847.253-.976,1.222a3.413,3.413,0,0,0,.178,1.953.833.833,0,0,0,.478.43.628.628,0,0,0,.512-.068.362.362,0,0,1,.485.137.355.355,0,0,1-.143.478A1.365,1.365,0,0,1,292.1,136.545Z" transform="translate(129.265 876.699)"/><path class="b" d="M307.505,133.7c.594-1.953,3.031-2.431,2.478-.13a5.039,5.039,0,0,1-1.031,2.157c-.512.56-1.208.826-1.673.505" transform="translate(123.941 876.529)"/><path class="c" d="M307.614,136.566a1.133,1.133,0,0,1-.683-.2.35.35,0,1,1,.4-.574c.28.191.8,0,1.208-.457a4.677,4.677,0,0,0,.949-2c.055-.232.2-.976-.212-1.092s-1.277.382-1.591,1.406a.357.357,0,1,1-.683-.212,2.341,2.341,0,0,1,2.444-1.871c.259.068,1.079.416.683,1.932a5.285,5.285,0,0,1-1.113,2.308A2.048,2.048,0,0,1,307.614,136.566Z" transform="translate(124.099 876.693)"/><path class="b" d="M294.23,126.416l-1.072,5.66A3.906,3.906,0,0,0,297,137h.553a6.145,6.145,0,0,0,5.708-4.909c.259-1.365,1.2-3.5.2-4.52-1.591-1.639-3.134-2.731-4.014-4.95C297.432,123.043,294.23,123.6,294.23,126.416Z" transform="translate(128.45 879.529)"/><path class="c" d="M297.4,137.181h-.56a4.178,4.178,0,0,1-3.3-1.5,4.567,4.567,0,0,1-.881-3.851l1.065-5.619c0-2.977,3.182-3.632,5.277-4.062l.225-.048a.348.348,0,0,1,.4.212,10.186,10.186,0,0,0,2.874,3.789c.348.335.683.683,1.065,1.045.915.935.478,2.54.13,3.83-.1.355-.184.683-.239,1A6.506,6.506,0,0,1,297.4,137.181Zm1.68-14.337c-1.987.416-4.656,1-4.656,3.414a.208.208,0,0,1,0,.068l-1.072,5.653a3.878,3.878,0,0,0,.731,3.27,3.489,3.489,0,0,0,2.765,1.236h.56a5.769,5.769,0,0,0,5.353-4.622c.061-.314.157-.683.259-1.051.314-1.174.683-2.506.041-3.154-.355-.369-.683-.683-1.045-1.024a11.272,11.272,0,0,1-2.936-3.775Zm-5.011,3.414Z" transform="translate(128.616 879.695)"/><path class="c" d="M299.853,135.618a6.389,6.389,0,0,1-.758-.048.348.348,0,1,1,.089-.683,6.087,6.087,0,0,0,1.236,0,9.415,9.415,0,0,0-.191-3.27.355.355,0,0,1,.287-.41.362.362,0,0,1,.41.287c.13.731.533,3.175.041,3.844a.56.56,0,0,1-.4.239A5.407,5.407,0,0,1,299.853,135.618Z" transform="translate(126.651 876.795)"/><path class="d" d="M259.055,126.126H229.889a.382.382,0,1,1,0-.758h0l29.166.034a.382.382,0,0,1,0,.758Z" transform="translate(149.181 878.672)"/><path class="d" d="M257.608,133.746H228.449a.382.382,0,1,1,0-.758h0l29.166.034a.382.382,0,0,1,0,.758Z" transform="translate(149.649 876.232)"/><path class="d" d="M256.192,141.352h0l-29.166-.034a.382.382,0,0,1-.376-.382.376.376,0,0,1,.376-.376h0l29.166.034a.382.382,0,1,1,0,.758Z" transform="translate(150.093 873.807)"/><path class="d" d="M254.752,148.969h0l-29.166-.041a.369.369,0,0,1-.375-.376.375.375,0,0,1,.375-.382h0l29.166.034a.382.382,0,0,1,.382.382A.389.389,0,0,1,254.752,148.969Z" transform="translate(150.562 871.369)"/><path class="d" d="M257.29,156.648H236.726a.382.382,0,0,1,0-.758H257.29a.382.382,0,0,1,0,.758Z" transform="translate(146.993 868.896)"/><path class="d" d="M280.451,190.436h0l-63.7-.075a.369.369,0,0,1-.294-.137.376.376,0,0,1-.082-.314l2.895-15.273a.382.382,0,0,1,.369-.307h0l63.7.075a.376.376,0,0,1,.294.137.4.4,0,0,1,.082.314l-2.895,15.273A.382.382,0,0,1,280.451,190.436ZM217.21,189.6l62.927.075,2.731-14.515-62.934-.075Z" transform="translate(152.784 862.949)"/><path class="d" d="M283.083,182.161h0l-63.494-.075a.382.382,0,1,1,0-.758h0l63.494.075a.382.382,0,0,1,0,.758Z" transform="translate(151.9 860.752)"/><path class="d" d="M284.826,190.444h-.068a.382.382,0,0,1-.3-.444l2.888-15.273a.382.382,0,0,1,.444-.3.389.389,0,0,1,.307.444L285.2,190.144A.382.382,0,0,1,284.826,190.444Z" transform="translate(131.533 862.92)"/><path class="d" d="M237.753,190.356h-.068a.382.382,0,0,1-.307-.444l2.895-15.28a.382.382,0,1,1,.744.143l-2.888,15.273a.382.382,0,0,1-.375.307Z" transform="translate(146.797 862.967)"/><path class="b" d="M158.126,128.6l70.874.082a4.533,4.533,0,0,0,4.226-3.639l13.184-69.6a2.886,2.886,0,0,0-2.847-3.653l-70.874-.082a4.533,4.533,0,0,0-4.226,3.612L155.279,124.96A2.892,2.892,0,0,0,158.126,128.6Z" transform="translate(172.917 902.258)"/><path class="c" d="M228.831,128.914h0l-70.874-.082a3.188,3.188,0,0,1-2.512-1.133,3.468,3.468,0,0,1-.683-2.922l13.2-69.6a4.9,4.9,0,0,1,4.561-3.919h0l70.874.082a3.181,3.181,0,0,1,2.512,1.106,3.475,3.475,0,0,1,.683,2.922l-13.177,69.591A4.9,4.9,0,0,1,228.831,128.914Zm-70.874-.765,70.874.082h0a4.185,4.185,0,0,0,3.9-3.414l13.177-69.584a2.8,2.8,0,0,0-.526-2.355,2.506,2.506,0,0,0-1.987-.888l-70.874-.082h0a4.2,4.2,0,0,0-3.892,3.366l-13.184,69.6a2.82,2.82,0,0,0,.526,2.355,2.512,2.512,0,0,0,1.987.888Z" transform="translate(173.085 902.4)"/><path class="c" d="M250.619,66.891h0L172.671,66.8a.341.341,0,1,1,0-.683h0l77.948.089a.348.348,0,0,1,.341.341A.341.341,0,0,1,250.619,66.891Z" transform="translate(167.407 897.688)"/><ellipse class="d" cx="1.973" cy="1.625" rx="1.973" ry="1.625" transform="matrix(0.686, -0.728, 0.728, 0.686, 408.827, 959.395)"/><ellipse class="d" cx="1.973" cy="1.625" rx="1.973" ry="1.625" transform="matrix(0.686, -0.728, 0.728, 0.686, 402.683, 959.385)"/><ellipse class="d" cx="1.973" cy="1.625" rx="1.973" ry="1.625" transform="matrix(0.686, -0.728, 0.728, 0.686, 396.539, 959.377)"/><path class="b" d="M229.878,75.12l-6.7,35.345,28.408.027,6.691-35.338Z" transform="translate(151.181 894.832)"/><path class="c" d="M229.568,74.8h28.4l-6.691,35.345-28.408-.034,6.7-35.311m0-.683a.683.683,0,0,0-.683.553l-6.691,35.345a.678.678,0,0,0,.669.806l28.408.034h0a.683.683,0,0,0,.683-.553l6.691-35.345a.687.687,0,0,0-.669-.812h-28.4Z" transform="translate(151.494 895.148)"/><path class="e" d="M225.1,109.976l-1.932,10.207,28.408.034,1.939-10.193c-2.342-2.813-6.274-3.776-9.736-4.1-1.365-.123-2.594-.157-3.666-.157h-.253a29.208,29.208,0,0,0-3.414.143h-.061C232.8,106.221,228.516,107.183,225.1,109.976Z" transform="translate(151.223 884.93)"/><path class="c" d="M241.86,108.659h0l.874,9.558.253,2.786h.642l1.311-2.792,4.472-9.5h0A17.444,17.444,0,0,0,241.86,108.659Z" transform="translate(145.316 884.131)"/><path class="b" d="M249.425,104.989a5.032,5.032,0,0,1-4.1,2.11,3.5,3.5,0,0,1-3.468-2.123l1.946-8.316h6.827Z" transform="translate(145.308 887.854)"/><path class="c" d="M245.227,107.289h0a3.905,3.905,0,0,1-3.8-2.362.362.362,0,0,1,0-.191l1.939-8.322a.362.362,0,0,1,.348-.273h6.827a.355.355,0,0,1,.266.116.369.369,0,0,1,.082.287l-1.208,8.316a.328.328,0,0,1-.048.137A5.353,5.353,0,0,1,245.227,107.289Zm-3.106-2.506a3.188,3.188,0,0,0,3.1,1.8h0a4.663,4.663,0,0,0,3.755-1.891l1.14-7.838h-6.145Zm7.2.041Z" transform="translate(145.449 888.02)"/><path class="c" d="M250.144,101.461a7.346,7.346,0,0,1-2.417,1.857c-1.5.771-3.687,1.639-5.278,1.365l.935-3.523a14.843,14.843,0,0,0,3.618,0,11.176,11.176,0,0,0,3.243-.621C250.431,100.512,250.424,101.12,250.144,101.461Z" transform="translate(145.122 886.617)"/><path class="c" d="M242.9,104.928a4.349,4.349,0,0,1-.683-.048.362.362,0,0,1-.232-.15.355.355,0,0,1-.041-.273l.935-3.516a.341.341,0,0,1,.382-.253,14.619,14.619,0,0,0,3.537,0,11.164,11.164,0,0,0,3.147-.594.4.4,0,0,1,.478.13,1.249,1.249,0,0,1-.191,1.27,7.579,7.579,0,0,1-2.526,1.953A11.887,11.887,0,0,1,242.9,104.928Zm-.184-.683a11.314,11.314,0,0,0,4.7-1.365,6.937,6.937,0,0,0,2.3-1.768h0a.546.546,0,0,0,.1-.2,13.129,13.129,0,0,1-2.956.5,16.084,16.084,0,0,1-3.414,0Z" transform="translate(145.285 886.77)"/><path class="c" d="M257.886,123.136h-.1a.348.348,0,0,1-.232-.444l2.731-8.575a.348.348,0,0,1,.444-.225.341.341,0,0,1,.225.437l-2.731,8.575A.348.348,0,0,1,257.886,123.136Z" transform="translate(140.262 882.34)"/><path class="c" d="M229.754,123.051h0a.355.355,0,0,1-.335-.376l.519-8.575a.355.355,0,1,1,.683.041l-.519,8.575a.348.348,0,0,1-.348.335Z" transform="translate(149.389 882.404)"/><path class="b" d="M242.778,93.083c.143-1.953-2.11-2.437-2.431-.137a3.769,3.769,0,0,0,.212,2.157,1.051,1.051,0,0,0,1.482.512" transform="translate(145.862 889.541)"/><path class="c" d="M241.365,95.945a1.366,1.366,0,0,1-.375-.055,1.536,1.536,0,0,1-.9-.785,4.1,4.1,0,0,1-.253-2.369c.191-1.365,1.01-1.9,1.748-1.83a1.748,1.748,0,0,1,1.365,2.048.355.355,0,1,1-.683-.048c.061-.785-.335-1.243-.751-1.29s-.84.259-.976,1.229a3.413,3.413,0,0,0,.178,1.946.847.847,0,0,0,.478.437.683.683,0,0,0,.519-.068.348.348,0,0,1,.478.137.355.355,0,0,1-.137.478A1.427,1.427,0,0,1,241.365,95.945Z" transform="translate(146.024 889.705)"/><path class="b" d="M256.772,93.095c.6-1.953,3.031-2.431,2.478-.13a4.888,4.888,0,0,1-1.024,2.157c-.505.567-1.208.833-1.666.512" transform="translate(140.582 889.535)"/><path class="c" d="M256.818,95.947a1.147,1.147,0,0,1-.683-.2.355.355,0,1,1,.4-.58c.28.2.8,0,1.208-.451a4.78,4.78,0,0,0,.969-2.007c.055-.225.2-.976-.212-1.086s-1.277.382-1.584,1.365a.356.356,0,1,1-.683-.2,2.35,2.35,0,0,1,2.451-1.878c.253.075,1.072.423.683,1.932a5.462,5.462,0,0,1-1.12,2.314A2.048,2.048,0,0,1,256.818,95.947Z" transform="translate(140.774 889.717)"/><path class="b" d="M243.459,85.411l-1.072,5.653a3.9,3.9,0,0,0,3.837,4.922h.56a6.145,6.145,0,0,0,5.7-4.909l1.045-5.38s.894-5.462-4.192-4.916S243.459,85.411,243.459,85.411Z" transform="translate(145.149 893.047)"/><path class="c" d="M246.663,96.166h-.56a4.2,4.2,0,0,1-3.3-1.488,4.567,4.567,0,0,1-.853-3.851l1.072-5.66c0-.041.874-4.315,6.145-4.9a4.035,4.035,0,0,1,3.537,1.017c1.468,1.55,1.051,4.2,1.038,4.315l-1.024,5.387A6.506,6.506,0,0,1,246.663,96.166ZM243.679,85.3l-1.051,5.68a3.919,3.919,0,0,0,.731,3.27,3.53,3.53,0,0,0,2.765,1.236h.56a5.762,5.762,0,0,0,5.353-4.622l1.017-5.366s.376-2.41-.86-3.707a3.359,3.359,0,0,0-2.943-.8c-4.772.5-5.537,4.144-5.571,4.308Z" transform="translate(145.297 893.223)"/><path class="c" d="M249.137,95a7.443,7.443,0,0,1-.758-.041.354.354,0,0,1,.089-.7,5.352,5.352,0,0,0,1.236,0,9.235,9.235,0,0,0-.191-3.27.355.355,0,0,1,.287-.41.348.348,0,0,1,.41.28c.13.737.533,3.182.041,3.844a.574.574,0,0,1-.4.246A5.345,5.345,0,0,1,249.137,95Z" transform="translate(143.335 889.811)"/><path class="d" d="M208.362,85.528H179.2a.382.382,0,0,1,0-.758h29.166a.382.382,0,0,1,0,.758Z" transform="translate(165.647 891.77)"/><path class="d" d="M206.9,93.145H177.732a.382.382,0,1,1,0-.765h0l29.166.041a.375.375,0,0,1,.375.376A.382.382,0,0,1,206.9,93.145Z" transform="translate(166.14 889.355)"/><path class="d" d="M205.428,100.756H176.269a.382.382,0,1,1,0-.758h29.159a.382.382,0,0,1,.382.382.375.375,0,0,1-.382.376Z" transform="translate(166.632 886.795)"/><path class="d" d="M204.032,108.378H174.866a.382.382,0,0,1,0-.758h0l29.166.034a.382.382,0,1,1,0,.758Z" transform="translate(167.056 884.354)"/><path class="d" d="M206.59,116H186.026a.382.382,0,0,1,0-.758H206.59a.376.376,0,0,1,.375.376.382.382,0,0,1-.376.382Z" transform="translate(163.47 881.914)"/><path class="d" d="M229.712,149.833h0l-63.7-.075a.389.389,0,0,1-.376-.451l2.895-15.273a.382.382,0,0,1,.376-.314h0l63.7.075a.382.382,0,0,1,.294.143.355.355,0,0,1,.082.307l-2.922,15.273a.382.382,0,0,1-.348.314ZM166.471,149l62.927.075,2.731-14.522-62.927-.075Z" transform="translate(169.72 875.967)"/><path class="d" d="M232.366,141.613h0l-63.494-.075a.382.382,0,0,1-.382-.382.376.376,0,0,1,.382-.376h0l63.494.075a.382.382,0,0,1,0,.758Z" transform="translate(168.809 873.736)"/><path class="d" d="M234.056,149.841h-.068a.382.382,0,0,1-.3-.444l2.895-15.273a.375.375,0,0,1,.437-.307.382.382,0,0,1,.307.444l-2.895,15.273A.382.382,0,0,1,234.056,149.841Z" transform="translate(147.994 875.938)"/><path class="d" d="M187.016,149.805h-.068a.382.382,0,0,1-.3-.444l2.888-15.273a.382.382,0,0,1,.744.143L187.391,149.5A.382.382,0,0,1,187.016,149.805Z" transform="translate(163.245 875.934)"/><path class="c" d="M89.231,247.8,88.07,226.52l52.652-9.64c.061.567,2.328,18.181,3.967,30.907Z" transform="translate(195.228 849.236)"/><path class="c" d="M144.53,247.991H89.072a.341.341,0,0,1-.341-.321L87.57,226.4a.348.348,0,0,1,.28-.355l52.652-9.64a.354.354,0,0,1,.4.3c.061.608,2.792,21.847,3.967,30.9a.376.376,0,0,1-.082.266A.355.355,0,0,1,144.53,247.991Zm-55.137-.683h54.755c-1.365-10.555-3.537-27.439-3.878-30.163l-52,9.517Z" transform="translate(195.386 849.387)"/><path class="b" d="M212.17,157.05l9.3-8.111s3.414-8.493,4.779-10.111,11.606-6.622,11.722-5.5-2.328,2.635-3.011,3.2c-1.031.84-2.1,1.618-3.161,2.417a11.432,11.432,0,0,1,5.237,5.462,5.824,5.824,0,0,1-.43,5.79,2.5,2.5,0,0,1-1.331.99,1.365,1.365,0,0,1-1.481-.546l-.137.171a18.543,18.543,0,0,1-3.871,3.864c-1.2.806-2.7.894-3.68,1.891a51.091,51.091,0,0,0-3.8,5.011l-6.841,9.033Z" transform="translate(154.835 876.092)"/><path class="c" d="M215.323,170.784h-.068a.355.355,0,0,1-.266-.259l-3.263-13.532a.341.341,0,0,1,.1-.341l9.21-8.043c.369-.908,3.414-8.548,4.779-10.125s10.528-6.2,11.961-5.749a.505.505,0,0,1,.362.43c.1,1-1.263,2.1-2.663,3.134l-.478.355c-.724.594-1.475,1.161-2.205,1.707l-.505.382a12.207,12.207,0,0,1,4.881,5.359,6.145,6.145,0,0,1-.464,6.145,2.813,2.813,0,0,1-1.522,1.12,1.748,1.748,0,0,1-1.557-.341,18.57,18.57,0,0,1-3.823,3.782,8.335,8.335,0,0,1-1.72.806,5.046,5.046,0,0,0-1.9,1.038,24.111,24.111,0,0,0-2.56,3.284c-.4.58-.806,1.154-1.208,1.693l-6.827,9.046A.348.348,0,0,1,215.323,170.784Zm-2.888-13.757,3.052,12.631,6.418-8.473c.4-.526.792-1.092,1.188-1.666a24.832,24.832,0,0,1,2.642-3.373,5.605,5.605,0,0,1,2.151-1.2,7.51,7.51,0,0,0,1.577-.731,18.386,18.386,0,0,0,3.8-3.8l.137-.171a.389.389,0,0,1,.3-.123.348.348,0,0,1,.266.178,1.01,1.01,0,0,0,1.1.382,2.164,2.164,0,0,0,1.14-.867,5.462,5.462,0,0,0,.389-5.462,11.232,11.232,0,0,0-5.052-5.257.335.335,0,0,1-.2-.266.328.328,0,0,1,.13-.314l.963-.731c.724-.546,1.468-1.106,2.185-1.686.123-.1.294-.225.5-.382.683-.505,2.239-1.659,2.383-2.376-1.365,0-9.736,3.946-11.115,5.557s-4.67,9.927-4.7,10.009a.382.382,0,0,1-.1.137Z" transform="translate(154.98 876.236)"/><path class="e" d="M84.93,213.428s.683-57.049,7.476-68.464,25.466-14.672,34.737-8.4,16.549,72.056,16.549,72.056S114.506,214.67,84.93,213.428Z" transform="translate(196.224 875.717)"/><path class="e" d="M146.76,138s8.712,1.331,13.511,8.718,10.118,17.574,10.118,17.574l25.043-13.074,11.723,11.149s-21.028,22.762-31.194,28.927c-9.592,5.817-17.143-2.219-22.38-7.394a59.929,59.929,0,0,1-5.653-7.578Z" transform="translate(175.959 874.469)"/><path class="c" d="M147.1,101.189a3.7,3.7,0,1,1,.3-.014Zm0-6.7h-.246a3.011,3.011,0,0,0-2.048,1.051,2.956,2.956,0,0,0-.683,2.185,3,3,0,1,0,4.943-2.526,2.949,2.949,0,0,0-1.953-.71Z" transform="translate(177.246 888.766)"/><path class="b" d="M146.749,103.19s4.4,6.083,3.591,7.414-3.68.594-3.68.594" transform="translate(176.206 885.764)"/><path class="c" d="M148.155,111.586a7.872,7.872,0,0,1-1.734-.212.341.341,0,0,1-.246-.416.335.335,0,0,1,.416-.246c.731.184,2.731.471,3.3-.437.43-.683-1.522-4.206-3.578-7.046a.341.341,0,0,1,.075-.471.335.335,0,0,1,.478.075c.758,1.045,4.486,6.336,3.612,7.79A2.585,2.585,0,0,1,148.155,111.586Z" transform="translate(176.366 885.924)"/><path class="b" d="M136.06,90.347c2.731,2.048,2.144,6.616,2.246,9.558q.219,6.233.137,12.48c0,2.635-6.827,2.977-8.084,2.239l1.966,6.445-15.02-.983.225-8.623s-1.9-11.839.533-17.321a9.285,9.285,0,0,1,8.125-5.462S133.391,88.36,136.06,90.347Z" transform="translate(186.105 890.393)"/><path class="c" d="M132.162,121.278h0l-15.02-.983a.341.341,0,0,1-.321-.348l.225-8.63c-.075-.423-1.891-11.934.56-17.444s8.343-5.653,8.445-5.653h0c.28,0,7.346-.335,10.077,1.707h0c2.4,1.8,2.383,5.366,2.369,8.193v1.6c.143,4.144.191,8.35.137,12.494a2.226,2.226,0,0,1-1.365,1.9,11.631,11.631,0,0,1-6.554.867l1.775,5.844a.348.348,0,0,1-.061.314.335.335,0,0,1-.266.13Zm-14.679-1.639,14.208.922-1.823-5.967a.348.348,0,0,1,.116-.369.341.341,0,0,1,.382,0c.812.485,4.649.444,6.568-.635.683-.369,1-.812,1-1.318.055-4.137,0-8.329-.137-12.46V98.182c0-2.731,0-6.09-2.1-7.681h0c-2.533-1.891-9.558-1.577-9.654-1.57h0a8.876,8.876,0,0,0-7.831,5.25c-2.376,5.318-.526,17.007-.505,17.123Z" transform="translate(186.262 890.541)"/><path class="b" d="M113.48,135.843l1.031-4.643,18.372.294,1.365,4.1A24.312,24.312,0,0,1,113.48,135.843Z" transform="translate(187.166 876.793)"/><path class="c" d="M123.514,138.186a25.869,25.869,0,0,1-10.33-2.178.348.348,0,0,1-.2-.389l1.031-4.643a.335.335,0,0,1,.335-.266h0l18.372.3a.328.328,0,0,1,.314.225l1.365,4.1a.328.328,0,0,1-.15.4A23.4,23.4,0,0,1,123.514,138.186Zm-9.8-2.7a24.36,24.36,0,0,0,19.97-.232l-1.208-3.571-17.853-.287Z" transform="translate(187.325 876.949)"/><path class="c" d="M84.985,219.5a.335.335,0,0,1-.335-.314c-1.174-14.337,2.874-44.794,3.093-45.688a.351.351,0,1,1,.683.164c-.218.894-4.24,31.174-3.079,45.47a.341.341,0,0,1-.314.369Z" transform="translate(196.38 863.086)"/><path class="b" d="M115.081,106.861c-.888,5.407.061,9.961-5.318,13.593a17.042,17.042,0,0,1-12.8,2.151c-2.731-.546-5.564-1.755-7.039-4.137-1.789-2.888-1.106-6.7.362-9.763s3.639-5.776,4.882-8.944c3.038-7.729.533-16.495,8.008-21.963a21.479,21.479,0,0,1,9.941-3.912,77.5,77.5,0,0,1,9.879,1.188c1.7-1.959,5.332-.778,6.486,1.536a8.466,8.466,0,0,1,.068,6.677c-.13.266-2.492,3.243-2.437,2.362-.15,2.349-1.584,3.578-3.325,5.2a70.556,70.556,0,0,1-5.708,4.308c-3.7,2.792-2.424,6.227-2.806,10.2C115.224,105.871,115.163,106.37,115.081,106.861Z" transform="translate(194.98 895.227)"/><path class="c" d="M100.694,123.182a20.164,20.164,0,0,1-3.953-.4c-2.4-.478-5.605-1.6-7.264-4.288-2.287-3.694-.526-8.288.341-10.1A41.922,41.922,0,0,1,92,104.516a32.622,32.622,0,0,0,2.683-5.032,35.093,35.093,0,0,0,1.809-8.3c.683-5.243,1.365-10.193,6.322-13.812a21.766,21.766,0,0,1,10.1-3.98,98.486,98.486,0,0,1,9.79,1.161,3.475,3.475,0,0,1,3-.928,5.25,5.25,0,0,1,3.919,2.676,8.876,8.876,0,0,1,.068,6.984s-1.557,2.246-2.444,2.649c-.28,2.123-1.625,3.373-3.161,4.779l-.232.218a34.307,34.307,0,0,1-3.782,2.922c-.683.464-1.318.922-1.953,1.406-2.635,1.987-2.615,4.329-2.588,7.039a28.473,28.473,0,0,1-.082,2.922c-.048.526-.116,1.038-.2,1.522-.191,1.154-.294,2.273-.4,3.352-.382,4.042-.683,7.51-5.066,10.473A16.263,16.263,0,0,1,100.694,123.182ZM113.2,74.059H113a21.165,21.165,0,0,0-9.784,3.844c-4.718,3.414-5.359,8.254-6.042,13.347a35.448,35.448,0,0,1-1.85,8.5,33.59,33.59,0,0,1-2.731,5.141,43.762,43.762,0,0,0-2.157,3.83c-.812,1.7-2.485,6.035-.376,9.435,1.529,2.478,4.554,3.53,6.827,3.98a16.7,16.7,0,0,0,12.542-2.1c4.1-2.765,4.4-6.1,4.779-9.975.1-1.092.212-2.219.4-3.414h0c.082-.471.143-.969.191-1.482a26.838,26.838,0,0,0,.082-2.847c0-2.779-.048-5.394,2.854-7.592.683-.485,1.311-.949,1.973-1.42a33.563,33.563,0,0,0,3.714-2.861l.232-.218c1.591-1.482,2.847-2.649,2.984-4.779h0a.355.355,0,0,1,.362-.321.314.314,0,0,1,.178.068,15.871,15.871,0,0,0,1.9-2.219,8.193,8.193,0,0,0-.061-6.377A4.561,4.561,0,0,0,125.6,74.3a2.772,2.772,0,0,0-2.526.84.341.341,0,0,1-.451.061,92.579,92.579,0,0,0-9.422-1.14ZM127.293,85.522Z" transform="translate(195.139 895.381)"/><path class="b" d="M145.828,118.36s-3.141,2.116-5-1.14" transform="translate(178.094 881.279)"/><path class="c" d="M143.465,119.218a3.222,3.222,0,0,1-.758-.082,3.68,3.68,0,0,1-2.328-1.9.343.343,0,0,1,.594-.341,3,3,0,0,0,1.884,1.577,3.823,3.823,0,0,0,2.622-.546.335.335,0,0,1,.471.089.341.341,0,0,1-.089.478A4.779,4.779,0,0,1,143.465,119.218Z" transform="translate(178.253 881.438)"/><path class="c" d="M121.841,105.216h-.068a.341.341,0,0,1-.266-.4c.423-2.1.826-2.171,1-2.192.341-.061,13.825-2.833,20.912-4.294a.348.348,0,0,1,.137.683c-.819.164-19.506,4.021-20.871,4.281a6.438,6.438,0,0,0-.512,1.673A.348.348,0,0,1,121.841,105.216ZM122.613,103.283Z" transform="translate(184.621 887.326)"/><path class="b" d="M131.958,105.133a5.7,5.7,0,0,0-1.284-2.806,8.3,8.3,0,0,0-1.591-1.823,2.731,2.731,0,0,0-2.267-.587,2.547,2.547,0,0,0-1.577,1.365,4.731,4.731,0,0,0-.43,2.048,8.916,8.916,0,0,0,4.445,7.735l-.218-.184" transform="translate(183.571 886.824)"/><path class="c" d="M129.1,111.288a.389.389,0,0,1-.171-.041,9.319,9.319,0,0,1-4.615-8.022,5,5,0,0,1,.471-2.226,2.813,2.813,0,0,1,1.8-1.536,3.011,3.011,0,0,1,2.56.683,8.276,8.276,0,0,1,1.652,1.9,5.865,5.865,0,0,1,1.365,2.977.342.342,0,1,1-.683.041,5.53,5.53,0,0,0-1.222-2.629,7.934,7.934,0,0,0-1.516-1.748,2.383,2.383,0,0,0-1.98-.526,2.178,2.178,0,0,0-1.365,1.174,4.52,4.52,0,0,0-.4,1.939,8.643,8.643,0,0,0,3.816,7.155.348.348,0,0,1,.287.1l.239.239a.335.335,0,0,1,.034.444A.348.348,0,0,1,129.1,111.288Z" transform="translate(183.446 886.973)"/><ellipse class="c" cx="0.587" cy="1.488" rx="0.587" ry="1.488" transform="matrix(0.995, -0.096, 0.096, 0.995, 320.894, 984.379)"/><path class="c" d="M158.6,199.014a.355.355,0,0,1-.143,0c-16.2-7.612-24.292-35.837-24.374-36.117a.348.348,0,0,1,.239-.423.335.335,0,0,1,.416.239c.082.28,8.09,28.2,24.012,35.68a.341.341,0,0,1-.15.649Z" transform="translate(180.239 866.684)"/><path class="b" d="M265.6,230.708H222.04l8.343-43.558h43.558Z" transform="translate(151.392 858.668)"/><path class="c" d="M265.427,230.891H221.842a.362.362,0,0,1-.266-.123.348.348,0,0,1-.068-.28l8.343-43.565a.335.335,0,0,1,.335-.273h43.558a.334.334,0,0,1,.335.4l-8.316,43.531A.334.334,0,0,1,265.427,230.891Zm-43.149-.683h42.869l8.193-42.876H230.492Z" transform="translate(151.561 858.826)"/><path class="d" d="M272.042,199.908H242.726a.382.382,0,0,1-.376-.382.376.376,0,0,1,.376-.376h29.317a.376.376,0,0,1,.382.376A.382.382,0,0,1,272.042,199.908Z" transform="translate(144.982 855.045)"/><path class="d" d="M270.132,209.9h-29.31a.376.376,0,0,1-.382-.375.382.382,0,0,1,.382-.382h29.317a.382.382,0,0,1,.375.382.375.375,0,0,1-.382.375Z" transform="translate(145.604 851.846)"/><path class="d" d="M268.226,219.9h-29.31a.382.382,0,0,1,0-.758h29.31a.382.382,0,1,1,0,.758Z" transform="translate(146.208 848.645)"/><path class="d" d="M266.275,229.9H236.959a.382.382,0,1,1,0-.758h29.316a.382.382,0,0,1,0,.758Z" transform="translate(146.878 845.348)"/><path class="d" d="M255.7,239.9H235.086a.382.382,0,0,1,0-.758H255.7a.382.382,0,0,1,0,.758Z" transform="translate(147.525 842.174)"/></g></svg>