<svg xmlns="http://www.w3.org/2000/svg" width="42" height="42.249" viewBox="0 0 42 42.249"><defs><style>.a{fill:#ff77b2;stroke:#fff;stroke-width:2px;}</style></defs><g transform="translate(-297 -2806)"><path class="a" d="M32.606,3.938h-.1a10.847,10.847,0,0,0-9.135,5.2,10.847,10.847,0,0,0-9.135-5.2h-.1a11.1,11.1,0,0,0-10.769,11.3,24.97,24.97,0,0,0,4.6,13.27c5.788,8.23,15.4,15.43,15.4,15.43s9.615-7.2,15.4-15.43a24.97,24.97,0,0,0,4.6-13.27A11.1,11.1,0,0,0,32.606,3.938Z" transform="translate(294.625 2803.063)"/></g></svg>