<svg xmlns="http://www.w3.org/2000/svg" width="240" height="240" viewBox="0 0 240 240"><defs><style>.a{fill:#e6e6e6;}.b{fill:#231f20;}.c{fill:#fff;}.d{fill:#e6e7e8;}.e{fill:#d1d3d4;}.f{fill:#a3acfc;}.g{fill:#ff77b2;}</style></defs><g transform="translate(-241 -2694)"><circle class="a" cx="120" cy="120" r="120" transform="translate(241 2694)"/><g transform="translate(289.084 2733.404)"><path class="b" d="M300.531,63.729s-1.582-2.944-4.114-6.939c0,0-8.051,6.012-7.977,5.674S300.531,63.729,300.531,63.729Z" transform="translate(-145.815 -42.403)"/><path class="b" d="M300.4,63.974h-.051c-4.231-.559-11.141-1.4-11.892-1.3-.213.081-.272,0-.346,0a.375.375,0,0,1-.162-.39c0-.11.037-.213.272-.265h0c.478-.191,5.063-3.554,7.845-5.63a.361.361,0,0,1,.287-.066.353.353,0,0,1,.243.162c2.509,3.989,4.114,6.932,4.128,6.962a.361.361,0,0,1,0,.383.368.368,0,0,1-.324.14Zm-10.788-2c1.516.088,4.415.412,10.111,1.155-.574-1.03-1.832-3.223-3.54-5.939C292.627,59.852,290.692,61.236,289.61,61.972Z" transform="translate(-145.683 -42.279)"/><path class="b" d="M158.568,226.973l-4.018-6.7,5.556-5.026Z" transform="translate(-110.454 -84.254)"/><path class="b" d="M158.426,227.209a.353.353,0,0,1-.316-.184l-4.018-6.689a.375.375,0,0,1,.066-.464l5.563-5.026a.353.353,0,0,1,.412-.052.375.375,0,0,1,.2.375l-1.545,11.715a.375.375,0,0,1-.287.316Zm-3.547-7,3.319,5.534,1.273-9.684Z" transform="translate(-110.32 -84.122)"/><path class="b" d="M162.286,186.316l64.641,9.213a5.63,5.63,0,0,0,6.123-3.966L266.511,66.388a3.959,3.959,0,0,0-3.716-5.1L196.866,56a5.821,5.821,0,0,0-5.887,4.165L158.938,181.15a4.033,4.033,0,0,0,3.348,5.166Z" transform="translate(-111.568 -42.192)"/><path class="b" d="M227.524,195.817a5.665,5.665,0,0,1-.787-.052L162.1,186.545a4.415,4.415,0,0,1-3.128-1.921,4.5,4.5,0,0,1-.559-3.679L190.5,59.913a6.218,6.218,0,0,1,6.255-4.415l65.929,5.313a4.562,4.562,0,0,1,3.451,1.862,4.364,4.364,0,0,1,.589,3.679L233.272,191.52a6.027,6.027,0,0,1-5.747,4.3ZM196.33,56.2a5.468,5.468,0,0,0-5.151,3.908l-32.056,121.01a3.775,3.775,0,0,0,.456,3.1,3.679,3.679,0,0,0,2.62,1.6h0l64.641,9.221a5.269,5.269,0,0,0,5.718-3.679l33.461-125.19a3.68,3.68,0,0,0-.515-3.091,3.856,3.856,0,0,0-2.944-1.553L196.7,56.211a3.134,3.134,0,0,0-.368-.015Z" transform="translate(-111.429 -42.06)"/><path class="c" d="M156.563,176.919l64.641,9.213a5.63,5.63,0,0,0,6.123-3.966L260.788,56.99a3.959,3.959,0,0,0-3.679-5.1L191.18,46.577a5.821,5.821,0,0,0-5.887,4.165l-32.085,121.01a4.025,4.025,0,0,0,3.356,5.166Z" transform="translate(-110.054 -39.704)"/><path class="b" d="M221.8,186.427a5.655,5.655,0,0,1-.787-.052l-64.641-9.221a4.415,4.415,0,0,1-3.128-1.921,4.526,4.526,0,0,1-.559-3.679L184.782,50.523a6.2,6.2,0,0,1,6.255-4.415l65.929,5.321a4.54,4.54,0,0,1,3.451,1.862,4.342,4.342,0,0,1,.589,3.679l-33.454,125.2A6.027,6.027,0,0,1,221.8,186.427ZM190.61,46.806a5.475,5.475,0,0,0-5.151,3.908l-32.085,121.01a3.8,3.8,0,0,0,.456,3.105,3.679,3.679,0,0,0,2.62,1.6h0l64.641,9.221a5.276,5.276,0,0,0,5.718-3.679l33.505-125.19a3.68,3.68,0,0,0-.486-3.091,3.856,3.856,0,0,0-2.907-1.553l-65.929-5.313Z" transform="translate(-109.919 -39.58)"/><path class="d" d="M257.26,69.83l-67.5-5.85-25.9,97.638,66.51,8.853Z" transform="translate(-112.913 -44.302)"/><path class="e" d="M230.334,170.544h0l-66.51-8.831a.118.118,0,0,1-.1-.147l25.9-97.638a.11.11,0,0,1,.118-.088l67.5,5.85a.111.111,0,0,1,.088.052.088.088,0,0,1,0,.1l-26.89,100.626A.1.1,0,0,1,230.334,170.544Zm-66.363-9.059,66.275,8.831L257.077,69.9l-67.261-5.828Z" transform="translate(-112.877 -44.265)"/><path class="c" d="M193.324,219.015l12.613,1.773a3.407,3.407,0,0,0,3.679-2.421l1.258-4.71a2.531,2.531,0,0,0-2.208-3.231l-12.635-1.715a3.392,3.392,0,0,0-3.635,2.421l-1.244,4.666a2.517,2.517,0,0,0,2.171,3.216Z" transform="translate(-120.095 -82.521)"/><path class="d" d="M206.242,221.066a3.492,3.492,0,0,1-.478,0l-12.613-1.774a2.877,2.877,0,0,1-2.443-3.679l1.236-4.666a3.775,3.775,0,0,1,4.047-2.686l12.635,1.707a3,3,0,0,1,2.112,1.28,2.944,2.944,0,0,1,.368,2.414l-1.251,4.7a3.812,3.812,0,0,1-3.613,2.7Zm-10.715-12.135a3.032,3.032,0,0,0-2.87,2.208l-1.244,4.666a2.208,2.208,0,0,0,.272,1.8,2.164,2.164,0,0,0,1.567.949h0l12.613,1.774a3.024,3.024,0,0,0,3.275-2.149l1.251-4.71a2.152,2.152,0,0,0-1.869-2.767l-12.635-1.715A2.948,2.948,0,0,0,195.527,208.931Z" transform="translate(-119.972 -82.401)"/><path class="d" d="M256.611,59.71h0L237.33,58.1a.361.361,0,0,1-.331-.4.368.368,0,0,1,.4-.331l19.28,1.612a.368.368,0,1,1,0,.736Z" transform="translate(-132.229 -42.556)"/><path class="d" d="M232.758,57.719h-.037l-2.554-.213a.368.368,0,0,1-.339-.4.383.383,0,0,1,.4-.339l2.561.213a.368.368,0,0,1,.331.4.361.361,0,0,1-.361.339Z" transform="translate(-130.336 -42.398)"/><path class="c" d="M217.531,177.453a.361.361,0,0,1-.3-.162l-18.4-26.4a.368.368,0,1,1,.6-.419l18.4,26.4a.375.375,0,0,1-.1.515A.346.346,0,0,1,217.531,177.453Z" transform="translate(-122.129 -67.098)"/><line class="c" x2="23.666" y2="2.068" transform="translate(61.647 96.174)"/><path class="b" d="M201.944,170.233h0l-23.666-2.068a.368.368,0,0,1-.339-.4.375.375,0,0,1,.4-.339l23.674,2.068a.375.375,0,0,1,.331.4.368.368,0,0,1-.4.339Z" transform="translate(-116.631 -71.624)"/><line class="c" x2="19.067" y2="1.722" transform="translate(60.109 100.42)"/><path class="b" d="M195.245,175.662h-.037l-19.06-1.715a.366.366,0,1,1,.066-.729l19.06,1.715a.368.368,0,0,1,.339.4.375.375,0,0,1-.368.331Z" transform="translate(-116.069 -73.153)"/><line class="c" x2="23.666" y2="2.068" transform="translate(107.419 55.67)"/><path class="b" d="M264.143,115.193h0l-23.674-2.068a.369.369,0,0,1,.066-.736l23.666,2.068a.375.375,0,0,1,.339.4.368.368,0,0,1-.4.338Z" transform="translate(-133.057 -57.087)"/><line class="c" x2="19.067" y2="1.715" transform="translate(105.881 59.924)"/><path class="b" d="M257.444,120.622h-.037l-19.067-1.715a.368.368,0,0,1-.331-.4.361.361,0,0,1,.4-.331l19.067,1.715a.361.361,0,0,1,.331.4A.368.368,0,0,1,257.444,120.622Z" transform="translate(-132.496 -58.616)"/><path class="c" d="M197.565,95.338l21.841,1.42a2.068,2.068,0,0,1,1.9,2.517l-3.488,13.246a2.752,2.752,0,0,1-2.877,2.156l-21.628-1.472a2.038,2.038,0,0,1-1.818-2.568l3.245-13.246a2.738,2.738,0,0,1,2.826-2.053Z" transform="translate(-120.193 -52.583)"/><path class="b" d="M215.032,114.9h-.265l-21.621-1.472a2.384,2.384,0,0,1-1.759-.971,2.517,2.517,0,0,1-.412-2.053l3.245-13.246a3.128,3.128,0,0,1,3.216-2.355l21.834,1.428a2.428,2.428,0,0,1,2.208,2.944l-3.5,13.246A3.12,3.12,0,0,1,215.032,114.9ZM197.224,95.549a2.392,2.392,0,0,0-2.267,1.8L191.719,110.6a1.751,1.751,0,0,0,.265,1.472,1.678,1.678,0,0,0,1.222.677l21.628,1.472a2.37,2.37,0,0,0,2.487-1.862l3.488-13.246a1.7,1.7,0,0,0-.294-1.369,1.737,1.737,0,0,0-1.273-.684L197.408,95.63h-.184Z" transform="translate(-120.057 -52.44)"/><path class="e" d="M207.416,112.834c.339-.258.662-.515.993-.736.927-.692,1.862-1.369,2.789-2.053.618-.449,1.229-.905,1.8-1.413a6.35,6.35,0,0,0,1.31-1.538,5.636,5.636,0,0,0,.515-1.236,7.633,7.633,0,0,0,.228-1.141,2.708,2.708,0,0,0-1.722-2.944,3.6,3.6,0,0,0-3.679.736,4.416,4.416,0,0,0-.736.736l-.044.052v-.074a3.179,3.179,0,0,0-1.288-1.428,3.054,3.054,0,0,0-1.707-.4,3.738,3.738,0,0,0-3.348,2.517,4.722,4.722,0,0,0-.213,1.141,4.842,4.842,0,0,0,0,1.222,3.989,3.989,0,0,0,.64,1.678,10.386,10.386,0,0,0,1.17,1.435c.64.677,1.3,1.339,1.943,2.024.434.464.861.942,1.3,1.42Z" transform="translate(-123.06 -54.183)"/><path class="c" d="M188.713,136.706l16.565,1.818a1.575,1.575,0,0,1,1.354,1.98l-3.1,9.942a2.083,2.083,0,0,1-2.252,1.538l-16.4-1.818a1.553,1.553,0,0,1-1.3-2.016l2.907-9.949A2.1,2.1,0,0,1,188.713,136.706Z" transform="translate(-118.103 -63.507)"/><path class="b" d="M201.4,152.249a2.09,2.09,0,0,1-.3,0l-16.4-1.832a1.906,1.906,0,0,1-1.369-.839,1.95,1.95,0,0,1-.236-1.634l2.944-9.957a2.487,2.487,0,0,1,2.62-1.751l16.558,1.818a1.98,1.98,0,0,1,1.406.839,1.958,1.958,0,0,1,.272,1.6l-3.105,9.964A2.473,2.473,0,0,1,201.4,152.249ZM188.34,136.935a1.729,1.729,0,0,0-1.626,1.229l-2.907,9.957a1.251,1.251,0,0,0,.14,1.03,1.207,1.207,0,0,0,.846.515l16.4,1.847a1.722,1.722,0,0,0,1.862-1.266l3.1-9.964a1.178,1.178,0,0,0-.169-.979,1.214,1.214,0,0,0-.883-.522l-16.55-1.818h0A.906.906,0,0,0,188.34,136.935Z" transform="translate(-117.973 -63.382)"/><path class="c" d="M234.181,127.995l22.945,2.325a1.531,1.531,0,0,1,1.472,1.869l-3.8,14.129a2.208,2.208,0,0,1-2.392,1.472l-22.93-2.944a1.472,1.472,0,0,1-1.347-1.854l3.768-13.555a2.149,2.149,0,0,1,2.281-1.442Z" transform="translate(-129.874 -61.205)"/><path class="b" d="M252.58,148.006a2.5,2.5,0,0,1-.331,0l-22.923-2.944a1.98,1.98,0,0,1-1.472-.846,1.737,1.737,0,0,1-.221-1.472l3.768-13.555a2.48,2.48,0,0,1,2.642-1.685l22.945,2.318a2.141,2.141,0,0,1,1.575.868,1.744,1.744,0,0,1,.243,1.472l-3.76,14.1A2.531,2.531,0,0,1,252.58,148.006Zm-18.743-19.788a1.774,1.774,0,0,0-1.693,1.163l-3.768,13.555a1.067,1.067,0,0,0,.125.861,1.258,1.258,0,0,0,.92.522l22.923,2.944a1.818,1.818,0,0,0,1.994-1.17l3.79-14.129a.993.993,0,0,0-.14-.854,1.384,1.384,0,0,0-1.038-.552l-22.945-2.325h-.169Z" transform="translate(-129.737 -61.075)"/><path class="e" d="M252.48,146.655l2.723.338,1.921-7.1-2.723-.3Z" transform="translate(-136.318 -64.271)"/><path class="e" d="M255.167,147.071h0l-2.723-.331a.118.118,0,0,1-.1-.147l1.921-7.065a.11.11,0,0,1,.125-.088l2.723.309a.11.11,0,0,1,.081.052.118.118,0,0,1,0,.088l-1.921,7.1A.118.118,0,0,1,255.167,147.071Zm-2.576-.552,2.487.309,1.862-6.873-2.487-.28Z" transform="translate(-136.283 -64.231)"/><path class="e" d="M249.213,138.057s-2.208-.809-2.8-2.208-.2-3.628-.53-3.782a1.56,1.56,0,0,0-1.7.574,5.768,5.768,0,0,0-.4,4.173s-2.944-.361-4.268-.508-1.877.964-1.236,1.516c0,0-1.082,0-.949.971s.5,1.045,1.082,1.119a.815.815,0,0,0-.736.795c0,.714.9.993.9.993a.8.8,0,0,0-.537,1.133c.4.839,1.81.935,5.151,1.141s4.5-.4,4.5-.4Z" transform="translate(-132.316 -62.268)"/><path class="e" d="M244.522,144.141c-.4,0-.854,0-1.361-.044-3.319-.206-4.835-.3-5.269-1.207a.89.89,0,0,1-.044-.736.986.986,0,0,1,.412-.434,1.236,1.236,0,0,1-.736-.993.8.8,0,0,1,.4-.736c-.4-.118-.648-.368-.736-1.141a.905.905,0,0,1,.191-.736,1.06,1.06,0,0,1,.64-.331.839.839,0,0,1-.074-.832,1.428,1.428,0,0,1,1.56-.736c1.126.125,3.444.4,4.1.486a5.774,5.774,0,0,1,.464-4.114,1.678,1.678,0,0,1,1.81-.611c.2.1.206.449.221,1.222a7.08,7.08,0,0,0,.361,2.62c.589,1.31,2.715,2.112,2.738,2.119a.118.118,0,0,1,.066.14l-1.472,5.549a.118.118,0,0,1-.051.066A8.076,8.076,0,0,1,244.522,144.141Zm-5.269-7.749a1.126,1.126,0,0,0-1.1.589.611.611,0,0,0,.169.736.1.1,0,0,1,0,.125.11.11,0,0,1-.1.074,1.052,1.052,0,0,0-.7.28.684.684,0,0,0-.14.567c.118.912.449.949.986,1.016a.118.118,0,0,1,.1.118.11.11,0,0,1-.1.11s-.655.088-.633.684.809.883.817.883a.14.14,0,0,1,.081.11.118.118,0,0,1-.081.11.92.92,0,0,0-.515.427.633.633,0,0,0,.044.545c.375.787,1.847.876,5.07,1.082a10.552,10.552,0,0,0,4.415-.368l1.472-5.4a5.459,5.459,0,0,1-2.767-2.208,7.189,7.189,0,0,1-.383-2.708,3.194,3.194,0,0,0-.088-1.023,1.472,1.472,0,0,0-1.553.545,5.7,5.7,0,0,0-.383,4.077.1.1,0,0,1,0,.11.118.118,0,0,1-.1.037s-2.944-.361-4.261-.508Z" transform="translate(-132.275 -62.243)"/><path class="c" d="M213.964,186.536l25.02,2.885a3.974,3.974,0,0,0,4.121-2.944l3.937-14.858a2.944,2.944,0,0,0-2.362-3.812l-25.087-3.194a4,4,0,0,0-4.231,3l-3.849,15.145a2.944,2.944,0,0,0,2.451,3.782Z" transform="translate(-125.465 -70.876)"/><path class="b" d="M239.181,189.69h-.419l-25.02-2.885h0a3.208,3.208,0,0,1-2.333-1.376,3.488,3.488,0,0,1-.464-2.863l3.849-15.145a4.415,4.415,0,0,1,4.636-3.267l25.087,3.186a3.186,3.186,0,0,1,2.252,1.376,3.591,3.591,0,0,1,.419,2.9l-3.937,14.858A4.415,4.415,0,0,1,239.181,189.69Zm-25.329-3.635,25.02,2.885a3.621,3.621,0,0,0,3.724-2.679L246.5,171.4a2.745,2.745,0,0,0-.324-2.3,2.421,2.421,0,0,0-1.729-1.052l-25.087-3.194a3.635,3.635,0,0,0-3.827,2.723l-3.849,15.145a2.767,2.767,0,0,0,.353,2.267,2.517,2.517,0,0,0,1.81,1.067Z" transform="translate(-125.316 -70.755)"/><path class="e" d="M225.79,178.7l8.831,7.182a1.266,1.266,0,0,0,1.913-.795l3.083-11.774a1.008,1.008,0,0,0-1.4-1.222l-11.936,4.614a1.222,1.222,0,0,0-.493,1.994Z" transform="translate(-129.182 -72.829)"/><path class="c" d="M237.575,95.246,264.008,98a2.031,2.031,0,0,0,2.046-1.59l4.3-17.661a1.42,1.42,0,0,0-1.2-1.869L242.778,74.67a2.009,2.009,0,0,0-1.957,1.56l-4.342,17.154a1.391,1.391,0,0,0,1.1,1.862Z" transform="translate(-132.069 -47.126)"/><path class="b" d="M242.375,74.388h.1L268.845,76.6a1.42,1.42,0,0,1,1.2,1.869l-4.3,17.661a2.06,2.06,0,0,1-1.891,1.6H263.7l-26.382-2.752a1.391,1.391,0,0,1-1.1-1.862l4.342-17.154a2.038,2.038,0,0,1,1.84-1.567m0-.736a2.782,2.782,0,0,0-2.554,2.119l-4.342,17.154a2.369,2.369,0,0,0,.309,1.943,1.943,1.943,0,0,0,1.428.832l26.426,2.752a1.3,1.3,0,0,0,.235,0,2.8,2.8,0,0,0,2.605-2.164l4.3-17.661a2.355,2.355,0,0,0-.339-1.935,2.038,2.038,0,0,0-1.509-.854L242.588,73.63Z" transform="translate(-131.814 -46.851)"/><path class="e" d="M254.014,90.192a.375.375,0,0,1-.3-.147L242.976,75.261a.375.375,0,0,1,.081-.515.368.368,0,0,1,.515.088l10.472,14.482,17.581-12.194a.375.375,0,0,1,.515.1.368.368,0,0,1-.1.515L254.2,90.126a.375.375,0,0,1-.184.066Z" transform="translate(-133.79 -47.127)"/><path class="e" d="M236.577,99.081a.368.368,0,0,1-.309-.162.375.375,0,0,1,.1-.515l13.04-8.426a.368.368,0,0,1,.508.1.375.375,0,0,1-.1.515l-13.025,8.426A.346.346,0,0,1,236.577,99.081Z" transform="translate(-132.021 -51.153)"/><path class="e" d="M272.273,102.256a.361.361,0,0,1-.287-.14l-8.654-10.781a.368.368,0,0,1,.059-.515.361.361,0,0,1,.515.059l8.654,10.781a.36.36,0,0,1-.052.515A.412.412,0,0,1,272.273,102.256Z" transform="translate(-139.164 -51.369)"/><path class="c" d="M163.9,140.518a31.643,31.643,0,0,1,7.278-9.478c4.827-4.173,7.72-7.2,6.2-8.029s-6.535,2.738-6.535,2.738l3.8-13.908s-8.367,5.512-10.744,10.2-7.065,14.578-7.065,14.578Z" transform="translate(-111.059 -56.942)"/><path class="b" d="M163.773,140.752a.368.368,0,0,1-.177-.044l-7.065-3.908a.368.368,0,0,1-.155-.478c.044-.1,4.717-9.942,7.072-14.578s10.516-10.119,10.862-10.347a.368.368,0,0,1,.559.4l-3.532,12.944c1.612-1.06,4.769-2.944,6.093-2.208a1.052,1.052,0,0,1,.589.846c.14,1.28-1.81,3.532-6.726,7.786a31.364,31.364,0,0,0-7.182,9.353.368.368,0,0,1-.221.2A.324.324,0,0,1,163.773,140.752Zm-6.586-4.415,6.424,3.547a32.621,32.621,0,0,1,7.2-9.258c1.641-1.413,6.623-5.733,6.483-7.146a.346.346,0,0,0-.213-.28c-.913-.5-4.143,1.288-6.145,2.715a.375.375,0,0,1-.574-.4l3.532-12.937c-2.149,1.516-7.918,5.806-9.787,9.493-2.127,4.165-6.1,12.562-6.917,14.254Z" transform="translate(-110.928 -56.809)"/><line class="c" x2="23.674" y2="2.068" transform="translate(80.118 26.801)"/><path class="b" d="M227.055,75.993h0l-23.666-2.068a.375.375,0,0,1-.339-.4.368.368,0,0,1,.4-.339l23.637,2.068a.368.368,0,0,1,0,.736Z" transform="translate(-123.263 -46.734)"/><line class="c" x2="19.067" y2="1.715" transform="translate(78.58 31.047)"/><path class="b" d="M220.357,81.38h0L201.29,79.665a.361.361,0,0,1-.331-.4.368.368,0,0,1,.4-.339l19.067,1.722a.368.368,0,1,1-.037.736Z" transform="translate(-122.711 -48.25)"/><path class="c" d="M156.735,81.35s4.982,8.213,3.827,9.832-4.761.375-4.761.375" transform="translate(-110.785 -48.89)"/><path class="b" d="M158.267,92.236a9.523,9.523,0,0,1-2.723-.471.387.387,0,1,1,.243-.736c.927.316,3.518.9,4.334-.243.736-.979-1.825-6.1-3.841-9.427a.368.368,0,0,1,.125-.508.375.375,0,0,1,.508.125c.854,1.406,5.048,8.507,3.8,10.236a2.885,2.885,0,0,1-2.451,1.023Z" transform="translate(-110.647 -48.745)"/><path class="c" d="M112.1,84.956c-3.679.066-6.881-1.236-10.876-3.679-1.133-.684-2.428-1.774-2.068-3.039a5.562,5.562,0,0,0,.456-1.266c0-.736-.736-1.236-1.332-1.678A6.549,6.549,0,0,1,100.6,63.7a7.9,7.9,0,0,1,4.732-13.459c-1.052.11,1.133-5.887,1.472-6.446a10.972,10.972,0,0,1,5.637-4.415,11.149,11.149,0,0,1,9.316,1.016,4.644,4.644,0,0,1,4.195-2.6,12.937,12.937,0,0,1,5.056,1.141c1.935.736,4.033,1.678,4.872,3.562a3.812,3.812,0,0,0,.589,1.141,3.209,3.209,0,0,0,1.472.677c5.828,1.818,6.991,10.59,2.988,14.32-.736.655-1.472.331-2.061,1.141a12.573,12.573,0,0,0-.64,2.708,25.925,25.925,0,0,1-2.046,4.791,46.64,46.64,0,0,1-6.623,8.831,28.185,28.185,0,0,1-11.347,7.72,19.53,19.53,0,0,1-6.115,1.126Z" transform="translate(-94.901 -37.388)"/><path class="b" d="M111.691,85.176c-3.3,0-6.454-1.089-10.773-3.724-2.267-1.376-2.465-2.642-2.208-3.459a3.451,3.451,0,0,1,.228-.552,1.619,1.619,0,0,0,.213-.626c0-.493-.515-.883-1.03-1.258l-.147-.11a6.917,6.917,0,0,1,1.854-12.1,8.271,8.271,0,0,1,4.783-13.555c-.184-1.582,1.567-6.034,1.774-6.365a11.333,11.333,0,0,1,5.836-4.585,11.509,11.509,0,0,1,9.272.839,5.2,5.2,0,0,1,4.342-2.443,13.15,13.15,0,0,1,5.2,1.163c1.98.736,4.165,1.729,5.07,3.76l.132.3a2.333,2.333,0,0,0,.39.736,2.369,2.369,0,0,0,1.067.508l.235.066a8.2,8.2,0,0,1,5.335,6.248c.736,3.326-.1,6.741-2.208,8.7a2.59,2.59,0,0,1-1.148.574,1.347,1.347,0,0,0-.876.508,4.9,4.9,0,0,0-.383,1.56,8.443,8.443,0,0,1-.2,1.038,25.928,25.928,0,0,1-2.1,4.835,47.171,47.171,0,0,1-6.7,8.831,28.508,28.508,0,0,1-11.495,7.815,19.869,19.869,0,0,1-6.159,1.229h-.3Zm-6.446-34.742a7.543,7.543,0,0,0-4.511,12.834.368.368,0,0,1,.1.361.375.375,0,0,1-.265.258,6.189,6.189,0,0,0-2.208,10.972l.147.1c.6.449,1.361,1,1.332,1.884a2.259,2.259,0,0,1-.287.913,3.68,3.68,0,0,0-.184.434c-.294,1.038.876,2,1.906,2.634,4.32,2.627,7.418,3.679,10.678,3.613h0a19.06,19.06,0,0,0,5.931-1.192,27.618,27.618,0,0,0,11.193-7.616,46.877,46.877,0,0,0,6.623-8.72,25.366,25.366,0,0,0,2.031-4.724,8.618,8.618,0,0,0,.177-.935,4.872,4.872,0,0,1,.515-1.877,2.06,2.06,0,0,1,1.273-.795,1.788,1.788,0,0,0,.839-.4c1.913-1.774,2.693-4.916,1.994-7.984a7.36,7.36,0,0,0-4.842-5.711l-.221-.074a2.855,2.855,0,0,1-1.391-.736,2.8,2.8,0,0,1-.545-.964.73.73,0,0,0-.118-.272c-.787-1.773-2.818-2.671-4.666-3.37a12.51,12.51,0,0,0-4.908-1.119,4.342,4.342,0,0,0-3.871,2.37.383.383,0,0,1-.228.213.419.419,0,0,1-.309,0,10.693,10.693,0,0,0-9-.979,10.553,10.553,0,0,0-5.446,4.276c-.331.537-1.884,5.048-1.685,5.887a.368.368,0,0,1-.052.721Z" transform="translate(-94.772 -37.24)"/><path class="c" d="M146.344,65.825a2.407,2.407,0,0,1,.692.574,7.241,7.241,0,0,1,1.472,3.621c.427,2.7-.081,5.446-.206,8.154q-.368,7.984-1.1,15.932c-.309,3.363-9.044,3.1-10.545,2.031l.861,13.371-18.074-7.742,1.177-10.987s5.939.272,9.611-6.468a24.02,24.02,0,0,0,2.208-6.461c.419-1.913,1.325-4.643,1.273-6.579a8.883,8.883,0,0,0-.567-2.539,3.216,3.216,0,0,0,2.392.228,2.149,2.149,0,0,0,1.1-1.472,6.454,6.454,0,0,0,.059-1.921,3.245,3.245,0,0,0,4.577-1.288c.2.839,1.222,1.126,2.075,1.258C144.563,65.715,145.476,65.354,146.344,65.825Z" transform="translate(-101.182 -44.381)"/><path class="b" d="M137.381,109.725a.331.331,0,0,1-.147,0l-18.074-7.742a.383.383,0,0,1-.221-.383l1.177-10.98a.375.375,0,0,1,.383-.331c.228,0,5.762.169,9.272-6.277a23.886,23.886,0,0,0,2.156-6.358c.118-.522.265-1.1.419-1.707a19.7,19.7,0,0,0,.846-4.791,8.25,8.25,0,0,0-.552-2.428.368.368,0,0,1,.478-.464,2.944,2.944,0,0,0,2.112.243,1.774,1.774,0,0,0,.9-1.251,5.887,5.887,0,0,0,.052-1.8.361.361,0,0,1,.184-.346.375.375,0,0,1,.39,0,2.885,2.885,0,0,0,4.025-1.185.375.375,0,0,1,.368-.213.361.361,0,0,1,.324.28c.118.493.692.809,1.773.986a7.218,7.218,0,0,0,1.3.052,3.5,3.5,0,0,1,1.847.294h0a2.833,2.833,0,0,1,.795.655,7.4,7.4,0,0,1,1.538,3.834,24.284,24.284,0,0,1,0,5.887c-.066.78-.132,1.56-.169,2.333-.243,5.306-.618,10.67-1.1,15.947a2.714,2.714,0,0,1-1.891,2.208,14.582,14.582,0,0,1-8.617.361l.817,12.753a.375.375,0,0,1-.155.324A.383.383,0,0,1,137.381,109.725Zm-17.661-8.345,17.242,7.433-.817-12.775a.383.383,0,0,1,.191-.346.375.375,0,0,1,.39,0c.986.736,5.931,1.052,8.507-.125a2.18,2.18,0,0,0,1.472-1.641c.486-5.269.861-10.619,1.1-15.91,0-.787.1-1.582.177-2.37a23.547,23.547,0,0,0,0-5.711,6.748,6.748,0,0,0-1.369-3.444,2.288,2.288,0,0,0-.581-.486,2.841,2.841,0,0,0-1.472-.206,7.566,7.566,0,0,1-1.435-.059,3.51,3.51,0,0,1-2.031-.89,3.679,3.679,0,0,1-4.158,1.177,5.453,5.453,0,0,1-.1,1.376,2.532,2.532,0,0,1-1.31,1.751,2.8,2.8,0,0,1-1.972,0,7.146,7.146,0,0,1,.361,1.943,19.815,19.815,0,0,1-.868,5c-.155.6-.3,1.17-.412,1.678a24.7,24.7,0,0,1-2.208,6.557c-3.223,5.887-8.249,6.623-9.6,6.623Z" transform="translate(-101.049 -44.231)"/><path class="c" d="M139.8,82.207a7.29,7.29,0,0,0-1.354-3.679,10.214,10.214,0,0,0-1.832-2.487A3.51,3.51,0,0,0,133.8,75a3.275,3.275,0,0,0-2.149,1.567,6.248,6.248,0,0,0-.736,2.612,11.414,11.414,0,0,0,4.872,10.3l-.28-.331" transform="translate(-104.203 -47.208)"/><path class="b" d="M135.616,89.781a.375.375,0,0,1-.206-.066,11.848,11.848,0,0,1-5.033-10.663,6.527,6.527,0,0,1,.817-2.774,3.562,3.562,0,0,1,2.406-1.737,3.819,3.819,0,0,1,3.113,1.067,10.458,10.458,0,0,1,1.9,2.568,7.656,7.656,0,0,1,1.406,3.908.375.375,0,0,1-.375.361.368.368,0,0,1-.361-.375,7.609,7.609,0,0,0-1.3-3.518,9.986,9.986,0,0,0-1.759-2.4,3.15,3.15,0,0,0-2.524-.9,2.885,2.885,0,0,0-1.9,1.4,5.74,5.74,0,0,0-.736,2.458,11.1,11.1,0,0,0,4.18,9.567.368.368,0,0,1,.324.125l.28.331a.368.368,0,0,1,0,.486.383.383,0,0,1-.228.162Z" transform="translate(-104.06 -47.085)"/><path class="c" d="M114.21,117.4l1.8-5.814,23.4,2.259,1.347,5.343S128.523,125.005,114.21,117.4Z" transform="translate(-99.8 -56.876)"/><path class="b" d="M129.428,121.524a32.836,32.836,0,0,1-15.5-3.93.368.368,0,0,1-.177-.434l1.788-5.814a.368.368,0,0,1,.383-.258l23.409,2.267a.368.368,0,0,1,.324.272L141,118.971a.361.361,0,0,1-.2.419,29.148,29.148,0,0,1-11.37,2.134Zm-14.9-4.415a31.253,31.253,0,0,0,25.668,1.759l-1.207-4.783-22.849-2.208Z" transform="translate(-99.675 -56.744)"/><ellipse class="b" cx="0.751" cy="1.906" rx="0.751" ry="1.906" transform="translate(43.765 27.36) rotate(-0.9)"/><path class="f" d="M100.053,215.344s-11.222-74.885-1.383-88.749c5.534-7.8,14.453-8.095,22.614-7.712,6.336.28,11.951-.2,16.845,3.679,11.178,8.941,27.508,88.447,27.508,88.447S141.506,227.854,100.053,215.344Z" transform="translate(-94.629 -58.775)"/><path class="c" d="M0,0H2.907V10.854a1.369,1.369,0,0,1-1.369,1.369H1.369A1.369,1.369,0,0,1,0,10.854Z" transform="matrix(0.95, -0.312, 0.312, 0.95, 80.076, 54.846)"/><path class="b" d="M208,122.905a1.737,1.737,0,0,1-1.656-1.2l-3.385-10.3a.368.368,0,0,1,.235-.464l2.73-.949a.368.368,0,0,1,.28,0,.375.375,0,0,1,.184.213l3.385,10.3a1.722,1.722,0,0,1-.1,1.325,1.751,1.751,0,0,1-1.008.868l-.162.052A1.715,1.715,0,0,1,208,122.905Zm-4.231-11.392,3.275,9.964a1.008,1.008,0,0,0,1.266.64l.162-.052h0a1.052,1.052,0,0,0,.581-.5.986.986,0,0,0,.052-.736l-3.267-9.964Z" transform="translate(-123.236 -56.446)"/><rect class="c" width="4.695" height="10.619" transform="matrix(0.95, -0.312, 0.312, 0.95, 76.2, 45.906)"/><path class="b" d="M201.358,109.407a.434.434,0,0,1-.169,0,.375.375,0,0,1-.184-.213L197.693,99.1a.368.368,0,0,1,.236-.464l4.459-1.472a.338.338,0,0,1,.28,0,.353.353,0,0,1,.184.213l3.311,10.089a.368.368,0,0,1,0,.28.375.375,0,0,1-.213.184l-4.46,1.472ZM198.51,99.186l3.083,9.39,3.76-1.236-3.091-9.39Z" transform="translate(-121.844 -53.06)"/><rect class="c" width="4.695" height="18.464" rx="2.25" transform="translate(81.612 63.287) rotate(-18.072)"/><path class="b" d="M212.631,139.786a2.031,2.031,0,0,1-1.921-1.391L205.963,124a2.031,2.031,0,0,1,1.288-2.561l1.31-.427a2.024,2.024,0,0,1,2.554,1.288l4.732,14.4a2.024,2.024,0,0,1-1.288,2.554l-1.317.427a1.868,1.868,0,0,1-.611.1Zm-3.415-18.14a1.3,1.3,0,0,0-.4.066l-1.31.427a1.288,1.288,0,0,0-.817,1.626l4.724,14.4a1.288,1.288,0,0,0,.648.736,1.258,1.258,0,0,0,.979.074l1.31-.427h0a1.28,1.28,0,0,0,.736-.648,1.258,1.258,0,0,0,.074-.979l-4.732-14.394a1.288,1.288,0,0,0-1.207-.883Z" transform="translate(-124.006 -59.338)"/><circle class="c" cx="12.459" cy="12.459" r="12.459" transform="translate(65.12 30.127)"/><path class="b" d="M195.462,103.333a12.827,12.827,0,1,1,3.989-.64A12.827,12.827,0,0,1,195.462,103.333Zm0-24.917a11.958,11.958,0,0,0-3.76.6,12.091,12.091,0,1,0,3.76-.6Z" transform="translate(-117.868 -47.92)"/><circle class="c" cx="10.119" cy="10.119" r="10.119" transform="translate(67.46 32.468)"/><path class="b" d="M196.294,101.832a10.486,10.486,0,1,1,9.957-13.761h0a10.487,10.487,0,0,1-9.957,13.761Zm0-20.244a9.758,9.758,0,1,0,9.258,6.733h0a9.765,9.765,0,0,0-9.3-6.733Z" transform="translate(-118.708 -48.76)"/><path class="c" d="M197.71,143.883l.493-3.679c0-.155.25-11.509,1.229-12.385s13.68-10.089,14.571-8.831-.89,3.628-.89,3.628,2.98-.3,2.679,1.472a8.338,8.338,0,0,1-2.083,3.576s1.825-1.339,2.1.6a3.209,3.209,0,0,1-1.214,2.988s2.686-1.192,2.09,1.038-7.131,7.9-7.131,7.9l-.787,4.857Z" transform="translate(-121.853 -58.799)"/><path class="b" d="M208.666,145.342h-.037l-11.038-1.177h-.066c-.3-.088-.3-.088.147-3.407l.088-.655c0-.066.191-11.568,1.354-12.621.736-.677,12.164-9.051,14.534-9.051h.1a.662.662,0,0,1,.486.265c.736,1.038,0,2.59-.493,3.451a2.988,2.988,0,0,1,2.009.684,1.472,1.472,0,0,1,.339,1.251,6.763,6.763,0,0,1-1.28,2.7,1.31,1.31,0,0,1,.5.088,1.472,1.472,0,0,1,.8,1.273,3.481,3.481,0,0,1-.486,2.362,1.226,1.226,0,0,1,1.347,1.81c-.581,2.208-6.277,7.241-7.146,8l-.736,4.724A.375.375,0,0,1,208.666,145.342Zm-10.648-1.869,10.347,1.1.736-4.511a.346.346,0,0,1,.118-.221c1.8-1.553,6.549-5.968,7.02-7.712.1-.4.1-.7,0-.809-.258-.213-1.067,0-1.553.191a.361.361,0,0,1-.471-.155.353.353,0,0,1,.11-.478,2.826,2.826,0,0,0,1.06-2.627c-.044-.272-.132-.6-.361-.7-.361-.155-.979.206-1.17.346a.368.368,0,0,1-.493-.059.375.375,0,0,1,0-.5,7.893,7.893,0,0,0,1.987-3.378.677.677,0,0,0-.147-.626c-.456-.486-1.7-.478-2.134-.442a.375.375,0,0,1-.361-.184.353.353,0,0,1,0-.4c.449-.6,1.472-2.355.89-3.194-1.251-.375-12.746,7.749-14.026,8.9-.736.736-1.111,10.251-1.111,12.113a3.847,3.847,0,0,1-.1.736c-.088.655-.265,1.95-.346,2.576Z" transform="translate(-121.749 -58.683)"/><path class="f" d="M148.081,123.92s7.153,4.327,12.51,14.24,13.32,34.425,13.32,34.425l4.585-31.224,15.638,3.525s1.339,55.928-12.51,62.22-49.253-32.644-49.253-32.644Z" transform="translate(-104.597 -60.133)"/><path class="b" d="M178.184,217.365h-.1c-.074,0-7.793-2.333-16.734-10.612-8.227-7.624-19.229-22.018-24.91-47.318a.377.377,0,0,1,.736-.162c10.781,48.032,40.827,57.3,41.129,57.4a.372.372,0,1,1-.1.736Z" transform="translate(-105.668 -69.392)"/><path class="g" d="M197.369,98.5c.243-.184.478-.375.736-.552l2.024-1.472c.449-.331.89-.655,1.31-1.03a4.871,4.871,0,0,0,.949-1.111,4.118,4.118,0,0,0,.368-.9,4.628,4.628,0,0,0,.169-.832,1.95,1.95,0,0,0-1.244-2.119,2.627,2.627,0,0,0-2.664.515,3.509,3.509,0,0,0-.515.53h0v-.052a2.362,2.362,0,0,0-.935-1.038,2.208,2.208,0,0,0-1.244-.287,2.686,2.686,0,0,0-2.428,1.825,3.615,3.615,0,0,0-.155.824,3.992,3.992,0,0,0,0,.89,2.944,2.944,0,0,0,.471,1.214,7.616,7.616,0,0,0,.846,1.045c.464.486.942.971,1.406,1.472.324.339.633.684.942,1.03Z" transform="translate(-120.798 -51.215)"/><path class="c" d="M154.168,99.325,150.157,97s-1.222,4.82.957,6.064S154.168,99.325,154.168,99.325Z" transform="translate(-109.204 -53.023)"/><path class="b" d="M151.659,103.485a1.7,1.7,0,0,1-.861-.25c-2.392-1.361-1.185-6.262-1.133-6.468a.383.383,0,0,1,.213-.25.375.375,0,0,1,.331,0l4.025,2.355a.375.375,0,0,1,.177.383c-.066.346-.648,3.4-2.119,4.092A1.471,1.471,0,0,1,151.659,103.485Zm-1.383-6.056c-.294,1.472-.522,4.364.89,5.151a.832.832,0,0,0,.809.074c.876-.412,1.472-2.333,1.648-3.3Z" transform="translate(-109.072 -52.885)"/><path class="b" d="M140.028,106.339s-5.836-1.56-7.778-3.429a40.7,40.7,0,0,0,7.911,7.146Z" transform="translate(-104.565 -54.584)"/><path class="b" d="M140.02,110.293a.317.317,0,0,1-.2-.059,41.27,41.27,0,0,1-8.021-7.219.368.368,0,0,1,.537-.5c1.854,1.781,7.565,3.326,7.624,3.341a.361.361,0,0,1,.272.338l.155,3.679a.368.368,0,0,1-.184.339A.42.42,0,0,1,140.02,110.293Zm-5.814-5.74a37.722,37.722,0,0,0,5.416,4.666l-.118-2.73a35.9,35.9,0,0,1-5.276-1.935Z" transform="translate(-104.424 -54.453)"/></g></g></svg>