<svg xmlns="http://www.w3.org/2000/svg" width="240" height="240" viewBox="0 0 240 240"><defs><style>.a{fill:#ececec;}.b{fill:#a3acfc;}.c{fill:#231f20;}.d{fill:#656565;}.e{fill:#fff;}.f{fill:#d1d3d4;}</style></defs><g transform="translate(-247 -1812)"><circle class="a" cx="120" cy="120" r="120" transform="translate(247 1812)"/><g transform="translate(282.623 1854.064)"><path class="b" d="M243.234,88.14H158.22v66.519H265.509V108.7C265.509,97.363,255.533,88.14,243.234,88.14Z" transform="translate(-94.655 -60.265)"/><path class="c" d="M265.431,154.945H158.142a.38.38,0,0,1-.372-.38v-66.5a.372.372,0,0,1,.372-.372h85.014c12.49,0,22.656,9.4,22.656,20.96v45.931A.389.389,0,0,1,265.431,154.945Zm-106.908-.761H265.051V108.625c0-11.142-9.818-20.207-21.895-20.207H158.523Z" transform="translate(-94.577 -60.187)"/><path class="d" d="M175.84,109.525v45.1H131.29v-45.1A21.416,21.416,0,0,1,152.7,88.11h1.9a21.431,21.431,0,0,1,19.851,13.772,19.22,19.22,0,0,1,.777,2.481h0a1.067,1.067,0,0,1,.058.256,20.983,20.983,0,0,1,.546,4.9Z" transform="translate(-89.999 -60.26)"/><path class="c" d="M175.754,154.989H131.2a.422.422,0,0,1-.414-.414V109.438A21.837,21.837,0,0,1,152.618,87.61h1.9a21.853,21.853,0,0,1,20.215,14.061,18.884,18.884,0,0,1,.827,2.481h0a1.463,1.463,0,0,1,.066.331,20.792,20.792,0,0,1,.571,4.9V154.5a.414.414,0,0,1-.447.488Zm-44.136-.827H175.34V109.438a20.513,20.513,0,0,0-.554-4.773.961.961,0,0,0,0-.2v-.091h0a20.438,20.438,0,0,0-.811-2.382,21.042,21.042,0,0,0-19.454-13.507h-1.894a20.968,20.968,0,0,0-21.009,20.952Z" transform="translate(-89.913 -60.174)"/><path class="e" d="M131.3,168.56H175.84v39.471a20.3,20.3,0,0,1-20.3,20.3h-3.954a20.3,20.3,0,0,1-20.3-20.3V168.56Z" transform="translate(-89.999 -74.166)"/><path class="c" d="M155.464,228.63h-3.945a20.679,20.679,0,0,1-20.679-20.679V168.48a.389.389,0,0,1,.38-.38h44.542a.389.389,0,0,1,.38.38v39.471A20.679,20.679,0,0,1,155.464,228.63Zm-23.871-59.786v39.091a19.942,19.942,0,0,0,19.926,19.918h3.945a19.934,19.934,0,0,0,19.918-19.918V168.844Z" transform="translate(-89.922 -74.087)"/><path class="f" d="M166.844,212.117h-22.01a.414.414,0,1,1,0-.827h22.01a.414.414,0,0,1,0,.827Z" transform="translate(-92.269 -81.552)"/><circle class="e" cx="4.26" cy="4.26" r="4.26" transform="translate(105.493 52.821)"/><path class="c" d="M213.089,127.111a4.64,4.64,0,1,1,4.632-4.632A4.64,4.64,0,0,1,213.089,127.111Zm0-8.511a3.879,3.879,0,1,0,3.879,3.879A3.879,3.879,0,0,0,213.089,118.6Z" transform="translate(-103.335 -65.397)"/><path class="c" d="M213.98,107.651a.389.389,0,0,1-.38-.38V54.862a.38.38,0,0,1,.38-.372.372.372,0,0,1,.372.372V107.27a.38.38,0,0,1-.372.38Z" transform="translate(-104.227 -54.449)"/><path class="e" d="M229.718,58.9,214.06,65.949V54.94h15.658Z" transform="translate(-104.307 -54.526)"/><path class="c" d="M213.974,66.276a.414.414,0,0,1-.223-.066.4.4,0,0,1-.19-.347V54.854a.414.414,0,0,1,.414-.414H229.64a.422.422,0,0,1,.414.414v3.954a.422.422,0,0,1-.248.38l-15.666,7.047A.381.381,0,0,1,213.974,66.276Zm.414-11.009v9.926l14.831-6.675V55.209Zm15.253,3.54Z" transform="translate(-104.22 -54.44)"/><rect class="e" width="17.949" height="4.285" transform="translate(100.713 94.394)"/><path class="c" d="M221,173.137H203.05a.38.38,0,0,1-.38-.372V168.48a.389.389,0,0,1,.38-.38H221a.389.389,0,0,1,.38.38v4.285a.38.38,0,0,1-.38.372Zm-17.569-.753h17.188v-3.54H203.431Z" transform="translate(-102.338 -74.087)"/><path class="e" d="M206.62,233.7V173.74h10.8V233.7" transform="translate(-103.021 -75.062)"/><path class="c" d="M217.342,234a.38.38,0,0,1-.372-.38V174.066H206.912V233.62a.38.38,0,1,1-.753,0V173.66a.38.38,0,0,1,.38-.381h10.8a.381.381,0,0,1,.381.381v59.96A.38.38,0,0,1,217.342,234Z" transform="translate(-102.94 -74.982)"/><path class="c" d="M206.62,183.1l10.8,7.949V173.74h-10.8Z" transform="translate(-103.021 -75.062)"/><path class="c" d="M217.336,191.379a.414.414,0,0,1-.24-.074l-10.811-7.949a.422.422,0,0,1-.165-.331v-9.372a.414.414,0,0,1,.414-.414h10.8a.414.414,0,0,1,.414.414v17.312a.405.405,0,0,1-.223.372A.38.38,0,0,1,217.336,191.379Zm-10.389-8.569,9.975,7.345V174.067h-9.975Z" transform="translate(-102.934 -74.975)"/><path class="f" d="M162.579,136H162.5l-.827-.149a.419.419,0,0,1,.141-.827l.827.141a.422.422,0,0,1,.331.488.405.405,0,0,1-.4.347Z" transform="translate(-95.192 -68.369)"/><path class="f" d="M94.793,163.425a.4.4,0,0,1-.165,0,.414.414,0,0,1-.215-.546c.223-.513.463-1.017.711-1.522a.405.405,0,0,1,.554-.182.414.414,0,0,1,.19.554c-.248.488-.48.984-.695,1.481A.414.414,0,0,1,94.793,163.425Zm1.489-2.961a.455.455,0,0,1-.207-.058.422.422,0,0,1-.157-.562c.281-.488.571-.968.877-1.439a.414.414,0,0,1,.695.447c-.3.463-.579.926-.827,1.4a.405.405,0,0,1-.38.19Zm1.795-2.8a.455.455,0,0,1-.248-.074.422.422,0,0,1-.091-.579c.331-.455.67-.9,1.026-1.332a.412.412,0,1,1,.645.513c-.347.43-.678.827-1,1.307A.405.405,0,0,1,98.077,157.668Zm18.073-.058h0a5.268,5.268,0,0,1-1.737-.438.415.415,0,1,1,.331-.761,4.294,4.294,0,0,0,1.464.372.415.415,0,1,1-.058.827Zm1.654-.2a.418.418,0,1,1-.124-.827,3.2,3.2,0,0,0,1.249-.728.414.414,0,0,1,.587,0,.422.422,0,0,1,0,.587,4.036,4.036,0,0,1-1.588.926Zm-4.649-1.075a.38.38,0,0,1-.265-.091,7.363,7.363,0,0,1-1.216-1.266.422.422,0,0,1,.083-.579.405.405,0,0,1,.579.083,6.955,6.955,0,0,0,1.075,1.125.384.384,0,0,1-.273.695Zm6.816-1.2h-.066a.422.422,0,0,1-.347-.471,1.968,1.968,0,0,0,0-.38,3.21,3.21,0,0,0-.19-1.051.436.436,0,0,1,.827-.273,4.21,4.21,0,0,1,.232,1.323,3.678,3.678,0,0,1,0,.513.414.414,0,0,1-.471.339Zm-19.794-.041a.455.455,0,0,1-.281-.108.414.414,0,0,1,0-.587c.372-.414.769-.827,1.166-1.216a.415.415,0,0,1,.579.6c-.389.38-.769.769-1.133,1.175a.413.413,0,0,1-.347.141Zm10.993-1.381a.414.414,0,0,1-.38-.24,7.146,7.146,0,0,1-.521-1.654.42.42,0,1,1,.827-.149,6.169,6.169,0,0,0,.455,1.489.414.414,0,0,1-.207.546.422.422,0,0,1-.19.008Zm-8.611-.935a.414.414,0,0,1-.265-.728c.438-.364.885-.72,1.34-1.034a.405.405,0,0,1,.571.1.414.414,0,0,1-.1.579c-.43.3-.827.637-1.282.993a.4.4,0,0,1-.281.091ZM119,152.052a.405.405,0,0,1-.331-.165,5.549,5.549,0,0,0-1.009-1.009l-.091-.066a.414.414,0,0,1-.083-.579.422.422,0,0,1,.579-.091l.1.074a6.236,6.236,0,0,1,1.158,1.175.405.405,0,0,1-.323.662Zm-13.731-1.175a.405.405,0,0,1-.364-.215.422.422,0,0,1,.157-.562,15.363,15.363,0,0,1,1.522-.761.414.414,0,0,1,.331.753c-.48.215-.968.455-1.447.728a.347.347,0,0,1-.215.058Zm5.335-.364h0a.422.422,0,0,1-.389-.438,9.5,9.5,0,0,1,.29-1.712.414.414,0,0,1,.5-.3.43.43,0,0,1,.3.3.405.405,0,0,1,.29-.124h.265a11.935,11.935,0,0,1,1.448.083.422.422,0,0,1,.364.463.414.414,0,0,1-.463.356,12.061,12.061,0,0,0-1.348-.074h-.248a.43.43,0,0,1-.38-.223,8.677,8.677,0,0,0-.19,1.29A.414.414,0,0,1,110.608,150.513Zm5.79-.447a.447.447,0,0,1-.182,0,8.827,8.827,0,0,0-1.481-.562.428.428,0,1,1,.223-.827,10.586,10.586,0,0,1,1.654.62.414.414,0,0,1,.19.546.422.422,0,0,1-.405.19Zm-8.1-.48a.405.405,0,0,1-.4-.3.414.414,0,0,1,.273-.513,11.62,11.62,0,0,1,1.654-.38.419.419,0,0,1,.132.827,12.606,12.606,0,0,0-1.563.364Zm3.135-2.3a.446.446,0,0,1-.174,0,.414.414,0,0,1-.207-.546,11.582,11.582,0,0,1,.827-1.505.414.414,0,1,1,.7.438,12.291,12.291,0,0,0-.761,1.406A.405.405,0,0,1,111.435,147.288Zm1.745-2.812a.422.422,0,0,1-.256-.091.414.414,0,0,1-.066-.587c.339-.43.72-.827,1.117-1.274a.415.415,0,1,1,.6.579,16.027,16.027,0,0,0-1.067,1.216.43.43,0,0,1-.339.157Zm2.622-2.539-.323-.265-.273-.314c.463-.4.877-.736,1.3-1.067a.414.414,0,0,1,.579.074.405.405,0,0,1-.074.579c-.422.323-.827.645-1.224.993Zm2.308-1.869a.43.43,0,0,1-.347-.182.422.422,0,0,1,.116-.579c.463-.314.935-.612,1.423-.893a.414.414,0,0,1,.562.141.422.422,0,0,1-.141.571q-.7.414-1.39.868a.38.38,0,0,1-.24.074Zm2.854-1.654a.422.422,0,0,1-.372-.223.414.414,0,0,1,.182-.554c.5-.256,1.009-.5,1.522-.728a.422.422,0,0,1,.546.215.414.414,0,0,1-.215.546c-.5.215-.993.455-1.472.7a.53.53,0,0,1-.207.008Zm3.036-1.34a.42.42,0,0,1-.149-.827c.521-.2,1.05-.38,1.588-.554a.414.414,0,0,1,.521.265.422.422,0,0,1-.273.521c-.521.165-1.034.347-1.547.538a.273.273,0,0,1-.157.025Zm3.151-1.026a.405.405,0,0,1-.4-.3.422.422,0,0,1,.289-.513c.538-.141,1.084-.281,1.654-.4a.414.414,0,0,1,.5.314.405.405,0,0,1-.314.488c-.538.124-1.067.248-1.6.4Zm21.423-.629h-.066l-1.654-.232a.405.405,0,0,1-.356-.455.422.422,0,0,1,.463-.364l1.654.232a.415.415,0,1,1-.058.827Zm-18.2-.091a.415.415,0,0,1-.074-.827c.546-.1,1.1-.182,1.654-.265a.422.422,0,0,1,.471.356.414.414,0,0,1-.356.463l-1.654.256Zm14.889-.339h-.05l-1.654-.157a.415.415,0,0,1,.066-.827c.554.041,1.108.091,1.654.157a.414.414,0,0,1,.364.455.405.405,0,0,1-.381.339Zm-11.58-.116a.414.414,0,1,1-.041-.827c.554-.058,1.117-.108,1.654-.141a.4.4,0,0,1,.438.389.414.414,0,0,1-.38.438c-.554,0-1.1.083-1.654.132Zm8.271-.149h0c-.546,0-1.1-.05-1.654-.066a.414.414,0,0,1-.405-.422.438.438,0,0,1,.422-.405,13.631,13.631,0,0,1,1.654.066.422.422,0,0,1,.4.438.414.414,0,0,1-.414.356Zm-4.963-.066a.414.414,0,0,1,0-.827h1.654a.414.414,0,0,1,.414.414.405.405,0,0,1-.405.414H137Z" transform="translate(-83.619 -68.163)"/><path class="f" d="M93.684,172.133h-.132a.414.414,0,0,1-.256-.521c.091-.265.182-.529.281-.827a.415.415,0,0,1,.778.29q-.149.389-.273.769A.414.414,0,0,1,93.684,172.133Z" transform="translate(-83.428 -74.505)"/><path class="f" d="M150.1,121.044a.422.422,0,0,1-.405-.339.414.414,0,0,1,.331-.48,4.226,4.226,0,0,0,.744-.232.414.414,0,0,1,.538.232.422.422,0,0,1-.232.538,5.213,5.213,0,0,1-.869.248Z" transform="translate(-93.18 -65.766)"/><path class="f" d="M141.794,116.173h0a10.082,10.082,0,0,1-1.654-.323.427.427,0,1,1,.215-.827,9.5,9.5,0,0,0,1.538.289.414.414,0,0,1,.372.455.405.405,0,0,1-.471.405Zm-3.168-.827a.422.422,0,0,1-.141,0l-1.538-.554a.414.414,0,1,1,.281-.778l1.538.554a.419.419,0,0,1-.141.827Zm-3.077-1.108a.422.422,0,0,1-.141,0l-1.538-.579a.405.405,0,0,1-.24-.529.414.414,0,0,1,.538-.24l1.53.571a.414.414,0,0,1,.24.529.4.4,0,0,1-.389.248Zm-3.044-1.15a.339.339,0,0,1-.157,0c-.5-.2-1.017-.405-1.522-.62a.422.422,0,0,1-.223-.538.43.43,0,0,1,.546-.223c.5.215,1,.414,1.505.612a.414.414,0,0,1,.232.538A.405.405,0,0,1,132.5,113.087Zm-3.019-1.266a.373.373,0,0,1-.165,0l-1.5-.687a.414.414,0,0,1-.2-.554.422.422,0,0,1,.554-.2c.488.24.976.463,1.472.678a.422.422,0,1,1-.165.827Zm-2.953-1.406a.381.381,0,0,1-.19-.05c-.488-.248-.976-.5-1.456-.778a.405.405,0,0,1-.157-.562.414.414,0,0,1,.562-.157c.471.265.951.521,1.431.769a.405.405,0,0,1,.174.554.414.414,0,0,1-.372.223Zm-2.854-1.6a.488.488,0,0,1-.215-.058c-.471-.289-.935-.587-1.4-.893a.414.414,0,0,1-.108-.579.405.405,0,0,1,.571-.108q.67.447,1.365.827a.414.414,0,0,1-.215.769Zm-2.754-1.828a.389.389,0,0,1-.248-.083l-.5-.38c-.273-.207-.546-.422-.827-.645a.414.414,0,0,1,.529-.637,9.421,9.421,0,0,0,.827.629l.488.372a.414.414,0,0,1-.248.744Zm-2.481-2.093a.422.422,0,0,1-.281-.116,15.736,15.736,0,0,1-1.175-1.175.405.405,0,0,1,0-.579.414.414,0,0,1,.587,0c.364.389.744.769,1.141,1.133a.414.414,0,0,1,0,.587A.405.405,0,0,1,118.443,104.9Zm-2.242-2.382a.4.4,0,0,1-.314-.149,14.9,14.9,0,0,1-1.026-1.307.422.422,0,0,1,.091-.579.414.414,0,0,1,.579.091c.314.43.645.827.984,1.266a.422.422,0,0,1-.05.587A.447.447,0,0,1,116.2,102.516Zm-1.919-2.647a.422.422,0,0,1-.356-.19c-.3-.471-.579-.959-.827-1.448a.414.414,0,0,1,.736-.38,15.34,15.34,0,0,0,.827,1.39.414.414,0,0,1-.132.571.4.4,0,0,1-.223.058Zm-1.53-2.887a.414.414,0,0,1-.38-.248q-.339-.786-.6-1.563a.414.414,0,1,1,.778-.265c.165.5.364,1,.579,1.5a.422.422,0,0,1-.215.546.587.587,0,0,1-.165.033Zm-1.042-3.1a.405.405,0,0,1-.4-.314A16.467,16.467,0,0,1,111,91.912a.405.405,0,0,1,.356-.463.414.414,0,0,1,.463.347c.074.521.174,1.05.3,1.572a.422.422,0,0,1-.306.5Z" transform="translate(-86.491 -60.837)"/><path class="f" d="M111.233,90.119a.414.414,0,0,1-.414-.4V88.9a.389.389,0,0,1,.414-.405.414.414,0,0,1,.414.414v.827a.414.414,0,0,1-.4.43Z" transform="translate(-86.461 -60.326)"/><path class="e" d="M111.646,72.992A15.947,15.947,0,0,0,115.84,55.06s-5.79.149-7.684,6.907S111.646,72.992,111.646,72.992Z" transform="translate(-85.931 -54.547)"/><path class="f" d="M111.562,73.32a.372.372,0,0,1-.256-.091c-.058,0-5.55-4.508-3.639-11.456s8.015-7.213,8.081-7.213a.43.43,0,0,1,.4.273,16.477,16.477,0,0,1-4.326,18.4A.372.372,0,0,1,111.562,73.32Zm3.912-17.908c-1.175.132-5.467.984-7.006,6.617a10.412,10.412,0,0,0,3.094,10.364A15.368,15.368,0,0,0,115.474,55.412Z" transform="translate(-85.846 -54.461)"/><path class="f" d="M113.073,77.2a.422.422,0,0,1-.389-.265c-3.309-8.917,3.2-21.613,3.474-22.151a.422.422,0,0,1,.562-.174.414.414,0,0,1,.174.554c-.066.132-6.617,12.912-3.433,21.506a.405.405,0,0,1-.24.529.472.472,0,0,1-.149,0Z" transform="translate(-86.622 -54.461)"/><path class="e" d="M99.376,178.43a15.956,15.956,0,0,1,4.194,17.932s-5.79-.141-7.684-6.907S99.376,178.43,99.376,178.43Z" transform="translate(-83.81 -75.872)"/><path class="f" d="M103.488,196.689h0c-.058,0-6.154-.232-8.073-7.213s3.573-11.415,3.631-11.456a.414.414,0,0,1,.521,0,16.493,16.493,0,0,1,4.318,18.4A.414.414,0,0,1,103.488,196.689Zm-4.194-17.8A10.315,10.315,0,0,0,96.2,189.253c1.547,5.6,5.84,6.46,7.006,6.617a15.6,15.6,0,0,0-3.912-16.981Z" transform="translate(-83.728 -75.786)"/><path class="f" d="M104.264,195.879a.414.414,0,0,1-.364-.223c-.281-.538-6.758-13.234-3.474-22.151a.415.415,0,0,1,.778.289c-3.16,8.577,3.366,21.357,3.433,21.506a.414.414,0,0,1-.182.554.38.38,0,0,1-.19.025Z" transform="translate(-84.504 -74.975)"/><path class="e" d="M100.294,117.007a15.956,15.956,0,0,1-18.4.687s1.249-5.682,8.271-6.22S100.294,117.007,100.294,117.007Z" transform="translate(-81.46 -64.293)"/><path class="f" d="M90.488,120.617a16.865,16.865,0,0,1-8.908-2.655.405.405,0,0,1-.182-.438c0-.066,1.4-6,8.619-6.551s10.521,5.691,10.554,5.79a.405.405,0,0,1-.1.5,16.89,16.89,0,0,1-9.984,3.35Zm-8.205-3.2a15.36,15.36,0,0,0,17.37-.6,10.314,10.314,0,0,0-9.57-5C84.293,112.238,82.63,116.291,82.283,117.416Z" transform="translate(-81.373 -64.206)"/><path class="f" d="M103.868,119.754a.4.4,0,0,1-.215-.058c-7.808-4.74-21.6-.778-21.737-.736a.429.429,0,0,1-.232-.827c.579-.165,14.268-4.136,22.4.827a.414.414,0,0,1-.215.761Z" transform="translate(-81.371 -65.163)"/></g></g></svg>